<?xml version="1.0" standalone="no"?>
<!DOCTYPE svg PUBLIC "-//W3C//DTD SVG 1.1//EN" "http://www.w3.org/Graphics/SVG/1.1/DTD/svg11.dtd" >
<svg xmlns="http://www.w3.org/2000/svg" xmlns:xlink="http://www.w3.org/1999/xlink" version="1.1">
<metadata></metadata>
<defs>
<font id="ufes_sanssemibold" horiz-adv-x="1310" >
<font-face units-per-em="2048" ascent="1638" descent="-410" />
<missing-glyph horiz-adv-x="478" />
<glyph unicode="&#xfb01;" horiz-adv-x="1218" d="M37 919v183h144v67q0 197 123.5 304.5t368.5 107.5q55 0 108.5 -8t102.5 -22t93.5 -32t82.5 -38l-46 -185q-31 15 -68.5 29t-79.5 24.5t-86.5 17t-89.5 6.5q-135 0 -194 -51t-59 -153v-67h212v-183h-212v-919h-256v919h-144zM814 0v1102h256v-1102h-256z" />
<glyph unicode="&#xfb03;" horiz-adv-x="1866" d="M37 919v183h144v111q0 89 24.5 157.5t71.5 115.5t114.5 71t153.5 24q34 0 68.5 -6t77.5 -15l-24 -181q-21 4 -42.5 7t-47.5 3q-69 0 -105 -46.5t-36 -127.5v-113h393v67q0 197 123.5 304.5t368.5 107.5q55 0 108.5 -8t102.5 -22t93.5 -32t82.5 -38l-46 -185 q-31 15 -68.5 29t-79.5 24.5t-86.5 17t-89.5 6.5q-135 0 -194 -51t-59 -153v-67h212v-183h-212v-919h-256v919h-393v-919h-255v919h-144zM1462 0v1102h256v-1102h-256z" />
<glyph horiz-adv-x="0" />
<glyph unicode="&#xd;" horiz-adv-x="478" />
<glyph horiz-adv-x="16" />
<glyph unicode="&#x9;" horiz-adv-x="16" />
<glyph unicode=" "  horiz-adv-x="478" />
<glyph unicode="&#x09;" horiz-adv-x="478" />
<glyph unicode="&#xa0;" horiz-adv-x="478" />
<glyph unicode="!" horiz-adv-x="557" d="M133 1456h289l-52 -1045h-184zM152 0v230h252v-230h-252z" />
<glyph unicode="&#x22;" horiz-adv-x="707" d="M105 1330v230h193v-230l-41 -281h-110zM409 1330v230h193v-230l-40 -281h-110z" />
<glyph unicode="#" horiz-adv-x="1170" d="M65 410v154h231l53 320h-214v156h240l69 416h170l-69 -416h186l69 416h171l-69 -416h193v-156h-219l-53 -320h203v-154h-228l-68 -410h-171l68 410h-186l-67 -410h-171l68 410h-206zM467 564h185l54 320h-187z" />
<glyph unicode="$" horiz-adv-x="1056" d="M83 143l105 165q65 -58 146.5 -91.5t161.5 -33.5q55 0 96.5 18.5t69.5 47t42 63t14 66.5q0 42 -13 78t-41 66.5t-72.5 56.5t-108.5 49q-123 45 -196 98.5t-111 111t-49.5 117t-11.5 115.5q0 70 21 134.5t61 117t98.5 90t132.5 53.5v222h216v-221q48 -9 89 -26t76 -37.5 t65.5 -43t56.5 -44.5l-104 -164q-26 23 -58.5 45t-67.5 39t-72 27.5t-71 10.5q-47 0 -82 -17t-59 -43.5t-36 -60t-12 -66.5q0 -26 6.5 -54.5t30.5 -58t70.5 -59t126.5 -57.5q111 -39 182.5 -88.5t113 -108t57.5 -125t16 -139.5q0 -66 -23 -129.5t-65.5 -117t-103.5 -94 t-136 -59.5v-209h-216v198q-58 7 -107 22t-91 36t-78 46.5t-69 53.5z" />
<glyph unicode="%" horiz-adv-x="1421" d="M74 1119v37q1 74 23.5 133.5t62 101t94.5 64t121 22.5q67 0 122.5 -23t95.5 -65.5t61.5 -101.5t21.5 -131v-37q0 -73 -22.5 -132t-62 -100.5t-94.5 -64t-120 -22.5q-68 0 -124 22.5t-95.5 64t-61.5 100.5t-22 132zM204 0l838 1456h177l-838 -1456h-177zM262 1119 q0 -80 29 -126.5t86 -46.5q54 0 82 47.5t28 125.5v37q0 77 -28.5 125.5t-83.5 48.5q-29 0 -50 -13t-35 -36t-21 -55t-7 -70v-37zM745 298v37q1 74 23.5 133.5t62 101t94.5 64t121 22.5q67 0 122.5 -23t95.5 -65.5t61.5 -101.5t21.5 -131v-37q0 -73 -22.5 -132t-62 -100.5 t-94.5 -64t-120 -22.5q-68 0 -124 22.5t-95.5 64t-61.5 100.5t-22 132zM933 298q0 -80 29 -126.5t86 -46.5q54 0 82 47.5t28 125.5v37q0 77 -28.5 125.5t-83.5 48.5q-29 0 -50 -13t-35 -36t-21 -55t-7 -70v-37z" />
<glyph unicode="&#x26;" horiz-adv-x="1420" d="M75 362q0 56 14.5 105.5t37.5 91.5t52 76.5t58.5 61.5t56 46.5t44.5 31.5q-40 52 -67 97t-43.5 86t-23.5 78.5t-7 73.5q0 63 21 128t67 118.5t117.5 87t172.5 33.5q64 0 117 -15.5t91.5 -34.5t60.5 -35.5t24 -17.5l-85 -165q-5 3 -22 14t-43.5 22.5t-60.5 21t-71 9.5 q-48 0 -78 -17.5t-47.5 -42t-23.5 -51.5t-6 -47q0 -29 8.5 -57.5t26 -60.5t45 -70t65.5 -85l345 -426q26 47 44.5 101t26.5 116h-128v200h573v-200h-240q-11 -107 -50 -202t-96 -175l210 -259h-293l-81 99q-81 -57 -174 -88.5t-196 -31.5q-92 0 -172.5 25t-140.5 74 t-94.5 120.5t-34.5 163.5zM322 390q0 -54 18.5 -93.5t49 -65.5t70 -38.5t81.5 -12.5q58 0 114 18.5t107 54.5l-304 374q-19 -14 -42.5 -36t-44.5 -51t-35 -66.5t-14 -83.5z" />
<glyph unicode="'" horiz-adv-x="403" d="M105 1330v230h193v-227l-41 -284h-110z" />
<glyph unicode="(" horiz-adv-x="628" d="M69 679q0 157 28 301t85.5 268.5t145.5 228t208 180.5l58 -157q-72 -58 -126 -148t-90 -199.5t-54 -231.5t-18 -244q0 -170 24.5 -312t65 -252.5t92.5 -187t106 -115.5l-58 -157q-116 78 -203.5 190t-146 246t-88 284.5t-29.5 305.5z" />
<glyph unicode=")" horiz-adv-x="628" d="M34 -190q54 39 105.5 115.5t92 187t65 252.5t24.5 312q0 122 -17.5 244t-53.5 231.5t-90 199.5t-126 148l58 157q120 -77 208 -180.5t145.5 -228t85.5 -268.5t28 -301q0 -155 -29.5 -305.5t-88 -284.5t-146 -246t-203.5 -190z" />
<glyph unicode="*" horiz-adv-x="885" d="M44 1064l51 163l281 -121l-15 350h171l-17 -357l275 121l51 -165l-288 -93l188 -270l-138 -102l-167 292l-164 -284l-138 98l193 276z" />
<glyph unicode="+" horiz-adv-x="1200" d="M130 574v224h348v408h245v-408h347v-224h-347v-428h-245v428h-348z" />
<glyph unicode="," horiz-adv-x="567" d="M99 -292q17 79 33 158l32 158v208h232v-216l-146 -308h-151z" />
<glyph unicode="-" horiz-adv-x="690" d="M91 522v199h508v-199h-508z" />
<glyph unicode="." horiz-adv-x="596" d="M171 0v236h254v-236h-254z" />
<glyph unicode="/" horiz-adv-x="909" d="M49 -125l561 1581h245l-560 -1581h-246z" />
<glyph unicode="0" horiz-adv-x="1125" d="M112 665v119q0 182 31 313t89 215.5t141.5 124.5t188.5 40q103 0 186.5 -40t142 -125t90.5 -216t32 -312v-118q0 -180 -31.5 -310t-89.5 -214t-141.5 -123.5t-186.5 -39.5q-106 0 -190 39.5t-142 123.5t-89 213.5t-31 309.5zM368 647q0 -134 13 -224t37.5 -144t61.5 -77 t85 -23q47 -1 83 22.5t60 78t36.5 145t12.5 223.5v165q0 132 -13 220.5t-37.5 142.5t-61 76.5t-84.5 22.5q-48 1 -84 -22.5t-60 -77.5t-36.5 -143t-12.5 -219v-166z" />
<glyph unicode="1" horiz-adv-x="895" d="M75 1346l402 110h123v-1257h238v-199h-751v199h258v1005l-244 -23z" />
<glyph unicode="2" horiz-adv-x="958" d="M34 0v170l306 382q44 59 91.5 124t86.5 131t64 130.5t25 122.5q0 51 -14 91t-39.5 67.5t-60 41.5t-74.5 14q-54 0 -100 -13.5t-81.5 -32t-60 -37.5t-36.5 -29l-85 167q15 12 46.5 37t81.5 49.5t117.5 43t154.5 18.5q100 0 176 -27t127.5 -77t77.5 -123t26 -164 q0 -70 -23.5 -143t-68 -153.5t-110 -169.5t-149.5 -191l-182 -230h559v-199h-855z" />
<glyph unicode="3" horiz-adv-x="1015" d="M34 117l85 166q19 -18 54.5 -37t79.5 -34t91.5 -24.5t89.5 -9.5q112 0 172 62t60 171q0 119 -55.5 178t-163.5 59h-158v196h158q101 0 149.5 56.5t48.5 160.5q0 49 -13 89t-39.5 68t-66 43.5t-93.5 15.5q-42 -1 -84.5 -10.5t-80.5 -24.5t-69 -34t-50 -37l-85 166 q16 15 50 39t85 46t119.5 38t152.5 16q95 0 174 -25t135.5 -75t88 -124.5t31.5 -174.5q0 -51 -14 -100t-40.5 -91.5t-65 -77t-87.5 -57.5q57 -21 100 -55.5t71.5 -79t42.5 -98t14 -113.5q0 -100 -33 -179t-93 -134t-143.5 -84t-185.5 -29q-84 0 -156.5 16t-128.5 38 t-94 45.5t-53 38.5z" />
<glyph unicode="4" horiz-adv-x="1112" d="M46 325v159l578 972h260v-932h157v-199h-157v-325h-255v325h-583zM288 524h341v576z" />
<glyph unicode="5" horiz-adv-x="1035" d="M46 126l94 157q65 -46 145.5 -75t157.5 -29q51 0 96 15t79 47.5t53 84t19 125.5q0 78 -22 129t-58 81t-83 42t-99 12q-54 0 -109.5 -10t-103.5 -23l-102 84l61 690h722v-200h-511l-39 -373q45 9 86.5 13t80.5 4q96 0 175.5 -26.5t136 -81.5t87.5 -139.5t31 -201.5 q0 -110 -32.5 -197t-92 -148.5t-142.5 -94t-185 -32.5q-87 0 -161 17t-131 40t-96 48t-57 42z" />
<glyph unicode="6" horiz-adv-x="1110" d="M112 652v116q0 181 36.5 314t103.5 221t160 131t206 43q75 0 150.5 -15.5t141.5 -45.5l-41 -190q-30 13 -56 22.5t-52 15.5t-54.5 9t-62.5 3q-63 0 -114.5 -30t-87.5 -86.5t-55.5 -138.5t-18.5 -186q15 23 41.5 45.5t60.5 40.5t74.5 29t83.5 11q96 0 171 -34.5t126.5 -98 t79 -153.5t27.5 -200q0 -108 -33.5 -199t-93 -157t-141.5 -103t-178 -37q-107 0 -194.5 37t-149.5 118t-96 209t-34 309zM368 642q0 -137 13 -226t39.5 -142t67 -74t96.5 -21q42 0 77.5 22.5t61 62t40 94t14.5 117.5q0 66 -13.5 119.5t-39 91t-62 58t-82.5 20.5 q-38 0 -70.5 -10t-59.5 -27t-48 -39t-34 -46z" />
<glyph unicode="7" horiz-adv-x="965" d="M11 1256v200h923v-200q-117 -141 -195 -285t-127 -297.5t-73 -320t-33 -353.5h-257q17 213 53.5 393.5t92 334t129 284t163.5 244.5h-676z" />
<glyph unicode="8" horiz-adv-x="1107" d="M94 396q0 59 16.5 112t47 98t75 80.5t100.5 59.5q-99 45 -153 129.5t-54 196.5q0 97 32.5 172t90 127t135.5 79t169 27q93 0 171.5 -28t136 -80t89.5 -127.5t32 -169.5q0 -112 -56 -196.5t-153 -129.5q55 -24 99 -59.5t75.5 -80.5t48.5 -98t17 -112q0 -103 -35.5 -181 t-97.5 -130.5t-145.5 -79t-179.5 -26.5q-101 0 -185.5 27.5t-145.5 80.5t-95.5 130.5t-34.5 178.5zM350 410q0 -54 15 -97t42.5 -73t65 -45.5t82.5 -15.5q43 0 80 15.5t64.5 45.5t43 73t15.5 97q0 53 -16 96.5t-43.5 75t-65 48.5t-80.5 17q-44 0 -81.5 -17t-64.5 -48.5 t-42 -75t-15 -96.5zM382 1061q0 -49 12.5 -89t35.5 -68t54.5 -43t70.5 -15q37 0 68.5 15t54 43t35 67.5t12.5 89.5q0 47 -12.5 86t-35.5 67.5t-54.5 44.5t-69.5 16t-69.5 -15t-54 -43t-35 -67.5t-12.5 -88.5z" />
<glyph unicode="9" horiz-adv-x="1110" d="M77 980q0 108 33.5 199.5t93.5 157.5t142 103t178 37q107 0 194 -37.5t149 -118.5t96 -208.5t34 -308.5v-117q0 -180 -36.5 -313.5t-103.5 -221t-160 -130.5t-206 -43q-75 0 -150 15t-141 45l40 190q30 -13 56 -22t52.5 -15t54.5 -9t63 -3q63 0 114.5 30t87.5 86.5 t55.5 138.5t18.5 186q-18 -26 -45 -49t-60.5 -40t-72.5 -27t-82 -10q-96 0 -171 34.5t-127 98t-79.5 153t-27.5 199.5zM333 980q0 -66 13.5 -119.5t39 -91t62 -57.5t82.5 -20q37 0 70 10t60 26.5t47.5 38.5t34.5 47q0 136 -13 225.5t-39.5 142t-67 73.5t-96.5 21 q-42 0 -77.5 -22.5t-61 -62t-40 -94t-14.5 -117.5z" />
<glyph unicode=":" horiz-adv-x="595" d="M171 0v236h254v-236h-254zM171 843v236h254v-236h-254z" />
<glyph unicode=";" horiz-adv-x="575" d="M108 -292q17 79 33 158l32 158v208h232v-216l-146 -308h-151zM149 843v236h254v-236h-254z" />
<glyph unicode="&#x3c;" horiz-adv-x="1045" d="M111 628v199l787 369v-242l-495 -208l-84 -18v-6l85 -19l494 -203v-242z" />
<glyph unicode="=" horiz-adv-x="1164" d="M174 353v203h816v-203h-816zM174 779v203h816v-203h-816z" />
<glyph unicode="&#x3e;" horiz-adv-x="1060" d="M146 258v240l509 207l85 18v6l-84 19l-510 208v240l802 -369v-199z" />
<glyph unicode="?" horiz-adv-x="894" d="M29 1328q14 12 44 37t78.5 50t115.5 43.5t155 18.5q101 0 179 -28.5t131 -80t80.5 -123.5t27.5 -159q0 -68 -18.5 -128t-50.5 -114.5t-75 -105.5t-92 -99q-27 -26 -42 -51t-22.5 -51.5t-9.5 -57t-2 -68.5h-256q1 67 6 111.5t20 80.5t43 70.5t76 80.5q34 34 65 69.5 t53.5 73.5t36 79.5t13.5 86.5t-13 83.5t-37.5 66.5t-59.5 44t-78 16q-46 0 -88.5 -11t-79.5 -27.5t-66.5 -35.5t-48.5 -36zM272 0v230h258v-230h-258z" />
<glyph unicode="@" horiz-adv-x="2142" d="M117 522q0 130 24.5 255.5t75.5 238.5t130 209t187 165.5t246.5 109t309.5 39.5q220 0 393.5 -64t294 -186t184 -300.5t63.5 -407.5q0 -74 -11 -152.5t-35 -153.5t-62 -142t-91 -117t-122 -79.5t-156 -29.5q-75 0 -129 18t-90.5 45t-58.5 58.5t-33 59.5 q-46 -60 -107.5 -90t-142.5 -30q-98 0 -171 41t-121 111.5t-72 163.5t-24 197v77q1 113 25 213.5t72 176t121 119.5t172 44q87 0 153 -39.5t112 -111.5l26 131h212v-848q0 -75 29 -110.5t68 -35.5q42 0 75.5 36t57 100.5t36 153.5t12.5 194q0 172 -44.5 313.5t-131.5 241.5 t-214.5 155t-293.5 55q-168 0 -300.5 -61.5t-224.5 -171t-140.5 -261t-48.5 -330.5q0 -183 45.5 -329t129 -248t202.5 -156.5t266 -54.5q48 0 97.5 11t91 25t71 27.5t38.5 18.5l83 -158q-18 -14 -60.5 -34t-100 -38.5t-125 -32t-134.5 -13.5q-179 0 -335.5 65.5t-273 190.5 t-183.5 308t-67 418zM854 481q0 -72 12.5 -130.5t38 -99t63 -62.5t88.5 -22q32 0 59 10t49.5 27t40.5 39.5t32 47.5v492q-14 26 -31.5 49t-40 40.5t-49.5 27.5t-58 10q-56 0 -94.5 -31t-63 -81t-35.5 -113t-11 -127v-77z" />
<glyph unicode="A" horiz-adv-x="1217" d="M7 0l475 1456h256l472 -1456h-267l-100 336h-471l-101 -336h-264zM429 536h358l-153 526l-24 96h-6l-24 -97z" />
<glyph unicode="B" horiz-adv-x="1260" d="M171 0v1456h452q105 0 195 -22.5t156.5 -70.5t104.5 -123t38 -180q0 -103 -52 -179.5t-149 -114.5q62 -15 108.5 -49t78 -80.5t47.5 -102.5t16 -115q0 -101 -32.5 -179.5t-94 -131.5t-151 -80.5t-202.5 -27.5h-515zM427 198h259q111 0 168 58t57 163q0 53 -12 96.5 t-37 74.5t-63.5 48t-90.5 17h-281v-457zM427 839h216q103 1 160.5 53.5t57.5 150.5q0 109 -60 161t-178 52h-196v-417z" />
<glyph unicode="C" horiz-adv-x="1101" d="M105 647v105q0 175 36.5 310t107 227t174 140t236.5 48q79 0 142 -15t111.5 -37t82.5 -46.5t54 -43.5l-85 -166q-23 18 -54 36.5t-68.5 33.5t-79 24.5t-83.5 9.5q-69 0 -127.5 -27.5t-100.5 -84.5t-66 -144.5t-24 -207.5v-124q0 -131 23.5 -226.5t66 -157t102.5 -91 t133 -29.5q42 0 82.5 9.5t77 24.5t67 33.5t53.5 36.5l85 -164q-19 -19 -53 -43.5t-83 -46.5t-113 -37t-143 -15q-123 0 -224.5 40.5t-175 123.5t-114 208.5t-40.5 295.5z" />
<glyph unicode="D" horiz-adv-x="1312" d="M171 0v1456h404q143 0 260 -43.5t200 -129t128 -212t45 -293.5v-102q0 -155 -42 -280t-120.5 -213t-191.5 -135.5t-254 -47.5h-429zM427 198h151q100 0 171.5 35.5t116.5 99t66 151t21 192.5v104q0 107 -21.5 194.5t-67 150t-116.5 97t-170 34.5h-151v-1058z" />
<glyph unicode="E" horiz-adv-x="1166" d="M171 0v1456h903v-200h-647v-404h557v-199h-557v-454h656v-199h-912z" />
<glyph unicode="F" horiz-adv-x="1087" d="M171 0v1456h884v-200h-628v-437h529v-199h-529v-620h-256z" />
<glyph unicode="G" horiz-adv-x="1282" d="M105 653v107q0 175 43 309t120.5 225t186 137t239.5 46q87 0 159 -16t128.5 -38.5t98 -48t67.5 -43.5l-85 -166q-96 56 -180.5 83.5t-173.5 28.5q-72 0 -135.5 -28t-111 -87t-74.5 -150.5t-27 -218.5v-115q0 -132 20 -227t59 -155.5t95.5 -89.5t129.5 -29q94 0 155 26.5 t91 68.5v287h-247v183h503v-538q-29 -44 -75 -84.5t-108.5 -71.5t-142.5 -50t-176 -19q-277 0 -418 173t-141 501z" />
<glyph unicode="H" horiz-adv-x="1418" d="M171 0v1456h256v-639h564v639h255v-1456h-255v618h-564v-618h-256z" />
<glyph unicode="I" horiz-adv-x="604" d="M174 0v1456h256v-1456h-256z" />
<glyph unicode="J" horiz-adv-x="934" d="M-15 147l104 160q19 -21 47.5 -43.5t62 -41t71 -30t75.5 -11.5q48 0 83 21t57.5 55.5t33.5 79.5t11 93v1026h255v-1026q0 -110 -29 -194t-82.5 -141t-128 -86.5t-164.5 -29.5q-73 0 -133.5 15.5t-109.5 40t-87 54.5t-66 58z" />
<glyph unicode="K" horiz-adv-x="1241" d="M171 0v1456h256v-620h115l383 620h307l-2 -4q-2 -3 -15.5 -22t-41.5 -60t-80 -116.5t-132 -192t-197 -285.5q126 -194 212.5 -326.5t142.5 -219t86.5 -133t44.5 -68t16 -25.5l3 -4h-312l-351 568q-12 20 -23.5 33.5t-24 21t-27 10.5t-32.5 3h-72v-636h-256z" />
<glyph unicode="L" horiz-adv-x="1042" d="M171 0v1456h256v-1257h594v-199h-850z" />
<glyph unicode="M" horiz-adv-x="1711" d="M171 0v1456h335l349 -1110h6l348 1110h330v-1456h-255v499l24 576l-6 1l-363 -1076h-170l-360 1072l-6 -1l23 -572v-499h-255z" />
<glyph unicode="N" horiz-adv-x="1417" d="M171 0v1456h256l578 -1058l6 2l-20 565v491h255v-1456h-255l-580 1059l-6 -2l22 -563v-494h-256z" />
<glyph unicode="O" d="M105 656v97q0 176 36.5 311.5t106.5 227t171.5 138.5t231.5 47q134 0 237.5 -45.5t174 -132.5t106.5 -213.5t36 -287.5v-142q0 -166 -40.5 -292.5t-113.5 -212t-175 -129t-224 -43.5t-222.5 43.5t-172.5 129t-112 212t-40 292.5zM360 702q0 -266 70 -394t222 -128 q142 0 219.5 119.5t77.5 373.5v127q0 120 -20.5 209.5t-59.5 148t-94 87.5t-124 29q-142 0 -216.5 -120.5t-74.5 -370.5v-81z" />
<glyph unicode="P" horiz-adv-x="1217" d="M171 0v1456h506q117 0 211.5 -31.5t161 -90t102 -142t35.5 -187.5q0 -108 -37 -193.5t-104 -145t-161 -91t-208 -31.5h-250v-544h-256zM427 744h250q66 0 114 19.5t79 54t46 81t15 99.5q0 54 -15 101.5t-46.5 82t-79.5 54.5t-113 20h-250v-512z" />
<glyph unicode="Q" d="M105 656v97q0 176 36.5 311.5t106.5 227t171.5 138.5t231.5 47q134 0 237.5 -45.5t174 -132.5t106.5 -213.5t36 -287.5v-142q0 -247 -90.5 -411t-267.5 -236l-181 -74q45 -3 89 -23q42 -19 75 -44.5t65.5 -49t69 -39.5t84.5 -16q22 0 46.5 4t54.5 13l47 -185 q-50 -17 -92.5 -24.5t-80.5 -7.5q-55 0 -100 13.5t-84 33.5t-73.5 43.5t-67.5 43.5t-67 33.5t-72 13.5q-36 0 -77 -15.5t-91 -53.5l-60 185l206 130q-98 18 -178 69.5t-136.5 135.5t-87.5 199.5t-31 261.5zM360 702q0 -266 70 -394t222 -128q142 0 219.5 119.5t77.5 373.5 v127q0 120 -20.5 209.5t-59.5 148t-94 87.5t-124 29q-142 0 -216.5 -120.5t-74.5 -370.5v-81z" />
<glyph unicode="R" horiz-adv-x="1249" d="M171 0v1455h487q112 0 203 -27t155.5 -80.5t99.5 -133t35 -183.5q0 -51 -15.5 -109.5t-50 -112.5t-89 -98t-132.5 -66l338 -645h-289l-252 539q-12 25 -33.5 42.5t-59.5 17.5h-141v-599h-256zM427 798h212q128 0 192.5 60.5t64.5 163.5q0 51 -16 93.5t-46 74t-74.5 49 t-101.5 17.5h-231v-458z" />
<glyph unicode="S" horiz-adv-x="1119" d="M74 148l105 165q33 -29 76 -53t91 -41t98 -26.5t96 -9.5q57 0 101.5 14.5t76 40t48 61.5t16.5 79q0 45 -13.5 79.5t-44.5 62.5t-81.5 51.5t-124.5 47.5q-126 41 -206 88.5t-125 103.5t-61.5 121t-16.5 140q0 88 34.5 162.5t94.5 128.5t141.5 84t174.5 30 q85 0 153.5 -15.5t123 -40t97 -54.5t76.5 -58l-104 -165q-75 64 -161 96.5t-167 32.5q-52 0 -91.5 -14t-65.5 -39.5t-39.5 -61t-13.5 -77.5q0 -41 13 -73t44.5 -59t84.5 -51t134 -50q120 -39 197 -87t121.5 -106t61.5 -125.5t17 -144.5q0 -85 -34.5 -159t-97.5 -128.5 t-150.5 -86t-193.5 -31.5q-78 0 -149.5 14t-133 37t-113 53.5t-89.5 63.5z" />
<glyph unicode="T" horiz-adv-x="1046" d="M7 1256v200h1031v-200h-388v-1256h-256v1256h-387z" />
<glyph unicode="U" horiz-adv-x="1351" d="M149 470v986h255v-986q0 -147 72 -220t197 -73q64 0 114.5 17.5t86 53.5t54.5 91.5t19 130.5v986h255v-986q0 -120 -40.5 -212t-111.5 -154t-167.5 -93.5t-209.5 -31.5q-116 0 -212.5 32.5t-165.5 95t-107.5 154t-38.5 209.5z" />
<glyph unicode="V" horiz-adv-x="1201" d="M8 1456h274l298 -1084l19 -92h6l21 92l300 1084h267l-465 -1456h-256z" />
<glyph unicode="W" horiz-adv-x="1681" d="M33 1456h254l173 -883l25 -205h6l32 204l223 884h193l225 -884l33 -204h6l24 204l172 884h248l-314 -1456h-237l-227 882l-26 169h-6l-26 -169l-227 -882h-236z" />
<glyph unicode="X" horiz-adv-x="1159" d="M7 0l412 736l-402 720h299l261 -542l259 542h296l-403 -720l423 -736h-310l-271 547l-267 -547h-297z" />
<glyph unicode="Y" horiz-adv-x="1135" d="M-19 1456h286l303 -700l306 700h278l-462 -940v-516h-256v531z" />
<glyph unicode="Z" horiz-adv-x="1041" d="M40 0v141l638 1115h-637v200h944v-137l-641 -1121h659v-198h-963z" />
<glyph unicode="[" horiz-adv-x="653" d="M171 -347v2004h388v-177h-161v-1651h161v-176h-388z" />
<glyph unicode="\" horiz-adv-x="909" d="M54 1456h245l561 -1581h-246z" />
<glyph unicode="]" horiz-adv-x="653" d="M94 -172h161v1650h-161v177h388v-2004h-388v177z" />
<glyph unicode="^" horiz-adv-x="871" d="M67 729l276 727h183l276 -727h-206l-152 424l-8 36h-6l-8 -36l-148 -424h-207z" />
<glyph unicode="_" horiz-adv-x="978" d="M67 0h843v-195h-843v195z" />
<glyph unicode="`" horiz-adv-x="717" d="M44 1551h330l259 -332h-200z" />
<glyph unicode="a" horiz-adv-x="1056" d="M65 307q0 81 29 144.5t85 108t138 68t188 23.5h149v109q0 87 -41 128t-126 41q-44 0 -85.5 -8.5t-79 -22t-70.5 -31t-60 -35.5l-74 158q30 22 73 45t96.5 42.5t117.5 32t136 12.5q79 0 146.5 -23.5t117 -69.5t77.5 -114t28 -156v-480q0 -32 2.5 -55.5t9 -42t17.5 -33.5 t28 -28l-105 -141q-26 4 -54.5 18t-54 34.5t-45.5 47t-29 55.5q-48 -70 -125.5 -112.5t-168.5 -42.5q-76 0 -135.5 23.5t-100.5 66.5t-62.5 103.5t-21.5 134.5zM320 315q0 -63 33.5 -102t95.5 -39q33 0 64.5 10t58.5 27t48 39.5t34 47.5v195h-142q-47 0 -83 -13t-60 -37 t-36.5 -56.5t-12.5 -71.5z" />
<glyph unicode="b" horiz-adv-x="1136" d="M147 0l1 1559h255v-568q45 63 106 96.5t142 33.5q93 0 165.5 -41t123 -114.5t76.5 -174.5t26 -221v-74q0 -117 -26 -212.5t-76 -163.5t-122 -105t-165 -37q-90 0 -156.5 41t-111.5 113l-29 -132h-209zM403 302q27 -54 74 -88.5t111 -34.5q54 0 92 25t62 69.5t34.5 104.5 t10.5 130v62q0 67 -12 130t-36.5 112t-63 78.5t-91.5 29.5q-62 0 -108 -32.5t-73 -88.5v-497z" />
<glyph unicode="c" horiz-adv-x="940" d="M94 515v71q0 117 31 215t90 169.5t144 111.5t192 40q65 0 117.5 -10t95 -27t77 -40.5t63.5 -51.5l-82 -157q-49 42 -104.5 64.5t-124.5 22.5q-56 0 -101 -27t-76.5 -74t-48.5 -110t-18 -135v-44q0 -81 17 -147t48.5 -112.5t76.5 -71.5t102 -25q69 0 124.5 22.5 t104.5 64.5l81 -154q-26 -26 -59 -49.5t-76 -41.5t-96.5 -29t-120.5 -11q-107 0 -192 38.5t-144 109t-90 169.5t-31 219z" />
<glyph unicode="d" horiz-adv-x="1145" d="M94 519v21q0 75 10 147.5t30 137t51.5 119t75 94t100 62t127.5 22.5q78 0 138.5 -33.5t106.5 -96.5v567h255v-1292q0 -31 3.5 -53t10.5 -38.5t17.5 -29.5t25.5 -26l-104 -141q-21 2 -48 13.5t-53.5 31.5t-49 47.5t-32.5 61.5q-51 -73 -116 -113.5t-159 -40.5 q-102 0 -175.5 43t-121 116.5t-70 172t-22.5 208.5zM350 519q0 -163 50 -252t151 -89q60 0 106 37t76 91v483q-15 27 -34.5 51t-42 42t-49 28t-54.5 10q-59 0 -98.5 -36t-62.5 -91.5t-32.5 -122.5t-9.5 -130v-21z" />
<glyph unicode="e" horiz-adv-x="1053" d="M94 493v65q0 117 27.5 219.5t83.5 179t140.5 121t199.5 44.5q102 0 180.5 -33.5t131 -96t79.5 -152t27 -201.5v-160h-552q-15 0 -29.5 0.5t-29.5 -0.5q1 -60 17.5 -115.5t48.5 -97.5t78 -66q43 -23 99 -23h9q75 1 140.5 21t133.5 66l68 -158q-73 -61 -174 -94t-212 -33 q-108 0 -194.5 38t-146.5 106t-92.5 162.5t-32.5 207.5zM355 654l357 3v37q0 108 -43.5 168t-128.5 60q-41 0 -74.5 -21t-57.5 -56.5t-37.5 -82.5t-15.5 -99v-9z" />
<glyph unicode="f" horiz-adv-x="667" d="M37 919v183h144v111q0 89 24.5 157.5t71.5 115.5t114.5 71t153.5 24q34 0 68.5 -6t77.5 -15l-24 -181q-21 4 -42.5 7t-47.5 3q-69 0 -105 -46t-36 -128v-113h214v-183h-214v-919h-255v919h-144z" />
<glyph unicode="g" horiz-adv-x="1028" d="M47 -160q0 43 13 80.5t37 69t57.5 57t73.5 43.5q-52 46 -52 134q0 62 29 109t77 83q-88 48 -137 127t-49 186v22q0 87 31.5 156t87 116.5t131.5 73t165 25.5q40 0 77.5 -5.5t72.5 -14.5h322l2 -149h-167q26 -13 46.5 -35t34.5 -50t21 -59.5t7 -62.5v-17q0 -85 -32 -153 t-87.5 -116t-131.5 -73.5t-163 -25.5q-34 0 -63 2.5t-58 10.5q-13 -15 -20.5 -34.5t-7.5 -42.5q0 -47 28 -64t83 -17h167q162 0 249.5 -78t87.5 -222q0 -90 -38 -157t-104 -110.5t-155.5 -65t-192.5 -21.5q-97 0 -178 18t-139.5 53.5t-91.5 87t-33 119.5zM287 -105 q0 -31 13 -57.5t38.5 -46t63.5 -30.5t87 -11q118 0 177.5 39.5t59.5 117.5q0 57 -31 88.5t-99 31.5h-170q-22 0 -40.5 1t-35.5 5q-28 -18 -45.5 -54.5t-17.5 -83.5zM348 729q0 -40 12 -73t33.5 -57t51.5 -37t68 -13q37 0 67 14t51 38t32.5 57t11.5 71v22q0 40 -12 73.5 t-33.5 57.5t-51.5 37t-67 13q-38 0 -68 -13.5t-51 -38t-32.5 -57.5t-11.5 -72v-22z" />
<glyph unicode="h" horiz-adv-x="1152" d="M147 0v1560h255v-585q48 75 115.5 111t152.5 36q163 0 250.5 -116t87.5 -346v-660h-256v662q0 55 -8.5 102t-28.5 82t-52.5 54.5t-80.5 19.5q-34 0 -61 -11.5t-49 -30.5t-39 -44t-31 -52v-782h-255z" />
<glyph unicode="i" horiz-adv-x="551" d="M148 0v1102h255v-1102h-255zM148 1350v210h255v-210h-255z" />
<glyph unicode="j" horiz-adv-x="554" d="M-86 -419l25 177q20 -4 37.5 -6.5t42.5 -2.5q64 0 97.5 51t33.5 145v1157h256v-1135q0 -195 -88.5 -300t-256.5 -105q-38 0 -72.5 4.5t-74.5 14.5zM146 1351v209h255v-209h-255z" />
<glyph unicode="k" horiz-adv-x="1034" d="M147 0v1560h255v-884h75l238 426h296l-327 -502l377 -600h-297l-250 432q-16 25 -33 40.5t-46 15.5h-33v-488h-255z" />
<glyph unicode="l" horiz-adv-x="595" d="M142 332v1228h256v-1232q0 -77 12.5 -114t52.5 -37q19 0 34.5 4.5t29.5 9.5l29 -172q-14 -8 -35.5 -15.5t-46 -13t-50.5 -8.5t-49 -3q-57 0 -100.5 17t-73 57.5t-44.5 108.5t-15 170z" />
<glyph unicode="m" horiz-adv-x="1713" d="M147 0v1102h219l23 -143q48 78 123.5 120.5t172.5 42.5q91 0 161.5 -46t105.5 -141q46 88 120.5 137.5t175.5 49.5q73 0 132 -28t101 -84t65 -141t23 -199v-670h-256v671q0 70 -10.5 117.5t-30.5 77t-49 42t-66 12.5q-40 0 -71.5 -18.5t-54 -49.5t-34.5 -72t-12 -86v-694 h-255v671q0 67 -10.5 114.5t-30.5 77.5t-48.5 43.5t-65.5 13.5q-57 0 -102.5 -32.5t-70.5 -90.5v-797h-255z" />
<glyph unicode="n" horiz-adv-x="1151" d="M147 0v1102h219l27 -156q49 83 123.5 129.5t166.5 46.5q76 0 136 -25.5t102 -78t64 -133.5t22 -191v-694h-256v692q0 60 -13 103.5t-35 71t-52 40.5t-64 13q-24 0 -49.5 -9.5t-50 -27t-46.5 -41.5t-39 -54v-788h-255z" />
<glyph unicode="o" horiz-adv-x="1122" d="M94 515v69q1 119 32.5 218t91 170t146 110.5t196.5 39.5q112 0 199 -41t147 -113t91 -170.5t31 -213.5v-69q0 -120 -32 -218.5t-92 -169t-146.5 -109.5t-195.5 -39q-113 0 -200 40t-146.5 111.5t-90.5 170t-31 214.5zM349 515q0 -76 12.5 -138t38.5 -106.5t66 -69 t96 -24.5q54 0 94 24.5t66 69.5t38.5 107t12.5 137v69q0 65 -11 126t-36.5 108t-66 75.5t-99.5 28.5q-60 0 -100.5 -29t-65 -77t-35 -108.5t-10.5 -123.5v-69z" />
<glyph unicode="p" horiz-adv-x="1134" d="M147 -416v1518h221l21 -125q45 69 110 107t150 38q100 0 173.5 -45.5t122 -122t72 -177t23.5 -209.5v-77q-1 -107 -25.5 -200.5t-73 -162.5t-121 -109t-169.5 -40q-159 0 -249 119v-514h-255zM402 301q13 -25 31 -47.5t40.5 -39.5t50 -27t59.5 -10q50 0 88 22t63 63 t37.5 99t12.5 130v77q0 67 -11.5 130t-35.5 112.5t-62 79.5t-93 30q-30 0 -57 -10t-50 -27.5t-41.5 -40.5t-31.5 -49v-492z" />
<glyph unicode="q" horiz-adv-x="1136" d="M95 491v77q1 113 25 214t72.5 176.5t121.5 119.5t172 44q86 0 152.5 -40t111.5 -112l27 132h212v-1518h-256v515q-90 -120 -249 -120q-98 0 -171 41t-121.5 111.5t-72.5 163t-24 196.5zM351 491q0 -72 12.5 -130t37.5 -99t63 -63t89 -22q31 0 58 10t49.5 27t40.5 39.5 t32 47.5v493q-14 26 -31.5 49t-40 40t-49.5 27t-58 10q-56 0 -94.5 -31t-62.5 -81t-35 -113t-11 -127v-77z" />
<glyph unicode="r" horiz-adv-x="722" d="M147 0v1102h218l27 -167q17 40 40.5 74.5t53 59.5t63 39t71.5 14q20 0 42 -3.5t38 -8.5l-28 -234q-27 2 -46.5 3t-46.5 2q-69 0 -112.5 -30t-64.5 -82v-769h-255z" />
<glyph unicode="s" horiz-adv-x="930" d="M78 108l63 165q69 -38 149 -66t159 -28q80 0 114.5 29.5t34.5 75.5q0 23 -9.5 44t-32.5 41.5t-62 40.5t-98 41q-75 26 -131 57.5t-93.5 72.5t-56.5 93t-19 119q0 70 26 130t74 104.5t116 69.5t152 25q67 0 123.5 -12t102.5 -30t81.5 -39.5t60.5 -41.5l-59 -164 q-67 39 -134 62.5t-133 23.5q-80 0 -117 -31t-37 -79q0 -21 6.5 -39.5t27 -36.5t58.5 -36.5t100 -39.5q150 -49 229.5 -133.5t79.5 -209.5q0 -74 -25.5 -136t-73.5 -106.5t-117 -69.5t-156 -25q-65 0 -125.5 12.5t-113 31t-95 41.5t-69.5 44z" />
<glyph unicode="t" horiz-adv-x="700" d="M35 919v183h143v247h256v-247h209v-183h-209v-608q0 -71 30 -102t75 -31q26 0 51 7t42 13l23 -172q-16 -9 -39.5 -17t-50.5 -15t-54.5 -11t-50.5 -4q-68 0 -120.5 18t-88.5 57.5t-54.5 103t-18.5 154.5v607h-143z" />
<glyph unicode="u" horiz-adv-x="1163" d="M144 434v668h255v-670q0 -69 9.5 -117t29 -78t48 -43.5t66.5 -13.5q35 0 65 10t54.5 27t44.5 40t35 49l-1 796h256v-835q1 -30 4 -51.5t9.5 -38.5t17 -30.5t26.5 -27.5l-105 -140q-32 7 -61.5 24t-54 38.5t-42 46t-24.5 45.5q-51 -75 -126.5 -114.5t-167.5 -39.5 q-80 0 -142.5 27t-106 83.5t-66.5 142t-23 202.5z" />
<glyph unicode="v" horiz-adv-x="973" d="M22 1102h269l178 -728l16 -100h6l18 100l173 728h269l-345 -1102h-237z" />
<glyph unicode="w" horiz-adv-x="1411" d="M35 1102h249l120 -630q1 -7 3.5 -26.5t5 -42t5 -42t3.5 -26.5h6l23 136l169 631h175l169 -632l24 -139h6l18 139l121 632h244l-262 -1102h-213l-166 598l-28 145h-6l-27 -147l-164 -596h-212z" />
<glyph unicode="x" horiz-adv-x="937" d="M7 0l314 557l-305 545h288l165 -374l161 374h290l-305 -545l315 -557h-289l-177 384l-167 -384h-290z" />
<glyph unicode="y" horiz-adv-x="973" d="M22 1102h269l178 -727q1 -6 3 -20t4.5 -30t5 -30t3.5 -20h6l17 100l174 727h269l-396 -1267q-18 -57 -46 -106.5t-67.5 -86.5t-92 -58t-119.5 -21q-15 0 -32.5 2t-35.5 5t-34 6.5t-28 7.5l29 189q4 -1 12.5 -2t18.5 -2l20 -2t16 -1q33 0 56.5 10t40 28t28.5 44.5t24 59.5 l27 80z" />
<glyph unicode="z" horiz-adv-x="908" d="M55 0v151l489 768h-477v183h782v-147l-492 -773h510v-182h-812z" />
<glyph unicode="{" horiz-adv-x="658" d="M59 572v180q85 0 123.5 61.5t38.5 170.5v173q0 99 18.5 179.5t58 142.5t102 106.5t149.5 71.5l55 -157q-42 -17 -71.5 -44.5t-48.5 -68.5t-28 -98t-9 -132v-162q0 -113 -39.5 -199.5t-128.5 -133.5q78 -42 117.5 -117.5t47.5 -169.5q3 -41 3 -82v-81q0 -90 7 -157 t25 -115t48.5 -79.5t76.5 -50.5l-55 -157q-173 55 -250.5 183t-77.5 325v161q0 55 -9 101t-28.5 79t-50 51.5t-74.5 18.5z" />
<glyph unicode="|" horiz-adv-x="565" d="M171 -419v2145h222v-2145h-222z" />
<glyph unicode="}" horiz-adv-x="658" d="M54 -190q42 17 72 46.5t48.5 74t27 104t8.5 136.5v161q0 53 10 102.5t31 92t53 77.5t75 58q-50 26 -82.5 63.5t-51.5 84.5t-27 103.5t-8 121.5v81q0 87 -7.5 151.5t-25.5 110t-48 75t-75 47.5l54 157q88 -27 150 -71.5t102 -106.5t58.5 -142.5t18.5 -179.5v-173 q0 -108 38 -170t124 -62v-180q-44 0 -74.5 -18.5t-50 -51.5t-28.5 -79t-9 -101v-161q0 -197 -78 -325t-251 -183z" />
<glyph unicode="~" horiz-adv-x="1338" d="M153 454q0 75 20.5 141t58 115t90 77.5t116.5 28.5q78 0 147 -34t141 -101q45 -48 81.5 -69t78.5 -21q25 0 47 15t38.5 40.5t26 59.5t9.5 71l178 -24q0 -76 -21.5 -142.5t-59.5 -116.5t-90.5 -79t-115.5 -29q-40 0 -76 8t-70.5 25t-69 42.5t-70.5 61.5q-49 46 -85 67.5 t-78 21.5q-25 0 -47 -14t-38 -39t-25.5 -58t-9.5 -70z" />
<glyph unicode="&#xa1;" horiz-adv-x="557" d="M136 -354l52 1008h181l51 -1008h-284zM150 871v231h255v-231h-255z" />
<glyph unicode="&#xa2;" horiz-adv-x="967" d="M104 696v71q0 98 22 183t64.5 152.5t104 115t140.5 68.5v232h216v-222q90 -11 152.5 -44.5t110.5 -78.5l-82 -157q-49 42 -104.5 65t-124.5 23q-56 0 -101 -27t-76.5 -74t-48.5 -110.5t-18 -135.5v-44q0 -81 17 -146.5t48.5 -112t76.5 -71.5t102 -25q69 0 124.5 22 t104.5 64l81 -154q-43 -42 -106.5 -77.5t-155.5 -47.5v-229h-216v239q-79 21 -140.5 66.5t-104 113t-64.5 153.5t-22 188z" />
<glyph unicode="&#xa3;" horiz-adv-x="1097" d="M79 599v199h142l-8 232q-2 101 25.5 183.5t81 141t130 90.5t173.5 32q61 0 116 -10.5t103 -28.5t89 -41.5t75 -48.5l-85 -165q-24 15 -54.5 32t-65 30.5t-72.5 22.5t-77 9q-91 0 -138 -65t-45 -182l7 -232h340v-199h-330l4 -106q1 -41 -3.5 -82.5t-14 -80t-24 -72.5 t-35.5 -60h642v-198h-918v198q29 8 48 39.5t29.5 73.5t14.5 88t4 84l-5 116h-149z" />
<glyph unicode="&#xa4;" horiz-adv-x="1367" d="M89 108l131 140q-48 78 -73 169t-25 191q0 104 27 197t79 173l-139 150l132 136l134 -146q70 55 153.5 85.5t174.5 30.5t174 -31t155 -87l137 149l133 -137l-143 -154q50 -80 77 -172.5t27 -193.5q0 -100 -25 -190t-71 -166l135 -144l-133 -135l-125 134 q-72 -62 -159 -94.5t-182 -32.5q-96 0 -182 32t-158 94l-122 -132zM327 608q0 -83 27 -158.5t74.5 -133t112.5 -91.5t142 -34q78 0 143 35t112 93t73 133t26 156q0 82 -27 157t-74.5 132t-112 91t-140.5 34q-78 0 -143.5 -34.5t-113 -92.5t-73.5 -132.5t-26 -154.5z" />
<glyph unicode="&#xa5;" horiz-adv-x="1177" d="M32 1456h282l277 -612l273 612h281l-365 -721h240v-180h-308v-120h308v-180h-308v-255h-255v255h-318v180h318v120h-318v180h258z" />
<glyph unicode="&#xa6;" horiz-adv-x="564" d="M171 -419v1000h222v-1000h-222zM171 759v967h222v-967h-222z" />
<glyph unicode="&#xa7;" horiz-adv-x="1146" d="M97 -316l104 164q25 -23 64 -46.5t83.5 -43t91.5 -32t88 -12.5q48 0 88.5 14.5t69.5 38t45.5 54.5t16.5 64q0 32 -9 61.5t-35.5 56.5t-75.5 52.5t-129 49.5q-111 34 -184 79t-116.5 99t-61 114t-17.5 124q0 83 35 157t89 133q-32 32 -52.5 66t-32.5 68t-16.5 67.5 t-4.5 65.5q0 79 29.5 151t85.5 127t136 87t181 32q76 0 137.5 -16.5t111 -42t88.5 -55t70 -54.5l-102 -162q-26 23 -60.5 45.5t-73 40.5t-79.5 29t-79 11q-48 0 -84 -16t-60 -41.5t-35.5 -57t-11.5 -62.5q0 -26 10.5 -54t39.5 -56.5t79.5 -56t131.5 -52.5q112 -35 183.5 -82 t112 -101t56 -112t15.5 -116q0 -43 -9.5 -83t-26.5 -76t-40 -68.5t-50 -60.5q33 -34 54 -69t33 -70t16.5 -69.5t4.5 -66.5q0 -81 -33.5 -152t-94.5 -124.5t-146 -84t-188 -30.5q-77 0 -143 16.5t-122 42t-100.5 56.5t-77.5 59zM369 563q0 -30 7.5 -58t28.5 -54t59 -49.5 t100 -44.5q40 -14 78.5 -29.5t74.5 -32.5q22 29 35.5 60t13.5 66q0 29 -10.5 59t-37 59.5t-71.5 56.5t-114 50q-33 10 -61 21t-52 23q-23 -27 -37 -59t-14 -68z" />
<glyph unicode="&#xa8;" horiz-adv-x="1048" d="M175 1250v206h234v-206h-234zM632 1250v206h233v-206h-233z" />
<glyph unicode="&#xa9;" horiz-adv-x="1525" d="M94 729q0 99 22 193t63 177t100 152t133 119t162 78t188 28q99 0 187 -28t162.5 -78t133.5 -119.5t100.5 -152.5t63.5 -176.5t22 -192.5q0 -100 -21.5 -194.5t-62.5 -178t-99.5 -152.5t-133 -119t-163 -78t-189.5 -28q-102 0 -191 28t-163.5 78t-132.5 120t-98.5 153 t-61.5 177.5t-21 193.5zM219 729q0 -80 17.5 -157.5t51 -147.5t81 -128.5t108 -101.5t132.5 -67t153 -24q129 0 230 53.5t170.5 141.5t106 200.5t36.5 230.5q0 80 -18 157t-51 146t-81 127t-108.5 100.5t-132 66.5t-152.5 24q-85 0 -158.5 -25.5t-133.5 -69.5t-107 -104 t-79 -129t-48.5 -144t-16.5 -149zM398 700v56q0 91 24.5 168t70.5 132.5t112.5 86.5t150.5 31q98 0 164 -28.5t111 -71.5l-65 -126q-32 29 -80.5 49.5t-97.5 20.5q-44 0 -79.5 -20.5t-60.5 -56t-39 -84t-15 -105.5v-42q0 -63 13.5 -114.5t39 -87.5t61 -55.5t80.5 -19.5 q25 0 50.5 6t49 16.5t43.5 24t35 27.5l65 -124q-20 -20 -47 -38.5t-61 -32.5t-75.5 -22.5t-91.5 -8.5q-84 0 -150.5 30t-112.5 85t-70.5 132.5t-24.5 171.5z" />
<glyph unicode="&#xaa;" horiz-adv-x="801" d="M66 921q0 57 22 101t63.5 74.5t100 46.5t130.5 16h94v49q0 52 -27 79.5t-86 27.5q-35 0 -66.5 -6.5t-57.5 -16t-46.5 -20.5t-32.5 -20l-56 133q21 15 51 31t68 29.5t83 22.5t95 9q54 0 103.5 -15t86.5 -46t59 -78t22 -111v-327q0 -44 8.5 -68t31.5 -43l-84 -98 q-18 3 -39 12.5t-40 23.5t-34 32t-21 39q-34 -50 -85 -78.5t-111 -28.5q-51 0 -94 17t-73.5 48t-47.5 73t-17 92zM255 926q0 -37 27 -60t65 -23q43 0 77.5 21.5t51.5 56.5v109h-90q-61 0 -96 -25t-35 -79z" />
<glyph unicode="&#xab;" horiz-adv-x="967" d="M89 515v19l261 387h168l-224 -397l224 -397h-168zM443 515v19l261 387h168l-224 -397l224 -397h-168z" />
<glyph unicode="&#xac;" horiz-adv-x="1079" d="M134 639v161h771v-425h-186v264h-585z" />
<glyph unicode="&#xad;" horiz-adv-x="733" d="M109 522v199h508v-199h-508z" />
<glyph unicode="&#xae;" horiz-adv-x="1121" d="M83 987q0 106 34.5 200.5t97 165.5t150.5 112t195 41q109 0 197 -40.5t150.5 -110.5t96 -165t33.5 -203q0 -107 -34.5 -201t-97 -165t-150.5 -112t-195 -41q-108 0 -196 41.5t-150.5 112t-96.5 165t-34 200.5zM193 987q0 -80 25 -154t72 -131t115 -91t155 -34t155 34 t115.5 91t72.5 131t25 154t-25 154t-72.5 130.5t-116 90.5t-154.5 34q-88 0 -156.5 -34.5t-115 -92t-71 -131t-24.5 -151.5zM367 718v555h205q43 0 81 -10.5t65.5 -31t43.5 -51t16 -70.5q0 -22 -5.5 -45.5t-18.5 -44.5t-34 -38t-52 -27l128 -237h-141l-90 196 q-5 11 -13.5 17t-24.5 6h-33v-219h-127zM494 1024h64q47 0 70 23t23 59q0 32 -22 56t-64 24h-71v-162z" />
<glyph unicode="&#xaf;" horiz-adv-x="988" d="M152 1304v152h686v-152h-686z" />
<glyph unicode="&#xb0;" horiz-adv-x="756" d="M121 1203q0 56 18 106t52 87.5t82 59t107 21.5q58 0 105 -22t80.5 -59.5t51.5 -87t18 -105.5q0 -57 -20.5 -106t-55.5 -86t-81 -58t-98 -21q-53 0 -100.5 21t-82.5 58t-55.5 86t-20.5 106zM271 1203q0 -24 7.5 -46t22 -38.5t34.5 -26t45 -9.5q23 0 42.5 9.5t33.5 26 t21.5 38.5t7.5 46q0 23 -7.5 45t-21.5 39t-33 27.5t-43 10.5t-44.5 -10t-34.5 -27t-22 -39t-8 -46z" />
<glyph unicode="&#xb1;" horiz-adv-x="1072" d="M103 715v204h324v380h225v-380h314v-204h-314v-394h-225v394h-324zM131 8v201h770v-201h-770z" />
<glyph unicode="&#xb2;" horiz-adv-x="720" d="M49 665v134q54 47 105.5 92.5t96.5 85.5q39 36 71.5 66.5t56.5 58t37 53.5t13 54t-10.5 49.5t-28 36.5t-40 22.5t-47.5 7.5q-33 0 -63 -7t-53.5 -17t-40.5 -20t-24 -16l-60 132q9 7 34.5 21.5t63.5 29t86.5 25.5t104.5 11q61 0 111.5 -18.5t86.5 -51t55.5 -77.5t19.5 -97 q0 -56 -21.5 -102.5t-63.5 -94.5t-103.5 -102t-140.5 -125h1h341v-151h-588z" />
<glyph unicode="&#xb3;" horiz-adv-x="759" d="M49 739l58 134q12 -8 33.5 -18.5t48.5 -20t58 -16t62 -6.5q60 0 100 23t40 68q0 20 -7 38t-22 31t-39.5 20.5t-59.5 7.5h-106v145h106q46 0 75 24.5t29 59.5q0 92 -115 97q-32 0 -60.5 -6.5t-52.5 -15t-42.5 -18.5t-28.5 -18l-59 129q13 9 37.5 23.5t60 29t81.5 24.5 t103 10q65 0 118 -15.5t90.5 -44.5t57.5 -70.5t20 -94.5q0 -54 -32 -103t-95 -75q37 -12 64 -31.5t44.5 -44.5t25.5 -54.5t8 -60.5q0 -51 -21.5 -94t-61.5 -74.5t-96.5 -49t-126.5 -17.5q-63 0 -113 10.5t-87.5 24.5t-61 28t-33.5 21z" />
<glyph unicode="&#xb4;" horiz-adv-x="725" d="M75 1219l257 332h331l-387 -332h-201z" />
<glyph unicode="&#xb5;" horiz-adv-x="1168" d="M148 -416v1518h256v-670q0 -69 9.5 -117t29 -78t48 -43.5t66.5 -13.5q35 0 65 10t54.5 27t44.5 40t35 49l-1 796h256v-835q1 -30 4 -51.5t9.5 -38.5t17 -30.5t26.5 -27.5l-105 -140q-32 7 -61.5 24t-54 38.5t-42 46t-24.5 45.5q-51 -75 -126.5 -114.5t-167.5 -39.5 q-23 0 -44.5 3t-39.5 11v-409h-255z" />
<glyph unicode="&#xb6;" horiz-adv-x="1035" d="M32 988q0 102 32 188t95.5 148t157.5 97t219 35h327v-1456h-256v1261h-135v-741q-104 2 -185.5 38t-138 98.5t-86.5 147.5t-30 184z" />
<glyph unicode="&#xb7;" horiz-adv-x="594" d="M164 582v243h255v-243h-255z" />
<glyph unicode="&#xb8;" horiz-adv-x="536" d="M89 -364q27 0 55.5 5t52.5 16.5t39.5 31.5t15.5 50q0 19 -7 37t-22.5 32t-41.5 23t-63 11l45 169h172l-27 -89q25 -5 50 -16.5t44 -32.5t31 -52.5t12 -76.5q0 -66 -29 -113t-77 -77t-111 -43.5t-132 -13.5z" />
<glyph unicode="&#xb9;" horiz-adv-x="651" d="M89 1409l240 68h110v-661h141v-151h-485v151h152v487l-140 -13z" />
<glyph unicode="&#xba;" horiz-adv-x="843" d="M94 1060v48q0 84 23 152t65.5 116.5t103 74.5t135.5 26q76 0 137 -27t103.5 -76t65 -116.5t22.5 -149.5v-48q0 -85 -23 -153.5t-65.5 -116.5t-102.5 -73.5t-135 -25.5q-77 0 -137.5 26.5t-103.5 75t-65.5 116.5t-22.5 151zM290 1060q0 -48 7 -87t23 -66t41.5 -41.5 t61.5 -14.5q69 0 100 56t31 153v48q0 39 -6.5 76.5t-22 66.5t-41 46.5t-63.5 17.5q-39 0 -64.5 -18t-40 -47.5t-20.5 -66.5t-6 -75v-48z" />
<glyph unicode="&#xbb;" horiz-adv-x="973" d="M99 152l222 398l-222 398h167l261 -388v-19l-261 -389h-167zM465 152l222 398l-222 398h167l261 -388v-19l-261 -389h-167z" />
<glyph unicode="&#xbc;" horiz-adv-x="1573" d="M89 1408l240 68h110v-661h141v-151h-485v151h152v488l-140 -14zM383 189l656 1138l125 -71l-656 -1138zM810 148v129l375 524h199v-502h97v-151h-97v-148h-198v148h-376zM995 299h191v269z" />
<glyph unicode="&#xbd;" horiz-adv-x="1586" d="M89 1408l240 68h110v-661h141v-151h-485v151h152v488l-140 -14zM373 189l656 1138l126 -71l-656 -1138zM917 0v134q53 47 105 92.5t97 85.5q39 36 71.5 66.5t56.5 58t37 53.5t13 54t-10.5 49.5t-28 36.5t-40.5 22.5t-48 7.5q-33 0 -62.5 -7t-53.5 -17t-40.5 -20 t-24.5 -16l-59 132q9 7 34.5 21.5t63.5 29t86.5 25.5t104.5 11q61 0 111.5 -18.5t86 -51t55 -77.5t19.5 -97q0 -64 -33 -122t-82.5 -111t-107 -100.5t-105.5 -90.5h341v-151h-587z" />
<glyph unicode="&#xbe;" horiz-adv-x="1606" d="M67 739l58 134q12 -8 33.5 -18.5t48.5 -20t58 -16t62 -6.5q60 0 100 23t40 68q0 20 -7 38t-22 31t-39.5 20.5t-59.5 7.5h-106v145h106q46 0 75 24.5t29 59.5q0 92 -115 97q-32 0 -60.5 -6.5t-52.5 -15t-42.5 -18.5t-28.5 -18l-59 129q13 9 37.5 23.5t60 29t81.5 24.5 t103 10q65 0 118 -15.5t90.5 -44.5t57.5 -70.5t20 -94.5q0 -54 -32 -103t-95 -75q37 -12 64 -31.5t44.5 -44.5t25.5 -54.5t8 -60.5q0 -51 -21.5 -94t-61.5 -74.5t-96.5 -49t-126.5 -17.5q-63 0 -113 10.5t-87.5 24.5t-61 28t-33.5 21zM415 189l656 1138l126 -71l-656 -1138z M844 148v129l374 524h200v-502h97v-151h-97v-148h-198v148h-376zM1029 299h191v269z" />
<glyph unicode="&#xbf;" horiz-adv-x="894" d="M54 21q0 66 18.5 125t50.5 113t75 104.5t92 98.5q27 27 42.5 51t23 50t9.5 56.5t2 70.5h255q-1 -63 -6.5 -109t-21 -84t-43.5 -73t-74 -76q-32 -36 -62.5 -71.5t-54 -73t-37.5 -78t-14 -87.5q0 -94 48.5 -151.5t139.5 -58.5q46 0 89 11t79.5 27.5t66 36t49.5 36.5 l84 -166q-14 -12 -44 -36.5t-78.5 -49.5t-115.5 -43.5t-155 -18.5q-101 0 -179 28.5t-131 80.5t-80.5 125t-27.5 162zM364 871v231h257v-231h-257z" />
<glyph unicode="&#xc0;" horiz-adv-x="1215" d="M6 0l475 1456h256l472 -1456h-267l-100 336h-471l-101 -336h-264zM130 1879h372l284 -294h-220zM428 536h358l-153 526l-24 96h-6l-24 -97z" />
<glyph unicode="&#xc1;" horiz-adv-x="1215" d="M6 0l475 1456h256l472 -1456h-267l-100 336h-471l-101 -336h-264zM427 1585l284 294h372l-436 -294h-220zM428 536h358l-153 526l-24 96h-6l-24 -97z" />
<glyph unicode="&#xc2;" horiz-adv-x="1215" d="M6 0l475 1456h256l472 -1456h-267l-100 336h-471l-101 -336h-264zM192 1585l307 294h214l308 -294h-208l-208 127l-206 -127h-207zM428 536h358l-153 526l-24 96h-6l-24 -97z" />
<glyph unicode="&#xc3;" horiz-adv-x="1215" d="M6 0l475 1456h256l472 -1456h-267l-100 336h-471l-101 -336h-264zM219 1622q4 54 24 100t52.5 79t74.5 52t90 19q53 0 93.5 -13t74.5 -29t65.5 -29t67.5 -13q40 0 65 27t30 68l139 -35q-2 -55 -23 -100t-54 -76.5t-75 -48.5t-87 -17q-54 0 -95 13t-75.5 28.5t-65.5 28.5 t-65 13q-43 0 -68 -28.5t-29 -65.5zM428 536h358l-153 526l-24 96h-6l-24 -97z" />
<glyph unicode="&#xc4;" horiz-adv-x="1215" d="M6 0l475 1456h256l472 -1456h-267l-100 336h-471l-101 -336h-264zM260 1611v206h233v-206h-233zM428 536h358l-153 526l-24 96h-6l-24 -97zM717 1611v206h232v-206h-232z" />
<glyph unicode="&#xc5;" horiz-adv-x="1215" d="M6 0l475 1456h256l472 -1456h-267l-100 336h-471l-101 -336h-264zM406 1719q0 42 16 77t43 60.5t63.5 40t77.5 14.5t76.5 -14.5t62 -40t42 -61t15.5 -76.5q0 -42 -15.5 -76t-42 -59t-62 -38.5t-76.5 -13.5t-77.5 13.5t-63.5 38t-43 59t-16 76.5zM428 536h358l-153 526 l-24 96h-6l-24 -97zM523 1719q0 -34 23 -60.5t60 -26.5q34 0 56.5 26t22.5 61q0 18 -5.5 34t-15.5 28.5t-25 20t-33 7.5q-19 0 -34.5 -7.5t-26 -20t-16.5 -28.5t-6 -34z" />
<glyph unicode="&#xc6;" horiz-adv-x="1757" d="M-24 0l735 1456h925v-202h-566l16 -403h475v-201h-468l18 -450h582v-200h-829l-14 344h-423l-164 -344h-287zM526 559h316l-19 637l-5 1z" />
<glyph unicode="&#xc7;" horiz-adv-x="1108" d="M105 647v105q0 175 36.5 310t107 227t174 140t236.5 48q79 0 142 -15t111.5 -37t82.5 -46.5t54 -43.5l-85 -166q-23 18 -54 36.5t-68.5 33.5t-79 24.5t-83.5 9.5q-69 0 -127.5 -27.5t-100.5 -84.5t-66 -144.5t-24 -207.5v-124q0 -131 23.5 -226.5t66 -157t102.5 -91 t133 -29.5q42 0 82.5 9.5t77 24.5t67 33.5t53.5 36.5l85 -164q-18 -18 -50 -41.5t-77.5 -45t-105.5 -37t-134 -17.5l-18 -61q25 -5 50 -17t44 -33t31 -52.5t12 -75.5q0 -66 -29 -113t-77 -77t-111 -43.5t-132 -13.5l-8 138q27 0 56 5t52.5 17t39 32t15.5 50q0 19 -7 37 t-22.5 32t-41 23t-62.5 11l41 155q-93 21 -169 71.5t-130 132t-83.5 193.5t-29.5 256z" />
<glyph unicode="&#xc8;" horiz-adv-x="1166" d="M148 1879h372l284 -294h-220zM171 0v1456h903v-200h-647v-404h557v-199h-557v-454h656v-199h-912z" />
<glyph unicode="&#xc9;" horiz-adv-x="1166" d="M171 0v1456h903v-200h-647v-404h557v-199h-557v-454h656v-199h-912zM434 1585l284 294h372l-436 -294h-220z" />
<glyph unicode="&#xca;" horiz-adv-x="1166" d="M171 0v1456h903v-200h-647v-404h557v-199h-557v-454h656v-199h-912zM202 1585l307 294h214l308 -294h-208l-208 127l-206 -127h-207z" />
<glyph unicode="&#xcb;" horiz-adv-x="1166" d="M171 0v1456h903v-200h-647v-404h557v-199h-557v-454h656v-199h-912zM258 1611v206h234v-206h-234zM715 1611v206h233v-206h-233z" />
<glyph unicode="&#xcc;" horiz-adv-x="604" d="M-164 1879h372l284 -294h-220zM174 0v1456h256v-1456h-256z" />
<glyph unicode="&#xcd;" horiz-adv-x="604" d="M111 1585l284 294h372l-436 -294h-220zM174 0v1456h256v-1456h-256z" />
<glyph unicode="&#xce;" horiz-adv-x="604" d="M-113 1585l307 294h214l308 -294h-208l-208 127l-206 -127h-207zM174 0v1456h256v-1456h-256z" />
<glyph unicode="&#xcf;" horiz-adv-x="603" d="M-43 1611v206h233v-206h-233zM174 0v1456h256v-1456h-256zM414 1611v206h232v-206h-232z" />
<glyph unicode="&#xd0;" horiz-adv-x="1350" d="M79 647v187h130v622h444q139 0 249 -49t186.5 -139t117 -216.5t40.5 -280.5v-88q0 -158 -42 -284.5t-119 -215t-186.5 -136t-245.5 -47.5h-444v647h-130zM465 198h166q95 0 163.5 35.5t112 100t64 153.5t20.5 196v90q0 110 -21 199t-65.5 152t-112.5 97.5t-161 34.5h-166 v-422h229v-187h-229v-449z" />
<glyph unicode="&#xd1;" horiz-adv-x="1417" d="M171 0v1456h256l578 -1058l6 2l-20 565v491h255v-1456h-255l-580 1059l-6 -2l22 -563v-494h-256zM321 1622q4 54 24 100t52.5 79t74.5 52t90 19q53 0 93.5 -13t74.5 -29t65.5 -29t67.5 -13q40 0 65 27t30 68l139 -35q-2 -55 -23 -100t-54 -76.5t-75 -48.5t-87 -17 q-54 0 -95 13t-75.5 28.5t-65.5 28.5t-65 13q-43 0 -68 -28.5t-29 -65.5z" />
<glyph unicode="&#xd2;" d="M105 656v97q0 176 36.5 311.5t106.5 227t171.5 138.5t231.5 47q134 0 237.5 -45.5t174 -132.5t106.5 -213.5t36 -287.5v-142q0 -166 -40.5 -292.5t-113.5 -212t-175 -129t-224 -43.5t-222.5 43.5t-172.5 129t-112 212t-40 292.5zM220 1879h372l284 -294h-220zM360 702 q0 -266 70 -394t222 -128q142 0 219.5 119.5t77.5 373.5v127q0 120 -20.5 209.5t-59.5 148t-94 87.5t-124 29q-142 0 -216.5 -120.5t-74.5 -370.5v-81z" />
<glyph unicode="&#xd3;" d="M105 656v97q0 176 36.5 311.5t106.5 227t171.5 138.5t231.5 47q134 0 237.5 -45.5t174 -132.5t106.5 -213.5t36 -287.5v-142q0 -166 -40.5 -292.5t-113.5 -212t-175 -129t-224 -43.5t-222.5 43.5t-172.5 129t-112 212t-40 292.5zM360 702q0 -266 70 -394t222 -128 q142 0 219.5 119.5t77.5 373.5v127q0 120 -20.5 209.5t-59.5 148t-94 87.5t-124 29q-142 0 -216.5 -120.5t-74.5 -370.5v-81zM463 1585l284 294h372l-436 -294h-220z" />
<glyph unicode="&#xd4;" d="M105 656v97q0 176 36.5 311.5t106.5 227t171.5 138.5t231.5 47q134 0 237.5 -45.5t174 -132.5t106.5 -213.5t36 -287.5v-142q0 -166 -40.5 -292.5t-113.5 -212t-175 -129t-224 -43.5t-222.5 43.5t-172.5 129t-112 212t-40 292.5zM240 1585l307 294h214l308 -294h-208 l-208 127l-206 -127h-207zM360 702q0 -266 70 -394t222 -128q142 0 219.5 119.5t77.5 373.5v127q0 120 -20.5 209.5t-59.5 148t-94 87.5t-124 29q-142 0 -216.5 -120.5t-74.5 -370.5v-81z" />
<glyph unicode="&#xd5;" d="M105 656v97q0 176 36.5 311.5t106.5 227t171.5 138.5t231.5 47q134 0 237.5 -45.5t174 -132.5t106.5 -213.5t36 -287.5v-142q0 -166 -40.5 -292.5t-113.5 -212t-175 -129t-224 -43.5t-222.5 43.5t-172.5 129t-112 212t-40 292.5zM267 1622q4 54 24 100t52.5 79t74.5 52 t90 19q53 0 93.5 -13t74.5 -29t65.5 -29t67.5 -13q40 0 65 27t30 68l139 -35q-2 -55 -23 -100t-54 -76.5t-75 -48.5t-87 -17q-54 0 -95 13t-75.5 28.5t-65.5 28.5t-65 13q-43 0 -68 -28.5t-29 -65.5zM360 702q0 -266 70 -394t222 -128q142 0 219.5 119.5t77.5 373.5v127 q0 120 -20.5 209.5t-59.5 148t-94 87.5t-124 29q-142 0 -216.5 -120.5t-74.5 -370.5v-81z" />
<glyph unicode="&#xd6;" d="M105 656v97q0 176 36.5 311.5t106.5 227t171.5 138.5t231.5 47q134 0 237.5 -45.5t174 -132.5t106.5 -213.5t36 -287.5v-142q0 -166 -40.5 -292.5t-113.5 -212t-175 -129t-224 -43.5t-222.5 43.5t-172.5 129t-112 212t-40 292.5zM310 1622v205h234v-205h-234zM360 702 q0 -266 70 -394t222 -128q142 0 219.5 119.5t77.5 373.5v127q0 120 -20.5 209.5t-59.5 148t-94 87.5t-124 29q-142 0 -216.5 -120.5t-74.5 -370.5v-81zM767 1622v205h233v-205h-233z" />
<glyph unicode="&#xd7;" horiz-adv-x="1103" d="M105 361l298 323l-298 323l153 148l290 -315l291 315l152 -148l-298 -323l299 -323l-153 -148l-291 314l-291 -314z" />
<glyph unicode="&#xd8;" d="M105 656v97q0 176 36.5 311.5t106.5 227t171.5 138.5t231.5 47q119 0 217 -40l73 149h225l-127 -261q82 -88 124 -220t42 -307v-142q0 -166 -40.5 -292.5t-113.5 -212t-175 -129t-224 -43.5q-51 0 -97 8t-89 23l-72 -147h-224l122 251q-88 85 -137.5 220.5t-49.5 321.5z M360 702q0 -266 70 -394t222 -128q142 0 219.5 119.5t77.5 373.5v127q0 120 -20.5 209.5t-59.5 148t-94 87.5t-124 29q-142 0 -216.5 -120.5t-74.5 -370.5v-81z" />
<glyph unicode="&#xd9;" horiz-adv-x="1351" d="M149 470v986h255v-986q0 -147 72 -220t197 -73q64 0 114.5 17.5t86 53.5t54.5 91.5t19 130.5v986h255v-986q0 -120 -40.5 -212t-111.5 -154t-167.5 -93.5t-209.5 -31.5q-116 0 -212.5 32.5t-165.5 95t-107.5 154t-38.5 209.5zM197 1879h372l284 -294h-220z" />
<glyph unicode="&#xda;" horiz-adv-x="1351" d="M149 470v986h255v-986q0 -147 72 -220t197 -73q64 0 114.5 17.5t86 53.5t54.5 91.5t19 130.5v986h255v-986q0 -120 -40.5 -212t-111.5 -154t-167.5 -93.5t-209.5 -31.5q-116 0 -212.5 32.5t-165.5 95t-107.5 154t-38.5 209.5zM504 1585l284 294h372l-436 -294h-220z" />
<glyph unicode="&#xdb;" horiz-adv-x="1351" d="M149 470v986h255v-986q0 -147 72 -220t197 -73q64 0 114.5 17.5t86 53.5t54.5 91.5t19 130.5v986h255v-986q0 -120 -40.5 -212t-111.5 -154t-167.5 -93.5t-209.5 -31.5q-116 0 -212.5 32.5t-165.5 95t-107.5 154t-38.5 209.5zM260 1585l307 294h214l308 -294h-208 l-208 127l-206 -127h-207z" />
<glyph unicode="&#xdc;" horiz-adv-x="1351" d="M149 470v986h255v-986q0 -147 72 -220t197 -73q64 0 114.5 17.5t86 53.5t54.5 91.5t19 130.5v986h255v-986q0 -120 -40.5 -212t-111.5 -154t-167.5 -93.5t-209.5 -31.5q-116 0 -212.5 32.5t-165.5 95t-107.5 154t-38.5 209.5zM330 1611v206h234v-206h-234zM787 1611v206 h233v-206h-233z" />
<glyph unicode="&#xdd;" horiz-adv-x="1135" d="M-19 1456h286l303 -700l306 700h278l-462 -940v-516h-256v531zM394 1580l276 313h357l-423 -313h-210z" />
<glyph unicode="&#xde;" horiz-adv-x="1159" d="M171 0v1456h256v-278h211q115 0 206 -32t154 -90.5t96 -139.5t33 -178q0 -99 -33 -180t-96 -139t-154 -90t-206 -32h-211v-297h-256zM427 495h211q59 0 103 19t73 52t43 76.5t14 93.5t-14.5 94.5t-43.5 77.5t-72.5 52t-102.5 19h-210l-1 1v-485z" />
<glyph unicode="&#xdf;" horiz-adv-x="1207" d="M142 0v1081q0 112 29 201.5t84.5 151.5t136 95t184.5 33q82 0 152 -24.5t120.5 -70t79 -111.5t28.5 -149q0 -49 -16.5 -96.5t-36 -93t-35.5 -89t-16 -85.5q0 -49 37.5 -100t105.5 -117q72 -72 106 -142.5t34 -140.5q0 -184 -103 -274t-289 -90q-34 0 -72 4.5t-75 12.5 t-69 19t-54 24l48 199q35 -25 90 -43t114 -18q76 0 116 42t40 113q0 76 -143 213q-142 137 -142 278q0 51 16.5 96.5t37 90t37 89t16.5 94.5q0 39 -11 70.5t-30 53.5t-44 34t-53 12q-38 0 -69 -18.5t-53 -53.5t-34 -85t-12 -113v-1093h-255z" />
<glyph unicode="&#xe0;" horiz-adv-x="1056" d="M65 307q0 81 29 144.5t85 108t138 68t188 23.5h149v109q0 87 -41 128t-126 41q-44 0 -85.5 -8.5t-79 -22t-70.5 -31t-60 -35.5l-74 158q30 22 73 45t96.5 42.5t117.5 32t136 12.5q79 0 146.5 -23.5t117 -69.5t77.5 -114t28 -156v-480q0 -32 2.5 -55.5t9 -42t17.5 -33.5 t28 -28l-105 -141q-26 4 -54.5 18t-54 34.5t-45.5 47t-29 55.5q-48 -70 -125.5 -112.5t-168.5 -42.5q-76 0 -135.5 23.5t-100.5 66.5t-62.5 103.5t-21.5 134.5zM144 1564h330l259 -332h-200zM320 315q0 -63 33.5 -102t95.5 -39q33 0 64.5 10t58.5 27t48 39.5t34 47.5v195 h-142q-47 0 -83 -13t-60 -37t-36.5 -56.5t-12.5 -71.5z" />
<glyph unicode="&#xe1;" horiz-adv-x="1056" d="M65 307q0 81 29 144.5t85 108t138 68t188 23.5h149v109q0 87 -41 128t-126 41q-44 0 -85.5 -8.5t-79 -22t-70.5 -31t-60 -35.5l-74 158q30 22 73 45t96.5 42.5t117.5 32t136 12.5q79 0 146.5 -23.5t117 -69.5t77.5 -114t28 -156v-480q0 -32 2.5 -55.5t9 -42t17.5 -33.5 t28 -28l-105 -141q-26 4 -54.5 18t-54 34.5t-45.5 47t-29 55.5q-48 -70 -125.5 -112.5t-168.5 -42.5q-76 0 -135.5 23.5t-100.5 66.5t-62.5 103.5t-21.5 134.5zM320 315q0 -63 33.5 -102t95.5 -39q33 0 64.5 10t58.5 27t48 39.5t34 47.5v195h-142q-47 0 -83 -13t-60 -37 t-36.5 -56.5t-12.5 -71.5zM321 1230l257 332h331l-387 -332h-201z" />
<glyph unicode="&#xe2;" horiz-adv-x="1056" d="M65 307q0 81 29 144.5t85 108t138 68t188 23.5h149v109q0 87 -41 128t-126 41q-44 0 -85.5 -8.5t-79 -22t-70.5 -31t-60 -35.5l-74 158q30 22 73 45t96.5 42.5t117.5 32t136 12.5q79 0 146.5 -23.5t117 -69.5t77.5 -114t28 -156v-480q0 -32 2.5 -55.5t9 -42t17.5 -33.5 t28 -28l-105 -141q-26 4 -54.5 18t-54 34.5t-45.5 47t-29 55.5q-48 -70 -125.5 -112.5t-168.5 -42.5q-76 0 -135.5 23.5t-100.5 66.5t-62.5 103.5t-21.5 134.5zM142 1235l286 331h195l288 -331h-208l-178 149l-177 -149h-206zM320 315q0 -63 33.5 -102t95.5 -39 q33 0 64.5 10t58.5 27t48 39.5t34 47.5v195h-142q-47 0 -83 -13t-60 -37t-36.5 -56.5t-12.5 -71.5z" />
<glyph unicode="&#xe3;" horiz-adv-x="1056" d="M65 307q0 81 29 144.5t85 108t138 68t188 23.5h149v109q0 87 -41 128t-126 41q-44 0 -85.5 -8.5t-79 -22t-70.5 -31t-60 -35.5l-74 158q30 22 73 45t96.5 42.5t117.5 32t136 12.5q79 0 146.5 -23.5t117 -69.5t77.5 -114t28 -156v-480q0 -32 2.5 -55.5t9 -42t17.5 -33.5 t28 -28l-105 -141q-26 4 -54.5 18t-54 34.5t-45.5 47t-29 55.5q-48 -70 -125.5 -112.5t-168.5 -42.5q-76 0 -135.5 23.5t-100.5 66.5t-62.5 103.5t-21.5 134.5zM137 1284q4 54 24 101.5t52.5 83t74.5 56t90 20.5q53 0 93.5 -14.5t74.5 -32t65.5 -32t67.5 -14.5 q20 0 36.5 8.5t28.5 22.5t19.5 33t10.5 39l139 -35q-2 -55 -23 -101.5t-54 -80.5t-75 -53t-87 -19q-54 0 -95 14.5t-75.5 32.5t-65.5 32.5t-65 14.5q-21 0 -38.5 -9t-29.5 -24t-19.5 -33.5t-9.5 -36.5zM320 315q0 -63 33.5 -102t95.5 -39q33 0 64.5 10t58.5 27t48 39.5 t34 47.5v195h-142q-47 0 -83 -13t-60 -37t-36.5 -56.5t-12.5 -71.5z" />
<glyph unicode="&#xe4;" horiz-adv-x="1056" d="M65 307q0 81 29 144.5t85 108t138 68t188 23.5h149v109q0 87 -41 128t-126 41q-44 0 -85.5 -8.5t-79 -22t-70.5 -31t-60 -35.5l-74 158q30 22 73 45t96.5 42.5t117.5 32t136 12.5q79 0 146.5 -23.5t117 -69.5t77.5 -114t28 -156v-480q0 -32 2.5 -55.5t9 -42t17.5 -33.5 t28 -28l-105 -141q-26 4 -54.5 18t-54 34.5t-45.5 47t-29 55.5q-48 -70 -125.5 -112.5t-168.5 -42.5q-76 0 -135.5 23.5t-100.5 66.5t-62.5 103.5t-21.5 134.5zM180 1267v206h234v-206h-234zM320 315q0 -63 33.5 -102t95.5 -39q33 0 64.5 10t58.5 27t48 39.5t34 47.5v195 h-142q-47 0 -83 -13t-60 -37t-36.5 -56.5t-12.5 -71.5zM637 1267v206h233v-206h-233z" />
<glyph unicode="&#xe5;" horiz-adv-x="1056" d="M65 307q0 81 29 144.5t85 108t138 68t188 23.5h149v109q0 87 -41 128t-126 41q-44 0 -85.5 -8.5t-79 -22t-70.5 -31t-60 -35.5l-74 158q30 22 73 45t96.5 42.5t117.5 32t136 12.5q79 0 146.5 -23.5t117 -69.5t77.5 -114t28 -156v-480q0 -32 2.5 -55.5t9 -42t17.5 -33.5 t28 -28l-105 -141q-26 4 -54.5 18t-54 34.5t-45.5 47t-29 55.5q-48 -70 -125.5 -112.5t-168.5 -42.5q-76 0 -135.5 23.5t-100.5 66.5t-62.5 103.5t-21.5 134.5zM320 315q0 -63 33.5 -102t95.5 -39q33 0 64.5 10t58.5 27t48 39.5t34 47.5v195h-142q-47 0 -83 -13t-60 -37 t-36.5 -56.5t-12.5 -71.5zM335 1410q0 42 16 77t43 60.5t63.5 40t77.5 14.5t76.5 -14.5t62 -40t42 -61t15.5 -76.5q0 -42 -15.5 -76t-42 -59t-62 -38.5t-76.5 -13.5t-77.5 13.5t-63.5 38t-43 59t-16 76.5zM452 1410q0 -34 23 -60.5t60 -26.5q34 0 56.5 26t22.5 61 q0 18 -5.5 34t-15.5 28.5t-25 20t-33 7.5q-19 0 -34.5 -7.5t-26 -20t-16.5 -28.5t-6 -34z" />
<glyph unicode="&#xe6;" horiz-adv-x="1612" d="M65 307q0 81 29 144.5t85 108t138 68t188 23.5h149v109q0 87 -41 128t-126 41q-44 0 -85.5 -8.5t-79 -22t-70.5 -31t-60 -35.5l-74 158q26 19 63 40.5t84 40t103 32t120 16.5q25 2 50 1t50 -3q70 -7 130 -36.5t98 -77.5q49 53 121.5 86t166.5 33q102 0 180 -33.5t131 -96 t80 -152t27 -201.5v-160h-245.5h-167h-104.5h-58h-26.5h-10.5q1 -60 17.5 -115.5t48 -97.5t78 -66.5t108.5 -22.5q76 1 141.5 21t133.5 66l67 -158q-73 -61 -174 -94t-211 -33q-58 0 -113 13t-102.5 36.5t-86 57t-64.5 74.5q-35 -46 -77.5 -80t-90 -56.5t-98.5 -33.5 t-102 -11q-76 0 -135.5 23.5t-100.5 66.5t-62.5 103.5t-21.5 134.5zM320 315q0 -63 33.5 -102t95.5 -39q33 0 64.5 10t58.5 27t48 39.5t34 47.5v195h-142q-47 0 -83 -13t-60 -37t-36.5 -56.5t-12.5 -71.5zM912 654l358 3v37q0 108 -43 168t-128 60q-49 0 -84 -26 t-57.5 -65.5t-33.5 -86.5t-12 -90z" />
<glyph unicode="&#xe7;" horiz-adv-x="941" d="M94 515v71q0 117 31 215t90 169.5t144 111.5t192 40q65 0 117.5 -10t95 -27t77 -40.5t63.5 -51.5l-82 -157q-49 42 -104.5 64.5t-124.5 22.5q-56 0 -101 -27t-76.5 -74t-48.5 -110t-18 -135v-44q0 -81 17 -147t48.5 -112.5t76.5 -71.5t102 -25q69 0 124.5 22.5 t104.5 64.5l81 -154q-23 -23 -52.5 -44.5t-66 -39t-81.5 -29.5t-99 -16l-18 -62q25 -5 50 -17t44 -33t31 -52.5t12 -75.5q0 -66 -29 -113t-77 -77t-111 -43.5t-132 -13.5l-8 138q27 0 56 5t52.5 17t39 32t15.5 50q0 19 -7 37t-22.5 32t-41 23t-62.5 11l40 153 q-81 19 -145 64.5t-107.5 113t-66.5 155t-23 190.5z" />
<glyph unicode="&#xe8;" horiz-adv-x="1053" d="M94 493v65q0 117 27.5 219.5t83.5 179t140.5 121t199.5 44.5q102 0 180.5 -33.5t131 -96t79.5 -152t27 -201.5v-160h-552q-15 0 -29.5 0.5t-29.5 -0.5q1 -60 17.5 -115.5t48 -97.5t78 -66.5t108.5 -22.5q75 1 140.5 21t133.5 66l68 -158q-73 -61 -174 -94t-212 -33 q-108 0 -194.5 38t-146.5 106t-92.5 162.5t-32.5 207.5zM127 1565h330l259 -332h-200zM355 654l357 3v37q0 108 -43.5 168t-128.5 60q-41 0 -74.5 -21t-57.5 -56.5t-37.5 -82.5t-15.5 -99v-9z" />
<glyph unicode="&#xe9;" horiz-adv-x="1053" d="M94 493v65q0 117 27.5 219.5t83.5 179t140.5 121t199.5 44.5q102 0 180.5 -33.5t131 -96t79.5 -152t27 -201.5v-160h-552q-15 0 -29.5 0.5t-29.5 -0.5q1 -60 17.5 -115.5t48 -97.5t78 -66.5t108.5 -22.5q75 1 140.5 21t133.5 66l68 -158q-73 -61 -174 -94t-212 -33 q-108 0 -194.5 38t-146.5 106t-92.5 162.5t-32.5 207.5zM355 654l357 3v37q0 108 -43.5 168t-128.5 60q-41 0 -74.5 -21t-57.5 -56.5t-37.5 -82.5t-15.5 -99v-9zM359 1231l257 332h331l-387 -332h-201z" />
<glyph unicode="&#xea;" horiz-adv-x="1053" d="M94 493v65q0 117 27.5 219.5t83.5 179t140.5 121t199.5 44.5q102 0 180.5 -33.5t131 -96t79.5 -152t27 -201.5v-160h-552q-15 0 -29.5 0.5t-29.5 -0.5q1 -60 17.5 -115.5t48 -97.5t78 -66.5t108.5 -22.5q75 1 140.5 21t133.5 66l68 -158q-73 -61 -174 -94t-212 -33 q-108 0 -194.5 38t-146.5 106t-92.5 162.5t-32.5 207.5zM157 1230l286 331h195l288 -331h-208l-178 149l-177 -149h-206zM355 654l357 3v37q0 108 -43.5 168t-128.5 60q-41 0 -74.5 -21t-57.5 -56.5t-37.5 -82.5t-15.5 -99v-9z" />
<glyph unicode="&#xeb;" horiz-adv-x="1053" d="M94 493v65q0 117 27.5 219.5t83.5 179t140.5 121t199.5 44.5q102 0 180.5 -33.5t131 -96t79.5 -152t27 -201.5v-160h-552q-15 0 -29.5 0.5t-29.5 -0.5q1 -60 17.5 -115.5t48 -97.5t78 -66.5t108.5 -22.5q75 1 140.5 21t133.5 66l68 -158q-73 -61 -174 -94t-212 -33 q-108 0 -194.5 38t-146.5 106t-92.5 162.5t-32.5 207.5zM195 1268v206h234v-206h-234zM355 654l357 3v37q0 108 -43.5 168t-128.5 60q-41 0 -74.5 -21t-57.5 -56.5t-37.5 -82.5t-15.5 -99v-9zM652 1268v206h233v-206h-233z" />
<glyph unicode="&#xec;" horiz-adv-x="551" d="M-129 1554h331l259 -332h-201zM148 0v1102h255v-1102h-255z" />
<glyph unicode="&#xed;" horiz-adv-x="551" d="M96 1231l257 332h331l-387 -332h-201zM148 0v1102h255v-1102h-255z" />
<glyph unicode="&#xee;" horiz-adv-x="553" d="M-108 1230l286 331h195l288 -331h-208l-178 149l-177 -149h-206zM148 0v1102h255v-1102h-255z" />
<glyph unicode="&#xef;" horiz-adv-x="567" d="M-64 1270v206h234v-206h-234zM153 0v1102h256v-1102h-256zM393 1270v206h233v-206h-233z" />
<glyph unicode="&#xf0;" horiz-adv-x="1182" d="M93 465q0 113 32.5 205.5t92.5 158.5t145 102t190 36q72 0 136.5 -25t111.5 -69l4 4q-16 85 -51.5 156.5t-88.5 128.5l-225 -136l-73 106l193 118q-34 21 -70 38.5t-73 32.5l80 196q154 -44 278 -139l196 119l72 -106l-170 -103q110 -127 160.5 -287.5t50.5 -345.5v-83 q0 -129 -38 -237.5t-105 -187.5t-158.5 -123.5t-198.5 -44.5q-108 0 -198 37.5t-155.5 102.5t-101.5 154t-36 192zM349 465q0 -58 16.5 -110t47 -91.5t74.5 -63t100 -23.5t100.5 30t76 83t48 125.5t16.5 156.5v96q-32 47 -93.5 78t-147.5 31q-57 0 -101 -23.5t-74.5 -65 t-46.5 -98.5t-16 -125z" />
<glyph unicode="&#xf1;" horiz-adv-x="1151" d="M147 0v1102h219l27 -156q49 83 123.5 129.5t166.5 46.5q76 0 136 -25.5t102 -78t64 -133.5t22 -191v-694h-256v692q0 60 -13 103.5t-35 71t-52 40.5t-64 13q-24 0 -49.5 -9.5t-50 -27t-46.5 -41.5t-39 -54v-788h-255zM186 1284q4 54 24 101.5t52.5 83t74.5 56t90 20.5 q53 0 93.5 -14.5t74.5 -32t65.5 -32t67.5 -14.5q20 0 36.5 8.5t28.5 22.5t19.5 33t10.5 39l139 -35q-2 -55 -23 -101.5t-54 -80.5t-75 -53t-87 -19q-54 0 -95 14.5t-75.5 32.5t-65.5 32.5t-65 14.5q-21 0 -38.5 -9t-29.5 -24t-19.5 -33.5t-9.5 -36.5z" />
<glyph unicode="&#xf2;" horiz-adv-x="1122" d="M94 515v69q1 119 32.5 218t91 170t146 110.5t196.5 39.5q112 0 199 -41t147 -113t91 -170.5t31 -213.5v-69q0 -120 -32 -218.5t-92 -169t-146.5 -109.5t-195.5 -39q-113 0 -200 40t-146.5 111.5t-90.5 170t-31 214.5zM150 1564h330l259 -332h-200zM349 515 q0 -76 12.5 -138t38.5 -106.5t66 -69t96 -24.5q54 0 94 24.5t66 69.5t38.5 107t12.5 137v69q0 65 -11 126t-36.5 108t-66 75.5t-99.5 28.5q-60 0 -100.5 -29t-65 -77t-35 -108.5t-10.5 -123.5v-69z" />
<glyph unicode="&#xf3;" horiz-adv-x="1122" d="M94 515v69q1 119 32.5 218t91 170t146 110.5t196.5 39.5q112 0 199 -41t147 -113t91 -170.5t31 -213.5v-69q0 -120 -32 -218.5t-92 -169t-146.5 -109.5t-195.5 -39q-113 0 -200 40t-146.5 111.5t-90.5 170t-31 214.5zM349 515q0 -76 12.5 -138t38.5 -106.5t66 -69 t96 -24.5q54 0 94 24.5t66 69.5t38.5 107t12.5 137v69q0 65 -11 126t-36.5 108t-66 75.5t-99.5 28.5q-60 0 -100.5 -29t-65 -77t-35 -108.5t-10.5 -123.5v-69zM385 1230l257 332h331l-387 -332h-201z" />
<glyph unicode="&#xf4;" horiz-adv-x="1122" d="M94 515v69q1 119 32.5 218t91 170t146 110.5t196.5 39.5q112 0 199 -41t147 -113t91 -170.5t31 -213.5v-69q0 -120 -32 -218.5t-92 -169t-146.5 -109.5t-195.5 -39q-113 0 -200 40t-146.5 111.5t-90.5 170t-31 214.5zM174 1235l286 331h195l288 -331h-208l-178 149 l-177 -149h-206zM349 515q0 -76 12.5 -138t38.5 -106.5t66 -69t96 -24.5q54 0 94 24.5t66 69.5t38.5 107t12.5 137v69q0 65 -11 126t-36.5 108t-66 75.5t-99.5 28.5q-60 0 -100.5 -29t-65 -77t-35 -108.5t-10.5 -123.5v-69z" />
<glyph unicode="&#xf5;" horiz-adv-x="1122" d="M94 515v69q1 119 32.5 218t91 170t146 110.5t196.5 39.5q112 0 199 -41t147 -113t91 -170.5t31 -213.5v-69q0 -120 -32 -218.5t-92 -169t-146.5 -109.5t-195.5 -39q-113 0 -200 40t-146.5 111.5t-90.5 170t-31 214.5zM173 1284q4 54 24 101.5t52.5 83t74.5 56t90 20.5 q53 0 93.5 -14.5t74.5 -32t65.5 -32t67.5 -14.5q20 0 36.5 8.5t28.5 22.5t19.5 33t10.5 39l139 -35q-2 -55 -23 -101.5t-54 -80.5t-75 -53t-87 -19q-54 0 -95 14.5t-75.5 32.5t-65.5 32.5t-65 14.5q-21 0 -38.5 -9t-29.5 -24t-19.5 -33.5t-9.5 -36.5zM349 515 q0 -76 12.5 -138t38.5 -106.5t66 -69t96 -24.5q54 0 94 24.5t66 69.5t38.5 107t12.5 137v69q0 65 -11 126t-36.5 108t-66 75.5t-99.5 28.5q-60 0 -100.5 -29t-65 -77t-35 -108.5t-10.5 -123.5v-69z" />
<glyph unicode="&#xf6;" horiz-adv-x="1122" d="M94 515v69q1 119 32.5 218t91 170t146 110.5t196.5 39.5q112 0 199 -41t147 -113t91 -170.5t31 -213.5v-69q0 -120 -32 -218.5t-92 -169t-146.5 -109.5t-195.5 -39q-113 0 -200 40t-146.5 111.5t-90.5 170t-31 214.5zM214 1267v206h234v-206h-234zM349 515 q0 -76 12.5 -138t38.5 -106.5t66 -69t96 -24.5q54 0 94 24.5t66 69.5t38.5 107t12.5 137v69q0 65 -11 126t-36.5 108t-66 75.5t-99.5 28.5q-60 0 -100.5 -29t-65 -77t-35 -108.5t-10.5 -123.5v-69zM671 1267v206h233v-206h-233z" />
<glyph unicode="&#xf7;" horiz-adv-x="1212" d="M127 586v206h945v-206h-945zM473 173v218h255v-218h-255zM473 981v218h255v-218h-255z" />
<glyph unicode="&#xf8;" horiz-adv-x="1122" d="M94 515v69q1 119 32.5 218t91 170t146 110.5t196.5 39.5q30 0 58.5 -3.5t55.5 -9.5l58 126h218l-98 -213q86 -72 131 -185t45 -253v-69q0 -120 -32 -218.5t-92 -169t-146.5 -109.5t-195.5 -39q-63 0 -121 14l-62 -134h-218l102 223q-83 72 -126 183t-43 250zM349 515 q0 -76 12.5 -138t38.5 -106.5t66 -69t96 -24.5q54 0 94 24.5t66 69.5t38.5 107t12.5 137v69q0 65 -11 126t-36.5 108t-66 75.5t-99.5 28.5q-60 0 -100.5 -29t-65 -77t-35 -108.5t-10.5 -123.5v-69z" />
<glyph unicode="&#xf9;" horiz-adv-x="1163" d="M144 434v668h255v-670q0 -69 9.5 -117t29 -78t48 -43.5t66.5 -13.5q35 0 65 10t54.5 27t44.5 40t35 49l-1 796h256v-835q1 -30 4 -51.5t9.5 -38.5t17 -30.5t26.5 -27.5l-105 -140q-32 7 -61.5 24t-54 38.5t-42 46t-24.5 45.5q-51 -75 -126.5 -114.5t-167.5 -39.5 q-80 0 -142.5 27t-106 83.5t-66.5 142t-23 202.5zM156 1554h330l259 -332h-200z" />
<glyph unicode="&#xfa;" horiz-adv-x="1163" d="M144 434v668h255v-670q0 -69 9.5 -117t29 -78t48 -43.5t66.5 -13.5q35 0 65 10t54.5 27t44.5 40t35 49l-1 796h256v-835q1 -30 4 -51.5t9.5 -38.5t17 -30.5t26.5 -27.5l-105 -140q-32 7 -61.5 24t-54 38.5t-42 46t-24.5 45.5q-51 -75 -126.5 -114.5t-167.5 -39.5 q-80 0 -142.5 27t-106 83.5t-66.5 142t-23 202.5zM407 1220l257 332h331l-387 -332h-201z" />
<glyph unicode="&#xfb;" horiz-adv-x="1163" d="M144 434v668h255v-670q0 -69 9.5 -117t29 -78t48 -43.5t66.5 -13.5q35 0 65 10t54.5 27t44.5 40t35 49l-1 796h256v-835q1 -30 4 -51.5t9.5 -38.5t17 -30.5t26.5 -27.5l-105 -140q-32 7 -61.5 24t-54 38.5t-42 46t-24.5 45.5q-51 -75 -126.5 -114.5t-167.5 -39.5 q-80 0 -142.5 27t-106 83.5t-66.5 142t-23 202.5zM192 1224l286 331h195l288 -331h-208l-178 149l-177 -149h-206z" />
<glyph unicode="&#xfc;" horiz-adv-x="1163" d="M144 434v668h255v-670q0 -69 9.5 -117t29 -78t48 -43.5t66.5 -13.5q35 0 65 10t54.5 27t44.5 40t35 49l-1 796h256v-835q1 -30 4 -51.5t9.5 -38.5t17 -30.5t26.5 -27.5l-105 -140q-32 7 -61.5 24t-54 38.5t-42 46t-24.5 45.5q-51 -75 -126.5 -114.5t-167.5 -39.5 q-80 0 -142.5 27t-106 83.5t-66.5 142t-23 202.5zM234 1267v206h234v-206h-234zM691 1267v206h233v-206h-233z" />
<glyph unicode="&#xfd;" horiz-adv-x="971" d="M21 1102h269l178 -727q1 -6 3 -20t4.5 -30t5 -30t3.5 -20h6l17 100l174 727h269l-396 -1267q-18 -57 -46 -106.5t-67.5 -86.5t-92 -58t-119.5 -21q-15 0 -32.5 2t-35.5 5t-34 6.5t-28 7.5l29 189q4 -1 12.5 -2t18.5 -2l20 -2t16 -1q33 0 56.5 10t40 28t28.5 44.5t24 59.5 l27 80zM319 1220l257 332h331l-387 -332h-201z" />
<glyph unicode="&#xfe;" horiz-adv-x="1135" d="M147 -416v1976h255v-566q45 62 106 95t141 33q93 0 166 -39.5t123 -111.5t76 -173t26 -223v-92q0 -112 -26 -205t-75.5 -159.5t-122 -103t-164.5 -36.5q-160 0 -249 119v-514h-256zM403 279q26 -49 70.5 -75.5t109.5 -26.5q54 0 92.5 23t63 65.5t35.5 101.5t11 131v75 q0 76 -12.5 140t-37.5 110t-63.5 71.5t-89.5 25.5q-64 0 -108.5 -30t-70.5 -82v-529z" />
<glyph unicode="&#xff;" horiz-adv-x="971" d="M21 1102h269l178 -727q1 -6 3 -20t4.5 -30t5 -30t3.5 -20h6l17 100l174 727h269l-396 -1267q-18 -57 -46 -106.5t-67.5 -86.5t-92 -58t-119.5 -21q-15 0 -32.5 2t-35.5 5t-34 6.5t-28 7.5l29 189q4 -1 12.5 -2t18.5 -2l20 -2t16 -1q33 0 56.5 10t40 28t28.5 44.5t24 59.5 l27 80zM144 1267v206h234v-206h-234zM601 1267v206h233v-206h-233z" />
<glyph unicode="&#x152;" horiz-adv-x="1870" d="M105 656v97q0 176 36.5 311.5t106.5 227t171.5 138.5t231.5 47q31 0 64.5 -2t64 -5.5t55.5 -7t41 -6.5h902v-200h-646v-404h557v-199h-557v-454h656v-199h-911q-5 -1 -28.5 -4.5t-56 -7t-70 -6.5t-70.5 -3q-122 0 -222.5 43.5t-172.5 129t-112 212t-40 292.5zM360 702 q0 -266 70 -394t222 -128q35 0 72.5 4.5t70 10.5t54.5 11.5t27 7.5v1024q-9 4 -31.5 10.5t-53.5 12t-67 9.5t-73 4q-142 0 -216.5 -120.5t-74.5 -370.5v-81z" />
<glyph unicode="&#x153;" horiz-adv-x="1737" d="M94 532v38q1 121 32.5 222.5t91 175t146 114t196.5 40.5q109 0 194.5 -41t146.5 -115q57 74 139 115t183 41q102 0 181 -34t133 -97t82 -153t28 -203v-154h-612v-2q1 -64 17.5 -119t46.5 -95.5t73.5 -64t99.5 -23.5q42 0 78.5 5t70 16t65 28t64.5 40l73 -158 q-30 -27 -69.5 -51t-87 -41t-102.5 -27t-115 -10q-111 0 -198 39.5t-149 114.5q-60 -75 -145.5 -114.5t-194.5 -39.5q-113 0 -200 41.5t-146.5 115t-90.5 175t-31 221.5zM349 529q0 -79 12.5 -143.5t38.5 -111t66 -72t96 -25.5q55 0 94.5 26t65.5 72.5t38.5 111t12.5 142.5 v41q0 68 -11 131.5t-36.5 112.5t-66 78.5t-99.5 29.5q-60 0 -100.5 -30.5t-65 -80t-35 -112.5t-10.5 -129v-41zM1038 660h357v30q0 108 -43 170t-129 62q-38 0 -69 -17t-54.5 -48t-38.5 -74t-21 -94q-1 -7 -1.5 -14t-0.5 -15z" />
<glyph unicode="&#x178;" horiz-adv-x="1135" d="M-19 1456h286l303 -700l306 700h278l-462 -940v-516h-256v531zM224 1597v205h233v-205h-233zM681 1597v205h232v-205h-232z" />
<glyph unicode="&#x2c6;" horiz-adv-x="817" d="M24 1222l286 331h195l288 -331h-208l-178 149l-177 -149h-206z" />
<glyph unicode="&#x2dc;" horiz-adv-x="942" d="M80 1269q4 54 24 101.5t52.5 83t74.5 56t90 20.5q53 0 93.5 -14.5t74.5 -32t65.5 -32t67.5 -14.5q20 0 36.5 8.5t28.5 22.5t19.5 33t10.5 39l139 -35q-2 -55 -23 -101.5t-54 -80.5t-75 -53t-87 -19q-54 0 -95 14.5t-75.5 32.5t-65.5 32.5t-65 14.5q-21 0 -38.5 -9 t-29.5 -24t-19.5 -33.5t-9.5 -36.5z" />
<glyph unicode="&#x2000;" horiz-adv-x="955" />
<glyph unicode="&#x2001;" horiz-adv-x="1911" />
<glyph unicode="&#x2002;" horiz-adv-x="955" />
<glyph unicode="&#x2003;" horiz-adv-x="1911" />
<glyph unicode="&#x2004;" horiz-adv-x="637" />
<glyph unicode="&#x2005;" horiz-adv-x="477" />
<glyph unicode="&#x2006;" horiz-adv-x="318" />
<glyph unicode="&#x2007;" horiz-adv-x="318" />
<glyph unicode="&#x2008;" horiz-adv-x="238" />
<glyph unicode="&#x2009;" horiz-adv-x="382" />
<glyph unicode="&#x200a;" horiz-adv-x="106" />
<glyph unicode="&#x2010;" horiz-adv-x="690" d="M91 522v199h508v-199h-508z" />
<glyph unicode="&#x2011;" horiz-adv-x="690" d="M91 522v199h508v-199h-508z" />
<glyph unicode="&#x2012;" horiz-adv-x="690" d="M91 522v199h508v-199h-508z" />
<glyph unicode="&#x2013;" horiz-adv-x="1128" d="M89 564v201h947v-201h-947z" />
<glyph unicode="&#x2014;" horiz-adv-x="1473" d="M88 564v201h1291v-201h-1291z" />
<glyph unicode="&#x2018;" horiz-adv-x="470" d="M97 1024v188l150 348h125l-55 -347v-189h-220z" />
<glyph unicode="&#x2019;" horiz-adv-x="470" d="M98 1025l55 342v193h220v-192l-150 -343h-125z" />
<glyph unicode="&#x201a;" horiz-adv-x="470" d="M97 -255l55 266v268h221v-253l-139 -281h-137z" />
<glyph unicode="&#x201c;" horiz-adv-x="780" d="M97 1024v188l150 348h125l-55 -347v-189h-220zM407 1024v188l150 348h125l-55 -347v-189h-220z" />
<glyph unicode="&#x201d;" horiz-adv-x="788" d="M97 1025l55 342v193h220v-192l-150 -343h-125zM415 1025l55 342v193h220v-192l-150 -343h-125z" />
<glyph unicode="&#x201e;" horiz-adv-x="713" d="M68 -223l56 277v238h209v-227l-151 -288h-114zM379 -223l56 284v231h209v-227l-151 -288h-114z" />
<glyph unicode="&#x2022;" horiz-adv-x="709" d="M130 732v54q1 53 17.5 96t45.5 73t69 46.5t90 16.5q49 0 90.5 -16.5t71.5 -47t46.5 -73.5t16.5 -95v-54q0 -54 -17 -96.5t-47 -72.5t-71 -45.5t-88 -15.5q-50 0 -91 16t-70.5 45.5t-46 72t-16.5 96.5z" />
<glyph unicode="&#x2026;" horiz-adv-x="1452" d="M172 0v236h254v-236h-254zM605 0v236h254v-236h-254zM1039 0v236h254v-236h-254z" />
<glyph unicode="&#x202f;" horiz-adv-x="382" />
<glyph unicode="&#x2039;" horiz-adv-x="608" d="M96 541v19l261 387h168l-224 -397l224 -397h-168z" />
<glyph unicode="&#x203a;" horiz-adv-x="606" d="M93 152l222 398l-222 398h167l261 -388v-19l-261 -389h-167z" />
<glyph unicode="&#x205f;" horiz-adv-x="477" />
<glyph unicode="&#x20ac;" horiz-adv-x="1099" d="M96 480v180h135v127h-135v180h135q1 119 41.5 213.5t112.5 160.5t171 101t218 35q56 0 109 -8t115 -23l-19 -204q-50 15 -101.5 25t-103.5 10q-69 0 -122.5 -23.5t-90 -65t-55.5 -98.5t-19 -123h423v-180h-423v-127h423v-180h-422q0 -65 21 -119.5t59.5 -94.5t91 -62.5 t115.5 -22.5q53 0 104 6t100 24l19 -201q-54 -15 -110 -23t-113 -8q-127 0 -227.5 37.5t-171 104.5t-108 159t-37.5 200h-135z" />
<glyph unicode="&#x2122;" horiz-adv-x="1228" d="M107 1358v98h366v-98h-122v-441h-125v441h-119zM539 915v541h140l117 -373h6l117 373h135v-541h-113v289q-2 0 -3 0.5t-3 0.5l-105 -290h-63l-109 304q-2 0 -3 -0.5t-3 -0.5v-303h-113z" />
<glyph unicode="&#x25fc;" horiz-adv-x="1100" d="M0 0v1100h1100v-1100h-1100z" />
<glyph unicode="&#xfb02;" horiz-adv-x="1264" d="M37 919v183h144v111q0 89 24.5 157.5t71.5 115.5t114.5 71t153.5 24q34 0 68.5 -6t77.5 -15l-24 -181q-21 4 -42.5 7t-47.5 3q-69 0 -105 -46t-36 -128v-113h214v-183h-214v-919h-255v919h-144zM811 332v1228h256v-1232q0 -77 12.5 -114t52.5 -37q19 0 34.5 4.5t29.5 9.5 l29 -172q-14 -8 -35.5 -15.5t-46 -13t-50.5 -8.5t-49 -3q-57 0 -100.5 17t-73 57.5t-44.5 108.5t-15 170z" />
</font>
</defs>
</svg>
