<?xml version="1.0" standalone="no"?>
<!DOCTYPE svg PUBLIC "-//W3C//DTD SVG 1.1//EN" "http://www.w3.org/Graphics/SVG/1.1/DTD/svg11.dtd" >
<svg xmlns="http://www.w3.org/2000/svg" xmlns:xlink="http://www.w3.org/1999/xlink" version="1.1">
<metadata></metadata>
<defs>
<font id="ufes_sansthin" horiz-adv-x="1344" >
<font-face units-per-em="2048" ascent="1638" descent="-410" />
<missing-glyph horiz-adv-x="475" />
<glyph unicode="&#xfb01;" horiz-adv-x="1081" d="M62 991v68h157v140q0 100 24.5 172.5t70 119t110.5 68.5t146 22q75 0 141 -20.5t126 -56.5l-19 -68q-20 12 -47 24.5t-59.5 23t-68 17.5t-71.5 7q-75 0 -125.5 -19t-81.5 -57t-44.5 -96.5t-13.5 -136.5v-140h269v-68h-269v-991h-88v991h-157zM783 0v1059h88v-1059h-88z " />
<glyph unicode="&#xfb03;" horiz-adv-x="1644" d="M62 991v68h157v211q0 158 61.5 234.5t174.5 76.5q35 0 71.5 -7t65.5 -21l-16 -65q-35 11 -61 15.5t-52 4.5q-81 0 -118.5 -55.5t-37.5 -182.5v-211h475v140q0 100 24.5 172.5t70 119t110.5 68.5t146 22q75 0 141 -20.5t126 -56.5l-19 -68q-20 12 -47 24.5t-59.5 23 t-68 17.5t-71.5 7q-75 0 -125.5 -19t-81.5 -57t-44.5 -96.5t-13.5 -136.5v-140h269v-68h-269v-991h-88v991h-475v-991h-88v991h-157zM1346 0v1059h88v-1059h-88z" />
<glyph horiz-adv-x="0" />
<glyph unicode="&#xd;" horiz-adv-x="475" />
<glyph horiz-adv-x="0" />
<glyph horiz-adv-x="0" />
<glyph horiz-adv-x="16" />
<glyph unicode="&#x9;" horiz-adv-x="16" />
<glyph unicode=" "  horiz-adv-x="475" />
<glyph unicode="&#x09;" horiz-adv-x="475" />
<glyph unicode="&#xa0;" horiz-adv-x="475" />
<glyph unicode="!" horiz-adv-x="546" d="M221 1456h104l-19 -1054h-66zM224 0v121h97v-121h-97z" />
<glyph unicode="&#x22;" horiz-adv-x="620" d="M140 1329v231h93v-231l-28 -263h-41zM387 1329v231h93v-231l-28 -263h-41z" />
<glyph unicode="#" horiz-adv-x="1224" d="M111 425l1 70h236l93 473h-252v70h264l81 418h78l-83 -418h317l84 418h76l-83 -418h210v-70h-227l-90 -473h246l1 -70h-260l-71 -425h-75l71 425h-319l-82 -425h-76l83 425h-223zM423 495h320l87 473h-314z" />
<glyph unicode="$" horiz-adv-x="1037" d="M121 142l36 59q31 -26 69.5 -51t83 -44.5t96 -31t109.5 -11.5q70 0 127.5 26t98.5 68.5t64 97t23 110.5q0 38 -4 72.5t-17.5 66t-39.5 62t-69 61.5t-106.5 63t-152.5 68q-68 27 -122 60.5t-92 78.5t-58.5 104.5t-20.5 138.5q0 69 24 128.5t69 103.5t110 71t146 32v218h75 v-222q19 -3 47 -6t64.5 -14t82.5 -34t100 -66l-33 -60q-50 42 -98.5 64.5t-90 33t-72.5 12.5t-45 2q-80 0 -135.5 -21.5t-91 -59t-51.5 -87.5t-16 -108q0 -47 15.5 -90t51 -81.5t92 -73t137.5 -63.5q72 -28 141.5 -63t124.5 -84.5t89 -117.5t34 -162q0 -60 -17 -122.5 t-57.5 -117.5t-106.5 -97t-165 -60v-206h-75v202q-41 3 -85 11t-91 25t-96.5 45t-101.5 70z" />
<glyph unicode="%" horiz-adv-x="1363" d="M92 1129v17q0 68 18 128t52.5 105t84 71.5t112.5 26.5q64 0 112.5 -26t81.5 -71t49.5 -105.5t16.5 -128.5v-17q0 -69 -18 -129t-51.5 -104.5t-82 -70t-108.5 -25.5q-58 0 -107 25.5t-84.5 70t-55.5 104.5t-20 129zM172 1129q0 -50 11 -97.5t34 -84t58.5 -58.5t83.5 -22 t82 21.5t56 57.5t32 83.5t10 99.5v17q0 59 -10.5 108t-32.5 83.5t-56 53.5t-81 19q-49 0 -84.5 -20.5t-58 -56.5t-33.5 -84t-11 -103v-17zM216 0l844 1456h88l-849 -1456h-83zM742 308v17q0 68 18 128t52.5 105t84 71.5t112.5 26.5q64 0 112.5 -26t81.5 -71t49.5 -105.5 t16.5 -128.5v-17q0 -69 -18 -129t-51.5 -104.5t-82 -70t-108.5 -25.5q-58 0 -107 25.5t-84.5 70t-55.5 104.5t-20 129zM822 308q0 -50 11 -97.5t34 -84t58.5 -58.5t83.5 -22t82 21.5t56 57.5t32 83.5t10 99.5v17q0 59 -10.5 108t-32.5 83.5t-56 53.5t-81 19 q-49 0 -84.5 -20.5t-58 -56.5t-33.5 -84t-11 -103v-17z" />
<glyph unicode="&#x26;" horiz-adv-x="1388" d="M135 377q0 60 16 113t41.5 97.5t56.5 80.5t60.5 63.5t53.5 45.5l36 27q-38 49 -65 93.5t-44.5 87t-25.5 84t-8 86.5q0 19 5 50.5t18 67.5t36 72.5t60 65.5t89 47.5t123 18.5q53 0 96.5 -10t75 -22t49.5 -22.5t20 -11.5l-26 -62q-5 3 -23.5 12.5t-48.5 20t-69 18.5t-84 8 q-63 0 -108 -22t-74 -58t-42.5 -82t-13.5 -94q0 -35 6.5 -68t22 -69t40.5 -77t62 -92l470 -587q32 44 50.5 92t28.5 97t13.5 98t6.5 95h-148v68h462v-68h-233q-3 -69 -11.5 -129.5t-24 -114.5t-39.5 -102.5t-58 -93.5l164 -201h-97l-119 143q-79 -78 -173 -121t-213 -43 q-75 0 -149 23.5t-133 72t-95.5 123.5t-36.5 179zM223 380q0 -86 29.5 -148t77.5 -103t108.5 -60.5t122.5 -19.5q53 0 97 10t83 28.5t74.5 46.5t71.5 64l-449 552q-26 -21 -63 -53.5t-70.5 -77.5t-57.5 -104.5t-24 -134.5z" />
<glyph unicode="'" horiz-adv-x="373" d="M140 1329v231h93v-231l-28 -263h-41z" />
<glyph unicode="(" horiz-adv-x="538" d="M100 680q4 143 28.5 288t72 276t119 239t169.5 176l24 -64q-71 -60 -130 -144.5t-101.5 -197t-67 -255.5t-26.5 -320q0 -183 23.5 -333t66 -269t102 -208.5t132.5 -150.5l-23 -64q-98 68 -169.5 179.5t-119 248.5t-72 291t-28.5 308z" />
<glyph unicode=")" horiz-adv-x="537" d="M25 -283q73 61 132.5 150.5t102 208.5t66 269t23.5 333q-2 177 -26.5 320t-66.5 255.5t-101 197t-130 144.5l23 64q97 -68 169 -176t119.5 -239t72 -276t28.5 -288q-4 -154 -28.5 -308t-72 -291t-119.5 -248.5t-169 -179.5z" />
<glyph unicode="*" horiz-adv-x="1026" d="M141 1110l26 85l313 -115l-11 376h89l-10 -376l312 115l25 -80l-319 -97l199 -312l-67 -50l-186 316l-196 -318l-67 52l214 314z" />
<glyph unicode="+" horiz-adv-x="1182" d="M121 663v70h431v473h83v-473h426v-70h-426v-517h-83v517h-431z" />
<glyph unicode="," horiz-adv-x="526" d="M146 -296l73 299v118h97v-120l-113 -297h-57z" />
<glyph unicode="-" horiz-adv-x="637" d="M100 576v70h437v-70h-437z" />
<glyph unicode="." horiz-adv-x="517" d="M210 0v121h97v-121h-97z" />
<glyph unicode="/" horiz-adv-x="813" d="M80 -125l561 1581h80l-560 -1581h-81z" />
<glyph unicode="0" horiz-adv-x="1102" d="M145 686v95q0 171 23.5 301.5t73 218t126 132t182.5 44.5q109 0 186.5 -40t126.5 -125.5t71.5 -219.5t22.5 -322v-95q0 -343 -98 -519.5t-309 -176.5q-106 0 -182.5 40t-126 125.5t-73 219.5t-23.5 322zM233 670q0 -184 24.5 -304t67.5 -190.5t101 -98.5t124 -28 q70 1 128.5 32t101 100.5t66 184t23.5 283.5v137q0 184 -22.5 304t-64 190.5t-100.5 98.5t-132 28q-69 -2 -127.5 -33.5t-100.5 -102.5t-65.5 -185t-23.5 -279v-137z" />
<glyph unicode="1" horiz-adv-x="767" d="M100 1394l283 62h62v-1386h231v-70h-569v70h248v1297l-243 -36z" />
<glyph unicode="2" horiz-adv-x="900" d="M60 0v70q77 100 159 208t168 229q90 126 148 219t91.5 163.5t46.5 125t13 104.5q0 60 -21.5 112t-59.5 90.5t-90 60.5t-113 22q-54 0 -95.5 -9t-75.5 -24.5t-63 -36t-56 -44.5l-33 57q22 22 51.5 45t68 42t86.5 31t107 12q85 0 155.5 -24.5t121.5 -71t79 -114t28 -152.5 q0 -83 -32 -170.5t-84 -177t-116.5 -179t-128.5 -175.5q-41 -55 -83.5 -109.5t-79.5 -101.5t-65 -82t-38 -50h654v-70h-743z" />
<glyph unicode="3" horiz-adv-x="942" d="M53 92l34 61q28 -21 62 -39.5t75 -32.5t91 -22t109 -8q63 0 119 22t98 64.5t66.5 106t24.5 146.5q0 74 -16.5 135.5t-50.5 105.5t-86 68.5t-123 24.5h-153v71h153q64 0 112 22t79.5 61.5t47.5 93.5t16 118q0 87 -20.5 148t-59.5 98.5t-96 54.5t-131 17q-51 0 -96 -11 t-83.5 -27t-68 -34t-48.5 -32l-29 60q17 13 47.5 32.5t74 37.5t98.5 31t122 13q185 0 282.5 -94.5t97.5 -286.5q0 -52 -15 -105t-43 -99t-68.5 -81t-92.5 -50q67 -17 113 -53.5t74 -85.5t40.5 -106.5t12.5 -115.5q0 -96 -28.5 -174t-80.5 -133t-123.5 -85t-157.5 -30 q-67 0 -122 9t-101 24.5t-84.5 36t-71.5 43.5z" />
<glyph unicode="4" horiz-adv-x="1081" d="M61 374v53l601 1029h108v-1012h220v-70h-220v-374h-90v374h-619zM157 444h523v899z" />
<glyph unicode="5" horiz-adv-x="971" d="M90 111l32 60q26 -20 63 -41.5t80.5 -39t93 -28.5t100.5 -11q53 0 109 17t101.5 61t74 120t27.5 194q-3 110 -31.5 181t-75.5 112t-108.5 57t-131.5 16q-67 0 -128 -7.5t-128 -30.5l-49 42l58 643h629v-70h-550l-49 -537q30 9 56.5 14.5t53.5 8.5t55 4t60 1 q90 0 168.5 -20.5t136.5 -71.5t91.5 -137t33.5 -218q0 -111 -28.5 -195.5t-81 -141t-126 -85.5t-163.5 -29q-56 0 -108 10.5t-99 28.5t-88.5 42t-77.5 51z" />
<glyph unicode="6" horiz-adv-x="1041" d="M141 636v145q0 181 31.5 312.5t89 216.5t137.5 126t177 41q49 0 87.5 -5t70 -14t57 -20.5t48.5 -24.5l-18 -69q-28 17 -54.5 29t-55.5 19.5t-62.5 11t-73.5 3.5q-173 0 -258 -171t-88 -497q17 42 52 76.5t79 59t93.5 38.5t96.5 14q84 0 157 -26.5t127 -82t85 -141.5 t31 -206q0 -111 -32 -202t-87.5 -155.5t-131.5 -99.5t-163 -35q-48 0 -95.5 11t-91.5 38.5t-82 75t-66 120.5t-44 174.5t-16 237.5zM229 617q0 -174 29 -284.5t74.5 -173.5t102 -86.5t111.5 -23.5q61 0 118 26.5t101 78t70.5 127.5t26.5 175q0 88 -20 161.5t-58.5 127 t-94 83t-126.5 29.5q-67 0 -121 -18.5t-95.5 -50.5t-70.5 -76t-47 -95z" />
<glyph unicode="7" horiz-adv-x="951" d="M40 1386v70h829v-72q-135 -184 -220.5 -362t-135.5 -350.5t-72.5 -340t-29.5 -331.5h-93q14 189 38.5 361.5t75 340.5t135.5 336t221 348h-748z" />
<glyph unicode="8" horiz-adv-x="1053" d="M115 387q0 135 72.5 230t203.5 137q-56 18 -99.5 52t-73 79t-45 99t-15.5 113q0 82 24.5 152t72 120.5t116 79t157.5 28.5q91 0 160 -27t115.5 -76.5t70 -119t23.5 -154.5q0 -59 -16 -113.5t-46 -100t-74 -80.5t-99 -53q63 -20 114 -54t87 -81t55.5 -105.5t19.5 -125.5 q0 -90 -27 -165t-79 -129t-128.5 -84t-175.5 -30q-92 0 -168 25.5t-130.5 76.5t-84.5 127.5t-30 178.5zM205 373q0 -78 23 -138t65 -101.5t101.5 -63t133.5 -21.5q73 0 132 22t101 63.5t64.5 101.5t22.5 137q0 67 -24 129.5t-66.5 109.5t-101.5 75.5t-128 28.5 q-75 0 -135 -26.5t-101.5 -73t-64 -109t-22.5 -134.5zM249 1090q0 -66 19 -121.5t55 -96t88 -63.5t117 -23q62 0 113.5 21t88 60t57 94t20.5 123q0 73 -17 132.5t-51.5 102t-87 65.5t-123.5 23q-73 0 -126 -24.5t-87 -67t-50 -100.5t-16 -125z" />
<glyph unicode="9" horiz-adv-x="1041" d="M91 985q0 111 32 201.5t87.5 155t131.5 100t163 35.5q48 0 95.5 -11t91.5 -38.5t82 -75t66 -120.5t44 -174.5t16 -237.5v-145q0 -181 -31.5 -312.5t-89 -216.5t-137.5 -126t-177 -41q-49 0 -87.5 5.5t-70 14.5t-57 20.5t-48.5 24.5l18 68q28 -17 54.5 -29t55.5 -19.5 t62 -11t74 -3.5q173 0 258 171t88 497q-17 -42 -52 -76.5t-79 -59t-94 -38.5t-96 -14q-84 0 -157 26t-127 81.5t-85 142t-31 206.5zM179 1000q0 -88 20 -161.5t58.5 -127t94 -83t126.5 -29.5q67 0 121 18.5t95.5 50.5t70.5 76t47 95q0 174 -29 284.5t-74.5 173.5t-102 86.5 t-111.5 23.5q-61 0 -118 -26.5t-101 -78t-70.5 -127.5t-26.5 -175z" />
<glyph unicode=":" horiz-adv-x="517" d="M210 0v121h97v-121h-97zM210 947v121h97v-121h-97z" />
<glyph unicode=";" horiz-adv-x="528" d="M146 -296l73 299v118h97v-120l-113 -297h-57zM221 947v121h97v-121h-97z" />
<glyph unicode="&#x3c;" horiz-adv-x="1035" d="M125 700v62l754 380v-90l-635 -306l-49 -11v-4l49 -12l635 -317v-93z" />
<glyph unicode="=" horiz-adv-x="1202" d="M181 498v70h840v-70h-840zM181 886v70h840v-70h-840z" />
<glyph unicode="&#x3e;" horiz-adv-x="1035" d="M156 309v90l635 316l49 11v4l-49 12l-635 310v93l754 -384v-62z" />
<glyph unicode="?" horiz-adv-x="836" d="M61 1329q23 23 55.5 49t74.5 48t94 36.5t115 14.5q73 0 136.5 -21.5t110 -63t73.5 -103t27 -141.5q0 -69 -16 -130.5t-47 -121.5t-77 -121.5t-107 -130.5q-29 -30 -43.5 -56t-21.5 -53t-7.5 -59.5t-0.5 -75.5h-88q1 44 1.5 74.5t4 54t11.5 43.5t25 45t44.5 58t69.5 81 q47 55 78 102t49 90.5t25 86t7 89.5q0 58 -15 109.5t-47 89.5t-81.5 60t-119.5 22q-57 0 -106.5 -17t-88 -39.5t-64.5 -45t-35 -33.5zM334 0v121h97v-121h-97z" />
<glyph unicode="@" horiz-adv-x="1958" d="M165 474q0 111 23.5 223.5t70.5 216t117 193.5t162.5 156.5t207 104.5t251.5 38q203 0 353 -63t248.5 -178t146.5 -276.5t48 -358.5q0 -141 -17 -255.5t-55 -196t-99.5 -125.5t-149.5 -44q-44 0 -80 16t-64 41.5t-46.5 56t-28.5 60.5q-26 -37 -61.5 -64.5t-77 -45.5 t-87.5 -27t-92 -9q-71 0 -140.5 27t-124.5 84t-88.5 146.5t-33.5 215.5v57q-2 140 30 247.5t86.5 180.5t128 110.5t154.5 37.5q55 0 103.5 -13t89.5 -36.5t72.5 -55.5t52.5 -69l16 154h63v-835q-1 -30 5 -64.5t22 -64t45 -49.5t75 -20q49 0 89 31.5t67.5 97.5t42.5 168.5 t15 244.5q0 209 -53 361t-147.5 250.5t-226 145.5t-288.5 47q-98 0 -190.5 -27.5t-174.5 -80t-150.5 -128t-117.5 -171t-76.5 -210.5t-27.5 -245q0 -149 29 -270t78.5 -215.5t115.5 -163t140.5 -113.5t153.5 -66.5t155 -21.5q63 0 114.5 6.5t96.5 19t86 31t82 41.5l25 -59 q-85 -55 -189.5 -83.5t-229.5 -28.5q-39 0 -92 7.5t-113 26.5t-123 51.5t-123 82.5t-113.5 119t-93.5 161.5t-63.5 210t-23.5 264.5zM636 410q0 -77 17 -150t54.5 -130t97.5 -91.5t146 -34.5q55 0 103.5 17t88.5 46.5t69 68.5t44 84v531q-17 44 -44 83.5t-63.5 69.5 t-81 47.5t-96.5 17.5q-72 0 -133.5 -31.5t-106.5 -94.5t-70 -157t-25 -219v-57z" />
<glyph unicode="A" horiz-adv-x="1208" d="M47 0l525 1456h63l526 -1456h-96l-152 426h-618l-152 -426h-96zM318 495h571l-240 680l-43 151h-6l-43 -149z" />
<glyph unicode="B" horiz-adv-x="1244" d="M221 0v1456h412q114 0 192 -27t125 -74t67.5 -112t20.5 -140q0 -54 -14 -105.5t-43 -94.5t-74 -75.5t-107 -48.5q72 -11 129 -43.5t97 -84t61.5 -119.5t21.5 -148q0 -99 -33 -171.5t-90.5 -119.5t-134 -70t-163.5 -23h-467zM311 70h377q75 0 136.5 21.5t105 63.5 t67.5 104t24 142q0 78 -28.5 140t-75.5 105.5t-109 67t-129 23.5h-368v-667zM311 807h332h6q55 -1 107 17q56 18 98.5 55.5t69 93.5t26.5 130q0 141 -84 212t-233 71h-322v-579z" />
<glyph unicode="C" horiz-adv-x="1071" d="M142 684v71q0 157 32 289.5t97 228.5t164.5 150t234.5 54q67 0 120 -12.5t93 -31.5t68 -40t46 -37l-30 -59q-19 14 -45 32.5t-62.5 35t-85.5 28t-114 11.5q-84 0 -161.5 -37t-137.5 -113t-95.5 -192.5t-35.5 -276.5v-91q0 -169 42.5 -290t108 -199t143.5 -114.5 t149 -36.5q61 0 108.5 11.5t84 27.5t62.5 34t44 32l29 -58q-21 -20 -51 -41.5t-70 -39.5t-91.5 -29.5t-115.5 -11.5q-107 0 -203 43.5t-169 131t-116 220t-43 310.5z" />
<glyph unicode="D" horiz-adv-x="1323" d="M221 0v1456h325q69 0 143 -10.5t144.5 -38.5t133.5 -76t110.5 -123t75.5 -180t28 -246v-99q0 -158 -40.5 -284t-120.5 -215t-199 -136.5t-275 -47.5h-325zM311 70h267q107 0 201 38.5t163.5 115.5t110 191.5t40.5 267.5v99q0 156 -41 269.5t-113 188t-169.5 110.5 t-211.5 36h-247v-1316z" />
<glyph unicode="E" horiz-adv-x="1138" d="M221 0v1456h826v-70h-736v-589h633v-70h-633v-657h750v-70h-840z" />
<glyph unicode="F" horiz-adv-x="1057" d="M221 0v1456h791v-67h-701v-635h607v-67h-607v-687h-90z" />
<glyph unicode="G" horiz-adv-x="1295" d="M142 691v89q0 174 43 304.5t117.5 218t175.5 131t218 43.5q87 0 153 -14t115 -33.5t82.5 -41.5t54.5 -37l-29 -61q-24 17 -61 37t-84.5 37t-104.5 28q-52 11 -112 11h-10q-102 0 -188 -41t-148.5 -117.5t-98 -185t-35.5 -243.5v-147q0 -144 39 -259t105.5 -195.5 t154.5 -123.5t186 -43q62 0 114.5 13t94.5 34.5t72.5 50t50.5 59.5v419h-358v66h446v-498q-12 -26 -41.5 -62t-80.5 -70t-127 -57.5t-181 -23.5q-108 0 -191.5 32t-146.5 86.5t-105.5 126t-69.5 151t-38.5 161t-11.5 155.5z" />
<glyph unicode="H" horiz-adv-x="1388" d="M221 0v1456h90v-696h768v696h88v-1456h-88v690h-768v-690h-90z" />
<glyph unicode="I" horiz-adv-x="532" d="M221 0v1456h90v-1456h-90z" />
<glyph unicode="J" horiz-adv-x="962" d="M32 169l37 55q11 -12 44 -40t80.5 -57t105 -51.5t117.5 -22.5q53 0 96.5 15t74 51.5t47.5 97.5t17 153v1086h90v-1086q0 -82 -13.5 -143t-36.5 -104.5t-54.5 -71t-67 -44t-73.5 -22.5t-75 -6q-65 0 -124 19t-108.5 47.5t-89.5 61.5t-67 62z" />
<glyph unicode="K" horiz-adv-x="1199" d="M221 0v1456h90v-684h179l517 684h107l-545 -704l615 -752h-119l-509 650q-24 26 -42 39t-49 13h-154v-702h-90z" />
<glyph unicode="L" horiz-adv-x="1009" d="M221 0v1456h90v-1386h647v-70h-737z" />
<glyph unicode="M" horiz-adv-x="1678" d="M221 0v1456h107l508 -1326h6l507 1326h108v-1456h-90v367l9 936h-4l-501 -1303h-63l-506 1303h-5l14 -937v-366h-90z" />
<glyph unicode="N" horiz-adv-x="1389" d="M221 0v1456h90l772 -1308l1 -2l-4 715v595h88v-1456h-88l-772 1316h-1l4 -699v-617h-90z" />
<glyph unicode="O" d="M142 655v114q0 167 37.5 298.5t106.5 222.5t167 139t219 48t219 -48t167 -139t106.5 -222.5t37.5 -298.5v-114q0 -161 -39.5 -286.5t-110 -212t-167.5 -132t-213 -45.5t-213 45.5t-167.5 132t-110 212t-39.5 286.5zM230 667q0 -133 31.5 -246t89.5 -195.5t139.5 -129.5 t181.5 -47t182 44t139.5 125t89 195t31.5 254v96q0 160 -34.5 280.5t-94.5 201.5t-140.5 121.5t-172.5 40.5t-172.5 -40.5t-140.5 -121.5t-94.5 -201.5t-34.5 -280.5v-96z" />
<glyph unicode="P" horiz-adv-x="1168" d="M221 0v1456h428q109 0 191 -33t137 -91t83 -138t28 -173q0 -86 -28 -161.5t-83 -131.5t-137 -88t-191 -32h-338v-608h-90zM311 678h338q85 0 151 26.5t110.5 72.5t67.5 108.5t23 135.5q0 82 -23 149.5t-68 115.5t-110.5 74t-150.5 26h-338v-708z" />
<glyph unicode="Q" d="M142 655v114q0 167 37.5 298.5t106.5 222.5t167 139t219 48t219 -48t167 -139t106.5 -222.5t37.5 -298.5v-114q0 -251 -92.5 -416.5t-293.5 -242.5l-202 -78h6q58 0 105 -20q49 -20 90.5 -51t76 -67.5t67 -67.5t65 -52t69.5 -21q38 0 87 22l17 -61q-51 -34 -100 -34 q-52 0 -96 21t-83.5 52.5t-76 68t-74 68t-77.5 52.5t-86 21q-38 0 -83.5 -11.5t-92.5 -45.5l-31 70l224 120q-106 9 -194 58.5t-151.5 135.5t-98.5 206.5t-35 272.5zM230 667q0 -133 31.5 -246t89.5 -195.5t139.5 -129.5t181.5 -47t182 44t139.5 125t89 195t31.5 254v96 q0 160 -34.5 280.5t-94.5 201.5t-140.5 121.5t-172.5 40.5t-172.5 -40.5t-140.5 -121.5t-94.5 -201.5t-34.5 -280.5v-96z" />
<glyph unicode="R" horiz-adv-x="1211" d="M221 0v1455h423q110 0 191 -28t134.5 -79.5t79.5 -125.5t26 -166q0 -23 -4.5 -57t-18 -73t-37.5 -79t-63 -74.5t-95.5 -60t-133.5 -34.5l397 -678h-108l-353 634q-14 26 -35 32t-48 6h-265v-672h-90zM311 742h306q100 0 171 24t115 66t64.5 99.5t20.5 124.5 q0 76 -20 136.5t-62 103.5t-107 66t-155 23h-333v-643z" />
<glyph unicode="S" horiz-adv-x="1125" d="M129 141l30 65q16 -14 53 -39.5t91 -50t121.5 -43t144.5 -18.5q79 0 142.5 24.5t108 66.5t68 96.5t23.5 114.5q0 48 -15 90.5t-55 84.5t-110.5 84.5t-181.5 89.5q-105 44 -179 88t-121 92.5t-68.5 103.5t-21.5 123q0 81 28.5 148t80.5 115t126 74.5t166 26.5 q71 0 133 -12.5t113.5 -33t93 -46.5t71.5 -52l-25 -62q-27 23 -68 46.5t-91 43t-108.5 31.5t-121.5 12q-68 0 -125 -18.5t-98 -54t-64 -88.5t-23 -122q0 -61 22.5 -108t69 -86.5t117.5 -76t168 -77.5q95 -40 165 -81.5t116 -90.5t68.5 -108.5t22.5 -135.5q0 -79 -30.5 -148 t-86.5 -120t-135.5 -80.5t-176.5 -29.5q-71 0 -135 15t-120 39t-102.5 52.5t-80.5 55.5z" />
<glyph unicode="T" horiz-adv-x="1113" d="M41 1382v74h1031v-74h-472v-1382h-90v1382h-469z" />
<glyph unicode="U" horiz-adv-x="1371" d="M221 433v1023h90v-1023q0 -94 27.5 -165.5t76.5 -120t116.5 -73.5t148.5 -25q82 0 152 24t121 72t80 120t29 168v1023h88v-1023q0 -110 -33.5 -194.5t-95 -142.5t-148.5 -87.5t-193 -29.5q-99 0 -183.5 29.5t-145.5 87.5t-95.5 142.5t-34.5 194.5z" />
<glyph unicode="V" horiz-adv-x="1184" d="M35 1456h96l416 -1175l42 -151h7l43 149l414 1177h96l-525 -1456h-63z" />
<glyph unicode="W" horiz-adv-x="1650" d="M75 1456h97l241 -1041l36 -237h6l53 237l270 1041h97l272 -1041l53 -237h6l36 237l236 1041h97l-341 -1456h-61l-293 1113l-52 227h-6l-51 -227l-293 -1113h-61z" />
<glyph unicode="X" horiz-adv-x="1080" d="M32 0l454 748l-444 708h111l387 -650l401 650h99l-449 -715l457 -741h-104l-408 679l-398 -679h-106z" />
<glyph unicode="Y" horiz-adv-x="1051" d="M0 1456h106l429 -855l415 855h101l-474 -937v-519h-90v530z" />
<glyph unicode="Z" horiz-adv-x="1079" d="M91 0v59l782 1327h-773v70h875v-65l-773 -1321h786v-70h-897z" />
<glyph unicode="[" horiz-adv-x="590" d="M210 -347v2004h280v-70h-201v-1864h201v-70h-280z" />
<glyph unicode="\" horiz-adv-x="838" d="M117 1456h81l560 -1581h-81z" />
<glyph unicode="]" horiz-adv-x="590" d="M100 -283h201v1864h-201v70h280v-2004h-280v70z" />
<glyph unicode="^" horiz-adv-x="840" d="M120 729l272 727h55l273 -727h-91l-181 515l-26 98h-5l-28 -98l-179 -515h-90z" />
<glyph unicode="_" horiz-adv-x="895" d="M20 0h855v-70h-855v70z" />
<glyph unicode="`" horiz-adv-x="602" d="M97 1558h130l268 -332h-68z" />
<glyph unicode="a" horiz-adv-x="1076" d="M106 285q0 77 29 135.5t83.5 98t132.5 59.5t176 20h250v135q0 58 -15 109.5t-47 89.5t-84 60q-50 21 -119 20h-6q-43 -1 -84.5 -10.5t-79 -24.5t-69.5 -34.5t-56 -40.5l-36 55q21 18 51.5 39.5t73.5 40t99.5 31.5t127.5 13q157 0 244.5 -89t87.5 -259v-562 q0 -8 2.5 -25.5t8 -38.5t14.5 -41t23 -33l-50 -51q-32 32 -53.5 72t-28.5 108q-57 -83 -149 -133t-209 -50q-65 0 -122.5 20t-100.5 59t-68.5 96t-25.5 131zM194 285q0 -50 16 -91.5t47.5 -71t77.5 -46t106 -16.5q49 0 102 16t100 45t83 70t51 92v244h-250q-89 0 -152 -19.5 t-103.5 -52.5t-59 -77t-18.5 -93z" />
<glyph unicode="b" horiz-adv-x="1145" d="M210 0l1 1558h87v-649q48 79 128 126t192 47q93 0 166 -38t123.5 -108t76.5 -169.5t26 -222.5v-84q0 -99 -26.5 -186.5t-77 -153t-123 -103.5t-163.5 -38q-56 0 -105 14t-91 38.5t-75 58t-57 72.5l-17 -162h-65zM298 271q10 -41 39 -80t70.5 -70.5t91.5 -50.5t101 -19 q69 0 128 23.5t102.5 73t68 127t24.5 185.5v84q0 229 -85 347.5t-241 118.5q-103 0 -179 -52t-120 -161v-526z" />
<glyph unicode="c" horiz-adv-x="910" d="M135 519v33q1 116 27.5 213.5t79 168t132 109.5t185.5 39q85 0 160.5 -23.5t128.5 -68.5l-27 -60q-106 79 -253 79q-78 0 -142 -31t-109 -90t-69.5 -146t-24.5 -198v-25q0 -111 24.5 -198t69.5 -147t109 -91t142 -31q146 0 253 80l27 -57q-24 -23 -56.5 -40.5t-70 -30 t-79 -19t-83.5 -6.5q-107 0 -186.5 40t-132.5 112t-79 171t-26 217z" />
<glyph unicode="d" horiz-adv-x="1153" d="M135 513v84q0 99 26.5 187t77 154.5t122.5 105t164 38.5q54 0 102 -13.5t89 -37.5t74 -56.5t57 -70.5v654h88v-1387q0 -8 2.5 -25.5t8 -38.5t14.5 -41t23 -33l-50 -51q-31 31 -52.5 69.5t-29.5 103.5q-51 -88 -133 -132t-191 -44q-93 0 -166 37.5t-123.5 106.5t-76.5 168 t-26 222zM222 513q0 -227 85.5 -344.5t240.5 -117.5q103 0 179 49.5t120 157.5v528q-10 40 -39.5 80.5t-70.5 72t-91 51.5t-101 20q-70 0 -129 -24t-102 -74.5t-67.5 -128.5t-24.5 -186v-84z" />
<glyph unicode="e" horiz-adv-x="1056" d="M135 494v78q0 59 11 119.5t33.5 117t56.5 106.5t80.5 87t105 58.5t129.5 21.5q111 0 184 -39t116.5 -105t61.5 -153t18 -183v-78h-707h-1q0 -104 23.5 -190t72.5 -148.5t124 -97t178 -34.5q74 0 143.5 23.5t122.5 61.5l25 -57q-24 -20 -58.5 -39t-77.5 -33t-93 -22.5 t-104 -8.5q-118 0 -202 46.5t-138 121t-79 166t-25 181.5zM223 592h621v54q0 73 -15.5 140t-50 118t-90.5 81t-137 30q-78 0 -136 -32.5t-98 -87t-63 -127.5t-30 -154v-12t-1 -10z" />
<glyph unicode="f" horiz-adv-x="568" d="M62 991v68h157v211q0 158 61.5 234.5t174.5 76.5q35 0 71.5 -7t65.5 -21l-16 -65q-35 11 -61 15.5t-52 4.5q-81 0 -118.5 -55.5t-37.5 -182.5v-211h249v-68h-249v-991h-88v991h-157z" />
<glyph unicode="g" horiz-adv-x="955" d="M82 -154q0 98 42 170t106 119q-38 25 -51 57t-13 61q0 40 12 71.5t29 55.5t35.5 40t31.5 24q-64 49 -99.5 123t-35.5 163v12q0 66 24 127t69.5 108.5t112 75.5t150.5 28q24 0 55 -6.5t60 -15.5h270l2 -68h-178q21 -17 41.5 -42.5t36 -57.5t25 -70t9.5 -79v-12 q0 -86 -30 -150.5t-77.5 -107.5t-106 -64.5t-115.5 -21.5q-55 0 -94.5 7t-65.5 17q-40 -30 -61 -65t-21 -82q0 -28 12.5 -46.5t33.5 -29.5t49 -16t59 -5l162 -2q77 -1 138.5 -17t104.5 -50t66 -88t23 -130q0 -64 -19 -112.5t-51 -84t-75.5 -58.5t-92 -37t-100.5 -20t-101 -6 q-28 0 -66 4t-79.5 15.5t-82 31.5t-72.5 51.5t-52 76.5t-20 106zM164 -144q0 -57 24.5 -98.5t66.5 -68.5t98.5 -40t120.5 -13t124.5 12t107.5 41.5t75.5 78t28.5 121.5q0 47 -13.5 84t-45 63.5t-82 40.5t-125.5 15l-166 2q-9 0 -22 0.5t-26 1.5t-23.5 2t-15.5 2 q-21 -15 -43.5 -36t-41 -50.5t-30.5 -68.5t-12 -89zM223 730q0 -59 17.5 -108.5t50.5 -85.5t80.5 -56.5t108.5 -20.5t108 22.5t79 60t48.5 86.5t16.5 102v12q0 49 -18 97t-50.5 86t-78 61.5t-100.5 23.5q-68 0 -117.5 -27.5t-81.5 -68t-47.5 -87t-15.5 -85.5v-12z" />
<glyph unicode="h" horiz-adv-x="1160" d="M210 0v1560h88v-665q33 40 68 74.5t76 59.5t90 39t109 14q91 0 151.5 -28.5t97 -77.5t52 -113t15.5 -136v-727h-88v727q0 61 -11.5 112.5t-39.5 89t-74.5 59t-115.5 21.5q-44 0 -89.5 -14t-89 -40.5t-82.5 -65.5t-69 -88v-801h-88z" />
<glyph unicode="i" horiz-adv-x="508" d="M210 0v1059h88v-1059h-88zM210 1449v109h88v-109h-88z" />
<glyph unicode="j" horiz-adv-x="510" d="M-72 -411l16 65q35 -11 61 -15.5t52 -4.5q40 0 69.5 13.5t48.5 42t28 73.5t9 109v1187h88v-1187q0 -158 -61 -234.5t-174 -76.5q-35 0 -71.5 7t-65.5 21zM212 1449v109h88v-109h-88z" />
<glyph unicode="k" horiz-adv-x="939" d="M212 0v1560h88v-949h140l353 448h103l-384 -475l427 -584h-103l-330 463q-22 30 -35.5 46t-24.5 22.5t-23.5 7.5t-31.5 1h-91v-540h-88z" />
<glyph unicode="l" horiz-adv-x="529" d="M210 206v1352h88v-1347q0 -44 4.5 -74t15 -48.5t26.5 -26.5t40 -8q19 0 33 4t28 9l14 -63q-21 -13 -46.5 -19t-51.5 -6q-29 0 -56 9t-48 34t-34 69.5t-13 114.5z" />
<glyph unicode="m" horiz-adv-x="1755" d="M210 0v1059h64l13 -174q28 39 60 75t70.5 63t86 43t107.5 16q65 0 115 -15.5t86 -43t59.5 -65t36.5 -82.5q26 42 58 79t72 65.5t89 45t109 16.5q91 0 151.5 -28.5t97 -77.5t52 -113t15.5 -136v-727h-88v727q0 61 -11.5 112.5t-39.5 89t-74.5 59t-115.5 21.5 q-47 0 -99.5 -22t-96 -60t-72 -89.5t-28.5 -110.5v-727h-88v727q0 61 -11.5 112.5t-39.5 89t-74.5 59t-115.5 21.5q-88 0 -163.5 -54t-136.5 -154v-801h-88z" />
<glyph unicode="n" horiz-adv-x="1160" d="M210 0v1059h64l12 -179q29 41 65.5 78t81 64.5t96.5 43.5t112 16q91 0 151.5 -28.5t97 -77.5t52 -113t15.5 -136v-727h-88v727q0 61 -11.5 112.5t-39.5 89t-74.5 59t-115.5 21.5q-44 0 -89.5 -14t-89 -40.5t-82.5 -65.5t-69 -88v-801h-88z" />
<glyph unicode="o" horiz-adv-x="1117" d="M136 490v62v14q0 94 24 184q26 96 79.5 169.5t133.5 118t185 44.5q101 0 180 -41.5t133 -113.5t82.5 -168.5t28.5 -206.5v-72q0 -105 -27 -196.5t-80.5 -159t-132.5 -106.5t-182 -39q-102 0 -181 38t-133 106.5t-82 162t-28 204.5zM224 490q0 -86 21.5 -166t64 -141.5 t105 -99t145.5 -37.5q82 0 144.5 35t104.5 94t63.5 138t21.5 167v72q0 102 -25 187.5t-69.5 146.5t-106.5 95t-135 34q-78 0 -140 -33.5t-105 -94t-66 -146t-23 -189.5v-62z" />
<glyph unicode="p" horiz-adv-x="1146" d="M210 -436v1495h64l16 -164q58 98 139 142.5t190 44.5q93 0 166 -38t123.5 -108t76.5 -169.5t26 -222.5v-84q0 -99 -26.5 -186.5t-77 -153t-123 -103.5t-163.5 -38q-54 0 -102.5 13t-89.5 36.5t-74 55.5t-57 70v-590h-88zM298 272q10 -41 39.5 -80.5t71 -70.5t91.5 -50.5 t101 -19.5q66 0 125 23.5t103 73t69.5 127t25.5 185.5v84q0 229 -85 347.5t-241 118.5q-103 0 -179.5 -52.5t-120.5 -161.5v-524z" />
<glyph unicode="q" horiz-adv-x="1144" d="M135 515v84q0 99 26.5 187t77 153.5t122.5 104t164 38.5q55 0 103.5 -14t90 -38t74.5 -57t57 -72l19 158h65v-1495h-87v585q-57 -91 -136.5 -130.5t-183.5 -39.5q-93 0 -166 37.5t-123.5 107.5t-76.5 169t-26 222zM222 515q0 -229 85 -346.5t241 -117.5q103 0 179 51 t120 160v526q-10 40 -39.5 80t-70.5 71.5t-91 51t-101 19.5q-70 0 -129.5 -23.5t-102.5 -74t-67 -128t-24 -185.5v-84z" />
<glyph unicode="r" horiz-adv-x="671" d="M210 0v1059h64l12 -179q23 46 50.5 83.5t62 63.5t77.5 40.5t97 14.5q17 0 40 -3t34 -7l-21 -83q-20 5 -42 8.5t-51 3.5q-38 0 -73 -16.5t-65.5 -46.5t-55.5 -70.5t-41 -88.5v-779h-88z" />
<glyph unicode="s" horiz-adv-x="905" d="M110 106l25 65q35 -26 75 -47.5t80.5 -36.5t80 -23.5t72.5 -8.5q76 0 125.5 17.5t79 45t41 62.5t11.5 71q0 39 -11 71.5t-39.5 62t-78.5 59t-128 63.5q-91 40 -148 74t-89.5 69.5t-44 74.5t-11.5 89q0 52 17.5 100.5t55.5 85.5t98 59.5t145 22.5q50 0 93 -9t79.5 -23 t66.5 -31t54 -34l-20 -66q-45 28 -83.5 45.5t-71.5 27.5t-62.5 14t-57.5 4q-61 0 -104 -15.5t-70.5 -41.5t-40 -59.5t-12.5 -69.5q0 -54 18.5 -88.5t55.5 -61t92.5 -51t129.5 -58.5q82 -38 131.5 -76.5t76.5 -77t35.5 -77t8.5 -75.5q0 -61 -19.5 -112.5t-59.5 -88.5 t-100 -58t-142 -21q-65 0 -120 14t-100 33.5t-79 41.5t-55 38z" />
<glyph unicode="t" horiz-adv-x="615" d="M60 991v68h163v274h88v-274h255v-68h-255v-766q0 -53 10.5 -86.5t27 -52.5t38 -26t44.5 -7q32 0 68.5 11.5t59.5 25.5l18 -63q-23 -15 -67.5 -31.5t-101.5 -16.5q-52 0 -87.5 19t-57 52t-31 78t-9.5 97v766h-163z" />
<glyph unicode="u" horiz-adv-x="1162" d="M203 333v726h88v-726q0 -61 12 -112.5t40.5 -89t77 -58.5t121.5 -21q48 0 99 21t95 52t75.5 67t40.5 67v800h88v-888q0 -8 2.5 -25.5t8 -38.5t14.5 -41t23 -33l-50 -51q-31 31 -52.5 72t-29.5 106q-28 -36 -65.5 -69t-81 -58t-91.5 -39.5t-99 -14.5q-91 0 -151.5 28.5 t-97 77t-52 112.5t-15.5 136z" />
<glyph unicode="v" horiz-adv-x="951" d="M62 1059h94l290 -828l32 -110h5l30 110q72 208 140.5 415.5t141.5 412.5h94l-382 -1059h-58z" />
<glyph unicode="w" horiz-adv-x="1506" d="M72 1059h94l241 -818l27 -122h5l30 122l253 818h71l252 -818l24 -122h5l26 122l240 818h94l-333 -1059h-62l-261 854l-19 92h-3l-21 -95l-268 -851h-63z" />
<glyph unicode="x" horiz-adv-x="862" d="M36 0l343 540l-317 519h102l261 -460l269 460h102l-327 -519l357 -540h-103l-300 475l-284 -475h-103z" />
<glyph unicode="y" horiz-adv-x="951" d="M62 1059h94l290 -828l32 -110h5l30 110q72 208 140.5 415.5t141.5 412.5h94l-445 -1240q-20 -57 -40.5 -104.5t-46.5 -81.5t-61 -53t-83 -19q-11 0 -40.5 1.5t-60.5 11.5l8 68q20 -5 37.5 -7.5t45.5 -2.5t51 12t44 39.5t41 72.5t43 110l55 156z" />
<glyph unicode="z" horiz-adv-x="880" d="M77 0v64l597 927h-587v68h691v-64l-600 -927h635v-68h-736z" />
<glyph unicode="{" horiz-adv-x="686" d="M91 619v70q53 0 97.5 27t77 73.5t51 110t18.5 136.5v98q0 47 2.5 98.5t12 103t27.5 100.5t48.5 91.5t76 76t109.5 53.5l16 -58q-58 -26 -97.5 -59.5t-63.5 -85.5t-34.5 -129t-10.5 -191v-89q0 -146 -56.5 -247t-164.5 -142q108 -35 164.5 -136t56.5 -255v-91 q0 -112 10.5 -188t34.5 -128.5t64.5 -86t100.5 -60.5l-20 -58q-64 20 -109.5 53t-76 75.5t-48.5 91t-27.5 100t-12 103t-2.5 98.5v98q0 73 -18 136.5t-50 110t-77 73.5t-99 27z" />
<glyph unicode="|" horiz-adv-x="521" d="M221 -419v2145h79v-2145h-79z" />
<glyph unicode="}" horiz-adv-x="686" d="M55 1597l20 58q64 -20 109.5 -53t76 -75.5t48.5 -91t27.5 -100t12 -103t2.5 -98.5v-98q0 -73 18 -136.5t50 -110t77 -73.5t99 -27v-70q-53 0 -97.5 -27t-77 -73.5t-51 -110t-18.5 -136.5v-98q0 -47 -2.5 -98.5t-12 -103t-27.5 -100.5t-48.5 -91.5t-76 -76t-109.5 -53.5 l-16 58q58 26 97.5 59.5t63.5 85.5t34.5 129t10.5 191v89q0 146 56.5 247t164.5 142q-108 35 -164.5 136t-56.5 255v91q0 112 -10.5 188t-34.5 128.5t-64.5 86t-100.5 60.5z" />
<glyph unicode="~" horiz-adv-x="1312" d="M145 501q0 50 19 99t54.5 88t85 63.5t109.5 24.5q44 0 78.5 -11t67 -31.5t65.5 -49t73 -63.5q32 -28 58 -50t50 -37.5t49 -23.5t54 -8q39 0 74.5 17.5t62.5 47.5t42.5 71.5t14.5 89.5l65 -9q0 -54 -19 -106t-53.5 -93t-84 -66t-109.5 -25q-43 0 -76.5 10t-65 30t-65 49 t-76.5 67q-32 28 -58.5 50t-50.5 37.5t-47.5 23.5t-50.5 8q-42 0 -78 -15t-62.5 -42.5t-42.5 -67t-17 -88.5z" />
<glyph unicode="&#xa1;" horiz-adv-x="546" d="M221 -397l19 1054h66l19 -1054h-104zM225 938v121h97v-121h-97z" />
<glyph unicode="&#xa2;" horiz-adv-x="923" d="M140 729v33q1 112 25.5 207t73.5 164.5t122.5 111t172.5 47.5v195h75v-196q72 -7 137 -31.5t107 -60.5l-27 -58q-106 79 -253 79q-78 0 -142 -31t-109 -90.5t-69.5 -146.5t-24.5 -198v-25q0 -111 24.5 -198t69.5 -146.5t109 -90.5t142 -31q147 0 253 79l27 -57 q-21 -19 -49.5 -35t-61.5 -28t-69.5 -20t-73.5 -11v-228h-75v228q-97 8 -169 51t-120 114t-71.5 166t-23.5 207z" />
<glyph unicode="&#xa3;" horiz-adv-x="1108" d="M120 660v70h156l-11 323q0 101 25.5 180t74.5 133t121.5 82.5t167.5 28.5q113 0 192.5 -27.5t138.5 -67.5l-30 -58q-21 12 -49.5 26t-64 26t-77 20t-89.5 8q-84 0 -143.5 -26t-98.5 -72.5t-58 -111t-20 -141.5l11 -323h440v-70h-437l3 -224q-2 -72 -6 -126t-13.5 -97 t-25 -77t-38.5 -66h749v-70h-858v70h3q22 2 40 31.5t31 79.5t20.5 116.5t8.5 142.5l-1 220h-162z" />
<glyph unicode="&#xa4;" horiz-adv-x="1383" d="M130 609q0 62 13 126t35.5 122.5t52.5 108.5t65 86l-142 153l61 60l143 -155q74 57 158.5 90.5t176.5 33.5t176.5 -33.5t158.5 -90.5l143 155l61 -60l-142 -153q35 -36 65 -86t51.5 -108.5t34 -122.5t12.5 -126t-12.5 -126t-34 -122.5t-51.5 -109t-65 -86.5l142 -153 l-61 -60l-143 155q-74 -57 -158.5 -90.5t-176.5 -33.5t-176.5 33.5t-158.5 90.5l-143 -155l-61 60l142 153q-35 36 -65 86.5t-52.5 109t-35.5 122.5t-13 126zM207 608q0 -119 42 -219.5t110.5 -173.5t156 -114t177.5 -41t177 41t155 114.5t109.5 174t41.5 219.5t-41.5 219.5 t-109.5 173.5t-155 114t-177 41t-177.5 -41t-156 -114.5t-110.5 -174t-42 -219.5z" />
<glyph unicode="&#xa5;" horiz-adv-x="1109" d="M61 1456h101l395 -726l390 726h101l-433 -761h358v-66h-370v-217h370v-66h-370v-346h-90v346h-371v66h371v217h-371v66h352z" />
<glyph unicode="&#xa6;" horiz-adv-x="521" d="M221 -419v990h79v-990h-79zM221 767v959h79v-959h-79z" />
<glyph unicode="&#xa7;" horiz-adv-x="1075" d="M141 -339l36 61q57 -48 107.5 -75t91.5 -40.5t70.5 -17t43.5 -3.5q76 0 135.5 25t101 65.5t63.5 91t22 100.5q0 56 -14 103.5t-53 92t-108 88t-179 90.5q-137 59 -204 140.5t-67 195.5q0 54 11.5 99t29.5 80.5t40 62.5t42 46q-20 21 -38 46.5t-32 56t-22.5 65.5t-8.5 76 q0 66 23.5 128.5t69 111t112.5 77.5t155 29q30 0 67 -3.5t79.5 -16.5t89 -38t94.5 -68l-29 -61q-21 19 -51.5 39t-67.5 36.5t-80.5 27.5t-90.5 11q-70 0 -123 -20.5t-88.5 -56t-53.5 -82t-18 -97.5q0 -54 12.5 -95.5t46.5 -78t95 -72.5t159 -79q100 -44 162.5 -90.5t98 -93 t48 -92.5t12.5 -89q0 -56 -15 -102t-37 -82.5t-46 -63.5t-42 -46q19 -16 38 -41.5t34 -58.5t24.5 -72.5t9.5 -83.5q0 -85 -31 -154.5t-85 -119t-125.5 -76.5t-152.5 -27q-41 0 -83 7t-86.5 24.5t-92.5 46.5t-100 73zM269 590q0 -88 48.5 -151t153.5 -109q31 -14 68.5 -31 t74.5 -36t70 -38t55 -37q12 15 30 39.5t35.5 57t29.5 70t12 78.5q0 47 -20 86.5t-53.5 73t-78.5 62t-95 54.5q-49 25 -78.5 39.5t-52 26t-45 23.5t-56.5 30q-12 -15 -28.5 -34t-32 -46.5t-26.5 -65.5t-11 -92z" />
<glyph unicode="&#xa8;" horiz-adv-x="715" d="M135 1345v110h92v-110h-92zM488 1345v110h92v-110h-92z" />
<glyph unicode="&#xa9;" horiz-adv-x="1622" d="M142 731q0 104 24 199.5t67.5 178.5t104.5 151t135.5 116t160 74.5t177.5 26.5t177.5 -26.5t160 -74.5t135.5 -116t104.5 -151t67.5 -178.5t24 -199.5t-24 -200t-67.5 -179.5t-104.5 -152t-135.5 -117.5t-160 -76t-177.5 -27t-177.5 27t-160 76t-135.5 117.5t-104.5 152 t-67.5 179.5t-24 200zM218 731q0 -140 46 -263t126 -214.5t188 -144.5t233 -53q83 0 159 24t142 68t119.5 105.5t91.5 136.5t59 161.5t21 179.5q0 140 -46 262t-125.5 212.5t-188 142.5t-232.5 52q-125 0 -233 -52t-188 -142.5t-126 -212.5t-46 -262zM469 684v82 q0 78 20 151.5t62.5 130.5t109 91t159.5 34q80 0 139.5 -30t97.5 -69l-38 -47q-24 19 -45 33t-43.5 23.5t-49.5 14t-61 4.5q-67 0 -116 -26t-81.5 -72.5t-49.5 -111.5t-19 -142v-53q0 -63 17 -125t50.5 -111.5t83 -80.5t115.5 -31q38 0 69 7.5t55.5 19t42.5 25.5t31 26 l37 -45q-18 -21 -43 -40t-55 -33.5t-65 -22.5t-72 -8q-90 0 -156 34.5t-109.5 91.5t-64.5 130t-21 150z" />
<glyph unicode="&#xaa;" horiz-adv-x="773" d="M86 907q0 58 21.5 102t61.5 73t96.5 43.5t126.5 14.5h180v45q0 53 -7.5 95t-28 71.5t-58 45.5t-97.5 16q-65 0 -117.5 -24t-103.5 -65l-23 53q22 19 49.5 37t59.5 32t67.5 22.5t74.5 8.5q63 0 111 -14.5t81 -47.5t50 -86t17 -131l2 -339q0 -27 9.5 -58.5t38.5 -60.5 l-39 -45q-12 9 -24.5 20t-23 26.5t-18 36t-8.5 47.5q-14 -26 -40 -50t-59 -43t-69.5 -30t-71.5 -12q-61 -2 -109 13.5t-81 44.5t-50.5 69.5t-17.5 89.5zM165 918q0 -42 14.5 -72.5t39 -51t57.5 -30.5t70 -10q34 0 67.5 10.5t63.5 29t54.5 44.5t40.5 58v180h-178 q-65 0 -109 -14t-70.5 -36.5t-38 -50.5t-11.5 -57z" />
<glyph unicode="&#xab;" horiz-adv-x="856" d="M122 543v17l285 384h67l-239 -393l239 -394h-67zM394 543v17l285 384h67l-239 -393l239 -394h-67z" />
<glyph unicode="&#xac;" horiz-adv-x="1085" d="M139 718v70h760v-410h-78v340h-682z" />
<glyph unicode="&#xad;" horiz-adv-x="637" d="M100 576v70h437v-70h-437z" />
<glyph unicode="&#xae;" horiz-adv-x="1187" d="M135 987q0 112 33.5 207t94 164.5t144.5 108.5t185 39q111 0 196.5 -40t144 -109.5t89 -164.5t30.5 -205t-31 -205t-90 -165t-144.5 -109.5t-194.5 -39.5q-111 0 -196 40.5t-143 110.5t-88 164.5t-30 203.5zM202 978q0 -85 26 -165.5t75.5 -143t122 -100.5t166.5 -38 q97 0 170.5 38.5t122.5 101.5t74 144t25 167q0 88 -24 172t-72.5 149.5t-122.5 105t-173 39.5q-69 0 -125 -20t-99.5 -54.5t-74.5 -80.5t-51.5 -98.5t-30 -108t-9.5 -108.5zM416 718v555h195q39 0 71.5 -10.5t56 -30.5t36.5 -50.5t13 -69.5q0 -23 -6.5 -46.5t-22.5 -44.5 t-42.5 -37.5t-65.5 -23.5l157 -242h-87l-128 218q-5 8 -12 12.5t-21 4.5h-71v-235h-73zM489 1012h94q65 0 98.5 24.5t33.5 75.5q0 49 -31 75.5t-86 26.5h-109v-202z" />
<glyph unicode="&#xaf;" horiz-adv-x="725" d="M91 1355v72h543v-72h-543z" />
<glyph unicode="&#xb0;" horiz-adv-x="727" d="M121 1216q0 52 17 99.5t48.5 83.5t77 57t102.5 21q55 0 99.5 -20.5t76 -55.5t48 -82.5t16.5 -102.5t-19 -102t-51.5 -81.5t-76.5 -54t-93 -19.5q-52 0 -96.5 20.5t-77.5 55.5t-52 81.5t-19 99.5zM190 1216q0 -39 12 -73.5t34.5 -60.5t55 -41.5t74.5 -15.5q40 0 72 15.5 t54 41.5t34 60.5t12 73.5q0 42 -12 78t-34 62.5t-54 41.5t-72 15q-42 0 -74.5 -16.5t-55 -44t-34.5 -63t-12 -73.5z" />
<glyph unicode="&#xb1;" horiz-adv-x="1122" d="M121 745v70h401v463h83v-463h396v-70h-396v-467h-83v467h-401zM165 67v69h793v-69h-793z" />
<glyph unicode="&#xb2;" horiz-adv-x="694" d="M99 665v70q58 61 118 125t135 138q54 58 87 97.5t50.5 69t23.5 53.5t6 52q0 26 -9.5 51.5t-30.5 45.5t-53.5 32t-77.5 12q-26 0 -54.5 -5t-57 -14t-55.5 -21t-50 -25q-5 14 -11.5 25.5t-11.5 25.5q50 32 110 54.5t135 22.5q110 0 174 -54t64 -152q0 -31 -5 -59t-21 -59.5 t-45.5 -69t-78.5 -88.5q-57 -59 -122.5 -119.5t-137.5 -137.5h1h422v-70h-505z" />
<glyph unicode="&#xb3;" horiz-adv-x="680" d="M60 724l19 56q11 -6 31.5 -16t49 -19.5t65 -16.5t78.5 -8q52 0 93.5 13t70 35.5t44 53t15.5 64.5q0 28 -7.5 56.5t-28 51t-57 36.5t-95.5 14h-112v60h112q57 0 90 17.5t50.5 42.5t22 52.5t4.5 46.5q0 25 -9 51t-31 47.5t-57.5 35t-89.5 13.5q-42 -2 -75.5 -9.5t-60 -18 t-46 -21.5t-33.5 -19l-24 52q9 7 31 20t55.5 26t77.5 23t97 10q108 0 173 -51.5t65 -150.5q0 -20 -4.5 -48t-17.5 -56t-37 -52t-63 -36q48 -12 76 -35t43 -49.5t19 -51.5t4 -40q0 -59 -20.5 -105t-57.5 -77.5t-88 -48.5t-112 -17q-41 0 -80 6.5t-72.5 17t-61.5 22.5t-46 23z " />
<glyph unicode="&#xb4;" horiz-adv-x="602" d="M107 1226l268 332h130l-330 -332h-68z" />
<glyph unicode="&#xb5;" horiz-adv-x="1162" d="M203 -417v1476h88v-726q0 -61 12 -112t40.5 -88.5t77 -58.5t121.5 -21q48 0 99 20.5t95 51.5t75.5 67t40.5 67v800h88v-888q0 -8 2.5 -25.5t8 -38.5t14.5 -41t23 -33l-50 -51q-31 31 -52.5 72t-29.5 106q-28 -36 -65.5 -69t-81 -57.5t-91.5 -39t-99 -14.5 q-80 0 -135.5 21.5t-92.5 59.5v-478h-88z" />
<glyph unicode="&#xb6;" horiz-adv-x="916" d="M71 988q0 99 28.5 184.5t88.5 148.5t153.5 99t223.5 36h130v-1456h-88v1386h-96v-866q-85 0 -164.5 35t-140.5 97.5t-98 148.5t-37 187z" />
<glyph unicode="&#xb7;" horiz-adv-x="517" d="M210 664v121h97v-121h-97z" />
<glyph unicode="&#xb8;" horiz-adv-x="518" d="M156 -434q40 0 74 8t58.5 24.5t38 41.5t13.5 60q0 38 -14 62.5t-37.5 39t-54 21.5t-63.5 10l54 189h69l-38 -129q85 -9 127.5 -59t42.5 -124q0 -45 -15.5 -82t-48 -64t-83.5 -41.5t-122 -14.5z" />
<glyph unicode="&#xb9;" horiz-adv-x="509" d="M80 1437l168 40h53v-752h123v-60h-331v60h137v676l-140 -15z" />
<glyph unicode="&#xba;" horiz-adv-x="765" d="M80 1065v35q0 90 22 160t62 118.5t96 73.5t125 25q66 0 121 -24.5t95 -72t62 -118t22 -162.5v-35q0 -92 -22 -162t-62 -117.5t-95 -71.5t-121 -24q-62 0 -117.5 23t-97 69.5t-66 117t-24.5 165.5zM159 1065q0 -76 16.5 -134.5t46.5 -98.5t71.5 -60.5t91.5 -20.5 q105 0 163 78.5t58 235.5v35q0 82 -17 141.5t-47 98.5t-70.5 57.5t-86.5 18.5q-43 0 -83.5 -18.5t-72 -57.5t-51 -98.5t-19.5 -141.5v-35z" />
<glyph unicode="&#xbb;" horiz-adv-x="869" d="M110 157l239 393l-239 394h67l285 -386v-17l-285 -384h-67zM395 157l239 393l-239 394h67l285 -386v-17l-285 -384h-67z" />
<glyph unicode="&#xbc;" horiz-adv-x="1417" d="M144 1437l168 40h53v-752h123v-60h-331v60h137v676l-140 -15zM333 149l663 1165l58 -37l-666 -1164zM683 203v45l409 564h77v-549h134v-60h-134v-203h-71v203h-415zM768 263h330v459z" />
<glyph unicode="&#xbd;" horiz-adv-x="1472" d="M144 1437l168 40h53v-752h123v-60h-331v60h137v676l-140 -15zM333 149l663 1165l58 -37l-666 -1164zM859 1v70q58 61 118 125t135 138q54 58 87 97.5t50.5 69t23.5 53.5t6 52q0 26 -9.5 51.5t-30.5 45.5t-53.5 32t-77.5 12q-26 0 -54.5 -5t-57 -14t-55.5 -21t-50 -25 q-5 14 -11.5 25.5t-11.5 25.5q50 32 110 54.5t135 22.5q110 0 174 -54t64 -152q0 -31 -5 -59t-21 -59.5t-45.5 -69t-78.5 -88.5q-57 -59 -122.5 -119.5t-137.5 -137.5h2h421v-70h-505z" />
<glyph unicode="&#xbe;" horiz-adv-x="1508" d="M98 724l19 56q11 -6 31.5 -16t49 -19.5t65 -16.5t78.5 -8q52 0 93.5 13t70 35.5t44 53t15.5 64.5q0 28 -7.5 56.5t-28 51t-57 36.5t-95.5 14h-112v61h112q57 0 90 17.5t50.5 42.5t22 52t4.5 46q0 25 -9 51t-31 47.5t-57.5 35t-89.5 13.5q-42 -2 -75.5 -9.5t-60 -18 t-46 -21.5t-33.5 -19l-24 52q9 7 31 20t55.5 26t77.5 23t97 10q108 0 173 -51.5t65 -150.5q0 -20 -4.5 -48t-17.5 -56t-37 -52t-63 -36q48 -12 76 -35t43 -49.5t19 -51.5t4 -40q0 -59 -20.5 -105t-57.5 -77.5t-88 -48.5t-112 -17q-41 0 -80 6.5t-72.5 17t-61.5 22.5t-46 23z M424 149l663 1165l58 -37l-666 -1164zM774 203v45l409 564h77v-549h134v-60h-134v-203h-71v203h-415zM859 263h330v459z" />
<glyph unicode="&#xbf;" horiz-adv-x="836" d="M89 -89q0 69 16 130.5t47 121.5t77 121.5t107 130.5q28 30 43 56t22 53t7.5 59t0.5 76h88q-1 -44 -1.5 -74.5t-4 -54t-11.5 -43.5t-25 -45t-44.5 -58t-69.5 -81q-47 -56 -78 -102.5t-49 -90t-25 -86t-7 -89.5q0 -59 15 -110t47 -89t81.5 -60t119.5 -22q57 0 106.5 17 t88 39.5t64.5 45t35 33.5l36 -57q-23 -23 -55.5 -49t-74.5 -48.5t-94 -37.5t-115 -15q-73 0 -136.5 21.5t-110 63t-73.5 103t-27 141.5zM405 938v121h97v-121h-97z" />
<glyph unicode="&#xc0;" horiz-adv-x="1208" d="M47 0l525 1456h63l526 -1456h-96l-152 426h-618l-152 -426h-96zM195 1878h159l370 -293h-81zM318 495h571l-240 680l-43 151h-6l-43 -149z" />
<glyph unicode="&#xc1;" horiz-adv-x="1208" d="M47 0l525 1456h63l526 -1456h-96l-152 426h-618l-152 -426h-96zM318 495h571l-240 680l-43 151h-6l-43 -149zM492 1585l370 293h159l-448 -293h-81z" />
<glyph unicode="&#xc2;" horiz-adv-x="1208" d="M47 0l525 1456h63l526 -1456h-96l-152 426h-618l-152 -426h-96zM279 1587l295 292h57l296 -292h-67l-257 203l-257 -203h-67zM318 495h571l-240 680l-43 151h-6l-43 -149z" />
<glyph unicode="&#xc3;" horiz-adv-x="1208" d="M47 0l525 1456h63l526 -1456h-96l-152 426h-618l-152 -426h-96zM315 1653q0 38 13 69t34.5 53.5t50 34.5t59.5 12q48 0 86 -15.5t70.5 -34t60 -34t54.5 -15.5q44 0 71 32t27 80l49 -13q0 -38 -12.5 -69.5t-34 -54.5t-50.5 -36t-62 -13q-40 0 -74 15.5t-65.5 34t-62.5 34 t-65 15.5q-27 0 -45.5 -11.5t-30 -28t-16.5 -35t-5 -31.5zM318 495h571l-240 680l-43 151h-6l-43 -149z" />
<glyph unicode="&#xc4;" horiz-adv-x="1208" d="M47 0l525 1456h63l526 -1456h-96l-152 426h-618l-152 -426h-96zM318 495h571l-240 680l-43 151h-6l-43 -149zM393 1682v110h92v-110h-92zM721 1682v110h92v-110h-92z" />
<glyph unicode="&#xc5;" horiz-adv-x="1208" d="M47 0l525 1456h63l526 -1456h-96l-152 426h-618l-152 -426h-96zM318 495h571l-240 680l-43 151h-6l-43 -149zM410 1692q0 40 15 74.5t41.5 60.5t61.5 41t76 15t76.5 -15t61 -40.5t40 -60.5t14.5 -75q0 -41 -14.5 -75t-40.5 -59t-61 -39t-76 -14t-76.5 13.5t-61.5 38.5 t-41 59.5t-15 75.5zM483 1692q0 -26 9 -49t25.5 -40.5t39 -27.5t48.5 -10q25 0 46.5 9.5t37 27t24.5 40.5t9 50t-9 50.5t-24.5 41t-37 28t-46.5 10.5q-26 0 -48 -10t-38.5 -28t-26 -41.5t-9.5 -50.5z" />
<glyph unicode="&#xc6;" horiz-adv-x="1809" d="M-25 0l898 1456h822v-70h-696l26 -589h585v-70h-582l26 -657h678v-70h-767l-18 427h-607l-261 -427h-104zM380 496h565l-34 870q-2 2 -1 6.5t-1 6.5z" />
<glyph unicode="&#xc7;" horiz-adv-x="1081" d="M142 684v71q0 157 32 289.5t97 228.5t164.5 150t234.5 54q67 0 120 -12.5t93 -31.5t68 -40t46 -37l-30 -59q-19 14 -45 32.5t-62.5 35t-85.5 28t-114 11.5q-84 0 -161.5 -37t-137.5 -113t-95.5 -192.5t-35.5 -276.5v-91q0 -169 42.5 -290t108 -199t143.5 -114.5 t149 -36.5q61 0 108.5 11.5t84 27.5t62.5 34t44 32l29 -58q-69 -64 -161 -92.5t-192 -28.5l-25 -87q85 -9 127.5 -59t42.5 -124q0 -45 -15.5 -82t-48 -64t-83.5 -41.5t-122 -14.5l-2 59q40 0 74 7.5t58.5 24t38.5 41.5t14 60q0 38 -14 62.5t-37.5 39t-54 21.5t-63.5 10 l44 155q-92 16 -172 67.5t-139.5 138t-94 209t-34.5 281.5z" />
<glyph unicode="&#xc8;" horiz-adv-x="1138" d="M221 0v1456h826v-70h-736v-589h633v-70h-633v-657h750v-70h-840zM268 1878h159l370 -293h-81z" />
<glyph unicode="&#xc9;" horiz-adv-x="1138" d="M221 0v1456h826v-70h-736v-589h633v-70h-633v-657h750v-70h-840zM473 1585l370 293h159l-448 -293h-81z" />
<glyph unicode="&#xca;" horiz-adv-x="1138" d="M221 0v1456h826v-70h-736v-589h633v-70h-633v-657h750v-70h-840zM307 1587l295 292h57l296 -292h-67l-257 203l-257 -203h-67z" />
<glyph unicode="&#xcb;" horiz-adv-x="1138" d="M221 0v1456h826v-70h-736v-589h633v-70h-633v-657h750v-70h-840zM418 1682v110h92v-110h-92zM746 1682v110h92v-110h-92z" />
<glyph unicode="&#xcc;" horiz-adv-x="532" d="M-133 1878h159l370 -293h-81zM221 0v1456h90v-1456h-90z" />
<glyph unicode="&#xcd;" horiz-adv-x="532" d="M142 1585l370 293h159l-448 -293h-81zM221 0v1456h90v-1456h-90z" />
<glyph unicode="&#xce;" horiz-adv-x="532" d="M-60 1587l295 292h57l296 -292h-67l-257 203l-257 -203h-67zM221 0v1456h90v-1456h-90z" />
<glyph unicode="&#xcf;" horiz-adv-x="532" d="M56 1682v110h92v-110h-92zM221 0v1456h90v-1456h-90zM384 1682v110h92v-110h-92z" />
<glyph unicode="&#xd0;" horiz-adv-x="1351" d="M74 704v70h175v682h325q69 0 143 -10.5t144.5 -38.5t133.5 -76t110.5 -123t75.5 -180t28 -246v-99q0 -158 -40.5 -284t-120.5 -215t-199 -136.5t-275 -47.5h-325v704h-175zM339 70h267q107 0 201 38.5t163.5 115.5t110 191.5t40.5 267.5v99q0 156 -41 269.5t-113 188 t-169.5 110.5t-211.5 36h-247v-612h293v-70h-293v-634z" />
<glyph unicode="&#xd1;" horiz-adv-x="1389" d="M221 0v1456h90l772 -1308l1 -2l-4 715v595h88v-1456h-88l-772 1316h-1l4 -699v-617h-90zM402 1653q0 38 13 69t34.5 53.5t50 34.5t59.5 12q48 0 86 -15.5t70.5 -34t60 -34t54.5 -15.5q44 0 71 32t27 80l49 -13q0 -38 -12.5 -69.5t-34 -54.5t-50.5 -36t-62 -13 q-40 0 -74 15.5t-65.5 34t-62.5 34t-65 15.5q-27 0 -45.5 -11.5t-30 -28t-16.5 -35t-5 -31.5z" />
<glyph unicode="&#xd2;" d="M142 655v114q0 167 37.5 298.5t106.5 222.5t167 139t219 48t219 -48t167 -139t106.5 -222.5t37.5 -298.5v-114q0 -161 -39.5 -286.5t-110 -212t-167.5 -132t-213 -45.5t-213 45.5t-167.5 132t-110 212t-39.5 286.5zM230 667q0 -133 31.5 -246t89.5 -195.5t139.5 -129.5 t181.5 -47t182 44t139.5 125t89 195t31.5 254v96q0 160 -34.5 280.5t-94.5 201.5t-140.5 121.5t-172.5 40.5t-172.5 -40.5t-140.5 -121.5t-94.5 -201.5t-34.5 -280.5v-96zM302 1878h159l370 -293h-81z" />
<glyph unicode="&#xd3;" d="M142 655v114q0 167 37.5 298.5t106.5 222.5t167 139t219 48t219 -48t167 -139t106.5 -222.5t37.5 -298.5v-114q0 -161 -39.5 -286.5t-110 -212t-167.5 -132t-213 -45.5t-213 45.5t-167.5 132t-110 212t-39.5 286.5zM230 667q0 -133 31.5 -246t89.5 -195.5t139.5 -129.5 t181.5 -47t182 44t139.5 125t89 195t31.5 254v96q0 160 -34.5 280.5t-94.5 201.5t-140.5 121.5t-172.5 40.5t-172.5 -40.5t-140.5 -121.5t-94.5 -201.5t-34.5 -280.5v-96zM514 1585l370 293h159l-448 -293h-81z" />
<glyph unicode="&#xd4;" d="M142 655v114q0 167 37.5 298.5t106.5 222.5t167 139t219 48t219 -48t167 -139t106.5 -222.5t37.5 -298.5v-114q0 -161 -39.5 -286.5t-110 -212t-167.5 -132t-213 -45.5t-213 45.5t-167.5 132t-110 212t-39.5 286.5zM230 667q0 -133 31.5 -246t89.5 -195.5t139.5 -129.5 t181.5 -47t182 44t139.5 125t89 195t31.5 254v96q0 160 -34.5 280.5t-94.5 201.5t-140.5 121.5t-172.5 40.5t-172.5 -40.5t-140.5 -121.5t-94.5 -201.5t-34.5 -280.5v-96zM349 1587l295 292h57l296 -292h-67l-257 203l-257 -203h-67z" />
<glyph unicode="&#xd5;" d="M142 655v114q0 167 37.5 298.5t106.5 222.5t167 139t219 48t219 -48t167 -139t106.5 -222.5t37.5 -298.5v-114q0 -161 -39.5 -286.5t-110 -212t-167.5 -132t-213 -45.5t-213 45.5t-167.5 132t-110 212t-39.5 286.5zM230 667q0 -133 31.5 -246t89.5 -195.5t139.5 -129.5 t181.5 -47t182 44t139.5 125t89 195t31.5 254v96q0 160 -34.5 280.5t-94.5 201.5t-140.5 121.5t-172.5 40.5t-172.5 -40.5t-140.5 -121.5t-94.5 -201.5t-34.5 -280.5v-96zM385 1653q0 38 13 69t34.5 53.5t50 34.5t59.5 12q48 0 86 -15.5t70.5 -34t60 -34t54.5 -15.5 q44 0 71 32t27 80l49 -13q0 -38 -12.5 -69.5t-34 -54.5t-50.5 -36t-62 -13q-40 0 -74 15.5t-65.5 34t-62.5 34t-65 15.5q-27 0 -45.5 -11.5t-30 -28t-16.5 -35t-5 -31.5z" />
<glyph unicode="&#xd6;" d="M142 655v114q0 167 37.5 298.5t106.5 222.5t167 139t219 48t219 -48t167 -139t106.5 -222.5t37.5 -298.5v-114q0 -161 -39.5 -286.5t-110 -212t-167.5 -132t-213 -45.5t-213 45.5t-167.5 132t-110 212t-39.5 286.5zM230 667q0 -133 31.5 -246t89.5 -195.5t139.5 -129.5 t181.5 -47t182 44t139.5 125t89 195t31.5 254v96q0 160 -34.5 280.5t-94.5 201.5t-140.5 121.5t-172.5 40.5t-172.5 -40.5t-140.5 -121.5t-94.5 -201.5t-34.5 -280.5v-96zM467 1682v110h92v-110h-92zM795 1682v110h92v-110h-92z" />
<glyph unicode="&#xd7;" horiz-adv-x="1088" d="M140 316l343 368l-341 358l53 55l348 -360l349 360l53 -53l-344 -361l347 -367l-52 -58l-353 375l-349 -374z" />
<glyph unicode="&#xd8;" d="M142 655v114q0 167 37.5 298.5t106.5 222.5t167 139t219 48q91 0 170.5 -29t142.5 -82l111 219h88l-142 -276q36 -45 65.5 -103.5t50.5 -127t32.5 -146.5t11.5 -163v-114q0 -161 -39.5 -286.5t-110 -212t-167.5 -132t-213 -45.5q-83 0 -157 23t-135 68l-106 -207h-93 l137 263q-39 43 -71.5 99.5t-55.5 123.5t-36 144t-13 162zM230 667q0 -133 31.5 -246t89.5 -195.5t139.5 -129.5t181.5 -47t182 44t139.5 125t89 195t31.5 254v96q0 160 -34.5 280.5t-94.5 201.5t-140.5 121.5t-172.5 40.5t-172.5 -40.5t-140.5 -121.5t-94.5 -201.5 t-34.5 -280.5v-96z" />
<glyph unicode="&#xd9;" horiz-adv-x="1371" d="M221 433v1023h90v-1023q0 -94 27.5 -165.5t76.5 -120t116.5 -73.5t148.5 -25q82 0 152 24t121 72t80 120t29 168v1023h88v-1023q0 -110 -33.5 -194.5t-95 -142.5t-148.5 -87.5t-193 -29.5q-99 0 -183.5 29.5t-145.5 87.5t-95.5 142.5t-34.5 194.5zM309 1878h159l370 -293 h-81z" />
<glyph unicode="&#xda;" horiz-adv-x="1371" d="M221 433v1023h90v-1023q0 -94 27.5 -165.5t76.5 -120t116.5 -73.5t148.5 -25q82 0 152 24t121 72t80 120t29 168v1023h88v-1023q0 -110 -33.5 -194.5t-95 -142.5t-148.5 -87.5t-193 -29.5q-99 0 -183.5 29.5t-145.5 87.5t-95.5 142.5t-34.5 194.5zM538 1585l370 293h159 l-448 -293h-81z" />
<glyph unicode="&#xdb;" horiz-adv-x="1371" d="M221 433v1023h90v-1023q0 -94 27.5 -165.5t76.5 -120t116.5 -73.5t148.5 -25q82 0 152 24t121 72t80 120t29 168v1023h88v-1023q0 -110 -33.5 -194.5t-95 -142.5t-148.5 -87.5t-193 -29.5q-99 0 -183.5 29.5t-145.5 87.5t-95.5 142.5t-34.5 194.5zM362 1587l295 292h57 l296 -292h-67l-257 203l-257 -203h-67z" />
<glyph unicode="&#xdc;" horiz-adv-x="1371" d="M221 433v1023h90v-1023q0 -94 27.5 -165.5t76.5 -120t116.5 -73.5t148.5 -25q82 0 152 24t121 72t80 120t29 168v1023h88v-1023q0 -110 -33.5 -194.5t-95 -142.5t-148.5 -87.5t-193 -29.5q-99 0 -183.5 29.5t-145.5 87.5t-95.5 142.5t-34.5 194.5zM475 1682v110h92v-110 h-92zM803 1682v110h92v-110h-92z" />
<glyph unicode="&#xdd;" horiz-adv-x="1051" d="M0 1456h106l429 -855l415 855h101l-474 -937v-519h-90v530zM401 1585l370 293h159l-448 -293h-81z" />
<glyph unicode="&#xde;" horiz-adv-x="1164" d="M221 0v1456h90v-301h334q109 0 191 -32t137 -89t83 -135.5t28 -171.5q0 -86 -28 -160.5t-83 -129t-137 -85.5t-191 -31h-334v-321h-90zM311 391h334q85 0 151 25t110.5 70t67.5 106.5t23 134.5q0 82 -23 148.5t-68 113t-110.5 71.5t-150.5 25h-334v-694z" />
<glyph unicode="&#xdf;" horiz-adv-x="1138" d="M210 0v1002q0 116 17 212t56.5 164.5t104 106.5t158.5 38q82 0 140 -26.5t95 -68t54.5 -93t17.5 -101.5q0 -51 -13 -94.5t-32 -81.5t-41.5 -71.5t-41.5 -64.5t-32 -61.5t-13 -61.5q0 -27 12.5 -52.5t36 -52.5t57 -57t74.5 -67q42 -37 75 -72.5t56.5 -71.5t36 -74 t12.5 -79q0 -65 -20.5 -119t-58.5 -93t-93 -60.5t-124 -21.5q-48 0 -92 9t-81.5 23t-69 30.5t-53.5 31.5l20 67q15 -11 41 -25.5t60 -28t73.5 -23t80.5 -9.5q62 0 106 17t72 46.5t41 69t13 84.5q0 34 -12 64.5t-36 61t-59 64t-80 73.5q-45 38 -78.5 70t-55 62.5t-32.5 62 t-11 68.5q0 30 13 60t32 61t41.5 63.5t41.5 68t32 75t13 83.5q0 64 -15.5 110t-44 76t-68.5 44.5t-89 14.5q-121 0 -185 -99t-64 -289v-1065h-88z" />
<glyph unicode="&#xe0;" horiz-adv-x="1076" d="M106 285q0 77 29 135.5t83.5 98t132.5 59.5t176 20h250v135q0 58 -15 109.5t-47 89.5t-84 59.5t-125 20.5q-43 -1 -84.5 -10.5t-79 -24.5t-69.5 -34.5t-56 -40.5l-36 55q21 18 51.5 39.5t73.5 40t99.5 31.5t127.5 13q157 0 244.5 -89t87.5 -259v-562q0 -8 2.5 -25.5 t8 -38.5t14.5 -41t23 -33l-50 -51q-32 32 -53.5 72t-28.5 108q-57 -83 -149 -133t-209 -50q-65 0 -122.5 20t-100.5 59t-68.5 96t-25.5 131zM194 285q0 -50 16 -91.5t47.5 -71t77.5 -46t106 -16.5q49 0 102 16t100 45t83 70t51 92v244h-250q-89 0 -152 -19.5t-103.5 -52.5 t-59 -77t-18.5 -93zM271 1557h130l268 -332h-68z" />
<glyph unicode="&#xe1;" horiz-adv-x="1076" d="M106 285q0 77 29 135.5t83.5 98t132.5 59.5t176 20h250v135q0 58 -15 109.5t-47 89.5t-84 59.5t-125 20.5q-43 -1 -84.5 -10.5t-79 -24.5t-69.5 -34.5t-56 -40.5l-36 55q21 18 51.5 39.5t73.5 40t99.5 31.5t127.5 13q157 0 244.5 -89t87.5 -259v-562q0 -8 2.5 -25.5 t8 -38.5t14.5 -41t23 -33l-50 -51q-32 32 -53.5 72t-28.5 108q-57 -83 -149 -133t-209 -50q-65 0 -122.5 20t-100.5 59t-68.5 96t-25.5 131zM194 285q0 -50 16 -91.5t47.5 -71t77.5 -46t106 -16.5q49 0 102 16t100 45t83 70t51 92v244h-250q-89 0 -152 -19.5t-103.5 -52.5 t-59 -77t-18.5 -93zM400 1225l268 332h130l-330 -332h-68z" />
<glyph unicode="&#xe2;" horiz-adv-x="1076" d="M106 285q0 77 29 135.5t83.5 98t132.5 59.5t176 20h250v135q0 58 -15 109.5t-47 89.5t-84 59.5t-125 20.5q-43 -1 -84.5 -10.5t-79 -24.5t-69.5 -34.5t-56 -40.5l-36 55q21 18 51.5 39.5t73.5 40t99.5 31.5t127.5 13q157 0 244.5 -89t87.5 -259v-562q0 -8 2.5 -25.5 t8 -38.5t14.5 -41t23 -33l-50 -51q-32 32 -53.5 72t-28.5 108q-57 -83 -149 -133t-209 -50q-65 0 -122.5 20t-100.5 59t-68.5 96t-25.5 131zM194 285q0 -50 16 -91.5t47.5 -71t77.5 -46t106 -16.5q49 0 102 16t100 45t83 70t51 92v244h-250q-89 0 -152 -19.5t-103.5 -52.5 t-59 -77t-18.5 -93zM248 1226l262 332h57l269 -332h-67l-230 228l-224 -228h-67z" />
<glyph unicode="&#xe3;" horiz-adv-x="1076" d="M106 285q0 77 29 135.5t83.5 98t132.5 59.5t176 20h250v135q0 58 -15 109.5t-47 89.5t-84 59.5t-125 20.5q-43 -1 -84.5 -10.5t-79 -24.5t-69.5 -34.5t-56 -40.5l-36 55q21 18 51.5 39.5t73.5 40t99.5 31.5t127.5 13q157 0 244.5 -89t87.5 -259v-562q0 -8 2.5 -25.5 t8 -38.5t14.5 -41t23 -33l-50 -51q-32 32 -53.5 72t-28.5 108q-57 -83 -149 -133t-209 -50q-65 0 -122.5 20t-100.5 59t-68.5 96t-25.5 131zM194 285q0 -50 16 -91.5t47.5 -71t77.5 -46t106 -16.5q49 0 102 16t100 45t83 70t51 92v244h-250q-89 0 -152 -19.5t-103.5 -52.5 t-59 -77t-18.5 -93zM238 1306q0 38 13 69.5t34.5 54t50 35t59.5 12.5q48 0 89 -16t77 -34.5t67 -34.5t58 -16q44 0 72 32t28 80l49 -13q0 -38 -12.5 -70t-34.5 -55.5t-51.5 -36.5t-62.5 -13q-40 0 -77 16t-72.5 34.5t-69.5 34.5t-68 16q-27 0 -45.5 -11.5t-30 -28t-16.5 -35 t-5 -31.5z" />
<glyph unicode="&#xe4;" horiz-adv-x="1076" d="M106 285q0 77 29 135.5t83.5 98t132.5 59.5t176 20h250v135q0 58 -15 109.5t-47 89.5t-84 59.5t-125 20.5q-43 -1 -84.5 -10.5t-79 -24.5t-69.5 -34.5t-56 -40.5l-36 55q21 18 51.5 39.5t73.5 40t99.5 31.5t127.5 13q157 0 244.5 -89t87.5 -259v-562q0 -8 2.5 -25.5 t8 -38.5t14.5 -41t23 -33l-50 -51q-32 32 -53.5 72t-28.5 108q-57 -83 -149 -133t-209 -50q-65 0 -122.5 20t-100.5 59t-68.5 96t-25.5 131zM194 285q0 -50 16 -91.5t47.5 -71t77.5 -46t106 -16.5q49 0 102 16t100 45t83 70t51 92v244h-250q-89 0 -152 -19.5t-103.5 -52.5 t-59 -77t-18.5 -93zM313 1345v110h92v-110h-92zM666 1345v110h92v-110h-92z" />
<glyph unicode="&#xe5;" horiz-adv-x="1076" d="M106 285q0 77 29 135.5t83.5 98t132.5 59.5t176 20h250v135q0 58 -15 109.5t-47 89.5t-84 59.5t-125 20.5q-43 -1 -84.5 -10.5t-79 -24.5t-69.5 -34.5t-56 -40.5l-36 55q21 18 51.5 39.5t73.5 40t99.5 31.5t127.5 13q157 0 244.5 -89t87.5 -259v-562q0 -8 2.5 -25.5 t8 -38.5t14.5 -41t23 -33l-50 -51q-32 32 -53.5 72t-28.5 108q-57 -83 -149 -133t-209 -50q-65 0 -122.5 20t-100.5 59t-68.5 96t-25.5 131zM194 285q0 -50 16 -91.5t47.5 -71t77.5 -46t106 -16.5q49 0 102 16t100 45t83 70t51 92v244h-250q-89 0 -152 -19.5t-103.5 -52.5 t-59 -77t-18.5 -93zM341 1371q0 40 15 74.5t41.5 60.5t61.5 41t76 15t76.5 -15t61 -40.5t40 -60.5t14.5 -75q0 -41 -14.5 -75t-40.5 -59t-61 -39t-76 -14t-76.5 13.5t-61.5 38.5t-41 59.5t-15 75.5zM414 1371q0 -26 9 -49t25.5 -40.5t39 -27.5t48.5 -10q25 0 46.5 9.5t37 27 t24.5 40.5t9 50t-9 50.5t-24.5 41t-37 28t-46.5 10.5q-26 0 -48 -10t-38.5 -28t-26 -41.5t-9.5 -50.5z" />
<glyph unicode="&#xe6;" horiz-adv-x="1698" d="M106 285q0 77 29 135.5t83.5 98t132.5 59.5t176 20h250v145q0 58 -15 108t-47 86t-84 56t-125 19q-43 -1 -84.5 -10.5t-79 -24.5t-69.5 -34.5t-56 -40.5l-36 54q21 18 51.5 39.5t73.5 40.5t99.5 32t127.5 13q125 0 206.5 -51.5t110.5 -160.5q25 46 58.5 84.5t76 67 t94.5 44.5t114 16q111 0 184 -39t116.5 -104.5t61.5 -152.5t18 -183v-78h-707h-1q0 -104 23.5 -190t72.5 -148t124 -96.5t178 -34.5q78 0 145.5 23t120.5 61l25 -55q-24 -20 -58.5 -39t-77.5 -33.5t-93 -23t-104 -8.5q-134 0 -237 67.5t-156 194.5q-18 -44 -51.5 -90.5 t-83 -84.5t-114.5 -63t-147 -25q-68 0 -127.5 20t-103.5 59t-69.5 96t-25.5 131zM194 285q0 -50 16 -91.5t47.5 -71t77.5 -46t106 -16.5q49 0 101.5 16t99.5 45.5t83.5 71t51.5 93.5v241h-250q-89 0 -152 -19.5t-103.5 -52.5t-59 -77t-18.5 -93zM865 592h621v54 q0 73 -15.5 139.5t-50 117.5t-90.5 81t-137 30q-80 0 -139.5 -35t-100 -93.5t-62.5 -134.5t-26 -159z" />
<glyph unicode="&#xe7;" horiz-adv-x="910" d="M135 519v33q1 116 27.5 213.5t79 168t132 109.5t185.5 39q85 0 160.5 -23.5t128.5 -68.5l-27 -60q-106 79 -253 79q-78 0 -142 -31t-109 -90t-69.5 -146t-24.5 -198v-25q0 -111 24.5 -198t69.5 -147t109 -91t142 -31q146 0 253 80l27 -57q-30 -27 -66 -45t-76 -29 t-81.5 -16t-81.5 -5l-25 -87q85 -9 127.5 -59t42.5 -124q0 -45 -15.5 -82t-48 -64t-83.5 -41.5t-122 -14.5l-2 60q40 0 74 7.5t58.5 23.5t38.5 41t14 60q0 38 -14 62.5t-37.5 39t-54 21.5t-63.5 10l43 153q-86 15 -150 60.5t-106.5 115t-63.5 160.5t-21 197z" />
<glyph unicode="&#xe8;" horiz-adv-x="1056" d="M135 494v78q0 59 11 119.5t33.5 117t56.5 106.5t80.5 87t105 58.5t129.5 21.5q111 0 184 -39t116.5 -105t61.5 -153t18 -183v-78h-707h-1q0 -104 23.5 -190t72.5 -148.5t124 -97t178 -34.5q74 0 143.5 23.5t122.5 61.5l25 -57q-24 -20 -58.5 -39t-77.5 -33t-93 -22.5 t-104 -8.5q-118 0 -202 46.5t-138 121t-79 166t-25 181.5zM223 592h621v54q0 73 -15.5 140t-50 118t-90.5 81t-137 30q-78 0 -136 -32.5t-98 -87t-63 -127.5t-30 -154v-12t-1 -10zM280 1558h130l268 -332h-68z" />
<glyph unicode="&#xe9;" horiz-adv-x="1056" d="M135 494v78q0 59 11 119.5t33.5 117t56.5 106.5t80.5 87t105 58.5t129.5 21.5q111 0 184 -39t116.5 -105t61.5 -153t18 -183v-78h-707h-1q0 -104 23.5 -190t72.5 -148.5t124 -97t178 -34.5q74 0 143.5 23.5t122.5 61.5l25 -57q-24 -20 -58.5 -39t-77.5 -33t-93 -22.5 t-104 -8.5q-118 0 -202 46.5t-138 121t-79 166t-25 181.5zM223 592h621v54q0 73 -15.5 140t-50 118t-90.5 81t-137 30q-78 0 -136 -32.5t-98 -87t-63 -127.5t-30 -154v-12t-1 -10zM430 1226l268 332h130l-330 -332h-68z" />
<glyph unicode="&#xea;" horiz-adv-x="1056" d="M135 494v78q0 59 11 119.5t33.5 117t56.5 106.5t80.5 87t105 58.5t129.5 21.5q111 0 184 -39t116.5 -105t61.5 -153t18 -183v-78h-707h-1q0 -104 23.5 -190t72.5 -148.5t124 -97t178 -34.5q74 0 143.5 23.5t122.5 61.5l25 -57q-24 -20 -58.5 -39t-77.5 -33t-93 -22.5 t-104 -8.5q-118 0 -202 46.5t-138 121t-79 166t-25 181.5zM223 592h621v54q0 73 -15.5 140t-50 118t-90.5 81t-137 30q-78 0 -136 -32.5t-98 -87t-63 -127.5t-30 -154v-12t-1 -10zM271 1226l262 332h57l269 -332h-67l-230 228l-224 -228h-67z" />
<glyph unicode="&#xeb;" horiz-adv-x="1056" d="M135 494v78q0 59 11 119.5t33.5 117t56.5 106.5t80.5 87t105 58.5t129.5 21.5q111 0 184 -39t116.5 -105t61.5 -153t18 -183v-78h-707h-1q0 -104 23.5 -190t72.5 -148.5t124 -97t178 -34.5q74 0 143.5 23.5t122.5 61.5l25 -57q-24 -20 -58.5 -39t-77.5 -33t-93 -22.5 t-104 -8.5q-118 0 -202 46.5t-138 121t-79 166t-25 181.5zM223 592h621v54q0 73 -15.5 140t-50 118t-90.5 81t-137 30q-78 0 -136 -32.5t-98 -87t-63 -127.5t-30 -154v-12t-1 -10zM320 1346v110h92v-110h-92zM673 1346v110h92v-110h-92z" />
<glyph unicode="&#xec;" horiz-adv-x="508" d="M-60 1558h130l268 -332h-68zM210 0v1059h88v-1059h-88z" />
<glyph unicode="&#xed;" horiz-adv-x="508" d="M170 1226l268 332h130l-330 -332h-68zM210 0v1059h88v-1059h-88z" />
<glyph unicode="&#xee;" horiz-adv-x="508" d="M-38 1226l262 332h57l269 -332h-67l-230 228l-224 -228h-67zM210 0v1059h88v-1059h-88z" />
<glyph unicode="&#xef;" horiz-adv-x="508" d="M32 1346v110h92v-110h-92zM210 0v1059h88v-1059h-88zM385 1346v110h92v-110h-92z" />
<glyph unicode="&#xf0;" horiz-adv-x="1135" d="M135 461q0 117 30 213t86 165t135.5 107t178.5 38q93 0 179.5 -36t151.5 -107v4q-6 133 -45.5 238t-104.5 186l-317 -195l-36 55l306 192q-45 45 -99 79.5t-114 54.5l19 62q69 -23 134 -62t121 -94l235 152l40 -54l-229 -150q83 -102 133 -247t50 -337v-136 q0 -120 -24.5 -230.5t-76.5 -195t-131.5 -134.5t-189.5 -50q-95 0 -174.5 37.5t-136.5 103t-89 153t-32 188.5zM223 491q0 -94 23 -174.5t67 -140t108 -93.5t146 -34t144.5 36t104.5 102.5t63 162t21 215.5v151q-20 39 -50.5 74.5t-72.5 62.5t-94 43.5t-115 16.5 q-77 0 -140 -32t-109 -88.5t-71 -134t-25 -167.5z" />
<glyph unicode="&#xf1;" horiz-adv-x="1160" d="M210 0v1059h64l12 -179q29 41 65.5 78t81 64.5t96.5 43.5t112 16q91 0 151.5 -28.5t97 -77.5t52 -113t15.5 -136v-727h-88v727q0 61 -11.5 112.5t-39.5 89t-74.5 59t-115.5 21.5q-44 0 -89.5 -14t-89 -40.5t-82.5 -65.5t-69 -88v-801h-88zM281 1306q0 38 13 69.5t34.5 54 t50 35t59.5 12.5q48 0 89 -16t77 -34.5t67 -34.5t58 -16q44 0 72 32t28 80l49 -13q0 -38 -12.5 -70t-34.5 -55.5t-51.5 -36.5t-62.5 -13q-40 0 -77 16t-72.5 34.5t-69.5 34.5t-68 16q-27 0 -45.5 -11.5t-30 -28t-16.5 -35t-5 -31.5z" />
<glyph unicode="&#xf2;" horiz-adv-x="1117" d="M136 490v62q-2 102 24.5 197.5t79.5 169.5t133 118.5t185 44.5q101 0 180 -41.5t133 -113.5t82.5 -168.5t28.5 -206.5v-72q0 -105 -27 -196.5t-80.5 -159t-132.5 -106.5t-182 -39q-102 0 -181 38t-133 106.5t-82 162t-28 204.5zM224 490q0 -86 21.5 -166t64 -141.5 t105 -99t145.5 -37.5q82 0 144.5 35t104.5 94t63.5 138t21.5 167v72q0 102 -25 187.5t-69.5 146.5t-106.5 95t-135 34q-78 0 -140 -33.5t-105 -94t-66 -146t-23 -189.5v-62zM258 1558h130l268 -332h-68z" />
<glyph unicode="&#xf3;" horiz-adv-x="1117" d="M136 490v62q-2 102 24.5 197.5t79.5 169.5t133 118.5t185 44.5q101 0 180 -41.5t133 -113.5t82.5 -168.5t28.5 -206.5v-72q0 -105 -27 -196.5t-80.5 -159t-132.5 -106.5t-182 -39q-102 0 -181 38t-133 106.5t-82 162t-28 204.5zM224 490q0 -86 21.5 -166t64 -141.5 t105 -99t145.5 -37.5q82 0 144.5 35t104.5 94t63.5 138t21.5 167v72q0 102 -25 187.5t-69.5 146.5t-106.5 95t-135 34q-78 0 -140 -33.5t-105 -94t-66 -146t-23 -189.5v-62zM454 1226l268 332h130l-330 -332h-68z" />
<glyph unicode="&#xf4;" horiz-adv-x="1117" d="M136 490v62q-2 102 24.5 197.5t79.5 169.5t133 118.5t185 44.5q101 0 180 -41.5t133 -113.5t82.5 -168.5t28.5 -206.5v-72q0 -105 -27 -196.5t-80.5 -159t-132.5 -106.5t-182 -39q-102 0 -181 38t-133 106.5t-82 162t-28 204.5zM224 490q0 -86 21.5 -166t64 -141.5 t105 -99t145.5 -37.5q82 0 144.5 35t104.5 94t63.5 138t21.5 167v72q0 102 -25 187.5t-69.5 146.5t-106.5 95t-135 34q-78 0 -140 -33.5t-105 -94t-66 -146t-23 -189.5v-62zM271 1226l262 332h57l269 -332h-67l-230 228l-224 -228h-67z" />
<glyph unicode="&#xf5;" horiz-adv-x="1117" d="M136 490v62q-2 102 24.5 197.5t79.5 169.5t133 118.5t185 44.5q101 0 180 -41.5t133 -113.5t82.5 -168.5t28.5 -206.5v-72q0 -105 -27 -196.5t-80.5 -159t-132.5 -106.5t-182 -39q-102 0 -181 38t-133 106.5t-82 162t-28 204.5zM224 490q0 -86 21.5 -166t64 -141.5 t105 -99t145.5 -37.5q82 0 144.5 35t104.5 94t63.5 138t21.5 167v72q0 102 -25 187.5t-69.5 146.5t-106.5 95t-135 34q-78 0 -140 -33.5t-105 -94t-66 -146t-23 -189.5v-62zM254 1306q0 38 13 69.5t34.5 54t50 35t59.5 12.5q48 0 89 -16t77 -34.5t67 -34.5t58 -16 q44 0 72 32t28 80l49 -13q0 -38 -12.5 -70t-34.5 -55.5t-51.5 -36.5t-62.5 -13q-40 0 -77 16t-72.5 34.5t-69.5 34.5t-68 16q-27 0 -45.5 -11.5t-30 -28t-16.5 -35t-5 -31.5z" />
<glyph unicode="&#xf6;" horiz-adv-x="1117" d="M136 490v62q-2 102 24.5 197.5t79.5 169.5t133 118.5t185 44.5q101 0 180 -41.5t133 -113.5t82.5 -168.5t28.5 -206.5v-72q0 -105 -27 -196.5t-80.5 -159t-132.5 -106.5t-182 -39q-102 0 -181 38t-133 106.5t-82 162t-28 204.5zM224 490q0 -86 21.5 -166t64 -141.5 t105 -99t145.5 -37.5q82 0 144.5 35t104.5 94t63.5 138t21.5 167v72q0 102 -25 187.5t-69.5 146.5t-106.5 95t-135 34q-78 0 -140 -33.5t-105 -94t-66 -146t-23 -189.5v-62zM333 1345v110h92v-110h-92zM686 1345v110h92v-110h-92z" />
<glyph unicode="&#xf7;" horiz-adv-x="1182" d="M121 663v70h940v-70h-940zM138 3020v110h92v-110h-92zM547 281v110h92v-110h-92zM547 993v110h92v-110h-92z" />
<glyph unicode="&#xf8;" horiz-adv-x="1117" d="M136 490v62q-2 102 24.5 197.5t79.5 169.5t133 119t185 45q52 0 98 -11.5t87 -33.5l66 148h83l-85 -193q84 -72 129.5 -187.5t45.5 -253.5v-72q0 -105 -27 -196.5t-80.5 -159t-132.5 -106.5t-182 -39q-52 0 -98 10t-86 29l-67 -155h-83l82 198q-85 67 -128.5 178 t-43.5 251zM224 490q0 -86 21.5 -166t64 -141.5t105 -99t145.5 -37.5q82 0 144.5 35t104.5 94t63.5 138t21.5 167v72q0 102 -25 187.5t-69.5 147t-106.5 95.5t-135 34q-78 0 -140 -33.5t-105 -94.5t-66 -146.5t-23 -189.5v-62z" />
<glyph unicode="&#xf9;" horiz-adv-x="1162" d="M203 333v726h88v-726q0 -61 12 -112.5t40.5 -89t77 -58.5t121.5 -21q48 0 99 21t95 52t75.5 67t40.5 67v800h88v-888q0 -8 2.5 -25.5t8 -38.5t14.5 -41t23 -33l-50 -51q-31 31 -52.5 72t-29.5 106q-28 -36 -65.5 -69t-81 -58t-91.5 -39.5t-99 -14.5q-91 0 -151.5 28.5 t-97 77t-52 112.5t-15.5 136zM269 1558h130l268 -332h-68z" />
<glyph unicode="&#xfa;" horiz-adv-x="1162" d="M203 333v726h88v-726q0 -61 12 -112.5t40.5 -89t77 -58.5t121.5 -21q48 0 99 21t95 52t75.5 67t40.5 67v800h88v-888q0 -8 2.5 -25.5t8 -38.5t14.5 -41t23 -33l-50 -51q-31 31 -52.5 72t-29.5 106q-28 -36 -65.5 -69t-81 -58t-91.5 -39.5t-99 -14.5q-91 0 -151.5 28.5 t-97 77t-52 112.5t-15.5 136zM461 1226l268 332h130l-330 -332h-68z" />
<glyph unicode="&#xfb;" horiz-adv-x="1162" d="M203 333v726h88v-726q0 -61 12 -112.5t40.5 -89t77 -58.5t121.5 -21q48 0 99 21t95 52t75.5 67t40.5 67v800h88v-888q0 -8 2.5 -25.5t8 -38.5t14.5 -41t23 -33l-50 -51q-31 31 -52.5 72t-29.5 106q-28 -36 -65.5 -69t-81 -58t-91.5 -39.5t-99 -14.5q-91 0 -151.5 28.5 t-97 77t-52 112.5t-15.5 136zM273 1226l262 332h57l269 -332h-67l-230 228l-224 -228h-67z" />
<glyph unicode="&#xfc;" horiz-adv-x="1162" d="M203 333v726h88v-726q0 -61 12 -112.5t40.5 -89t77 -58.5t121.5 -21q48 0 99 21t95 52t75.5 67t40.5 67v800h88v-888q0 -8 2.5 -25.5t8 -38.5t14.5 -41t23 -33l-50 -51q-31 31 -52.5 72t-29.5 106q-28 -36 -65.5 -69t-81 -58t-91.5 -39.5t-99 -14.5q-91 0 -151.5 28.5 t-97 77t-52 112.5t-15.5 136zM348 1345v110h92v-110h-92zM701 1345v110h92v-110h-92z" />
<glyph unicode="&#xfd;" horiz-adv-x="951" d="M62 1059h94l290 -828l32 -110h5l30 110q72 208 140.5 415.5t141.5 412.5h94l-445 -1240q-20 -57 -40.5 -104.5t-46.5 -81.5t-61 -53t-83 -19q-11 0 -40.5 1.5t-60.5 11.5l8 68q20 -5 37.5 -7.5t45.5 -2.5t51 12t44 39.5t41 72.5t43 110l55 156zM369 1226l268 332h130 l-330 -332h-68z" />
<glyph unicode="&#xfe;" horiz-adv-x="1145" d="M210 83v111l1 1364h87v-649q48 79 128 126t192 47q93 0 166 -38t123.5 -108t76.5 -169.5t26 -222.5v-84q0 -99 -26.5 -186.5t-77 -153.5t-123 -104t-163.5 -38q-56 0 -104 12.5t-88.5 34.5t-73 51.5t-56.5 64.5v-559h-88v501zM298 251q10 -34 40.5 -69.5t73 -65t93.5 -48 t102 -18.5q67 0 125 23.5t100.5 73.5t66.5 127.5t24 185.5v84q0 229 -85 347.5t-241 118.5q-103 0 -179 -52t-120 -161v-546z" />
<glyph unicode="&#xff;" horiz-adv-x="951" d="M62 1059h94l290 -828l32 -110h5l30 110q72 208 140.5 415.5t141.5 412.5h94l-445 -1240q-20 -57 -40.5 -104.5t-46.5 -81.5t-61 -53t-83 -19q-11 0 -40.5 1.5t-60.5 11.5l8 68q20 -5 37.5 -7.5t45.5 -2.5t51 12t44 39.5t41 72.5t43 110l55 156zM266 1385v110h92v-110h-92 zM619 1385v110h92v-110h-92z" />
<glyph unicode="&#x152;" horiz-adv-x="1834" d="M142 644v106q0 174 36.5 309.5t107 228.5t174.5 141t238 48q104 0 156.5 -9t62.5 -12h826v-70h-736v-589h633v-70h-633v-657h750v-70h-834q-2 0 -18.5 -3.5t-46 -7t-70.5 -7t-92 -3.5q-133 0 -236.5 49.5t-174 137.5t-107 210t-36.5 268zM230 676q0 -157 39.5 -273.5 t105 -194t149 -116t172.5 -38.5q56 0 96.5 3.5t67.5 8.5t40.5 9t16.5 6v1285q-22 12 -69 24t-130 12q-126 0 -218 -47.5t-152 -131t-89 -197.5t-29 -247v-103z" />
<glyph unicode="&#x153;" horiz-adv-x="1817" d="M136 490v62q-2 102 24.5 197.5t79.5 169.5t133 118.5t185 44.5q70 0 129 -20.5t107 -58t84 -91t60 -119.5q22 61 56.5 114t81 92t105.5 61t131 22q111 0 184 -39t116.5 -105t61.5 -153t18 -183v-78h-708q0 -1 -0.5 -1.5t-0.5 -1.5q0 -103 24 -188.5t73 -147.5t124 -96.5 t178 -34.5q78 0 145.5 23.5t120.5 61.5l25 -56q-60 -45 -141 -74.5t-187 -29.5q-78 0 -141.5 19.5t-113.5 55.5t-86.5 85.5t-60.5 109.5q-45 -130 -141 -200t-242 -70q-102 0 -181 38t-133 106.5t-82 162t-28 204.5zM224 490q0 -86 21.5 -166t64 -141.5t105 -99t145.5 -37.5 q82 0 144.5 35t104.5 94t63.5 138t21.5 167v72q0 102 -25 187.5t-69.5 146.5t-106.5 95t-135 34q-78 0 -140 -33.5t-105 -94t-66 -146t-23 -189.5v-62zM984 592h621v54q0 73 -15.5 140t-50 118t-90.5 81t-137 30q-78 0 -136 -32.5t-98 -87t-63 -127.5t-30 -154v-12t-1 -10z " />
<glyph unicode="&#x178;" horiz-adv-x="1051" d="M0 1456h106l429 -855l415 855h101l-474 -937v-519h-90v530zM311 1682v110h92v-110h-92zM639 1682v110h92v-110h-92z" />
<glyph unicode="&#x2c6;" horiz-adv-x="724" d="M68 1226l262 332h57l269 -332h-67l-230 228l-224 -228h-67z" />
<glyph unicode="&#x2dc;" horiz-adv-x="848" d="M130 1307q0 38 13 69.5t34.5 54t50 35t59.5 12.5q48 0 89 -16t77 -34.5t67 -34.5t58 -16q44 0 72 32t28 80l49 -13q0 -38 -12.5 -70t-34.5 -55.5t-51.5 -36.5t-62.5 -13q-40 0 -77 16t-72.5 34.5t-69.5 34.5t-68 16q-27 0 -45.5 -11.5t-30 -28t-16.5 -35t-5 -31.5z" />
<glyph unicode="&#x2000;" horiz-adv-x="1565" />
<glyph unicode="&#x2001;" horiz-adv-x="3130" />
<glyph unicode="&#x2002;" horiz-adv-x="1565" />
<glyph unicode="&#x2003;" horiz-adv-x="3130" />
<glyph unicode="&#x2004;" horiz-adv-x="1043" />
<glyph unicode="&#x2005;" horiz-adv-x="782" />
<glyph unicode="&#x2006;" horiz-adv-x="521" />
<glyph unicode="&#x2007;" horiz-adv-x="521" />
<glyph unicode="&#x2008;" horiz-adv-x="391" />
<glyph unicode="&#x2009;" horiz-adv-x="626" />
<glyph unicode="&#x200a;" horiz-adv-x="173" />
<glyph unicode="&#x2010;" horiz-adv-x="637" d="M100 576v70h437v-70h-437z" />
<glyph unicode="&#x2011;" horiz-adv-x="637" d="M100 576v70h437v-70h-437z" />
<glyph unicode="&#x2012;" horiz-adv-x="637" d="M100 576v70h437v-70h-437z" />
<glyph unicode="&#x2013;" horiz-adv-x="987" d="M100 576v70h787v-70h-787z" />
<glyph unicode="&#x2014;" horiz-adv-x="1544" d="M100 576v70h1344v-70h-1344z" />
<glyph unicode="&#x2018;" horiz-adv-x="372" d="M131 1066v176l89 316h52l-43 -303v-189h-98z" />
<glyph unicode="&#x2019;" horiz-adv-x="372" d="M100 1066l43 303v189h98v-176l-89 -316h-52z" />
<glyph unicode="&#x201a;" horiz-adv-x="372" d="M100 -232l43 303v189h98v-176l-89 -316h-52z" />
<glyph unicode="&#x201c;" horiz-adv-x="627" d="M131 1066v176l89 316h52l-43 -303v-189h-98zM386 1066v176l89 316h52l-43 -303v-189h-98z" />
<glyph unicode="&#x201d;" horiz-adv-x="627" d="M100 1066l43 303v189h98v-176l-89 -316h-52zM355 1066l43 303v189h98v-176l-89 -316h-52z" />
<glyph unicode="&#x201e;" horiz-adv-x="626" d="M100 -232l43 303v189h98v-176l-89 -316h-52zM354 -232l43 303v189h98v-176l-89 -316h-52z" />
<glyph unicode="&#x2022;" horiz-adv-x="661" d="M176 736v46q0 31 8.5 60t26.5 50.5t47 34.5t71 13q38 0 67.5 -13t49 -34.5t29.5 -50.5t10 -60v-46q0 -29 -9 -57t-27.5 -49.5t-48 -34.5t-71.5 -13q-39 0 -68 12.5t-47.5 34t-28 49.5t-9.5 58z" />
<glyph unicode="&#x2026;" horiz-adv-x="1337" d="M210 0v121h97v-121h-97zM620 0v121h97v-121h-97zM1030 0v121h97v-121h-97z" />
<glyph unicode="&#x202f;" horiz-adv-x="626" />
<glyph unicode="&#x2039;" horiz-adv-x="584" d="M122 542v17l285 384h67l-239 -393l239 -394h-67z" />
<glyph unicode="&#x203a;" horiz-adv-x="584" d="M110 157l239 393l-239 394h67l285 -386v-17l-285 -384h-67z" />
<glyph unicode="&#x205f;" horiz-adv-x="782" />
<glyph unicode="&#x20ac;" horiz-adv-x="1125" d="M140 546v70h139v213h-139v70h139q0 126 33 232.5t100 183t169.5 119.5t241.5 43q57 0 109 -9t111 -24l-11 -66q-51 14 -105 23t-104 9q-120 0 -206 -39t-141.5 -107t-82 -162t-26.5 -203h564v-70h-564v-213h564v-70h-558q0 -96 25.5 -186t80.5 -159t140 -110.5t204 -41.5 q50 0 104 7.5t105 21.5l11 -64q-59 -15 -111 -25t-109 -10q-139 0 -239.5 44.5t-166.5 121.5t-99.5 180.5t-38.5 220.5h-139z" />
<glyph unicode="&#x2122;" horiz-adv-x="1242" d="M135 1402v54h343v-54h-137v-483h-67v483h-139zM576 919v537h76l177 -448h4l173 448h76v-537h-60v429h-1l-169 -429h-43l-172 430h-1v-430h-60z" />
<glyph unicode="&#x25fc;" horiz-adv-x="1060" d="M0 0v1060h1060v-1060h-1060z" />
<glyph unicode="&#xfb02;" horiz-adv-x="1097" d="M62 991v68h157v211q0 158 61.5 234.5t174.5 76.5q35 0 71.5 -7t65.5 -21l-16 -65q-35 11 -61 15.5t-52 4.5q-81 0 -118.5 -55.5t-37.5 -182.5v-211h249v-68h-249v-991h-88v991h-157zM778 206v1352h88v-1347q0 -44 4.5 -74t15 -48.5t26.5 -26.5t40 -8q19 0 33 4t28 9 l14 -63q-21 -13 -46.5 -19t-51.5 -6q-29 0 -56 9t-48 34t-34 69.5t-13 114.5z" />
</font>
</defs>
</svg>
