<?xml version="1.0" standalone="no"?>
<!DOCTYPE svg PUBLIC "-//W3C//DTD SVG 1.1//EN" "http://www.w3.org/Graphics/SVG/1.1/DTD/svg11.dtd" >
<svg xmlns="http://www.w3.org/2000/svg" xmlns:xlink="http://www.w3.org/1999/xlink" version="1.1">
<metadata></metadata>
<defs>
<font id="ufes_sansthin_italic" horiz-adv-x="1132" >
<font-face units-per-em="2048" ascent="1638" descent="-410" />
<missing-glyph horiz-adv-x="478" />
<glyph unicode="&#xfb01;" horiz-adv-x="1088" d="M-189 -421l18 65q14 -4 32 -6t28 -2q56 0 97 31.5t70.5 80t48.5 107.5t31 115l214 1021h-177l11 68h179l31 161q36 187 141 273.5t284 86.5q43 0 85.5 -9.5t77.5 -22t59.5 -26.5t30.5 -23l-22 -63q-17 11 -39 24t-52 24.5t-68 19t-86 7.5q-87 0 -144 -26t-93 -67 t-55 -93.5t-29 -104.5l-31 -161h265l-11 -68h-265l-220 -1021q-43 -200 -121 -303t-193 -103q-32 0 -54 4t-43 11zM745 172q2 33 12 90.5t24.5 131t32.5 158t37 172t36.5 173.5t32.5 162h89q-32 -150 -56.5 -266t-42.5 -204.5t-31 -152t-21.5 -107t-13.5 -70.5t-7 -43 q-6 -42 -6 -48q0 -12 -0.5 -29t2.5 -35t12 -35.5t28 -30.5l-41 -55q-11 6 -27 15.5t-30.5 30t-24 54.5t-5.5 89z" />
<glyph unicode="&#xfb03;" horiz-adv-x="1659" d="M-189 -421l18 65q14 -4 32 -6t28 -2q56 0 97 31.5t70.5 80t48.5 107.5t31 115l214 1021h-177l11 68h179l31 161q17 85 42 150.5t62 110t88.5 67t122.5 22.5q32 0 63 -5.5t52 -12.5l-23 -65q-18 5 -39.5 8.5t-46.5 3.5q-61 0 -101 -25.5t-65.5 -65.5t-40 -90t-24.5 -98 l-31 -161h481l31 161q36 187 141 273.5t284 86.5q43 0 85.5 -9.5t77.5 -22t59.5 -26.5t30.5 -23l-22 -62q-17 11 -39 23.5t-52 23.5t-68 18.5t-86 7.5q-87 0 -144 -25.5t-93 -67t-55 -93.5t-29 -104l-31 -161h265l-11 -68h-265l-220 -1021q-43 -200 -121 -303t-193 -103 q-32 0 -54 4t-43 11l18 65q14 -4 32 -6t28 -2q56 0 97 31.5t70.5 80t48.5 107.5t31 115l214 1021h-479l-220 -1021q-43 -200 -121 -303t-193 -103q-32 0 -54 4t-43 11zM1316 172q2 33 12 90.5t24.5 131t32.5 158t37 172t36.5 173.5t32.5 162h89q-32 -150 -56.5 -266 t-42.5 -204.5t-31 -152t-21.5 -107t-13.5 -70.5t-7 -43q-6 -42 -6 -48q0 -12 -0.5 -29t2.5 -35t12 -35.5t28 -30.5l-41 -55q-11 6 -27 15.5t-30.5 30t-24 54.5t-5.5 89z" />
<glyph horiz-adv-x="0" />
<glyph unicode="&#xd;" horiz-adv-x="477" />
<glyph horiz-adv-x="0" />
<glyph horiz-adv-x="0" />
<glyph horiz-adv-x="16" />
<glyph unicode="&#x9;" horiz-adv-x="16" />
<glyph unicode=" "  horiz-adv-x="478" />
<glyph unicode="&#x09;" horiz-adv-x="478" />
<glyph unicode="&#xa0;" horiz-adv-x="478" />
<glyph unicode="!" horiz-adv-x="546" d="M144 0l26 121h98l-26 -121h-98zM245 402l208 1054h104l-249 -1054h-63z" />
<glyph unicode="&#x22;" horiz-adv-x="620" d="M298 1066l32 263l50 231h93l-50 -231l-82 -263h-43zM549 1066l32 263l50 231h93l-50 -231l-82 -263h-43z" />
<glyph unicode="#" horiz-adv-x="1224" d="M123 425l16 70h236l194 473h-252l15 70h264l170 418h80l-172 -418h314l173 418h77l-172 -418h210l-15 -70h-227l-191 -473h246l-14 -70h-260l-161 -425h-76l161 425h-316l-172 -425h-78l173 425h-223zM452 495h317l188 473h-311z" />
<glyph unicode="$" horiz-adv-x="1037" d="M72 142l45 56q26 -26 59.5 -50.5t74.5 -43.5t90.5 -30t107.5 -11q70 0 138.5 27t123 73.5t88.5 110t34 135.5q0 63 -13.5 110t-40.5 84.5t-67 68t-93 60.5q-99 55 -160 105t-94.5 98.5t-44.5 97t-11 102.5q0 77 33.5 139.5t90.5 106.5t133.5 68t162.5 26l47 218h75 l-48 -222q18 -3 48.5 -9.5t67 -20t76 -35.5t77.5 -55l-43 -53q-41 35 -86.5 55.5t-86.5 31.5t-73 14.5t-46 3.5q-80 0 -143 -22.5t-107.5 -60t-68 -86t-23.5 -101.5q0 -49 13.5 -90t44 -78.5t80 -73t120.5 -74.5q74 -40 125 -83.5t82.5 -91t45.5 -100.5t14 -112 q0 -85 -31.5 -160t-88.5 -132.5t-136 -95t-174 -47.5l-44 -206h-75l43 202q-40 3 -83 11.5t-87 26.5t-87.5 45.5t-84.5 67.5z" />
<glyph unicode="%" horiz-adv-x="1363" d="M138 0l1148 1456h94l-1148 -1456h-94zM241 1037q0 80 23 158.5t66 141t105 101.5t140 39q56 0 95 -19.5t64 -52t36 -75.5t11 -91q0 -80 -24 -158.5t-69 -141t-108 -101.5t-141 -39q-50 0 -87 19.5t-61.5 52t-37 75.5t-12.5 91zM320 1045q0 -92 32.5 -135.5t95.5 -43.5 q49 0 95 26.5t81.5 74t56.5 113t21 142.5q0 90 -31.5 139t-105.5 49q-52 0 -97 -27t-78 -75t-51.5 -115t-18.5 -148zM748 217q0 80 23 158.5t66 141t105 101.5t140 39q56 0 95 -19.5t64 -52t36 -75.5t11 -91q0 -80 -24 -158.5t-69 -141t-108 -101.5t-141 -39q-50 0 -87 19.5 t-61.5 52t-37 75.5t-12.5 91zM827 225q0 -92 32.5 -135.5t95.5 -43.5q49 0 95 26.5t81 74t56 113t21 142.5q0 90 -31 139t-105 49q-52 0 -97 -27t-78 -75t-51.5 -115t-18.5 -148z" />
<glyph unicode="&#x26;" horiz-adv-x="1388" d="M137 317q0 75 22.5 138t57 115.5t76.5 93t81.5 70t71 48t45.5 26.5q-14 29 -28.5 63t-26 72.5t-19 81t-7.5 88.5q0 67 24.5 132.5t75.5 117t128.5 83t184.5 31.5q53 0 94.5 -10t70.5 -22t44.5 -22.5t17.5 -11.5l-35 -57q-4 3 -21.5 12t-46 18t-66.5 16.5t-83 7.5 q-63 0 -117.5 -23t-95 -62t-64 -90.5t-23.5 -108.5q0 -20 1 -50t10.5 -72t30.5 -97t61 -124l311 -527q37 34 67.5 81.5t54 100.5t39 107t23.5 102q-18 4 -36 7t-36 3q-17 0 -38.5 -1.5t-42.5 -8.5l13 61q20 10 47.5 13.5t52.5 3.5q29 0 51 -4t43.5 -9t45.5 -9t57 -4 q38 0 66 5t48.5 13t36 18t28.5 19l-13 -73q-5 -6 -17 -15t-33 -17t-52.5 -14t-74.5 -6q-14 0 -30 1.5t-30 4.5q-14 -72 -38 -137t-55 -121.5t-67.5 -103.5t-73.5 -83l114 -188h-86l-85 139q-95 -77 -191.5 -118.5t-207.5 -41.5q-83 0 -148.5 26t-111.5 71t-70.5 107 t-24.5 134zM227 318q1 -64 20.5 -114t54 -84.5t83.5 -52.5t109 -18q91 0 181 39.5t178 111.5l-330 546q-22 -14 -52.5 -33.5t-64 -46t-66 -60.5t-58 -77t-41 -95.5t-14.5 -115.5z" />
<glyph unicode="'" horiz-adv-x="373" d="M296 1066l32 263l50 231h93l-50 -231l-82 -263h-43z" />
<glyph unicode="(" horiz-adv-x="538" d="M168 272q0 215 27 394t73 324t106.5 257.5t127.5 195t136 136t133 81.5l11 -68q-54 -35 -114 -88t-118.5 -130.5t-111.5 -183.5t-93.5 -246t-64.5 -318.5t-24 -401.5q0 -19 2.5 -55.5t9 -83t16.5 -98t25 -101.5t35 -94t46 -74l-37 -64q-38 28 -66.5 79t-49.5 112.5 t-34 127.5t-21 125t-11 105.5t-3 68.5z" />
<glyph unicode=")" horiz-adv-x="537" d="M-125 -277q54 35 114 88t118.5 130.5t111.5 183.5t93.5 246t64.5 318.5t24 401.5q0 19 -2.5 55.5t-9 83t-16.5 98t-25 101.5t-35 94t-46 74l37 64q38 -28 66.5 -79t49.5 -112.5t34 -127.5t21 -125t11 -105.5t3 -68.5q0 -215 -27 -394t-73 -324t-106.5 -257.5t-127.5 -195 t-136 -136t-133 -81.5z" />
<glyph unicode="*" horiz-adv-x="1026" d="M266 1114l42 81l289 -115l69 376h89l-90 -376l336 115l8 -82l-339 -95l132 -312l-72 -49l-122 315l-261 -319l-61 53l281 314z" />
<glyph unicode="+" horiz-adv-x="1182" d="M190 663l14 70h431l101 473h83l-101 -473h426l-14 -70h-426l-110 -517h-83l110 517h-431z" />
<glyph unicode="," horiz-adv-x="526" d="M17 -296l136 299l25 118h97l-25 -120l-173 -297h-60z" />
<glyph unicode="-" horiz-adv-x="637" d="M142 576l15 70h437l-15 -70h-437z" />
<glyph unicode="." horiz-adv-x="517" d="M132 0l26 121h97l-26 -121h-97z" />
<glyph unicode="/" horiz-adv-x="813" d="M-47 -125l893 1581h87l-894 -1581h-86z" />
<glyph unicode="0" horiz-adv-x="1102" d="M161 391q0 121 18.5 248.5t54.5 248t89 228t122.5 187.5t154.5 127t186 47q75 0 126.5 -24.5t85 -62.5t51.5 -85t26.5 -91.5t10 -82t1.5 -56.5q0 -73 -9.5 -158.5t-29 -176.5t-49 -182.5t-68.5 -176t-88.5 -158t-108.5 -128t-128 -85.5t-148 -31q-66 0 -114 21t-81 55.5 t-53 78.5t-31 90t-14.5 89.5t-3.5 77.5zM249 410q0 -75 10.5 -141t35.5 -115t67.5 -77t107.5 -28q78 0 147.5 47.5t128.5 127.5t106 186t80 223.5t50.5 239t17.5 233.5q0 22 -3 53.5t-11.5 64.5t-23.5 66t-39 59t-57.5 42t-78.5 16q-85 0 -157.5 -46t-132.5 -124 t-106 -179.5t-77.5 -212t-48 -223.5t-16.5 -212z" />
<glyph unicode="1" horiz-adv-x="767" d="M29 0l15 70h248l276 1297l-250 -36l1 63l296 62h62l-295 -1386h231l-15 -70h-569z" />
<glyph unicode="2" horiz-adv-x="900" d="M-18 0l15 70q97 100 202 208t217 229q117 126 198 226.5t131.5 180t73.5 142t23 113.5q0 71 -17.5 116.5t-48.5 72t-73.5 36.5t-91.5 10q-46 0 -90.5 -11.5t-84 -29t-72.5 -38.5t-56 -40l-22 62q27 22 63 45t78.5 42t90.5 31t99 12q160 0 238.5 -76t78.5 -216 q0 -61 -21.5 -126t-59 -132t-87 -134t-105 -132t-114 -128t-113.5 -120q-53 -55 -107 -109.5t-101 -101.5l-82 -82t-49 -50h644l-15 -70h-742z" />
<glyph unicode="3" horiz-adv-x="942" d="M-4 92l43 58q23 -21 53.5 -39t69.5 -31.5t87.5 -21t107.5 -7.5q63 0 131.5 26.5t125.5 79.5t94 131t37 182q0 52 -11 98t-37.5 80.5t-71.5 55t-113 20.5h-133l15 71h133q72 0 134 33.5t108 87.5t72.5 122.5t26.5 139.5q0 46 -13.5 88t-44 73.5t-81 50t-124.5 18.5 q-47 0 -93 -11t-86 -26t-71.5 -31t-47.5 -26l-16 60q20 13 51.5 30.5t74.5 34t98 28t122 11.5q92 0 153.5 -27t98 -69t52 -92.5t15.5 -96.5q0 -72 -24.5 -142.5t-65 -129.5t-93 -101.5t-107.5 -57.5q49 -17 81 -49t51 -72.5t27 -85t8 -84.5q0 -119 -42.5 -210.5t-111 -154 t-155 -95t-174.5 -32.5q-67 0 -120 9t-96 24.5t-76.5 36t-61.5 43.5z" />
<glyph unicode="4" horiz-adv-x="1081" d="M63 374l11 53l819 1029h112l-215 -1012h220l-15 -70h-220l-80 -374h-93l80 374h-619zM187 444h510l198 904z" />
<glyph unicode="5" horiz-adv-x="971" d="M37 111l44 58q22 -20 54 -41t72.5 -38t87.5 -28t98 -11q69 0 139 35.5t127 101.5t93 160.5t36 213.5q0 49 -16.5 94t-52 79t-91 54t-132.5 20q-67 0 -127.5 -11.5t-108.5 -29.5l-45 45l195 643h629l-15 -70h-550l-163 -537q31 9 56 14.5t48.5 8.5t49 4t57.5 1 q87 0 153.5 -23t111 -63t67.5 -95t23 -119q0 -140 -41 -251t-109 -188t-158 -118t-187 -41q-56 0 -106 10.5t-93 28.5t-79.5 42t-66.5 51z" />
<glyph unicode="6" horiz-adv-x="1041" d="M170 413q0 144 22 279.5t63 253.5t99.5 216t131.5 168t158 108.5t180 38.5q49 0 88 -5t70.5 -14t56 -20.5t44.5 -24.5l-30 -66q-41 26 -96 42.5t-130 16.5q-87 0 -169.5 -44.5t-153 -130t-125.5 -210.5t-86 -286q30 42 77 77.5t100.5 61t108.5 39.5t102 14 q84 0 141.5 -24.5t93.5 -68t51.5 -102.5t15.5 -129q0 -135 -44 -249.5t-115.5 -198t-162.5 -130t-186 -46.5q-69 0 -125.5 29.5t-96.5 85t-61.5 136.5t-21.5 183zM260 365q0 -59 14.5 -115.5t44 -101t74.5 -72t105 -27.5q43 0 88.5 19t89.5 53.5t83 83.5t68.5 108.5t47 129 t17.5 145.5q0 43 -7.5 90.5t-30.5 87.5t-64.5 65.5t-110.5 25.5q-64 0 -123.5 -19t-111 -51.5t-94.5 -75.5t-73 -92q-7 -51 -10.5 -85.5t-5 -61.5t-1.5 -51.5v-55.5z" />
<glyph unicode="7" horiz-adv-x="931" d="M217 0q34 127 72 246t83.5 233t102.5 225t130 222.5t165 225.5t208 234h-741l15 70h829l-16 -72q-174 -184 -299 -363t-213 -352t-145 -340.5t-93 -328.5h-98z" />
<glyph unicode="8" horiz-adv-x="1053" d="M114 327q0 84 30 156.5t79.5 128t113.5 92t131 50.5q-52 18 -83.5 51.5t-48.5 71t-22.5 72.5t-5.5 58q0 104 35 190.5t94.5 148.5t138.5 96.5t168 34.5q91 0 151.5 -30.5t96.5 -76t51 -99.5t15 -101q0 -86 -26 -155t-69 -121t-98.5 -87.5t-115.5 -53.5 q105 -36 151.5 -112.5t46.5 -188.5q0 -97 -36.5 -183t-102 -150.5t-155.5 -102t-197 -37.5q-81 0 -144.5 25t-107.5 71t-67 110t-23 142zM202 326q0 -53 13.5 -103t45 -88.5t83 -62t127.5 -23.5q68 0 137.5 28.5t125.5 79.5t91 122t35 156q0 132 -64.5 206.5t-204.5 74.5 q-75 0 -145 -32t-124.5 -86t-87 -124.5t-32.5 -147.5zM397 1020q0 -46 10.5 -88.5t36.5 -74.5t69.5 -51.5t108.5 -19.5q62 0 124.5 30.5t112 80.5t80.5 115t31 134q0 50 -10.5 97t-37.5 83.5t-72.5 58.5t-115.5 22q-73 0 -135 -34.5t-107 -89.5t-70 -124.5t-25 -138.5z" />
<glyph unicode="9" horiz-adv-x="1041" d="M95 43l30 66q41 -26 96 -42.5t130 -16.5q87 0 169.5 44.5t153 130t125 210.5t86.5 286q-30 -42 -77 -77.5t-100.5 -61t-109 -39.5t-101.5 -14q-84 0 -141.5 24.5t-93.5 68t-51.5 102.5t-15.5 129q0 135 44 249.5t115.5 198t162.5 130t186 46.5q69 0 125.5 -29.5t96.5 -85 t61.5 -136.5t21.5 -183q0 -145 -22 -280t-63 -253t-99.5 -216t-131.5 -168t-158 -108.5t-180 -38.5q-98 0 -158.5 19t-100.5 45zM286 868q0 -44 7.5 -91t30.5 -87t64.5 -65.5t110.5 -25.5q64 0 123.5 19t111 51.5t94.5 75.5t73 92q7 51 10.5 85.5t5 61.5t1.5 51.5v55.5 q0 58 -14.5 115t-44 101.5t-74.5 72t-105 27.5q-43 0 -88.5 -19t-89.5 -53.5t-83 -83.5t-68.5 -108.5t-47 -129t-17.5 -145.5z" />
<glyph unicode=":" horiz-adv-x="517" d="M132 0l25 121h97l-25 -121h-97zM332 947l26 121h97l-26 -121h-97z" />
<glyph unicode=";" horiz-adv-x="528" d="M36 -296l136 299l25 118h97l-25 -120l-173 -297h-60zM359 947l26 121h97l-26 -121h-97z" />
<glyph unicode="&#x3c;" horiz-adv-x="1035" d="M196 698l13 66l835 378l-16 -96l-703 -310l-61 -8l-1 -4l56 -15l568 -317l-20 -83z" />
<glyph unicode="=" horiz-adv-x="1202" d="M209 498l15 70h840l-15 -70h-840zM292 886l14 70h840l-14 -70h-840z" />
<glyph unicode="&#x3e;" horiz-adv-x="1035" d="M144 311l16 96l703 310l61 14l1 4l-56 9l-568 317l20 83l671 -389l-13 -66z" />
<glyph unicode="?" horiz-adv-x="836" d="M255 0l26 121h97l-26 -121h-97zM265 1329q28 23 65 49t82.5 48t99.5 36.5t117 14.5q140 0 211.5 -73.5t71.5 -207.5q0 -78 -26 -149t-72.5 -137.5t-111 -132t-140.5 -133.5q-41 -36 -75 -96t-53 -148h-90q16 66 33 112.5t42.5 85t62.5 75.5t92 85q123 107 184.5 215 t61.5 205q0 40 -8 81t-30.5 73t-61.5 52.5t-101 20.5q-57 0 -111.5 -17.5t-99 -40.5t-76 -45.5t-43.5 -33.5z" />
<glyph unicode="@" horiz-adv-x="1958" d="M185 260q0 166 34.5 316t97.5 277.5t151 231t194.5 176t229.5 111.5t255 39q134 0 237 -27t179.5 -74t128.5 -110.5t83.5 -136.5t45 -151t13.5 -155q0 -95 -14 -194t-40.5 -192.5t-64.5 -176.5t-85 -145t-102.5 -98t-116.5 -36q-48 0 -84 19.5t-58 52t-31 73.5t-3 85 q-27 -49 -63.5 -87.5t-78.5 -65.5t-87 -41t-87 -14q-67 0 -125.5 26t-102.5 74.5t-69.5 118.5t-25.5 158q0 144 32.5 275t97 231t160 159.5t221.5 59.5q44 0 85 -12t75.5 -34t62 -51.5t45.5 -65.5l51 148h69l-173 -788q-8 -38 -10.5 -62t-2.5 -50q0 -23 5 -47.5t17.5 -44.5 t35 -33t58.5 -13q39 0 78 31.5t75.5 86.5t67.5 130t54.5 162.5t36.5 182.5t13 191q0 135 -42.5 241t-122 179t-193.5 111t-257 38q-81 0 -176.5 -28t-191 -85t-184 -143.5t-157 -203.5t-109.5 -264.5t-41 -327.5q0 -171 40.5 -296t111 -206.5t166.5 -121t207 -39.5 q97 0 187.5 25.5t184.5 72.5l15 -61q-35 -23 -80 -43t-98 -35t-111.5 -23.5t-120.5 -8.5q-113 0 -219.5 42t-189.5 129t-133.5 221t-50.5 317zM687 334q0 -56 12 -113t39 -104t72 -76.5t111 -29.5q63 0 118 27t98.5 72t73.5 103t43 120l97 451q-14 42 -38.5 75.5t-57 57.5 t-72 37t-83.5 13q-67 0 -123.5 -25.5t-102.5 -70.5t-81 -105.5t-58.5 -131t-35.5 -147t-12 -153.5z" />
<glyph unicode="A" horiz-adv-x="1208" d="M-37 0l834 1456h63l219 -1456h-92l-61 426h-618l-243 -426h-102zM345 495h571l-95 680l-13 151h-6l-75 -149z" />
<glyph unicode="B" horiz-adv-x="1230" d="M133 0l310 1456h365q76 0 132.5 -13t96.5 -35t65.5 -52.5t40 -65t20 -72.5t5.5 -76q0 -74 -23.5 -136t-64.5 -109.5t-97 -79.5t-122 -46q49 -15 93 -41.5t77 -66t52.5 -93.5t19.5 -123q0 -111 -38.5 -195t-107 -140t-162 -84t-202.5 -28h-460zM238 70h375q75 0 147 22.5 t128.5 69t91.5 117t35 166.5q0 80 -27.5 136t-72.5 90.5t-103.5 50t-119.5 15.5h-312zM395 807h315h6q54 -1 116 17q65 18 120.5 59t92 105.5t36.5 154.5q0 66 -20.5 112t-58.5 75.5t-91 42.5t-118 13h-275z" />
<glyph unicode="C" horiz-adv-x="1035" d="M170 512q0 121 23 240t66.5 226t105.5 198.5t139.5 158.5t169 104.5t194.5 37.5q67 0 119 -15t90 -36t63.5 -44.5t39.5 -39.5l-38 -54q-15 14 -37.5 33.5t-54 37.5t-74.5 30.5t-98 12.5q-84 0 -162.5 -32.5t-147.5 -92t-126 -143t-98 -185t-63.5 -218.5t-22.5 -243 q0 -109 26 -190.5t69 -135.5t98 -80.5t114 -26.5q57 0 107.5 13t94 32t78.5 41t62 41l26 -59q-28 -23 -68 -48t-88 -46.5t-103.5 -35.5t-114.5 -14q-108 0 -182.5 45t-120 119t-66 170.5t-20.5 198.5z" />
<glyph unicode="D" horiz-adv-x="1323" d="M133 0l310 1456h324q101 0 177.5 -18t132.5 -51t93.5 -80t60 -104t32 -123t9.5 -138q0 -154 -29 -283.5t-79.5 -234t-119.5 -184t-149 -133t-168 -80.5t-177 -27h-417zM238 70h279q132 0 253 58.5t213 170t146.5 273.5t54.5 370q0 108 -24 191t-76 139.5t-132.5 85 t-194.5 28.5h-239z" />
<glyph unicode="E" horiz-adv-x="1138" d="M133 0l310 1456h826l-15 -70h-736l-125 -589h633l-15 -70h-633l-140 -657h750l-15 -70h-840z" />
<glyph unicode="F" horiz-adv-x="1057" d="M133 0l310 1456h791l-15 -70h-701l-135 -630h608l-15 -70h-607l-146 -686h-90z" />
<glyph unicode="G" horiz-adv-x="1267" d="M170 510q0 125 26 245.5t73.5 228t114.5 198t149.5 156t179 102.5t201.5 37q75 0 134 -14.5t103.5 -34.5t74 -41.5t46.5 -35.5l-37 -56q-21 17 -52 36t-72 35t-91 26q-46 10 -98 10h-10q-88 0 -170.5 -32.5t-155 -91t-133 -140.5t-104 -180.5t-67.5 -210.5t-24 -232 q0 -84 14 -167t54 -150t113 -108.5t190 -41.5q60 0 113 13.5t97 35.5t78.5 50t57.5 58l89 419h-358l14 66h446l-106 -498q-20 -24 -55.5 -60.5t-90.5 -70t-129 -58t-170 -24.5q-98 0 -169 24.5t-120.5 65.5t-80 95t-47 113t-22.5 119.5t-6 113.5z" />
<glyph unicode="H" horiz-adv-x="1388" d="M133 0l310 1456h90l-148 -696h766l148 696h90l-310 -1456h-90l147 690h-766l-147 -690h-90z" />
<glyph unicode="I" horiz-adv-x="532" d="M133 0l310 1456h90l-310 -1456h-90z" />
<glyph unicode="J" horiz-adv-x="962" d="M-18 169l44 51q8 -12 35.5 -39.5t69 -56t93 -50t107.5 -21.5q49 0 96.5 15t89 51.5t74 97.5t52.5 153l231 1086h90l-231 -1086q-26 -123 -70 -199.5t-97.5 -119t-112 -57.5t-113.5 -15q-65 0 -121.5 19t-102 47.5t-79.5 61.5t-55 62z" />
<glyph unicode="K" horiz-adv-x="1189" d="M133 0l310 1456h90l-146 -684h169l661 684h109l-688 -707l458 -749h-110l-380 650q-18 26 -33.5 39t-46.5 13h-154l-149 -702h-90z" />
<glyph unicode="L" horiz-adv-x="1009" d="M133 0l310 1456h90l-295 -1386h647l-15 -70h-737z" />
<glyph unicode="M" horiz-adv-x="1678" d="M133 0l310 1456h107l225 -1329h6l790 1329h108l-310 -1456h-89l78 367l220 958h-4l-782 -1325h-72l-225 1324h-5l-189 -958l-78 -366h-90z" />
<glyph unicode="N" horiz-adv-x="1389" d="M133 0l310 1456h90l492 -1308v-2l148 715l129 595h88l-310 -1456h-88l-488 1316h-1l-145 -699l-135 -617h-90z" />
<glyph unicode="O" horiz-adv-x="1329" d="M170 510q0 118 23.5 235.5t67 225t106 200t140.5 160.5t170 107t194 39q82 0 144 -20.5t107 -57t75 -86.5t48 -108.5t25.5 -124.5t7.5 -133q0 -122 -23.5 -240.5t-67 -226.5t-106 -199.5t-140 -158.5t-169.5 -105t-194 -38q-85 0 -148.5 22t-108.5 59.5t-74.5 89 t-46.5 110.5t-23.5 123t-6.5 127zM258 479q0 -111 25.5 -192t67.5 -133.5t96.5 -78t113.5 -25.5q86 0 166.5 32.5t150.5 92.5t127.5 144.5t98.5 187.5t63.5 222t22.5 249q0 109 -25 190t-67 134t-97 79t-116 26q-89 0 -169.5 -34t-150.5 -95.5t-126.5 -147t-96.5 -188.5 t-62 -220.5t-22 -242.5z" />
<glyph unicode="P" horiz-adv-x="1168" d="M133 0l310 1456h358q109 0 187.5 -24t129.5 -69.5t75 -111.5t24 -150q0 -117 -37 -208.5t-109 -155t-178 -96.5t-243 -33h-298l-129 -608h-90zM367 678h298q127 0 215.5 35.5t144 93t80.5 132t25 152.5q0 155 -89 225t-265 70h-258z" />
<glyph unicode="Q" horiz-adv-x="1330" d="M170 510q0 118 23.5 235.5t67 225t106 200t140.5 160.5t170 107t194 39q123 0 202.5 -45t125.5 -119t63 -169q16 -86 16 -176v-21q-3 -165 -40.5 -316t-108.5 -276t-174.5 -218t-239.5 -141l-212 -79q56 0 98.5 -20.5t75.5 -51.5t60 -67t53.5 -67t55 -51.5t65.5 -20.5 q20 0 41.5 5.5t47.5 16.5l4 -61q-59 -34 -107 -34q-50 0 -87.5 21t-69.5 52.5t-61.5 68t-62 68t-71 52.5t-88.5 21q-38 0 -82.5 -11.5t-98.5 -45.5l-16 70l250 121q-105 13 -171.5 64t-104 124.5t-51 162t-13.5 176.5zM258 479q0 -111 25.5 -192t67.5 -133.5t96.5 -78 t113.5 -25.5q86 0 166.5 32.5t150.5 92.5t127.5 144.5t98.5 187.5t63.5 222t22.5 249q0 109 -25 190t-67 134t-97 79t-116 26q-89 0 -169.5 -34t-150.5 -95.5t-126.5 -147t-96.5 -188.5t-62 -220.5t-22 -242.5z" />
<glyph unicode="R" horiz-adv-x="1211" d="M133 0l310 1455h363q110 0 188 -27.5t127.5 -74.5t72 -108.5t22.5 -128.5q0 -72 -21 -142t-71.5 -129t-134.5 -102.5t-210 -64.5l253 -678h-100l-218 623q-7 19 -18.5 29.5t-25 14.5t-28.5 4.5t-28 0.5h-248l-143 -672h-90zM381 742h306q106 0 188.5 28.5t139 76.5 t85.5 112.5t29 136.5q0 68 -20 122t-61.5 91t-105 56.5t-151.5 19.5h-273z" />
<glyph unicode="S" horiz-adv-x="1125" d="M71 141l41 60q13 -14 45 -38.5t81 -48.5t113.5 -41.5t141.5 -17.5q79 0 152 22.5t129 63.5t89 97.5t33 125.5q0 51 -15.5 94t-49.5 84t-88.5 83t-131.5 91q-84 54 -142 100t-93.5 90.5t-51.5 90t-16 97.5q0 105 39.5 178t104 118.5t147 66t167.5 20.5q63 0 124.5 -12.5 t114.5 -33t95 -46.5t66 -52l-35 -57q-26 23 -65 46t-86.5 41t-102 29.5t-109.5 11.5q-73 0 -140.5 -18.5t-119 -54.5t-82 -88t-30.5 -119q0 -58 17 -101.5t52 -82t90 -77t132 -86.5q69 -43 124 -85.5t93.5 -89.5t59 -102t20.5 -123q0 -89 -38 -162t-104 -125.5t-156.5 -81.5 t-195.5 -29q-71 0 -134.5 15t-117 39t-96.5 52.5t-71 55.5z" />
<glyph unicode="T" horiz-adv-x="1113" d="M248 1386l15 70h1031l-15 -70h-472l-295 -1386h-90l295 1386h-469z" />
<glyph unicode="U" horiz-adv-x="1371" d="M223 238q-9 39 -9 85q0 52 12 110l218 1023h90l-218 -1023q-12 -54 -11 -101q-1 -34 5 -64q14 -72 56.5 -120.5t109 -73.5t150.5 -25q79 0 149.5 22.5t128.5 69.5t100 119.5t63 172.5l218 1023h88l-218 -1023q-50 -235 -187 -344.5t-357 -109.5q-99 0 -180.5 29.5 t-134.5 87.5t-73 142z" />
<glyph unicode="V" horiz-adv-x="1184" d="M251 1456h97l160 -1175l10 -151h7l71 149l668 1177h101l-835 -1456h-63z" />
<glyph unicode="W" horiz-adv-x="1650" d="M289 1456h97l10 -1071l-12 -251h6l100 251l488 1071h114l48 -1071v-253h6l90 253l456 1071h97l-633 -1456h-81l-49 1113l-7 251h-6l-101 -251l-510 -1113h-81z" />
<glyph unicode="X" horiz-adv-x="1048" d="M-89 0l608 748l-289 708h103l250 -653l535 653h110l-600 -715l298 -741h-102l-262 681l-537 -681h-114z" />
<glyph unicode="Y" horiz-adv-x="1051" d="M208 1456h99l257 -851l585 851h108l-662 -937l-105 -519h-95l113 530z" />
<glyph unicode="Z" horiz-adv-x="1052" d="M-10 0l13 59l1054 1327h-763l15 70h875l-14 -65l-1045 -1321h777l-15 -70h-897z" />
<glyph unicode="[" horiz-adv-x="566" d="M42 -347l426 2004h280l-15 -70h-193l-399 -1864h196l-15 -70h-280z" />
<glyph unicode="\" horiz-adv-x="838" d="M355 1456h81l224 -1581h-81z" />
<glyph unicode="]" horiz-adv-x="590" d="M-45 -353l15 70h193l399 1864h-196l15 70h280l-426 -2004h-280z" />
<glyph unicode="^" horiz-adv-x="840" d="M158 729l425 727h59l118 -727h-87l-70 515l-5 110h-5l-49 -110l-289 -515h-97z" />
<glyph unicode="_" horiz-adv-x="895" d="M-24 -70l15 70h855l-15 -70h-855z" />
<glyph unicode="`" horiz-adv-x="602" d="M287 1558h118l202 -332h-65z" />
<glyph unicode="a" d="M150 357q0 144 32.5 275t97 231t160 159.5t221.5 59.5q44 0 85 -12t75.5 -34t62 -51.5t45.5 -65.5l50 140h69l-170 -780q-17 -79 -19 -133v-8q1 -36 9 -60q10 -28 32 -47l-46 -46q-15 7 -29.5 21.5t-24.5 37.5q-11 22 -16 56q-3 19 -3 42q0 18 2 38q-27 -45 -63 -82 t-76.5 -63t-84.5 -40.5t-86 -14.5q-67 0 -125.5 26t-102.5 74.5t-69.5 118.5t-25.5 158zM241 377q0 -56 12 -113t39 -104t72 -76.5t111 -29.5q63 0 118 27t98.5 72t73.5 103t43 120l97 451q-14 42 -38.5 75.5t-57 57.5t-72 37t-83.5 13q-67 0 -123.5 -25.5t-102.5 -70.5 t-81 -105.5t-58.5 -131t-35.5 -147t-12 -153.5z" />
<glyph unicode="b" horiz-adv-x="1116" d="M123 0l332 1558h90l-135 -638q21 31 52 60.5t68.5 52t79.5 36t85 13.5q67 0 125.5 -26t102.5 -74.5t69.5 -118.5t25.5 -158q0 -144 -32.5 -275t-97 -231t-160 -159.5t-221.5 -59.5q-44 0 -85 12t-75.5 34t-62 51.5t-45.5 65.5l-47 -143h-69zM263 235q14 -42 38.5 -75.5 t57 -57.5t72 -37t83.5 -13q67 0 123.5 25.5t102.5 70.5t81 105.5t58.5 131t35.5 147t12 153.5q0 55 -12 112.5t-39 104.5t-72 76.5t-111 29.5q-63 0 -118 -27.5t-98.5 -72.5t-73.5 -103t-43 -119z" />
<glyph unicode="c" horiz-adv-x="915" d="M150 349q0 87 11.5 175.5t37.5 170t67 152t100 123t138 82.5t179 30q48 0 89.5 -10t75 -25.5t60 -33.5t44.5 -34l-37 -55q-51 42 -114.5 62t-120.5 20q-101 0 -181.5 -46.5t-136.5 -128.5t-86 -195t-30 -245q0 -98 19 -162.5t52.5 -103t80.5 -54.5t104 -16q72 0 141 26.5 t132 81.5l35 -56q-24 -20 -57 -42t-75 -41.5t-92 -32t-107 -12.5q-87 0 -149.5 30.5t-102 81.5t-58.5 118t-19 140z" />
<glyph unicode="d" horiz-adv-x="1134" d="M150 357q0 144 32.5 275t97 231t160 159.5t221.5 59.5q44 0 85.5 -13t76.5 -35t61 -51.5t40 -62.5l135 637h92l-275 -1278q-17 -79 -19 -133v-7q-1 -37 9 -61q10 -28 34 -47l-46 -46q-15 7 -29.5 21.5t-24.5 37.5q-11 22 -16 56q-3 19 -3 42q0 18 2 38q-27 -45 -63 -82 t-76.5 -63t-84.5 -40.5t-86 -14.5q-67 0 -125.5 26t-102.5 74.5t-69.5 118.5t-25.5 158zM241 377q0 -56 12 -113t39 -104t72 -76.5t111 -29.5q63 0 118 27t98.5 72t73.5 103t43 120l97 451q-14 42 -38.5 75.5t-57 57.5t-72 37t-83.5 13q-67 0 -123.5 -25.5t-102.5 -70.5 t-81 -105.5t-58.5 -131t-35.5 -147t-12 -153.5z" />
<glyph unicode="e" horiz-adv-x="1011" d="M150 356q0 87 11.5 175t37 168.5t67 150.5t101.5 121.5t139.5 81t181.5 29.5q66 0 120.5 -17.5t93.5 -50.5t60 -79.5t21 -104.5q0 -82 -31.5 -142.5t-88.5 -100t-136.5 -59t-174.5 -19.5q-49 0 -97 6t-87.5 14.5t-68.5 16.5t-40 13q-3 -16 -5.5 -36t-5 -40.5t-3.5 -39.5 t-1 -33q0 -101 15.5 -169t48 -109.5t82.5 -59t118 -17.5q59 0 131 27t136 80l35 -54q-23 -21 -56 -44t-75 -41.5t-92.5 -31t-107.5 -12.5q-91 0 -154 31.5t-102 84t-56 120.5t-17 141zM273 632q15 -8 51 -16.5t79.5 -16.5t87.5 -13t74 -5t66 4t72 14.5t70 28t60 45t41.5 65 t15.5 87.5q0 33 -10 66.5t-34 60t-62.5 43t-95.5 16.5q-96 0 -166.5 -36t-119.5 -91.5t-80 -122.5t-49 -129z" />
<glyph unicode="f" horiz-adv-x="574" d="M-189 -421l18 65q14 -4 32 -6t28 -2q56 0 97 31.5t70.5 80t48.5 107.5t31 115l214 1021h-177l11 68h179l31 161q17 85 42 150.5t62 110t88.5 67t122.5 22.5q32 0 63 -5.5t52 -12.5l-23 -65q-18 5 -39.5 8.5t-46.5 3.5q-61 0 -101 -25.5t-65.5 -65.5t-40 -90t-24.5 -98 l-31 -161h235l-11 -68h-235l-220 -1021q-43 -200 -121 -303t-193 -103q-32 0 -54 4t-43 11z" />
<glyph unicode="g" horiz-adv-x="1129" d="M15 -302l41 55q12 -10 37.5 -29t64.5 -37.5t90 -32.5t114 -14q102 0 169 38.5t111.5 107.5t71.5 164t48 208q-22 -39 -54 -71.5t-70 -56.5t-80.5 -37t-84.5 -13q-67 0 -125.5 26t-102.5 74.5t-69.5 118.5t-25.5 158q0 144 32.5 275t97 231t160 159.5t221.5 59.5 q44 0 85 -12t75.5 -34t62 -51.5t45.5 -65.5l49 140h68l-213 -992q-29 -134 -66.5 -229.5t-90.5 -156.5t-126.5 -89.5t-175.5 -28.5q-72 0 -133 17.5t-107.5 40t-77 45t-41.5 32.5zM241 377q0 -56 12 -113t39 -104t72 -76.5t111 -29.5q63 0 118 27t98.5 72t73.5 103t43 120 l97 451q-14 42 -38.5 75.5t-57 57.5t-72 37t-83.5 13q-67 0 -123.5 -25.5t-102.5 -70.5t-81 -105.5t-58.5 -131t-35.5 -147t-12 -153.5z" />
<glyph unicode="h" horiz-adv-x="1128" d="M123 0l330 1560h90l-144 -680q19 30 56 65t85 65.5t104 51t114 20.5q70 0 118.5 -21t76.5 -59t37 -93q5 -29 5 -62q0 -29 -4 -60q-2 -17 -3.5 -29.5t-3 -25.5t-4 -28t-6.5 -37q-10 -56 -21 -108.5t-23 -104.5t-23.5 -104t-21.5 -107q-1 -6 -3.5 -18t-5 -25.5t-4.5 -26 t-2 -17.5q-1 -20 -2.5 -36.5t1 -31t9.5 -27t23 -23.5l-41 -54q-14 7 -28.5 15t-25.5 24q-12 16 -18 42q-5 20 -4 50v19q1 42 13 108.5t27.5 141.5t32.5 149t29 130q8 35 10.5 55.5t6.5 44.5q7 40 7 81v6q0 44 -16.5 79t-50.5 57.5t-95 22.5q-54 0 -102 -17t-89.5 -44.5 t-76 -63t-60 -72.5t-41.5 -72.5t-22 -62.5l-146 -677h-88z" />
<glyph unicode="i" horiz-adv-x="508" d="M164 172q2 33 12 90.5t24.5 131t32.5 158t37 172t37 173.5t32 162h89q-32 -150 -56.5 -266t-42.5 -204.5t-31 -152t-21.5 -107t-13.5 -70.5t-7 -43q-6 -42 -6 -48v-29t2.5 -35t11.5 -35.5t28 -30.5l-41 -55q-11 6 -27 15.5t-30 29.5q-14 21 -24 55q-7 24 -7 58q0 15 1 31 zM409 1443l24 112h98l-23 -112h-99z" />
<glyph unicode="j" horiz-adv-x="515" d="M-305 -417l22 63q13 -3 33 -7t38 -4q60 0 113.5 23.5t96.5 65.5t74 99t45 124l236 1112h90l-233 -1101q-22 -104 -62 -178.5t-94 -122.5t-118.5 -71t-134.5 -23q-11 0 -26 2t-30 5t-28.5 6.5t-21.5 6.5zM406 1443l24 112h98l-23 -112h-99z" />
<glyph unicode="k" horiz-adv-x="913" d="M123 0l330 1560h91l-204 -945h155l386 444h103l-420 -475q25 -17 43 -48.5t31 -72t21.5 -86.5t16.5 -91t16 -87t18.5 -74.5t25.5 -52.5t36 -21q12 -1 16.5 0t8.5 1l-21 -66q-3 -1 -13 -3.5t-23 -2.5q-40 0 -66 31t-43 83t-28.5 118.5t-22.5 137.5q-9 56 -18.5 93.5 t-27 60t-46.5 32t-76 9.5h-84l-119 -545h-86z" />
<glyph unicode="l" horiz-adv-x="523" d="M148 98q0 23 4 47.5t6 33.5l289 1381h88l-289 -1384q-1 -6 -3 -15t-3.5 -18t-2.5 -16.5t-1 -9.5q-2 -35 14 -48t39 -13q18 0 38 4.5t39 11.5l-8 -69q-9 -5 -31.5 -14t-60.5 -9q-19 0 -39.5 7t-38 22t-29 37t-11.5 52z" />
<glyph unicode="m" horiz-adv-x="1719" d="M123 0l226 1059h69l-19 -179q19 30 54.5 65t80.5 65.5t97.5 51t106.5 20.5q66 0 111.5 -22t73 -54t39.5 -67.5t12 -62.5q29 46 69.5 84t88 65t100.5 42t107 15q70 0 120 -21t80 -59q31 -38 41 -93q6 -31 6 -66q0 -27 -4 -56q-2 -17 -3.5 -29.5t-3 -25.5t-4 -28t-6.5 -37 q-10 -56 -21 -108.5t-23 -104.5t-23.5 -104t-21.5 -107q-1 -6 -3.5 -18t-5 -25.5t-4.5 -26t-2 -17.5q-1 -20 -2 -36.5t1 -31t9 -27t23 -23.5l-41 -54q-14 7 -28.5 15t-25.5 24t-17 42q-5 20 -5 50v19q1 28 6.5 67.5t14 85.5t19 96.5t21.5 100t21 96t18 83.5q4 18 6.5 31 t4.5 24t3 22t3 23q4 33 4 67v20q-2 44 -18 79t-51.5 57.5t-97.5 22.5q-74 0 -137.5 -28.5t-112 -75t-80 -106t-41.5 -122.5l-146 -677h-84l155 763q6 30 6 65q-1 8 -1 16q-2 44 -18.5 80t-50.5 60.5t-91 24.5q-51 0 -97 -17t-85 -44.5t-71.5 -63t-57 -72.5t-40 -72.5 t-20.5 -62.5l-146 -677h-88z" />
<glyph unicode="n" horiz-adv-x="1128" d="M123 0l224 1059h69l-17 -179q19 30 56 65t85 65.5t104 51t114 20.5q70 0 118.5 -21t76.5 -59t37 -93q5 -29 5 -62q0 -29 -4 -60q-2 -17 -3.5 -29.5t-3 -25.5t-4 -28t-6.5 -37q-10 -56 -21 -108.5t-23 -104.5t-23.5 -104t-21.5 -107q-1 -6 -3.5 -18t-5 -25.5t-4.5 -26 t-2 -17.5q-1 -20 -2.5 -36.5t1 -31t9.5 -27t23 -23.5l-41 -54q-14 7 -28.5 15t-25.5 24q-12 16 -18 42q-5 20 -4 50v19q1 42 12.5 108.5t26.5 141.5t31.5 149t28.5 130q8 35 11 55.5t7 44.5q7 40 7 81v6q0 44 -15.5 79t-49.5 57.5t-95 22.5q-54 0 -102 -17t-89.5 -44.5 t-76 -63t-60 -72.5t-41.5 -72.5t-22 -62.5l-146 -677h-88z" />
<glyph unicode="o" horiz-adv-x="1071" d="M150 367q0 86 14.5 173t44 166.5t72.5 148.5t100.5 119.5t128.5 79.5t156 29q87 0 146 -31.5t95 -85t51 -124t15 -147.5q0 -87 -15 -173.5t-44.5 -166t-74 -148t-103.5 -119t-133 -79.5t-162 -29q-83 0 -138.5 31.5t-89.5 84.5t-48.5 123.5t-14.5 147.5zM240 379 q0 -161 52 -246.5t163 -85.5q89 0 167 50t136 136.5t91.5 202.5t33.5 247q0 332 -222 332q-89 0 -166 -50t-133.5 -136.5t-89 -202.5t-32.5 -247z" />
<glyph unicode="p" horiz-adv-x="1136" d="M53 -435l316 1494h68l-9 -140q21 31 52.5 60.5t69 52t80 36t85.5 13.5q67 0 125.5 -26t102.5 -74.5t69.5 -118.5t25.5 -158q0 -144 -32.5 -275t-97 -231t-160 -159.5t-221.5 -59.5q-44 0 -84.5 12t-75 33t-61.5 50t-44 63l-121 -572h-88zM283 234q14 -42 38.5 -75.5 t57 -57.5t72 -37t83.5 -13q67 0 123.5 25.5t102.5 70.5t81 105.5t58.5 131t35.5 147t12 153.5q0 55 -12 112.5t-39 104.5t-72 76.5t-111 29.5q-63 0 -118 -27.5t-98.5 -72.5t-73.5 -103t-43 -119z" />
<glyph unicode="q" horiz-adv-x="1112" d="M150 357q0 144 32.5 275t97 231t160 159.5t221.5 59.5q44 0 85 -12t75.5 -34t62 -51.5t45.5 -65.5l47 140h68l-319 -1494h-87l124 593q-22 -39 -54 -71.5t-70 -56.5t-80.5 -37t-84.5 -13q-67 0 -125.5 26t-102.5 74.5t-69.5 118.5t-25.5 158zM241 377q0 -56 12 -113 t39 -104t72 -76.5t111 -29.5q63 0 118 27t98.5 72t73.5 103t43 120l97 451q-14 42 -38.5 75.5t-57 57.5t-72 37t-83.5 13q-67 0 -123.5 -25.5t-102.5 -70.5t-81 -105.5t-58.5 -131t-35.5 -147t-12 -153.5z" />
<glyph unicode="r" horiz-adv-x="667" d="M123 0l224 1059h69l-32 -178q28 42 62.5 78.5t74 63.5t83 43t89.5 16q24 0 45 -5.5t29 -9.5l-17 -76q-23 8 -48.5 9t-40.5 1q-33 0 -65.5 -13t-63.5 -35t-58.5 -50t-49.5 -57t-36.5 -58t-19.5 -52l-156 -736h-89z" />
<glyph unicode="s" horiz-adv-x="860" d="M48 79l36 61q54 -38 123.5 -62t149.5 -24q46 0 94.5 14t88.5 42.5t66 71t26 99.5q0 34 -9 65t-31 59.5t-58.5 56t-91.5 55.5q-68 35 -112 68t-70 68.5t-36.5 74t-10.5 84.5q0 39 18.5 85.5t58.5 87.5t103 68.5t151 27.5q91 0 163.5 -25t116.5 -60l-35 -54 q-64 39 -127.5 53.5t-113.5 14.5q-43 0 -86.5 -13t-79 -37t-57.5 -59.5t-22 -80.5q0 -41 11 -73.5t35.5 -60.5t62.5 -54t92 -53q57 -29 97.5 -58.5t66.5 -64.5t38.5 -77.5t12.5 -97.5q0 -57 -24 -111.5t-70 -96.5t-113.5 -68t-154.5 -26q-55 0 -102 10t-86 25t-69 32.5 t-52 32.5z" />
<glyph unicode="t" horiz-adv-x="584" d="M155 148q0 12 2.5 29t5.5 35.5t7 37t7 33.5l152 708h-156l14 68h155l61 288h90l-61 -288h238l-15 -68h-236l-169 -790q-4 -16 -5.5 -30t-1.5 -26q0 -26 10 -43t25.5 -28t33.5 -15.5t35 -4.5q26 0 53 4.5t56 16.5l6 -60q-5 -4 -18.5 -10t-31 -12t-37.5 -10t-39 -4 q-85 0 -133 45t-48 124z" />
<glyph unicode="u" horiz-adv-x="1117" d="M163 272q2 16 3.5 29l3 26t4 28t6.5 37l140 667h91l-140 -663q-8 -35 -11 -55.5t-7 -44.5q-5 -29 -4 -58q1 -14 1 -28q4 -44 22.5 -79t55.5 -57t98 -22q53 0 101 18t89 47t75 65.5t59 74t40.5 72.5t21.5 60l146 670h88l-178 -837l-8 -53q-3 -20 -2 -40t5.5 -38.5 t12.5 -34t20 -25.5l-46 -46q-15 7 -28.5 24t-23.5 43.5t-14 62.5q-2 19 -3 41q0 19 2 41q-26 -39 -64.5 -77.5t-86.5 -70t-103 -51t-113 -19.5q-70 0 -121.5 20.5t-83.5 58.5t-44 92q-7 32 -7 70q0 25 3 52z" />
<glyph unicode="v" horiz-adv-x="914" d="M101 1028l55 48q28 -8 59.5 -37.5t52.5 -75.5q13 -30 23.5 -75t18.5 -98.5t13.5 -111.5t9.5 -115q3 -52 6 -120.5t4.5 -136t2 -125t-1.5 -86.5h6q17 29 51.5 80t78.5 115.5t91.5 138t90.5 147.5t76.5 144t48.5 127q5 19 7.5 44.5t2.5 41.5q0 9 -0.5 22.5t-2 28.5t-5.5 31 t-10 31l69 30q4 -5 10.5 -15.5t12.5 -27.5t10.5 -39.5t4.5 -51.5q0 -20 -3 -49t-9 -52q-18 -72 -58 -155.5t-92 -169t-109.5 -168t-109.5 -152t-93 -121t-59 -75.5h-72q0 9 -1.5 46t-4 93t-6.5 126t-9 144.5t-12 150t-15.5 142t-18.5 119.5t-22 84q-20 49 -46 79t-45 44z " />
<glyph unicode="w" horiz-adv-x="1459" d="M111 1028l55 48q14 -4 29 -16t29.5 -29.5t27.5 -39t24 -44.5q13 -30 23.5 -72.5t18.5 -93t13.5 -106t9.5 -112.5q3 -52 6 -121t4.5 -137t2 -126t-1.5 -87h6q106 190 180 336t121 260.5t69 203.5t25 167h86q30 -44 48.5 -109t29 -134.5t15.5 -136.5t9 -116q4 -52 6.5 -121 t4.5 -137q1 -51 1 -96q-1 -15 -1 -30q0 -58 -1 -87h6q17 29 47.5 80.5t67.5 116t77.5 138.5t77 148t65.5 144.5t44 127.5q5 19 7.5 41t2.5 38q0 9 -0.5 23.5t-3 31t-6.5 33.5t-10 32l69 30q4 -5 10.5 -17t12.5 -30t10.5 -41.5t4.5 -52.5q0 -20 -3 -45.5t-9 -48.5 q-18 -72 -53.5 -155.5t-80.5 -169t-94.5 -168t-95 -152t-82 -121t-54.5 -75.5h-72q0 9 -1.5 53.5t-4 111.5t-6.5 149.5t-9 168t-12 167.5t-16 147q-6 42 -12.5 85t-14.5 72h-4q-2 -55 -19.5 -121t-44.5 -137t-62 -144.5t-72.5 -144t-75 -135.5t-71 -119t-60 -93.5 t-41.5 -59.5h-72q0 9 -1.5 45.5t-4 91t-6.5 123t-9 142t-12 147t-15.5 139t-18.5 118t-22 83.5q-20 49 -46 87t-45 52z" />
<glyph unicode="x" horiz-adv-x="851" d="M-58 0l455 546q-14 46 -28 95.5t-28.5 97.5t-30 92t-32.5 78.5t-36 57.5t-41 29q-12 3 -28.5 2.5t-30.5 -5.5l13 71q2 1 17 5t41 3q46 0 78 -26t60 -82.5t55 -143.5t62 -208l358 447h104l-438 -531q30 -104 57.5 -187.5t53.5 -143.5t51.5 -95t51.5 -40q11 -2 23.5 -1 t21.5 3l-19 -77q-13 -5 -22 -6.5t-23 -1.5q-34 0 -63.5 24t-54.5 63t-46.5 89.5t-39.5 104.5t-33 106.5t-27 95.5l-375 -462h-106z" />
<glyph unicode="y" horiz-adv-x="914" d="M-227 -411l23 71l7 -2t19 -4t27 -4t30 -2q37 0 77.5 23t80.5 58.5t78 79t70 85t55.5 76t34.5 51.5q0 9 -1 45t-3.5 90.5t-5.5 122.5t-8 141t-11 146.5t-14 138.5t-18 117t-22 83q-20 49 -46 79t-45 44l55 48q28 -8 59.5 -37.5t52.5 -75.5q13 -30 23.5 -75t18.5 -98.5 t13.5 -111.5t9.5 -115q3 -52 6 -120.5t4.5 -136t1.5 -125t-1 -86.5h6q17 29 51.5 80t78.5 115.5t91.5 138t90.5 147.5t76.5 144t48.5 127q5 19 7.5 44.5t2.5 41.5q0 19 -2.5 50.5t-15.5 60.5l69 30q4 -5 10.5 -15.5t12.5 -26.5t10.5 -38.5t4.5 -51.5q0 -10 -0.5 -23 t-2 -27.5t-3.5 -28.5t-6 -26q-42 -129 -116 -259t-163 -257.5t-184 -251.5t-179 -239q-14 -19 -35 -46.5t-47.5 -57t-58 -59t-66.5 -52.5t-73.5 -37.5t-78.5 -14.5q-45 0 -67 10.5t-33 15.5z" />
<glyph unicode="z" horiz-adv-x="877" d="M-5 0l12 60l794 931h-602l12 68h717l-12 -59l-798 -932q5 1 14 1.5t18 0.5q22 0 59 -2.5t78 -5t79.5 -5t63.5 -2.5q76 0 140 11t111.5 24.5t75 25t30.5 13.5l-3 -68q-2 -1 -22.5 -13t-61.5 -26.5t-104 -26t-150 -11.5q-81 0 -174 9.5t-196 9.5q-42 0 -81 -3z" />
<glyph unicode="{" horiz-adv-x="686" d="M152 624l15 72q67 0 119.5 36t93 98.5t69.5 145.5t50 178q19 86 43 166t65.5 146t107 115.5t168.5 75.5l5 -64q-74 -21 -123.5 -59.5t-84 -98.5t-59 -144t-47.5 -196q-15 -73 -43.5 -147t-68.5 -135.5t-91 -103t-110 -49.5q47 -13 76 -41t44 -71.5t17 -103t-5 -136.5 q-2 -14 -3 -28t-3 -28q-6 -54 -12.5 -111t-9 -112.5t1 -107.5t16.5 -94t38 -71.5t66 -42.5l-28 -60q-54 16 -89 52.5t-54.5 85t-27.5 106t-7.5 116.5t5.5 116t11 105q2 22 4.5 43.5t4.5 42.5q7 62 10 117.5t-10.5 96.5t-49 65.5t-104.5 24.5z" />
<glyph unicode="|" horiz-adv-x="572" d="M62 -419l451 2145h84l-448 -2145h-87z" />
<glyph unicode="}" horiz-adv-x="686" d="M-72 -281q74 21 123.5 59.5t84 98.5t59 143.5t47.5 196.5q15 73 43.5 147t68.5 135.5t91 103t110 49.5q-47 13 -76 41t-44 71.5t-17.5 103t5.5 136.5q2 14 3 28t3 28q6 53 12.5 110.5t9 113t-1 107.5t-16.5 94t-38 71.5t-66 42.5l28 60q54 -17 89 -53t54.5 -84.5 t27.5 -106t7.5 -116.5t-5.5 -116t-11 -105q-2 -22 -4.5 -43.5t-4.5 -42.5q-8 -62 -10.5 -117.5t11 -96.5t49 -65.5t104.5 -24.5l-15 -72q-68 0 -120 -36t-92.5 -98.5t-69.5 -146t-50 -177.5q-19 -86 -43 -166t-65.5 -146t-107 -115.5t-168.5 -75.5z" />
<glyph unicode="~" horiz-adv-x="1356" d="M187 501q13 61 42.5 111.5t71 87t92 56.5t106.5 20q48 0 91 -20.5t83 -50.5t77.5 -66t74 -66t73 -50.5t75.5 -20.5q40 0 78.5 21t68.5 53.5t49.5 72.5t22.5 79l63 -9q-7 -53 -30.5 -105t-59.5 -93t-84 -66.5t-105 -25.5q-52 0 -96.5 20.5t-85 51t-77.5 66t-74.5 66 t-77 51t-84.5 20.5q-38 0 -75 -17.5t-68.5 -47t-54.5 -67.5t-32 -79z" />
<glyph unicode="&#xa1;" horiz-adv-x="546" d="M65 -397l249 1054h63l-208 -1054h-104zM354 938l26 121h98l-26 -121h-98z" />
<glyph unicode="&#xa2;" horiz-adv-x="923" d="M222 562q0 85 11 171.5t35.5 167t64 150.5t96 122.5t131.5 84.5t171 36l42 193h75l-42 -195q38 -5 71 -16.5t60.5 -25.5t49 -29.5t37.5 -28.5l-37 -55q-51 42 -114.5 62t-120.5 20q-101 0 -181.5 -46.5t-136.5 -128.5t-86 -195t-30 -245q0 -98 19 -163t52.5 -104 t80.5 -55t104 -16q72 0 141 27.5t132 82.5l35 -56q-23 -19 -55.5 -41.5t-73 -41.5t-89 -32.5t-103.5 -14.5l-47 -227h-75l48 232q-70 11 -120 45.5t-82.5 84t-47.5 110.5t-15 127z" />
<glyph unicode="&#xa3;" horiz-adv-x="1108" d="M101 0l15 70q18 1 43 30t51 79t49.5 117t38.5 144l45 220h-162l15 70h156l58 323q37 203 157 313.5t332 110.5q52 0 95.5 -8t80.5 -21t67.5 -30.5t57.5 -35.5l-40 -56q-19 12 -44 25.5t-56.5 25.5t-70.5 19.5t-85 7.5q-87 0 -156 -25.5t-119.5 -72t-82.5 -111t-46 -142.5 l-58 -323h440l-15 -70h-437l-44 -224q-14 -73 -34.5 -135.5t-43 -110.5t-45 -79t-41.5 -41h752q-4 -16 -7.5 -35t-7.5 -35h-858z" />
<glyph unicode="&#xa4;" horiz-adv-x="1383" d="M91 12l175 153q-27 42 -41.5 86t-21.5 83t-8 69.5t-1 45.5q0 105 25.5 200t64.5 174.5t84 139.5t84 93l-107 149l61 50l108 -151q24 20 57.5 42.5t78 42t101.5 32.5t129 13q92 0 174.5 -33.5t144.5 -90.5l176 155l48 -60l-175 -153q26 -39 40.5 -82.5t21.5 -85t8.5 -76 t1.5 -55.5q0 -105 -27 -198t-67.5 -170t-88.5 -135.5t-90 -94.5l109 -153l-60 -50l-110 155q-87 -57 -178.5 -90.5t-183.5 -33.5t-169.5 33.5t-138.5 90.5l-176 -155zM278 463q0 -97 26 -172t72.5 -126.5t111.5 -78t143 -26.5q65 0 135.5 23t137.5 66t127.5 103t106 135 t72 162t26.5 183q0 102 -21 180t-65.5 131t-113.5 80.5t-166 29.5q-70 1 -141 -21.5t-137 -66t-123 -105.5t-99.5 -139t-67 -167.5t-24.5 -190.5z" />
<glyph unicode="&#xa5;" horiz-adv-x="1109" d="M138 346l14 66h371l46 217h-371l14 66h356l-275 761h95l243 -726l543 726h102l-587 -761h354l-14 -66h-370l-46 -217h370l-14 -66h-370l-74 -346h-90l74 346h-371z" />
<glyph unicode="&#xa6;" horiz-adv-x="521" d="M45 -419l210 990h81l-210 -990h-81zM297 767l204 959h81l-204 -959h-81z" />
<glyph unicode="&#xa7;" horiz-adv-x="1075" d="M-2 -339l44 55q6 -8 33.5 -29.5t71 -44t99.5 -39.5t120 -17q75 0 138.5 25.5t110.5 70.5t73.5 106t26.5 131q0 41 -7 79.5t-33.5 77.5t-78.5 79t-142 84q-62 30 -103.5 66.5t-66.5 78t-35 88t-10 96.5q0 65 20 116.5t49.5 91t63.5 67t62 44.5q-30 42 -47 90.5t-17 108.5 q0 92 33 161t89 115.5t130.5 70t157.5 23.5q30 0 68.5 -4.5t82 -18t90 -38.5t90.5 -65l-39 -57q-21 19 -51.5 38.5t-67.5 35.5t-79.5 26t-88.5 10q-70 0 -130 -19.5t-104 -55.5t-69 -87t-26 -114q-1 -53 8.5 -90.5t36 -70.5t74 -67t123.5 -79q82 -49 132.5 -94t77.5 -87.5 t36 -82.5t9 -79q0 -65 -20 -115t-50.5 -88t-67 -65.5t-69.5 -46.5q14 -14 25 -38t18.5 -51.5t11.5 -54.5t4 -47q0 -96 -31.5 -177t-90.5 -139.5t-142.5 -91.5t-186.5 -33q-55 0 -107 14t-98.5 35.5t-85 48.5t-65.5 53zM324 576q0 -51 12 -90.5t36 -71.5t60.5 -57.5 t85.5 -48.5q57 -26 101 -53.5t81 -62.5q33 19 63 45t53.5 58t37 69.5t13.5 78.5q0 40 -10.5 73.5t-32 63.5t-54 58t-76.5 55q-43 27 -70 45t-49 33.5t-43 30.5t-51 35q-22 -12 -49 -37.5t-51 -60t-40.5 -76.5t-16.5 -87z" />
<glyph unicode="&#xa8;" horiz-adv-x="715" d="M262 1346l23 110h92l-23 -110h-92zM625 1346l23 110h92l-23 -110h-92z" />
<glyph unicode="&#xa9;" horiz-adv-x="1622" d="M209 731q0 104 24 199.5t67.5 178.5t104.5 151t135.5 116t160 74.5t177.5 26.5t177.5 -26.5t160 -74.5t135.5 -116t104.5 -151t67.5 -178.5t24 -199.5t-24 -200t-67.5 -179.5t-104.5 -152t-135.5 -117.5t-160 -76t-177.5 -27t-177.5 27t-160 76t-135.5 117.5t-104.5 152 t-67.5 179.5t-24 200zM285 731q0 -140 46 -263t126 -214.5t188 -144.5t233 -53q83 0 159 24t142 68t119.5 105.5t91.5 136.5t59 161.5t21 179.5q0 140 -46 262t-125.5 212.5t-188 142.5t-232.5 52q-125 0 -233 -52t-188 -142.5t-126 -212.5t-46 -262zM536 684v82 q0 78 20 151.5t62.5 130.5t109 91t159.5 34q80 0 139.5 -30t97.5 -69l-38 -47q-24 19 -45 33t-43.5 23.5t-49.5 14t-61 4.5q-67 0 -116 -26t-81.5 -72.5t-49.5 -111.5t-19 -142v-53q0 -63 17 -125t50.5 -111.5t83 -80.5t115.5 -31q38 0 69 7.5t55.5 19t42.5 25.5t31 26 l37 -45q-18 -21 -43 -40t-55 -33.5t-65 -22.5t-72 -8q-90 0 -156 34.5t-109.5 91.5t-64.5 130t-21 150z" />
<glyph unicode="&#xaa;" horiz-adv-x="816" d="M221 956q0 105 26 200t75 167t119.5 114t159.5 42q62 0 116 -24.5t99 -89.5l37 104l57 1l-120 -569q-4 -16 -6.5 -35.5t-1.5 -39.5q1 -27 8 -51.5t25 -40.5l-42 -40q-11 5 -23 15.5t-21.5 27.5t-15 40.5t-3.5 54.5q-23 -38 -53.5 -65t-64 -44t-66 -24.5t-58.5 -7.5 q-51 0 -96 18t-78.5 52t-53 83.5t-19.5 111.5zM301 970q0 -39 9.5 -77t29.5 -68.5t51 -49t74 -18.5q40 0 82.5 16.5t79 45t63 67.5t36.5 84l70 324q-32 69 -81.5 97.5t-108.5 28.5q-75 0 -132 -40t-95.5 -104t-58 -144.5t-19.5 -161.5z" />
<glyph unicode="&#xab;" horiz-adv-x="903" d="M163 542l4 17l367 384h73l-331 -403l157 -384h-67zM482 542l4 17l367 384h73l-331 -403l157 -384h-67z" />
<glyph unicode="&#xac;" horiz-adv-x="1085" d="M229 718l15 70h760l-87 -410h-78l72 340h-682z" />
<glyph unicode="&#xad;" horiz-adv-x="637" d="M142 576l15 70h437l-15 -70h-437z" />
<glyph unicode="&#xae;" horiz-adv-x="1083" d="M192 987q0 112 33.5 207t94 164.5t144.5 108.5t185 39q111 0 196.5 -40t144 -109.5t89 -164.5t30.5 -205t-31 -205t-90 -165t-144.5 -109.5t-194.5 -39.5q-111 0 -196 40.5t-143 110.5t-88 164.5t-30 203.5zM259 978q0 -85 26 -165.5t75.5 -143t122 -100.5t166.5 -38 q97 0 170.5 38.5t122.5 101.5t74 144t25 167q0 88 -24 172t-72.5 149.5t-122.5 105t-173 39.5q-69 0 -125 -20t-99.5 -54.5t-74.5 -80.5t-51.5 -98.5t-30 -108t-9.5 -108.5zM473 718v555h195q39 0 71.5 -10.5t56 -30.5t36.5 -50.5t13 -69.5q0 -23 -6.5 -46.5t-22.5 -44.5 t-42.5 -37.5t-65.5 -23.5l157 -242h-87l-128 218q-5 8 -12 12.5t-21 4.5h-71v-235h-73zM546 1012h94q65 0 98.5 24.5t33.5 75.5q0 49 -31 75.5t-86 26.5h-109v-202z" />
<glyph unicode="&#xaf;" horiz-adv-x="725" d="M265 1355l15 72h543l-15 -72h-543z" />
<glyph unicode="&#xb0;" horiz-adv-x="727" d="M270 1167q0 67 22.5 124t61.5 98.5t91.5 64.5t111.5 23q52 0 89.5 -17t61.5 -45.5t35.5 -65.5t11.5 -77q0 -78 -26.5 -137t-68.5 -98.5t-93 -59.5t-100 -20q-35 0 -70.5 13t-63.5 39t-45.5 65.5t-17.5 92.5zM339 1171q0 -17 6 -42.5t22 -49t43 -40.5t68 -17 q37 0 74.5 17.5t67.5 49.5t48.5 77.5t18.5 102.5q0 23 -6.5 48.5t-22 46.5t-43 35t-69.5 14q-41 0 -78 -18t-66 -50t-46 -76.5t-17 -97.5z" />
<glyph unicode="&#xb1;" horiz-adv-x="1122" d="M91 67l15 69h793l-15 -69h-793zM191 745l15 70h401l99 463h83l-99 -463h396l-15 -70h-396l-99 -467h-83l99 467h-401z" />
<glyph unicode="&#xb2;" horiz-adv-x="694" d="M156 665l15 70q71 61 144.5 125.5t164.5 137.5q60 48 102.5 88.5t69.5 76.5t39 68t12 64q0 19 -8 40.5t-25.5 38.5t-45 28.5t-66.5 11.5q-41 0 -78 -9t-67.5 -20.5t-51.5 -23t-28 -15.5l-12 51q4 4 25 16.5t54 26t75 24t87 10.5q68 0 110 -18t65 -43.5t31 -54t8 -50.5 q0 -39 -8.5 -74.5t-32.5 -74t-68 -83.5t-115 -102q-35 -29 -68.5 -55.5t-68.5 -54.5t-73 -59.5t-82 -69.5h-5h421l-15 -70h-505z" />
<glyph unicode="&#xb3;" horiz-adv-x="680" d="M135 724l28 52q10 -6 29 -15t46 -18t62 -15.5t77 -7.5q52 0 99 14t82.5 38.5t56.5 58.5t21 73q0 10 -2.5 33.5t-17.5 47t-46.5 41.5t-88.5 18h-112l13 60h102q57 0 97 15t65.5 40t37 57t11.5 67q0 14 -4.5 35.5t-20.5 42t-47 35t-85 14.5q-42 -2 -77.5 -9.5t-63.5 -18 t-50 -21.5t-37 -19l-13 52q10 7 33.5 20t58 26t79 23t97.5 10q58 0 97 -17t63 -42.5t34.5 -55.5t10.5 -57q0 -36 -10 -71t-30 -65.5t-51 -54t-73 -35.5q35 -9 55.5 -29.5t31.5 -43.5t14.5 -45t3.5 -34q0 -64 -28.5 -114t-75 -84t-106 -52t-120.5 -18q-41 0 -78.5 6.5 t-69.5 17t-57 22.5t-41 23z" />
<glyph unicode="&#xb4;" horiz-adv-x="602" d="M219 1226l332 332h137l-396 -332h-73z" />
<glyph unicode="&#xb5;" horiz-adv-x="1162" d="M52 -417l313 1476h91l-140 -663q-8 -35 -11 -55.5t-7 -44.5q-7 -43 -3.5 -86.5t22.5 -79t56 -58t98 -22.5q53 0 101 18t89 47.5t75 66.5t59 74.5t40.5 72.5t21.5 60l143 670h91l-178 -837l-8 -53q-3 -20 -2 -40t5.5 -38.5t12.5 -34t20 -25.5l-46 -46q-15 7 -28.5 24 t-23.5 43.5t-14.5 62.5t-0.5 82q-26 -39 -64.5 -78t-86.5 -70.5t-103 -51.5t-113 -20q-78 0 -131 25t-84 71l-103 -490h-91z" />
<glyph unicode="&#xb6;" horiz-adv-x="930" d="M195 908q0 129 42 230.5t121 172t192.5 108t256.5 37.5h120l-310 -1456h-88l295 1386h-96l-184 -866q-85 0 -150 33t-109.5 87t-67 124t-22.5 144z" />
<glyph unicode="&#xb7;" horiz-adv-x="429" d="M231 664l25 121h97l-25 -121h-97z" />
<glyph unicode="&#xb8;" horiz-adv-x="518" d="M47 -492l11 58q39 0 77.5 10.5t69.5 31.5t50.5 52t19.5 72q0 51 -40.5 73t-104.5 28l94 189h75l-68 -136q26 -2 49.5 -12.5t41 -27.5t27.5 -41t10 -54q0 -60 -21.5 -105t-61.5 -75t-98 -46t-131 -17z" />
<glyph unicode="&#xb9;" horiz-adv-x="509" d="M154 665l13 60h132l144 676l-143 -15l1 51l175 40h55l-160 -752h127l-13 -60h-331z" />
<glyph unicode="&#xba;" horiz-adv-x="810" d="M231 953q1 140 33.5 239.5t85.5 162.5t123 92.5t146 29.5q56 0 94.5 -16.5t64.5 -42.5t40.5 -58t21.5 -62.5t8.5 -56.5t1.5 -40q0 -125 -33.5 -220.5t-88.5 -160t-127 -97.5t-148 -33q-50 0 -91 20.5t-70 55.5t-45 83t-16 104zM312 958q0 -44 10.5 -82t31 -65.5t50 -43.5 t68.5 -16q61 0 115.5 34t96 94t65.5 142.5t24 178.5q0 31 -6 68.5t-24 70.5t-50 55t-84 22q-66 0 -120.5 -31t-93.5 -90t-61 -144t-22 -193z" />
<glyph unicode="&#xbb;" horiz-adv-x="916" d="M53 157l331 403l-157 384h67l203 -386l-4 -17l-367 -384h-73zM385 157l331 403l-157 384h67l203 -386l-4 -17l-367 -384h-73z" />
<glyph unicode="&#xbc;" horiz-adv-x="1417" d="M184 665l13 60h132l144 676l-143 -15l1 51l175 40h55l-160 -752h127l-13 -60h-331zM242 152l913 1165l54 -40l-915 -1164zM667 203l10 45l524 564h82l-117 -549h134l-13 -60h-134l-43 -203h-74l43 203h-412zM767 263h325l102 460z" />
<glyph unicode="&#xbd;" horiz-adv-x="1472" d="M174 665l13 60h132l144 676l-143 -15l1 51l175 40h55l-160 -752h127l-13 -60h-331zM242 152l913 1165l54 -40l-915 -1164zM786 0l15 70q71 61 144.5 125.5t164.5 137.5q60 48 102.5 88.5t69.5 76.5t39 68t12 64q0 19 -8 40.5t-25.5 38.5t-45 28.5t-66.5 11.5 q-41 0 -78 -9t-67.5 -20.5t-51.5 -23t-28 -15.5l-12 51q4 4 25 16.5t54 26t75 24t87 10.5q68 0 110 -18t65 -43.5t31 -54t8 -50.5q0 -39 -8.5 -74.5t-32.5 -74t-68 -83.5t-115 -102q-35 -29 -68.5 -55.5t-68.5 -54.5t-73 -59.5t-82 -69.5h-5h421l-15 -70h-505z" />
<glyph unicode="&#xbe;" horiz-adv-x="1508" d="M140 724l28 52q10 -6 29 -15t46 -18t62 -15.5t77 -7.5q52 0 99 14t82.5 38.5t56.5 58.5t21 73q0 10 -2.5 33.5t-17.5 47t-46.5 41.5t-88.5 18h-112l13 60h102q57 0 97 15t65.5 40t37 57t11.5 67q0 14 -4.5 35.5t-20.5 42t-47 35t-85 14.5q-42 -2 -77.5 -9.5t-63.5 -18 t-50 -21.5t-37 -19l-13 52q10 7 33.5 20t58 26t79 23t97.5 10q58 0 97 -17t63 -42.5t34.5 -55.5t10.5 -57q0 -36 -10 -71t-30 -65.5t-51 -54t-73 -35.5q35 -9 55.5 -29.5t31.5 -43.5t14.5 -45t3.5 -34q0 -64 -28.5 -114t-75 -84t-106 -52t-120.5 -18q-41 0 -78.5 6.5 t-69.5 17t-57 22.5t-41 23zM359 152l913 1165l54 -40l-915 -1164zM777 203l10 45l524 564h82l-117 -549h134l-13 -60h-134l-43 -203h-74l43 203h-412zM877 263h325l102 460z" />
<glyph unicode="&#xbf;" horiz-adv-x="836" d="M36 -137q0 78 26 149t72.5 137.5t110.5 132t141 133.5q41 36 75 96t53 148h90q-16 -66 -33 -112.5t-42.5 -85t-62.5 -75.5t-92 -85q-123 -107 -184.5 -215t-61.5 -205q0 -41 8 -81.5t30.5 -72.5t61.5 -52.5t101 -20.5q57 0 111.5 17.5t99 40.5t76 45.5t43.5 33.5l24 -61 q-28 -23 -65 -49t-82.5 -48t-99.5 -36.5t-117 -14.5q-140 0 -211.5 73.5t-71.5 207.5zM570 938l26 121h97l-26 -121h-97z" />
<glyph unicode="&#xc0;" horiz-adv-x="1208" d="M-37 0l834 1456h63l219 -1456h-92l-61 426h-618l-243 -426h-102zM345 495h571l-95 680l-13 151h-6l-75 -149zM449 1878h155l311 -293h-76z" />
<glyph unicode="&#xc1;" horiz-adv-x="1209" d="M-37 0l834 1456h63l219 -1456h-92l-61 426h-618l-243 -426h-102zM345 495h571l-95 680l-13 151h-6l-75 -149zM746 1585l420 293h172l-506 -293h-86z" />
<glyph unicode="&#xc2;" horiz-adv-x="1211" d="M-37 0l834 1456h63l219 -1456h-92l-61 426h-618l-243 -426h-102zM345 495h571l-95 680l-13 151h-6l-75 -149zM506 1587l356 292h58l234 -292h-62l-214 201l-300 -201h-72z" />
<glyph unicode="&#xc3;" horiz-adv-x="1211" d="M-37 0l834 1456h63l219 -1456h-92l-61 426h-618l-243 -426h-102zM345 495h571l-95 680l-13 151h-6l-75 -149zM551 1652q8 38 27.5 69.5t45 54t56 35t61.5 12.5q48 0 86.5 -16t71.5 -34.5t61 -34.5t55 -16q44 0 75.5 32t41.5 80l52 -13q-8 -38 -25 -70t-40.5 -55.5 t-53.5 -36.5t-63 -13q-40 0 -73.5 16t-65 34.5t-62 34.5t-64.5 16q-32 0 -55.5 -11.5t-39.5 -28t-24.5 -35t-11.5 -31.5z" />
<glyph unicode="&#xc4;" horiz-adv-x="1211" d="M-37 0l834 1456h63l219 -1456h-92l-61 426h-618l-243 -426h-102zM345 495h571l-95 680l-13 151h-6l-75 -149zM649 1682l23 110h92l-23 -110h-92zM1012 1682l23 110h92l-23 -110h-92z" />
<glyph unicode="&#xc5;" horiz-adv-x="1211" d="M-37 0l834 1456h63l219 -1456h-92l-61 426h-618l-243 -426h-102zM345 495h571l-95 680l-13 151h-6l-75 -149zM681 1651q0 57 21.5 100t54.5 72.5t72.5 44t76.5 14.5q45 0 76 -16t49.5 -39.5t27 -49.5t8.5 -45q0 -57 -20.5 -99.5t-53 -71t-73 -43t-81.5 -14.5 q-37 0 -66.5 13.5t-49.5 35t-31 47.5t-11 51zM752.5 1642q4.5 -23 17 -40.5t33 -27.5t46.5 -10q25 0 48.5 9.5t43 27t33 40.5t19.5 50t2 50.5t-16 41t-31 28t-44 10.5q-26 0 -50.5 -10t-45 -28t-34.5 -41.5t-20 -50.5q-6 -26 -1.5 -49z" />
<glyph unicode="&#xc6;" horiz-adv-x="1809" d="M-89 0l1204 1456h825l-15 -70h-696l-99 -589h585l-15 -70h-582l-114 -657h678l-15 -70h-764l73 427h-598l-352 -427h-115zM433 496h556l151 875q-1 2 -1 4t-2 4z" />
<glyph unicode="&#xc7;" horiz-adv-x="1035" d="M170 512q0 121 23 240t66.5 226t105.5 198.5t139.5 158.5t169 104.5t194.5 37.5q67 0 119 -15t90 -36t63.5 -44.5t39.5 -39.5l-38 -54q-15 14 -37.5 33.5t-54 37.5t-74.5 30.5t-98 12.5q-84 0 -162.5 -32.5t-147.5 -92t-126 -143t-98 -185t-63.5 -218.5t-22.5 -243 q0 -109 26 -190.5t69 -135.5t98 -80.5t114 -26.5q57 0 107.5 13t94 32t78.5 41t62 41l26 -59q-27 -21 -64 -45t-82 -45t-96.5 -35.5t-106.5 -17.5l-47 -94q26 -2 49.5 -12.5t41 -27.5t27.5 -41t10 -54q0 -60 -21.5 -105t-61.5 -75t-98 -46t-131 -17l11 58q39 0 77.5 10.5 t69.5 31.5t50.5 52t19.5 72q0 51 -40.5 73t-104.5 28l74 149q-94 10 -159 58t-105 121t-58 164t-18 187z" />
<glyph unicode="&#xc8;" horiz-adv-x="1138" d="M133 0l310 1456h826l-15 -70h-736l-125 -589h633l-15 -70h-633l-140 -657h750l-15 -70h-840zM533 1878h155l311 -293h-76z" />
<glyph unicode="&#xc9;" horiz-adv-x="1138" d="M133 0l310 1456h826l-15 -70h-736l-125 -589h633l-15 -70h-633l-140 -657h750l-15 -70h-840zM652 1585l420 293h172l-506 -293h-86z" />
<glyph unicode="&#xca;" horiz-adv-x="1138" d="M133 0l310 1456h826l-15 -70h-736l-125 -589h633l-15 -70h-633l-140 -657h750l-15 -70h-840zM545 1587l356 292h58l234 -292h-62l-214 201l-300 -201h-72z" />
<glyph unicode="&#xcb;" horiz-adv-x="1138" d="M133 0l310 1456h826l-15 -70h-736l-125 -589h633l-15 -70h-633l-140 -657h750l-15 -70h-840zM656 1682l23 110h92l-23 -110h-92zM1019 1682l23 110h92l-23 -110h-92z" />
<glyph unicode="&#xcc;" horiz-adv-x="531" d="M125 1878h155l311 -293h-76zM133 0l310 1456h90l-310 -1456h-90z" />
<glyph unicode="&#xcd;" horiz-adv-x="542" d="M133 0l310 1456h90l-310 -1456h-90zM414 1585l420 293h172l-506 -293h-86z" />
<glyph unicode="&#xce;" horiz-adv-x="536" d="M133 0l310 1456h90l-310 -1456h-90zM187 1587l356 292h58l234 -292h-62l-214 201l-300 -201h-72z" />
<glyph unicode="&#xcf;" horiz-adv-x="532" d="M133 0l310 1456h90l-310 -1456h-90zM309 1682l23 110h92l-23 -110h-92zM672 1682l23 110h92l-23 -110h-92z" />
<glyph unicode="&#xd0;" horiz-adv-x="1347" d="M141 704l15 70h166l145 682h324q101 0 177.5 -18t132.5 -51t93.5 -80t60 -104t32 -123t9.5 -138q0 -154 -29 -283.5t-79.5 -234t-119.5 -184t-149 -133t-168 -80.5t-177 -27h-417l150 704h-166zM262 70h279q132 0 253 58.5t213 170t146.5 273.5t54.5 370q0 108 -24 191 t-76 139.5t-132.5 85t-194.5 28.5h-239l-130 -612h302l-15 -70h-302z" />
<glyph unicode="&#xd1;" horiz-adv-x="1389" d="M133 0l310 1456h90l492 -1308v-2l148 715l129 595h88l-310 -1456h-88l-488 1316h-1l-145 -699l-135 -617h-90zM664 1652q8 38 27.5 69.5t45 54t56 35t61.5 12.5q48 0 86.5 -16t71.5 -34.5t61 -34.5t55 -16q44 0 75.5 32t41.5 80l52 -13q-8 -38 -25 -70t-40.5 -55.5 t-53.5 -36.5t-63 -13q-40 0 -73.5 16t-65 34.5t-62 34.5t-64.5 16q-32 0 -55.5 -11.5t-39.5 -28t-24.5 -35t-11.5 -31.5z" />
<glyph unicode="&#xd2;" horiz-adv-x="1333" d="M170 510q0 118 23.5 235.5t67 225t106 200t140.5 160.5t170 107t194 39q82 0 144 -20.5t107 -57t75 -86.5t48 -108.5t25.5 -124.5t7.5 -133q0 -122 -23.5 -240.5t-67 -226.5t-106 -199.5t-140 -158.5t-169.5 -105t-194 -38q-85 0 -148.5 22t-108.5 59.5t-74.5 89 t-46.5 110.5t-23.5 123t-6.5 127zM258 479q0 -111 25.5 -192t67.5 -133.5t96.5 -78t113.5 -25.5q86 0 166.5 32.5t150.5 92.5t127.5 144.5t98.5 187.5t63.5 222t22.5 249q0 109 -25 190t-67 134t-97 79t-116 26q-89 0 -169.5 -34t-150.5 -95.5t-126.5 -147t-96.5 -188.5 t-62 -220.5t-22 -242.5zM537 1878h155l311 -293h-76z" />
<glyph unicode="&#xd3;" horiz-adv-x="1327" d="M170 510q0 118 23.5 235.5t67 225t106 200t140.5 160.5t170 107t194 39q82 0 144 -20.5t107 -57t75 -86.5t48 -108.5t25.5 -124.5t7.5 -133q0 -122 -23.5 -240.5t-67 -226.5t-106 -199.5t-140 -158.5t-169.5 -105t-194 -38q-85 0 -148.5 22t-108.5 59.5t-74.5 89 t-46.5 110.5t-23.5 123t-6.5 127zM258 479q0 -111 25.5 -192t67.5 -133.5t96.5 -78t113.5 -25.5q86 0 166.5 32.5t150.5 92.5t127.5 144.5t98.5 187.5t63.5 222t22.5 249q0 109 -25 190t-67 134t-97 79t-116 26q-89 0 -169.5 -34t-150.5 -95.5t-126.5 -147t-96.5 -188.5 t-62 -220.5t-22 -242.5zM826 1585l420 293h172l-506 -293h-86z" />
<glyph unicode="&#xd4;" horiz-adv-x="1329" d="M170 510q0 118 23.5 235.5t67 225t106 200t140.5 160.5t170 107t194 39q82 0 144 -20.5t107 -57t75 -86.5t48 -108.5t25.5 -124.5t7.5 -133q0 -122 -23.5 -240.5t-67 -226.5t-106 -199.5t-140 -158.5t-169.5 -105t-194 -38q-85 0 -148.5 22t-108.5 59.5t-74.5 89 t-46.5 110.5t-23.5 123t-6.5 127zM258 479q0 -111 25.5 -192t67.5 -133.5t96.5 -78t113.5 -25.5q86 0 166.5 32.5t150.5 92.5t127.5 144.5t98.5 187.5t63.5 222t22.5 249q0 109 -25 190t-67 134t-97 79t-116 26q-89 0 -169.5 -34t-150.5 -95.5t-126.5 -147t-96.5 -188.5 t-62 -220.5t-22 -242.5zM612 1587l356 292h58l234 -292h-62l-214 201l-300 -201h-72z" />
<glyph unicode="&#xd5;" horiz-adv-x="1329" d="M170 510q0 118 23.5 235.5t67 225t106 200t140.5 160.5t170 107t194 39q82 0 144 -20.5t107 -57t75 -86.5t48 -108.5t25.5 -124.5t7.5 -133q0 -122 -23.5 -240.5t-67 -226.5t-106 -199.5t-140 -158.5t-169.5 -105t-194 -38q-85 0 -148.5 22t-108.5 59.5t-74.5 89 t-46.5 110.5t-23.5 123t-6.5 127zM258 479q0 -111 25.5 -192t67.5 -133.5t96.5 -78t113.5 -25.5q86 0 166.5 32.5t150.5 92.5t127.5 144.5t98.5 187.5t63.5 222t22.5 249q0 109 -25 190t-67 134t-97 79t-116 26q-89 0 -169.5 -34t-150.5 -95.5t-126.5 -147t-96.5 -188.5 t-62 -220.5t-22 -242.5zM642 1652q8 38 27.5 69.5t45 54t56 35t61.5 12.5q48 0 86.5 -16t71.5 -34.5t61 -34.5t55 -16q44 0 75.5 32t41.5 80l52 -13q-8 -38 -25 -70t-40.5 -55.5t-53.5 -36.5t-63 -13q-40 0 -73.5 16t-65 34.5t-62 34.5t-64.5 16q-32 0 -55.5 -11.5 t-39.5 -28t-24.5 -35t-11.5 -31.5z" />
<glyph unicode="&#xd6;" horiz-adv-x="1329" d="M170 510q0 118 23.5 235.5t67 225t106 200t140.5 160.5t170 107t194 39q82 0 144 -20.5t107 -57t75 -86.5t48 -108.5t25.5 -124.5t7.5 -133q0 -122 -23.5 -240.5t-67 -226.5t-106 -199.5t-140 -158.5t-169.5 -105t-194 -38q-85 0 -148.5 22t-108.5 59.5t-74.5 89 t-46.5 110.5t-23.5 123t-6.5 127zM258 479q0 -111 25.5 -192t67.5 -133.5t96.5 -78t113.5 -25.5q86 0 166.5 32.5t150.5 92.5t127.5 144.5t98.5 187.5t63.5 222t22.5 249q0 109 -25 190t-67 134t-97 79t-116 26q-89 0 -169.5 -34t-150.5 -95.5t-126.5 -147t-96.5 -188.5 t-62 -220.5t-22 -242.5zM718 1682l23 110h92l-23 -110h-92zM1081 1682l23 110h92l-23 -110h-92z" />
<glyph unicode="&#xd7;" horiz-adv-x="1088" d="M131 322l421 368l-261 352l65 55l267 -354l426 360l45 -59l-420 -361l269 -367l-65 -58l-273 375l-428 -374z" />
<glyph unicode="&#xd8;" horiz-adv-x="1340" d="M74 -137l195 265q-26 39 -43.5 84.5t-27.5 94.5t-14 100.5t-4 102.5q0 118 23.5 235.5t67 225t106 200t140.5 160.5t170 107t194 39q107 0 180 -34t120 -93l160 216h94l-206 -283q36 -72 47.5 -158t11.5 -178q0 -122 -23.5 -240.5t-67 -226.5t-106 -199.5t-140 -158.5 t-169.5 -105t-194 -38q-92 0 -154.5 24.5t-109.5 67.5l-151 -208h-99zM268 479q0 -111 25.5 -192t67.5 -133.5t96.5 -78t113.5 -25.5q86 0 166.5 32.5t150.5 92.5t127.5 144.5t98.5 187.5t63.5 222t22.5 249q0 109 -25 190t-67 134t-97 79t-116 26q-89 0 -169.5 -34 t-150.5 -95.5t-126.5 -147t-96.5 -188.5t-62 -220.5t-22 -242.5z" />
<glyph unicode="&#xd9;" horiz-adv-x="1371" d="M223 238.5q-20 84.5 3 194.5l218 1023h90l-218 -1023q-20 -94 -5.5 -165.5t56.5 -120t108.5 -73.5t150.5 -25q79 0 149.5 22.5t128.5 69.5t100 119.5t63 172.5l218 1023h88l-218 -1023q-50 -235 -187 -344.5t-357 -109.5q-99 0 -180.5 29.5t-134.5 87.5t-73 142.5z M554 1878h155l311 -293h-76z" />
<glyph unicode="&#xda;" horiz-adv-x="1373" d="M223 238.5q-20 84.5 3 194.5l218 1023h90l-218 -1023q-20 -94 -5.5 -165.5t56.5 -120t108.5 -73.5t150.5 -25q79 0 149.5 22.5t128.5 69.5t100 119.5t63 172.5l218 1023h88l-218 -1023q-50 -235 -187 -344.5t-357 -109.5q-99 0 -180.5 29.5t-134.5 87.5t-73 142.5z M828 1585l420 293h172l-506 -293h-86z" />
<glyph unicode="&#xdb;" horiz-adv-x="1370" d="M223 238.5q-20 84.5 3 194.5l218 1023h90l-218 -1023q-20 -94 -5.5 -165.5t56.5 -120t108.5 -73.5t150.5 -25q79 0 149.5 22.5t128.5 69.5t100 119.5t63 172.5l218 1023h88l-218 -1023q-50 -235 -187 -344.5t-357 -109.5q-99 0 -180.5 29.5t-134.5 87.5t-73 142.5z M616 1587l356 292h58l234 -292h-62l-214 201l-300 -201h-72z" />
<glyph unicode="&#xdc;" horiz-adv-x="1371" d="M223 238.5q-20 84.5 3 194.5l218 1023h90l-218 -1023q-20 -94 -5.5 -165.5t56.5 -120t108.5 -73.5t150.5 -25q79 0 149.5 22.5t128.5 69.5t100 119.5t63 172.5l218 1023h88l-218 -1023q-50 -235 -187 -344.5t-357 -109.5q-99 0 -180.5 29.5t-134.5 87.5t-73 142.5z M731 1682l23 110h92l-23 -110h-92zM1094 1682l23 110h92l-23 -110h-92z" />
<glyph unicode="&#xdd;" horiz-adv-x="1052" d="M208 1456h99l257 -851l585 851h108l-662 -937l-105 -519h-95l113 530zM668 1585l420 293h172l-506 -293h-86z" />
<glyph unicode="&#xde;" horiz-adv-x="1164" d="M133 0l310 1456h90l-64 -301h229q222 0 331.5 -84.5t109.5 -262.5q0 -101 -37 -190t-118 -155t-210.5 -104t-313.5 -38h-169l-68 -321h-90zM306 391h169q157 0 266.5 33.5t178.5 89.5t100 130.5t31 156.5q0 148 -89 216t-279 68h-229z" />
<glyph unicode="&#xdf;" horiz-adv-x="1138" d="M-201 -421l18 65q14 -4 32 -6t28 -2q56 0 97 31.5t70.5 80t48.5 107.5t31 115l219 1032q27 126 66 223t94.5 163.5t128.5 100.5t167 34q74 0 121 -26t73.5 -63t36.5 -76t10 -66q0 -64 -20.5 -116.5t-50.5 -97t-65.5 -83t-65.5 -74t-49.5 -70t-18.5 -70.5q1 -38 20 -71.5 t46.5 -68t59 -70t59 -77t45.5 -90t18 -107.5q0 -81 -29.5 -141t-78 -99t-111.5 -58.5t-130 -19.5q-48 0 -91.5 9t-80 23t-66 30.5t-48.5 31.5l34 67q13 -11 37.5 -25.5t57.5 -28t72 -23t80 -9.5q62 0 111.5 19t84.5 51.5t53.5 74.5t18.5 87q0 54 -18.5 98.5t-46.5 83t-61 74 t-61 73t-46.5 79.5t-18.5 93q0 35 20.5 71.5t50.5 74.5t66 78t66 82.5t50.5 87.5t20.5 94q0 32 -9.5 63t-29.5 55t-52 38.5t-77 14.5q-60 0 -114.5 -27t-98.5 -77t-77.5 -120.5t-51.5 -156.5l-234 -1095q-43 -200 -121 -303t-193 -103q-32 0 -54 4t-43 11z" />
<glyph unicode="&#xe0;" d="M150 357q0 144 32.5 275t97 231t160 159.5t221.5 59.5q44 0 85 -12t75.5 -34t62 -51.5t45.5 -65.5l50 140h69l-170 -780q-17 -79 -19 -133q-1 -40 8.5 -67.5t32.5 -47.5l-46 -46q-15 7 -29.5 21.5t-25 37.5t-15.5 56.5t-1 79.5q-27 -45 -63 -82t-76.5 -63t-84.5 -40.5 t-86 -14.5q-67 0 -125.5 26t-102.5 74.5t-69.5 118.5t-25.5 158zM241 377q0 -56 12 -113t39 -104t72 -76.5t111 -29.5q63 0 118 27t98.5 72t73.5 103t43 120l97 451q-14 42 -38.5 75.5t-57 57.5t-72 37t-83.5 13q-67 0 -123.5 -25.5t-102.5 -70.5t-81 -105.5t-58.5 -131 t-35.5 -147t-12 -153.5zM556 1558h118l202 -332h-65z" />
<glyph unicode="&#xe1;" d="M150 357q0 144 32.5 275t97 231t160 159.5t221.5 59.5q44 0 85 -12t75.5 -34t62 -51.5t45.5 -65.5l50 140h69l-170 -780q-17 -79 -19 -133q-1 -40 8.5 -67.5t32.5 -47.5l-46 -46q-15 7 -29.5 21.5t-25 37.5t-15.5 56.5t-1 79.5q-27 -45 -63 -82t-76.5 -63t-84.5 -40.5 t-86 -14.5q-67 0 -125.5 26t-102.5 74.5t-69.5 118.5t-25.5 158zM241 377q0 -56 12 -113t39 -104t72 -76.5t111 -29.5q63 0 118 27t98.5 72t73.5 103t43 120l97 451q-14 42 -38.5 75.5t-57 57.5t-72 37t-83.5 13q-67 0 -123.5 -25.5t-102.5 -70.5t-81 -105.5t-58.5 -131 t-35.5 -147t-12 -153.5zM641 1226l332 332h137l-396 -332h-73z" />
<glyph unicode="&#xe2;" d="M150 357q0 144 32.5 275t97 231t160 159.5t221.5 59.5q44 0 85 -12t75.5 -34t62 -51.5t45.5 -65.5l50 140h69l-170 -780q-17 -79 -19 -133q-1 -40 8.5 -67.5t32.5 -47.5l-46 -46q-15 7 -29.5 21.5t-25 37.5t-15.5 56.5t-1 79.5q-27 -45 -63 -82t-76.5 -63t-84.5 -40.5 t-86 -14.5q-67 0 -125.5 26t-102.5 74.5t-69.5 118.5t-25.5 158zM241 377q0 -56 12 -113t39 -104t72 -76.5t111 -29.5q63 0 118 27t98.5 72t73.5 103t43 120l97 451q-14 42 -38.5 75.5t-57 57.5t-72 37t-83.5 13q-67 0 -123.5 -25.5t-102.5 -70.5t-81 -105.5t-58.5 -131 t-35.5 -147t-12 -153.5zM439 1226l330 332h60l198 -332h-65l-175 232l-270 -232h-78z" />
<glyph unicode="&#xe3;" d="M150 357q0 144 32.5 275t97 231t160 159.5t221.5 59.5q44 0 85 -12t75.5 -34t62 -51.5t45.5 -65.5l50 140h69l-170 -780q-17 -79 -19 -133q-1 -40 8.5 -67.5t32.5 -47.5l-46 -46q-15 7 -29.5 21.5t-25 37.5t-15.5 56.5t-1 79.5q-27 -45 -63 -82t-76.5 -63t-84.5 -40.5 t-86 -14.5q-67 0 -125.5 26t-102.5 74.5t-69.5 118.5t-25.5 158zM241 377q0 -56 12 -113t39 -104t72 -76.5t111 -29.5q63 0 118 27t98.5 72t73.5 103t43 120l97 451q-14 42 -38.5 75.5t-57 57.5t-72 37t-83.5 13q-67 0 -123.5 -25.5t-102.5 -70.5t-81 -105.5t-58.5 -131 t-35.5 -147t-12 -153.5zM446 1307q8 38 27.5 69.5t45 54t56 35t61.5 12.5q48 0 86.5 -16t71.5 -34.5t61 -34.5t55 -16q44 0 75.5 32t41.5 80l52 -13q-8 -38 -25 -70t-40.5 -55.5t-53.5 -36.5t-63 -13q-40 0 -73.5 16t-65 34.5t-62 34.5t-64.5 16q-32 0 -55.5 -11.5 t-39.5 -28t-24.5 -35t-11.5 -31.5z" />
<glyph unicode="&#xe4;" d="M150 357q0 144 32.5 275t97 231t160 159.5t221.5 59.5q44 0 85 -12t75.5 -34t62 -51.5t45.5 -65.5l50 140h69l-170 -780q-17 -79 -19 -133q-1 -40 8.5 -67.5t32.5 -47.5l-46 -46q-15 7 -29.5 21.5t-25 37.5t-15.5 56.5t-1 79.5q-27 -45 -63 -82t-76.5 -63t-84.5 -40.5 t-86 -14.5q-67 0 -125.5 26t-102.5 74.5t-69.5 118.5t-25.5 158zM241 377q0 -56 12 -113t39 -104t72 -76.5t111 -29.5q63 0 118 27t98.5 72t73.5 103t43 120l97 451q-14 42 -38.5 75.5t-57 57.5t-72 37t-83.5 13q-67 0 -123.5 -25.5t-102.5 -70.5t-81 -105.5t-58.5 -131 t-35.5 -147t-12 -153.5zM523 1346l23 110h92l-23 -110h-92zM886 1346l23 110h92l-23 -110h-92z" />
<glyph unicode="&#xe5;" d="M150 357q0 144 32.5 275t97 231t160 159.5t221.5 59.5q44 0 85 -12t75.5 -34t62 -51.5t45.5 -65.5l50 140h69l-170 -780q-17 -79 -19 -133q-1 -40 8.5 -67.5t32.5 -47.5l-46 -46q-15 7 -29.5 21.5t-25 37.5t-15.5 56.5t-1 79.5q-27 -45 -63 -82t-76.5 -63t-84.5 -40.5 t-86 -14.5q-67 0 -125.5 26t-102.5 74.5t-69.5 118.5t-25.5 158zM241 377q0 -56 12 -113t39 -104t72 -76.5t111 -29.5q63 0 118 27t98.5 72t73.5 103t43 120l97 451q-14 42 -38.5 75.5t-57 57.5t-72 37t-83.5 13q-67 0 -123.5 -25.5t-102.5 -70.5t-81 -105.5t-58.5 -131 t-35.5 -147t-12 -153.5zM546 1331q0 57 21.5 100t54.5 72.5t72.5 44t76.5 14.5q45 0 76 -16t49.5 -39.5t27 -49.5t8.5 -45q0 -57 -20.5 -99.5t-53 -71t-73 -43t-81.5 -14.5q-37 0 -66.5 13.5t-49.5 35t-31 47.5t-11 51zM617.5 1322q4.5 -23 17 -40.5t33 -27.5t46.5 -10 q25 0 48.5 9.5t43 27t33 40.5t19.5 50t2 50.5t-16 41t-31 28t-44 10.5q-26 0 -50.5 -10t-45 -28t-34.5 -41.5t-20 -50.5q-6 -26 -1.5 -49z" />
<glyph unicode="&#xe6;" horiz-adv-x="1663" d="M95 264q0 99 39 168.5t106.5 113.5t157 64t190.5 20q120 0 248 -26q1 5 2.5 17.5t4 27t4 27t2.5 17.5q1 6 2 15t2 16q7 65 5.5 119t-22 92.5t-66.5 59.5t-127 19q-43 -1 -86.5 -10.5t-84 -25.5t-77 -35.5t-64.5 -40.5l-25 54q24 18 59.5 40t82 41.5t103 32.5t124.5 13 q58 0 107.5 -13t85 -44.5t52.5 -85t10 -135.5q33 64 76 115.5t95 87.5t112.5 55t127.5 19q66 0 120.5 -17.5t93.5 -50.5t60 -79.5t21 -104.5q0 -82 -31.5 -146t-88.5 -108.5t-136.5 -68t-174.5 -23.5q-49 0 -97 3.5t-87.5 8.5t-68.5 10.5t-40 10.5q-6 -32 -10.5 -58 t-4.5 -54q0 -101 15.5 -168t48 -107.5t82.5 -57.5t118 -17q59 0 131 27t136 80l35 -54q-23 -21 -56 -44t-75 -41.5t-92.5 -31t-107.5 -12.5q-78 0 -134.5 25t-94.5 64.5t-58 89.5t-25 101q-27 -68 -71.5 -120t-99.5 -87.5t-115.5 -54t-119.5 -18.5q-64 0 -121.5 19 t-101.5 55.5t-70 89.5t-26 121zM184 272q0 -55 19 -96.5t53 -69t81 -41t103 -13.5q49 0 106.5 24t111 73.5t95.5 126t59 180.5l13 78q-121 23 -228 23q-88 0 -163.5 -16.5t-131 -51t-87 -88.5t-31.5 -129zM926 587q29 -7 67 -12.5t78 -9.5t78.5 -6.5t68.5 -2.5t66 6t72 19 t70 34t60 51t41.5 69.5t15.5 89.5q0 33 -10 66.5t-34 60t-62.5 43t-95.5 16.5q-64 0 -116.5 -20t-94.5 -53t-74.5 -76.5t-57.5 -90.5t-42.5 -95t-29.5 -89z" />
<glyph unicode="&#xe7;" horiz-adv-x="915" d="M150 349q0 87 11.5 175.5t37.5 170t67 152t100 123t138 82.5t179 30q48 0 89.5 -10t75 -25.5t60 -33.5t44.5 -34l-37 -55q-51 42 -114.5 62t-120.5 20q-101 0 -181.5 -46.5t-136.5 -128.5t-86 -195t-30 -245q0 -98 19 -162.5t52.5 -103t80.5 -54.5t104 -16q72 0 141 26.5 t132 81.5l35 -56q-23 -19 -54 -40t-70 -40t-85.5 -32t-100.5 -15l-46 -94q26 -2 49.5 -12.5t41 -27.5t27.5 -41t10 -54q0 -60 -21.5 -105t-61.5 -75t-98 -46t-131 -17l11 58q39 0 77.5 10.5t69.5 31.5t50.5 52t19.5 72q0 51 -40.5 73t-104.5 28l74 149q-73 9 -125.5 42.5 t-86 83t-49.5 112t-16 129.5z" />
<glyph unicode="&#xe8;" horiz-adv-x="1011" d="M150 356q0 87 11.5 175t37 168.5t67 150.5t101.5 121.5t139.5 81t181.5 29.5q66 0 120.5 -17.5t93.5 -50.5t60 -79.5t21 -104.5q0 -82 -31.5 -142.5t-88.5 -100t-136.5 -59t-174.5 -19.5q-49 0 -97 6t-87.5 14.5t-68.5 16.5t-40 13q-3 -16 -5.5 -36t-5 -40.5t-3.5 -39.5 t-1 -33q0 -101 15.5 -169t48 -109.5t82.5 -59t118 -17.5q59 0 131 27t136 80l35 -54q-23 -21 -56 -44t-75 -41.5t-92.5 -31t-107.5 -12.5q-91 0 -154 31.5t-102 84t-56 120.5t-17 141zM273 632q15 -8 51 -16.5t79.5 -16.5t87.5 -13t74 -5t66 4t72 14.5t70 28t60 45t41.5 65 t15.5 87.5q0 33 -10 66.5t-34 60t-62.5 43t-95.5 16.5q-96 0 -166.5 -36t-119.5 -91.5t-80 -122.5t-49 -129zM467 1558h118l202 -332h-65z" />
<glyph unicode="&#xe9;" horiz-adv-x="1011" d="M150 356q0 87 11.5 175t37 168.5t67 150.5t101.5 121.5t139.5 81t181.5 29.5q66 0 120.5 -17.5t93.5 -50.5t60 -79.5t21 -104.5q0 -82 -31.5 -142.5t-88.5 -100t-136.5 -59t-174.5 -19.5q-49 0 -97 6t-87.5 14.5t-68.5 16.5t-40 13q-3 -16 -5.5 -36t-5 -40.5t-3.5 -39.5 t-1 -33q0 -101 15.5 -169t48 -109.5t82.5 -59t118 -17.5q59 0 131 27t136 80l35 -54q-23 -21 -56 -44t-75 -41.5t-92.5 -31t-107.5 -12.5q-91 0 -154 31.5t-102 84t-56 120.5t-17 141zM273 632q15 -8 51 -16.5t79.5 -16.5t87.5 -13t74 -5t66 4t72 14.5t70 28t60 45t41.5 65 t15.5 87.5q0 33 -10 66.5t-34 60t-62.5 43t-95.5 16.5q-96 0 -166.5 -36t-119.5 -91.5t-80 -122.5t-49 -129zM538 1226l332 332h137l-396 -332h-73z" />
<glyph unicode="&#xea;" horiz-adv-x="1011" d="M150 356q0 87 11.5 175t37 168.5t67 150.5t101.5 121.5t139.5 81t181.5 29.5q66 0 120.5 -17.5t93.5 -50.5t60 -79.5t21 -104.5q0 -82 -31.5 -142.5t-88.5 -100t-136.5 -59t-174.5 -19.5q-49 0 -97 6t-87.5 14.5t-68.5 16.5t-40 13q-3 -16 -5.5 -36t-5 -40.5t-3.5 -39.5 t-1 -33q0 -101 15.5 -169t48 -109.5t82.5 -59t118 -17.5q59 0 131 27t136 80l35 -54q-23 -21 -56 -44t-75 -41.5t-92.5 -31t-107.5 -12.5q-91 0 -154 31.5t-102 84t-56 120.5t-17 141zM273 632q15 -8 51 -16.5t79.5 -16.5t87.5 -13t74 -5t66 4t72 14.5t70 28t60 45t41.5 65 t15.5 87.5q0 33 -10 66.5t-34 60t-62.5 43t-95.5 16.5q-96 0 -166.5 -36t-119.5 -91.5t-80 -122.5t-49 -129zM426 1226l330 332h60l198 -332h-65l-175 232l-270 -232h-78z" />
<glyph unicode="&#xeb;" horiz-adv-x="1011" d="M150 356q0 87 11.5 175t37 168.5t67 150.5t101.5 121.5t139.5 81t181.5 29.5q66 0 120.5 -17.5t93.5 -50.5t60 -79.5t21 -104.5q0 -82 -31.5 -142.5t-88.5 -100t-136.5 -59t-174.5 -19.5q-49 0 -97 6t-87.5 14.5t-68.5 16.5t-40 13q-3 -16 -5.5 -36t-5 -40.5t-3.5 -39.5 t-1 -33q0 -101 15.5 -169t48 -109.5t82.5 -59t118 -17.5q59 0 131 27t136 80l35 -54q-23 -21 -56 -44t-75 -41.5t-92.5 -31t-107.5 -12.5q-91 0 -154 31.5t-102 84t-56 120.5t-17 141zM273 632q15 -8 51 -16.5t79.5 -16.5t87.5 -13t74 -5t66 4t72 14.5t70 28t60 45t41.5 65 t15.5 87.5q0 33 -10 66.5t-34 60t-62.5 43t-95.5 16.5q-96 0 -166.5 -36t-119.5 -91.5t-80 -122.5t-49 -129zM515 1346l23 110h92l-23 -110h-92zM878 1346l23 110h92l-23 -110h-92z" />
<glyph unicode="&#xec;" horiz-adv-x="505" d="M164 172q2 33 12 90.5t24.5 131t32.5 158t37 172t37 173.5t32 162h89q-32 -150 -56.5 -266t-42.5 -204.5t-31 -152t-21.5 -107t-13.5 -70.5t-7 -43q-6 -42 -6 -48q0 -12 -0.5 -29t2.5 -35t12 -35.5t28 -30.5l-41 -55q-11 6 -27 15.5t-30.5 30t-24 54.5t-5.5 89zM189 1558 h118l202 -332h-65z" />
<glyph unicode="&#xed;" horiz-adv-x="505" d="M164 172q2 33 12 90.5t24.5 131t32.5 158t37 172t37 173.5t32 162h89q-32 -150 -56.5 -266t-42.5 -204.5t-31 -152t-21.5 -107t-13.5 -70.5t-7 -43q-6 -42 -6 -48q0 -12 -0.5 -29t2.5 -35t12 -35.5t28 -30.5l-41 -55q-11 6 -27 15.5t-30.5 30t-24 54.5t-5.5 89zM320 1226 l332 332h137l-396 -332h-73z" />
<glyph unicode="&#xee;" horiz-adv-x="505" d="M127 1226l330 332h60l198 -332h-65l-175 232l-270 -232h-78zM164 172q2 33 12 90.5t24.5 131t32.5 158t37 172t37 173.5t32 162h89q-32 -150 -56.5 -266t-42.5 -204.5t-31 -152t-21.5 -107t-13.5 -70.5t-7 -43q-6 -42 -6 -48q0 -12 -0.5 -29t2.5 -35t12 -35.5t28 -30.5 l-41 -55q-11 6 -27 15.5t-30.5 30t-24 54.5t-5.5 89z" />
<glyph unicode="&#xef;" horiz-adv-x="511" d="M164 172q2 33 12 90.5t24.5 131t32.5 158t37 172t37 173.5t32 162h89q-32 -150 -56.5 -266t-42.5 -204.5t-31 -152t-21.5 -107t-13.5 -70.5t-7 -43q-6 -42 -6 -48q0 -12 -0.5 -29t2.5 -35t12 -35.5t28 -30.5l-41 -55q-11 6 -27 15.5t-30.5 30t-24 54.5t-5.5 89zM215 1346 l23 110h92l-23 -110h-92zM578 1346l23 110h92l-23 -110h-92z" />
<glyph unicode="&#xf0;" horiz-adv-x="1125" d="M138 361q0 128 35 242t103.5 200t168 136.5t228.5 50.5q46 0 91.5 -12t85 -33.5t71.5 -50.5t52 -63q23 136 6 245t-65 190l-325 -179l-28 60l316 174q-36 45 -81 82t-101 57l29 57q65 -23 121.5 -62t100.5 -94l268 152l29 -57l-261 -150q19 -28 35 -67t26.5 -81.5 t16.5 -86t6 -80.5q0 -131 -17.5 -257t-51.5 -238.5t-84 -207.5t-115 -163.5t-145 -107t-173 -38.5q-95 0 -160.5 34t-106 88t-58 122.5t-17.5 137.5zM231 381q0 -74 16 -135t47.5 -104.5t79 -68t110.5 -24.5q64 0 131.5 37t128.5 105.5t110 165t75 216.5q4 19 9 40.5t9 42 t7 36t3 22.5q-8 33 -34.5 69t-65 66.5t-87 50t-99.5 19.5q-110 0 -192.5 -43t-137.5 -116.5t-82.5 -171.5t-27.5 -207z" />
<glyph unicode="&#xf1;" horiz-adv-x="1128" d="M123 0l224 1059h69l-17 -179q19 30 56 65t85 65.5t104 51t114 20.5q70 0 118.5 -21t76.5 -59t37 -93t1 -122q-2 -17 -3.5 -29.5t-3 -25.5t-4 -28t-6.5 -37q-10 -56 -21 -108.5t-23 -104.5t-23.5 -104t-21.5 -107q-1 -6 -3.5 -18t-5 -25.5t-4.5 -26t-2 -17.5 q-1 -20 -2.5 -36.5t1 -31t9.5 -27t23 -23.5l-41 -54q-14 7 -28.5 15t-25.5 24t-17.5 42t-4.5 69q1 42 12.5 108.5t26.5 141.5t31.5 149t28.5 130q8 35 11 55.5t7 44.5q7 43 6.5 86.5t-15.5 79t-49 58t-95 22.5q-54 0 -102 -17t-89.5 -44.5t-76 -63t-60 -72.5t-41.5 -72.5 t-22 -62.5l-146 -677h-88zM450 1307q8 38 27.5 69.5t45 54t56 35t61.5 12.5q48 0 86.5 -16t71.5 -34.5t61 -34.5t55 -16q44 0 75.5 32t41.5 80l52 -13q-8 -38 -25 -70t-40.5 -55.5t-53.5 -36.5t-63 -13q-40 0 -73.5 16t-65 34.5t-62 34.5t-64.5 16q-32 0 -55.5 -11.5 t-39.5 -28t-24.5 -35t-11.5 -31.5z" />
<glyph unicode="&#xf2;" horiz-adv-x="1071" d="M150 367q0 86 14.5 173t44 166.5t72.5 148.5t100.5 119.5t128.5 79.5t156 29q87 0 146 -31.5t95 -85t51 -124t15 -147.5q0 -87 -15 -173.5t-44.5 -166t-74 -148t-103.5 -119t-133 -79.5t-162 -29q-83 0 -138.5 31.5t-89.5 84.5t-48.5 123.5t-14.5 147.5zM240 379 q0 -161 52 -246.5t163 -85.5q89 0 167 50t136 136.5t91.5 202.5t33.5 247q0 332 -222 332q-89 0 -166 -50t-133.5 -136.5t-89 -202.5t-32.5 -247zM473 1558h118l202 -332h-65z" />
<glyph unicode="&#xf3;" horiz-adv-x="1071" d="M150 367q0 86 14.5 173t44 166.5t72.5 148.5t100.5 119.5t128.5 79.5t156 29q87 0 146 -31.5t95 -85t51 -124t15 -147.5q0 -87 -15 -173.5t-44.5 -166t-74 -148t-103.5 -119t-133 -79.5t-162 -29q-83 0 -138.5 31.5t-89.5 84.5t-48.5 123.5t-14.5 147.5zM240 379 q0 -161 52 -246.5t163 -85.5q89 0 167 50t136 136.5t91.5 202.5t33.5 247q0 332 -222 332q-89 0 -166 -50t-133.5 -136.5t-89 -202.5t-32.5 -247zM617 1226l332 332h137l-396 -332h-73z" />
<glyph unicode="&#xf4;" horiz-adv-x="1071" d="M150 367q0 86 14.5 173t44 166.5t72.5 148.5t100.5 119.5t128.5 79.5t156 29q87 0 146 -31.5t95 -85t51 -124t15 -147.5q0 -87 -15 -173.5t-44.5 -166t-74 -148t-103.5 -119t-133 -79.5t-162 -29q-83 0 -138.5 31.5t-89.5 84.5t-48.5 123.5t-14.5 147.5zM240 379 q0 -161 52 -246.5t163 -85.5q89 0 167 50t136 136.5t91.5 202.5t33.5 247q0 332 -222 332q-89 0 -166 -50t-133.5 -136.5t-89 -202.5t-32.5 -247zM408 1226l330 332h60l198 -332h-65l-175 232l-270 -232h-78z" />
<glyph unicode="&#xf5;" horiz-adv-x="1071" d="M150 367q0 86 14.5 173t44 166.5t72.5 148.5t100.5 119.5t128.5 79.5t156 29q87 0 146 -31.5t95 -85t51 -124t15 -147.5q0 -87 -15 -173.5t-44.5 -166t-74 -148t-103.5 -119t-133 -79.5t-162 -29q-83 0 -138.5 31.5t-89.5 84.5t-48.5 123.5t-14.5 147.5zM240 379 q0 -161 52 -246.5t163 -85.5q89 0 167 50t136 136.5t91.5 202.5t33.5 247q0 332 -222 332q-89 0 -166 -50t-133.5 -136.5t-89 -202.5t-32.5 -247zM407 1307q8 38 27.5 69.5t45 54t56 35t61.5 12.5q48 0 86.5 -16t71.5 -34.5t61 -34.5t55 -16q44 0 75.5 32t41.5 80l52 -13 q-8 -38 -25 -70t-40.5 -55.5t-53.5 -36.5t-63 -13q-40 0 -73.5 16t-65 34.5t-62 34.5t-64.5 16q-32 0 -55.5 -11.5t-39.5 -28t-24.5 -35t-11.5 -31.5z" />
<glyph unicode="&#xf6;" horiz-adv-x="1071" d="M150 367q0 86 14.5 173t44 166.5t72.5 148.5t100.5 119.5t128.5 79.5t156 29q87 0 146 -31.5t95 -85t51 -124t15 -147.5q0 -87 -15 -173.5t-44.5 -166t-74 -148t-103.5 -119t-133 -79.5t-162 -29q-83 0 -138.5 31.5t-89.5 84.5t-48.5 123.5t-14.5 147.5zM240 379 q0 -161 52 -246.5t163 -85.5q89 0 167 50t136 136.5t91.5 202.5t33.5 247q0 332 -222 332q-89 0 -166 -50t-133.5 -136.5t-89 -202.5t-32.5 -247zM505 1346l23 110h92l-23 -110h-92zM868 1346l23 110h92l-23 -110h-92z" />
<glyph unicode="&#xf7;" horiz-adv-x="1182" d="M180 663l15 70h940l-15 -70h-940zM525 281l23 110h92l-23 -110h-92zM598 3020l24 110h92l-24 -110h-92zM676 993l24 110h92l-24 -110h-92zM1438 3020v110h92v-110h-92z" />
<glyph unicode="&#xf8;" horiz-adv-x="1067" d="M85 -137l139 223q-38 54 -54 127t-16 154q0 86 14.5 173t44 166.5t72.5 148.5t100.5 119.5t128.5 79.5t156 29q56 0 99.5 -13.5t76.5 -36.5l103 153h83l-134 -203q43 -55 61 -129.5t18 -158.5q0 -87 -15 -173.5t-44.5 -166t-74 -148t-103.5 -119t-133 -79.5t-162 -29 q-54 0 -96 13.5t-74 37.5l-107 -168h-83zM244 379q0 -161 52 -246.5t163 -85.5q89 0 167 50t136 136.5t91.5 202.5t33.5 247q0 332 -222 332q-89 0 -166 -50t-133.5 -136.5t-89 -202.5t-32.5 -247z" />
<glyph unicode="&#xf9;" horiz-adv-x="1117" d="M163 272q2 16 3.5 29l3 26t4 28t6.5 37l140 667h91l-140 -663q-8 -35 -11 -55.5t-7 -44.5q-7 -43 -3.5 -86.5t22.5 -78.5t56 -57t98 -22q53 0 101 18t89 47t75 65.5t59 74t40.5 72.5t21.5 60l146 670h88l-178 -837l-8 -53q-3 -20 -2 -40t5.5 -38.5t12.5 -34t20 -25.5 l-46 -46q-15 7 -28.5 24t-23.5 43.5t-14.5 62.5t-0.5 82q-26 -39 -64.5 -77.5t-86.5 -70t-103 -51t-113 -19.5q-70 0 -121.5 20.5t-83.5 58.5t-44 92t-4 122zM490 1558h118l202 -332h-65z" />
<glyph unicode="&#xfa;" horiz-adv-x="1117" d="M163 272q2 16 3.5 29l3 26t4 28t6.5 37l140 667h91l-140 -663q-8 -35 -11 -55.5t-7 -44.5q-7 -43 -3.5 -86.5t22.5 -78.5t56 -57t98 -22q53 0 101 18t89 47t75 65.5t59 74t40.5 72.5t21.5 60l146 670h88l-178 -837l-8 -53q-3 -20 -2 -40t5.5 -38.5t12.5 -34t20 -25.5 l-46 -46q-15 7 -28.5 24t-23.5 43.5t-14.5 62.5t-0.5 82q-26 -39 -64.5 -77.5t-86.5 -70t-103 -51t-113 -19.5q-70 0 -121.5 20.5t-83.5 58.5t-44 92t-4 122zM596 1226l332 332h137l-396 -332h-73z" />
<glyph unicode="&#xfb;" horiz-adv-x="1117" d="M163 272q2 16 3.5 29l3 26t4 28t6.5 37l140 667h91l-140 -663q-8 -35 -11 -55.5t-7 -44.5q-7 -43 -3.5 -86.5t22.5 -78.5t56 -57t98 -22q53 0 101 18t89 47t75 65.5t59 74t40.5 72.5t21.5 60l146 670h88l-178 -837l-8 -53q-3 -20 -2 -40t5.5 -38.5t12.5 -34t20 -25.5 l-46 -46q-15 7 -28.5 24t-23.5 43.5t-14.5 62.5t-0.5 82q-26 -39 -64.5 -77.5t-86.5 -70t-103 -51t-113 -19.5q-70 0 -121.5 20.5t-83.5 58.5t-44 92t-4 122zM414 1226l330 332h60l198 -332h-65l-175 232l-270 -232h-78z" />
<glyph unicode="&#xfc;" horiz-adv-x="1117" d="M163 272q2 16 3.5 29l3 26t4 28t6.5 37l140 667h91l-140 -663q-8 -35 -11 -55.5t-7 -44.5q-7 -43 -3.5 -86.5t22.5 -78.5t56 -57t98 -22q53 0 101 18t89 47t75 65.5t59 74t40.5 72.5t21.5 60l146 670h88l-178 -837l-8 -53q-3 -20 -2 -40t5.5 -38.5t12.5 -34t20 -25.5 l-46 -46q-15 7 -28.5 24t-23.5 43.5t-14.5 62.5t-0.5 82q-26 -39 -64.5 -77.5t-86.5 -70t-103 -51t-113 -19.5q-70 0 -121.5 20.5t-83.5 58.5t-44 92t-4 122zM513 1346l23 110h92l-23 -110h-92zM876 1346l23 110h92l-23 -110h-92z" />
<glyph unicode="&#xfd;" horiz-adv-x="914" d="M-227 -411l23 71l7 -2t19 -4t27 -4t30 -2q37 0 77.5 23t80.5 58.5t78 79t70 85t55.5 76t34.5 51.5q0 9 -1 45t-3.5 90.5t-5.5 122.5t-8 141t-11 146.5t-14 138.5t-18 117t-22 83q-20 49 -46 79t-45 44l55 48q28 -8 59.5 -37.5t52.5 -75.5q13 -30 23.5 -75t18.5 -98.5 t13.5 -111.5t9.5 -115q3 -52 6 -120.5t4.5 -136t1.5 -125t-1 -86.5h6q17 29 51.5 80t78.5 115.5t91.5 138t90.5 147.5t76.5 144t48.5 127q5 19 7.5 44.5t2.5 41.5q0 19 -2.5 50.5t-15.5 60.5l69 30q4 -5 10.5 -15.5t12.5 -26.5t10.5 -38.5t4.5 -51.5q0 -10 -0.5 -23 t-2 -27.5t-3.5 -28.5t-6 -26q-42 -129 -116 -259t-163 -257.5t-184 -251.5t-179 -239q-14 -19 -35 -46.5t-47.5 -57t-58 -59t-66.5 -52.5t-73.5 -37.5t-78.5 -14.5q-45 0 -67 10.5t-33 15.5zM477 1226l332 332h137l-396 -332h-73z" />
<glyph unicode="&#xfe;" horiz-adv-x="1129" d="M53 -418l421 1976h87l-134 -631q22 30 53 58t67.5 49.5t77.5 34t83 12.5q67 0 125.5 -26t102.5 -74.5t69.5 -118.5t25.5 -158q0 -144 -32.5 -275t-97 -231t-160 -159.5t-221.5 -59.5q-44 0 -83.5 11.5t-73.5 31.5t-60.5 48t-44.5 61l-117 -549h-88zM278 227 q15 -40 39.5 -72.5t56.5 -55.5t71 -35.5t82 -12.5q67 0 123.5 25.5t102.5 70.5t81 105.5t58.5 131t35.5 147t12 153.5q0 55 -12 112.5t-39 104.5t-72 76.5t-111 29.5q-61 0 -115 -26t-97.5 -69t-74 -98.5t-44.5 -115.5z" />
<glyph unicode="&#xff;" horiz-adv-x="914" d="M-227 -411l23 71l7 -2t19 -4t27 -4t30 -2q37 0 77.5 23t80.5 58.5t78 79t70 85t55.5 76t34.5 51.5q0 9 -1 45t-3.5 90.5t-5.5 122.5t-8 141t-11 146.5t-14 138.5t-18 117t-22 83q-20 49 -46 79t-45 44l55 48q28 -8 59.5 -37.5t52.5 -75.5q13 -30 23.5 -75t18.5 -98.5 t13.5 -111.5t9.5 -115q3 -52 6 -120.5t4.5 -136t1.5 -125t-1 -86.5h6q17 29 51.5 80t78.5 115.5t91.5 138t90.5 147.5t76.5 144t48.5 127q5 19 7.5 44.5t2.5 41.5q0 19 -2.5 50.5t-15.5 60.5l69 30q4 -5 10.5 -15.5t12.5 -26.5t10.5 -38.5t4.5 -51.5q0 -10 -0.5 -23 t-2 -27.5t-3.5 -28.5t-6 -26q-42 -129 -116 -259t-163 -257.5t-184 -251.5t-179 -239q-14 -19 -35 -46.5t-47.5 -57t-58 -59t-66.5 -52.5t-73.5 -37.5t-78.5 -14.5q-45 0 -67 10.5t-33 15.5zM378 1346l23 110h92l-23 -110h-92zM741 1346l23 110h92l-23 -110h-92z" />
<glyph unicode="&#x152;" horiz-adv-x="1824" d="M170 512q0 121 23 240t67.5 226t110 198.5t150.5 158.5t190 104.5t227 37.5q61 0 108.5 -6t82.5 -15h826l-15 -70h-736l-125 -589h633l-15 -70h-633l-140 -657h750l-15 -70h-839q-42 -13 -86 -17t-83 -4q-95 0 -167.5 20.5t-126 57t-89.5 86.5t-58 109.5t-31 125.5 t-9 134zM258 488q0 -109 29 -190.5t82.5 -135.5t129 -80.5t167.5 -26.5q42 0 85 4.5t85 21.5l275 1293q-43 14 -89 21t-84 7q-99 0 -188 -32.5t-164.5 -92t-136 -143t-103 -185t-65.5 -218.5t-23 -243z" />
<glyph unicode="&#x153;" horiz-adv-x="1721" d="M150 367q0 86 14.5 173t44 166.5t72.5 148.5t100.5 119.5t128.5 79.5t156 29q68 0 120 -19.5t88 -56t56.5 -88.5t25.5 -116q30 60 72.5 111t97.5 88.5t123 58.5t149 21q66 0 120.5 -17.5t93.5 -50.5t60 -79.5t21 -104.5q0 -82 -31.5 -142.5t-88.5 -100t-136.5 -59 t-174.5 -19.5q-49 0 -97 6t-87.5 14.5t-68.5 16.5t-40 13q-3 -16 -5.5 -36t-5 -40.5t-3.5 -39.5t-1 -33q0 -101 15.5 -169t48 -109.5t82.5 -59t118 -17.5q59 0 131 27t136 80l35 -54q-23 -21 -56 -44t-75 -41.5t-92.5 -31t-107.5 -12.5q-75 0 -131.5 23.5t-95.5 63.5t-61 93 t-28 112q-33 -66 -77 -120t-98.5 -92t-118.5 -58.5t-138 -20.5q-83 0 -138.5 31.5t-89.5 84.5t-48.5 123.5t-14.5 147.5zM240 379q0 -161 52 -246.5t163 -85.5q89 0 167.5 50t137 136.5t92 202.5t33.5 247q0 332 -224 332q-89 0 -166 -50t-133.5 -136.5t-89 -202.5 t-32.5 -247zM983 632q15 -8 51 -16.5t79.5 -16.5t87.5 -13t74 -5t66 4t72 14.5t70 28t60 45t41.5 65t15.5 87.5q0 33 -10 66.5t-34 60t-62.5 43t-95.5 16.5q-96 0 -166.5 -36t-119.5 -91.5t-80 -122.5t-49 -129z" />
<glyph unicode="&#x178;" horiz-adv-x="1051" d="M208 1456h99l257 -851l585 851h108l-662 -937l-105 -519h-95l113 530zM565 1682l23 110h92l-23 -110h-92zM928 1682l23 110h92l-23 -110h-92z" />
<glyph unicode="&#x2c6;" horiz-adv-x="724" d="M180 1226l330 332h60l198 -332h-65l-175 232l-270 -232h-78z" />
<glyph unicode="&#x2dc;" horiz-adv-x="848" d="M259 1307q8 38 27.5 69.5t45 54t56 35t61.5 12.5q48 0 86.5 -16t71.5 -34.5t61 -34.5t55 -16q44 0 75.5 32t41.5 80l52 -13q-8 -38 -25 -70t-40.5 -55.5t-53.5 -36.5t-63 -13q-40 0 -73.5 16t-65 34.5t-62 34.5t-64.5 16q-32 0 -55.5 -11.5t-39.5 -28t-24.5 -35 t-11.5 -31.5z" />
<glyph unicode="&#x2000;" horiz-adv-x="1565" />
<glyph unicode="&#x2001;" horiz-adv-x="3130" />
<glyph unicode="&#x2002;" horiz-adv-x="1565" />
<glyph unicode="&#x2003;" horiz-adv-x="3130" />
<glyph unicode="&#x2004;" horiz-adv-x="1043" />
<glyph unicode="&#x2005;" horiz-adv-x="782" />
<glyph unicode="&#x2006;" horiz-adv-x="521" />
<glyph unicode="&#x2007;" horiz-adv-x="521" />
<glyph unicode="&#x2008;" horiz-adv-x="391" />
<glyph unicode="&#x2009;" horiz-adv-x="626" />
<glyph unicode="&#x200a;" horiz-adv-x="173" />
<glyph unicode="&#x2010;" horiz-adv-x="637" d="M142 576l15 70h437l-15 -70h-437z" />
<glyph unicode="&#x2011;" horiz-adv-x="637" d="M142 576l15 70h437l-15 -70h-437z" />
<glyph unicode="&#x2012;" horiz-adv-x="637" d="M142 576l15 70h437l-15 -70h-437z" />
<glyph unicode="&#x2013;" horiz-adv-x="987" d="M133 576l15 70h787l-15 -70h-787z" />
<glyph unicode="&#x2014;" horiz-adv-x="1544" d="M133 576l15 70h1344l-15 -70h-1344z" />
<glyph unicode="&#x2018;" horiz-adv-x="376" d="M256 1066l38 176l162 316h54l-109 -303l-39 -189h-106z" />
<glyph unicode="&#x2019;" horiz-adv-x="360" d="M233 1066l109 303l39 189h106l-38 -176l-162 -316h-54z" />
<glyph unicode="&#x201a;" horiz-adv-x="419" d="M7 -232l109 303l33 189h103l-37 -176l-152 -316h-56z" />
<glyph unicode="&#x201c;" horiz-adv-x="616" d="M256 1066l38 176l162 316h54l-109 -303l-39 -189h-106zM496 1066l38 176l162 316h54l-109 -303l-39 -189h-106z" />
<glyph unicode="&#x201d;" horiz-adv-x="613" d="M233 1066l109 303l39 189h106l-38 -176l-162 -316h-54zM486 1066l109 303l39 189h106l-38 -176l-162 -316h-54z" />
<glyph unicode="&#x201e;" horiz-adv-x="673" d="M7 -232l109 303l33 189h103l-37 -176l-152 -316h-56zM261 -232l109 303l33 189h103l-37 -176l-152 -316h-56z" />
<glyph unicode="&#x2022;" horiz-adv-x="661" d="M268 736v46q0 31 9.5 60t29 50.5t49.5 34.5t72 13q38 0 66 -13t46.5 -34.5t27.5 -50.5t9 -60v-46q0 -29 -9 -57t-27.5 -49.5t-48 -34.5t-71.5 -13q-39 0 -68 12.5t-47.5 34t-28 49.5t-9.5 58z" />
<glyph unicode="&#x2026;" horiz-adv-x="1337" d="M132 0l26 121h97l-26 -121h-97zM542 0l26 121h97l-26 -121h-97zM952 0l26 121h97l-26 -121h-97z" />
<glyph unicode="&#x202f;" horiz-adv-x="626" />
<glyph unicode="&#x2039;" horiz-adv-x="584" d="M163 542l4 17l367 384h73l-331 -403l157 -384h-67z" />
<glyph unicode="&#x203a;" horiz-adv-x="584" d="M53 157l331 403l-157 384h67l203 -386l-4 -17l-367 -384h-73z" />
<glyph unicode="&#x205f;" horiz-adv-x="782" />
<glyph unicode="&#x20ac;" horiz-adv-x="1125" d="M178 546l15 70h144l43 213h-142l15 70h139q27 126 78 232.5t131 183t190.5 119.5t257.5 43q57 0 112 -9t111 -24l-25 -66q-48 14 -99 23t-101 9q-129 0 -225.5 -39t-165.5 -107t-112.5 -162t-66.5 -203h567l-15 -70h-568l-42 -213h565l-15 -70h-559l-4 -22l-4 -22 q-15 -97 -5.5 -180t50 -143.5t113.5 -95t186 -34.5q50 0 110.5 7.5t114.5 21.5l-2 -65q-62 -15 -120.5 -24.5t-115.5 -9.5q-130 0 -216.5 40.5t-135.5 111t-64 165.5t-1 205q2 11 3 21.5t3 21.5z" />
<glyph unicode="&#x2122;" horiz-adv-x="1242" d="M306 1402l12 54h343l-12 -54h-137l-102 -483h-67l102 483h-139zM645 919l114 537h76l82 -448h4l261 448h83l-114 -537h-59l91 429h-2l-255 -429h-48l-81 430h-2l-90 -430h-60z" />
<glyph unicode="&#x25fc;" horiz-adv-x="1075" d="M0 0v1075h1075v-1075h-1075z" />
<glyph unicode="&#xfb02;" horiz-adv-x="1068" d="M-189 -421l18 65q14 -4 32 -6t28 -2q56 0 97 31.5t70.5 80t48.5 107.5t31 115l214 1021h-177l11 68h179l31 161q17 85 42 150.5t62 110t88.5 67t122.5 22.5q32 0 63 -5.5t52 -12.5l-23 -65q-18 5 -39.5 8.5t-46.5 3.5q-61 0 -101 -25.5t-65.5 -65.5t-40 -90t-24.5 -98 l-31 -161h235l-11 -68h-235l-220 -1021q-43 -200 -121 -303t-193 -103q-32 0 -54 4t-43 11zM693 98q0 23 4 47.5t6 33.5l289 1381h88l-289 -1384q-1 -6 -3 -15t-3.5 -18t-2.5 -16.5t-1 -9.5q-2 -35 14 -48t39 -13q18 0 38 4.5t39 11.5l-8 -69q-9 -5 -31.5 -14t-60.5 -9 q-19 0 -39.5 7t-38 22t-29 37t-11.5 52z" />
</font>
</defs>
</svg>
