<?xml version="1.0" standalone="no"?>
<!DOCTYPE svg PUBLIC "-//W3C//DTD SVG 1.1//EN" "http://www.w3.org/Graphics/SVG/1.1/DTD/svg11.dtd" >
<svg xmlns="http://www.w3.org/2000/svg" xmlns:xlink="http://www.w3.org/1999/xlink" version="1.1">
<metadata></metadata>
<defs>
<font id="ufes_sanslight" horiz-adv-x="1066" >
<font-face units-per-em="2048" ascent="1638" descent="-410" />
<missing-glyph horiz-adv-x="476" />
<glyph unicode="&#xfb01;" horiz-adv-x="1111" d="M55 973v94h157v131q0 97 26 169t75.5 119.5t120 71t160.5 23.5q86 0 157 -22.5t136 -59.5l-25 -98q-22 13 -51 26t-63.5 24t-72 18t-75.5 7q-73 0 -123 -17t-81 -51.5t-44.5 -87t-13.5 -122.5v-131h254v-94h-254v-973h-126v973h-157zM789 0v1067h126v-1067h-126z" />
<glyph unicode="&#xfb03;" horiz-adv-x="1695" d="M55 973v94h156v186q0 163 69.5 245.5t197.5 82.5q34 0 69 -7t68 -19l-18 -93q-30 8 -54.5 12.5t-50.5 4.5q-81 0 -118 -54t-37 -172v-186h458v131q0 97 26 169t75.5 119.5t120.5 71t161 23.5q85 0 156 -22.5t136 -59.5l-25 -98q-21 13 -50.5 26t-63.5 24t-71.5 18 t-75.5 7q-73 0 -123 -17t-81 -51.5t-45 -87t-14 -122.5v-131h255v-94h-255v-973h-126v973h-458v-973h-126v973h-156zM1373 0v1067h126v-1067h-126z" />
<glyph horiz-adv-x="0" />
<glyph unicode="&#xd;" horiz-adv-x="476" />
<glyph horiz-adv-x="0" />
<glyph horiz-adv-x="0" />
<glyph horiz-adv-x="16" />
<glyph unicode="&#x9;" horiz-adv-x="16" />
<glyph unicode=" "  horiz-adv-x="476" />
<glyph unicode="&#x09;" horiz-adv-x="476" />
<glyph unicode="&#xa0;" horiz-adv-x="476" />
<glyph unicode="!" horiz-adv-x="539" d="M201 1456h137l-23 -1052h-91zM203 0v148h132v-148h-132z" />
<glyph unicode="&#x22;" horiz-adv-x="648" d="M133 1329v231h120v-231l-32 -262h-59zM395 1329v231h120v-231l-32 -262h-59z" />
<glyph unicode="#" horiz-adv-x="1232" d="M108 420v98h234l83 423h-242v98h258l79 417h111l-80 -417h271l80 417h111l-80 -417h199v-98h-218l-81 -423h229v-98h-245l-72 -420h-110l71 420h-272l-79 -420h-110l80 420h-217zM451 518h273l79 423h-269z" />
<glyph unicode="$" horiz-adv-x="1052" d="M118 138l51 84q68 -58 156.5 -95t188.5 -37q69 0 124 25t93 65t58 89.5t20 98.5q0 54 -11.5 100t-47.5 88.5t-103 83t-178 83.5q-87 32 -148.5 70.5t-100.5 87t-57 108.5t-18 135q0 68 23.5 128t67.5 106.5t106.5 76.5t141.5 38v219h110v-221q25 -4 55.5 -9.5t67 -19 t78.5 -36.5t90 -61l-50 -85q-45 39 -90.5 62t-85 34t-71.5 14t-51 3q-72 0 -123 -21.5t-83.5 -57t-47.5 -82t-15 -96.5q0 -42 13 -81.5t44.5 -75.5t85.5 -69t137 -62q84 -31 155 -69.5t122.5 -91t80 -121.5t28.5 -159q0 -59 -19 -120.5t-60 -115.5t-105.5 -95.5 t-155.5 -60.5v-205h-110v198q-44 3 -89 12.5t-90.5 26.5t-92 44.5t-94.5 66.5z" />
<glyph unicode="%" horiz-adv-x="1373" d="M87 1126v23q0 69 19 128.5t54 104t86 70t115 25.5t114 -25.5t84.5 -69.5t52 -104t17.5 -129v-23q0 -70 -18.5 -129.5t-53.5 -103t-84.5 -68.5t-111.5 -25q-61 0 -111.5 25t-86.5 68.5t-56 103t-20 129.5zM195 1126q0 -46 9.5 -88.5t29.5 -75t51.5 -52t75.5 -19.5 q43 0 74 19.5t50 52t28 75t9 88.5v23q0 52 -9.5 96t-29 75.5t-50 49t-72.5 17.5q-45 0 -76.5 -19t-51.5 -51t-29 -75.5t-9 -92.5v-23zM205 0l842 1456h124l-846 -1456h-120zM742 306v23q0 69 19 128.5t54 104t86 70t115 25.5t114 -25.5t84.5 -69.5t52 -104t17.5 -129v-23 q0 -70 -18.5 -129.5t-53.5 -103t-84.5 -68.5t-111.5 -25q-61 0 -111.5 25t-86.5 68.5t-56 103t-20 129.5zM850 306q0 -46 9.5 -88.5t29.5 -75t51.5 -52t75.5 -19.5q43 0 74 19.5t50 52t28 75t9 88.5v23q0 52 -9.5 96t-29 75.5t-50 49t-72.5 17.5q-45 0 -76.5 -19t-51.5 -51 t-29 -75.5t-9 -92.5v-23z" />
<glyph unicode="&#x26;" horiz-adv-x="1400" d="M123 374q0 59 16 111t41 96t55.5 80t60 63t54.5 45.5t38 27.5q-39 50 -66 94.5t-44 85.5t-24.5 81.5t-7.5 83.5q0 24 5.5 58.5t20 72t39 74t62.5 65.5t90.5 47t122.5 18q56 0 101.5 -11t78.5 -24.5t52 -25.5t21 -13l-42 -87q-5 3 -23 13t-47 21t-66.5 19.5t-80.5 8.5 q-60 0 -101 -22t-66.5 -56.5t-37 -75.5t-11.5 -80q0 -33 7 -65.5t23 -67.5t41.5 -75.5t63.5 -89.5l436 -544q27 39 43.5 81t26.5 86t15 88.5t8 88.5h-144v97h496v-97h-241q-7 -131 -38 -235t-97 -193l177 -218h-144l-111 133q-79 -73 -173 -113.5t-208 -40.5 q-80 0 -155.5 23.5t-135 72.5t-95.5 123.5t-36 175.5zM247 379q0 -77 26.5 -133.5t70 -93.5t99 -55t112.5 -18q94 0 166 34t139 99l-412 507q-24 -18 -58 -47.5t-66 -71t-54.5 -96.5t-22.5 -125z" />
<glyph unicode="'" horiz-adv-x="386" d="M133 1329v231h120v-229l-32 -264h-59z" />
<glyph unicode="(" horiz-adv-x="559" d="M93 680q2 146 27 291t75 274t125.5 235.5t178.5 177.5l31 -84q-152 -128 -233.5 -352.5t-84.5 -543.5q0 -179 24 -327.5t66 -266t100 -204.5t127 -142l-30 -85q-102 71 -177 183t-125.5 248.5t-76 289.5t-27.5 306z" />
<glyph unicode=")" horiz-adv-x="559" d="M29 -262q69 55 127 142t100.5 204.5t66.5 266t24 327.5q-3 319 -84.5 543.5t-233.5 352.5l30 84q103 -71 178.5 -177.5t125.5 -235.5t75 -274t28 -291q-3 -153 -28.5 -306t-75.5 -289.5t-125.5 -248.5t-177.5 -183z" />
<glyph unicode="*" horiz-adv-x="990" d="M117 1098l32 106l303 -115l-11 367h111l-11 -369l301 115l32 -103l-309 -96l195 -299l-86 -64l-182 308l-186 -307l-86 64l205 303z" />
<glyph unicode="+" horiz-adv-x="1175" d="M117 643v105h412v458h121v-458h407v-105h-407v-497h-121v497h-412z" />
<glyph unicode="," horiz-adv-x="537" d="M135 -286l70 303v136h129v-140l-121 -299h-78z" />
<glyph unicode="-" horiz-adv-x="642" d="M97 564v98h448v-98h-448z" />
<glyph unicode="." horiz-adv-x="541" d="M207 0v148h132v-148h-132z" />
<glyph unicode="/" horiz-adv-x="828" d="M66 -125l561 1581h114l-560 -1581h-115z" />
<glyph unicode="0" horiz-adv-x="1111" d="M140 677v106q0 349 102 521.5t313 172.5q106 0 184.5 -40t130 -125.5t76.5 -218t25 -318.5v-105q0 -347 -104 -519t-312 -172q-105 0 -183 40t-129.5 124.5t-77 216.5t-25.5 317zM265 661q0 -170 21.5 -282t60 -178.5t92 -94t116.5 -27.5q66 1 119.5 30t92 95.5t59 175 t20.5 268.5v150q0 168 -20 279.5t-58 178t-92 94t-121 27.5q-66 -1 -119.5 -31t-91.5 -96.5t-58.5 -174t-20.5 -263.5v-151z" />
<glyph unicode="1" horiz-adv-x="794" d="M95 1384l313 72h71v-1358h233v-98h-609v98h250v1230l-243 -32z" />
<glyph unicode="2" horiz-adv-x="909" d="M53 0v92q81 107 167.5 222.5t179.5 244.5q78 109 129 190t81.5 144.5t42.5 114t12 98.5q0 58 -19.5 107.5t-54 85.5t-82.5 56.5t-104 20.5q-54 0 -97 -10.5t-77.5 -27.5t-61.5 -37.5t-51 -41.5l-46 84q20 19 49.5 42.5t70 43.5t93 34t118.5 14q88 0 159.5 -25 t122.5 -72.5t79 -116t28 -154.5q0 -76 -28 -155.5t-74 -161t-105 -164.5t-120 -165q-43 -58 -87.5 -116.5t-83 -108t-67 -87t-39.5 -53.5h630v-98h-765z" />
<glyph unicode="3" horiz-adv-x="963" d="M51 98l47 86q24 -19 58 -37.5t76.5 -33.5t93 -25t107.5 -10q61 0 113.5 21t91.5 62t61.5 101.5t22.5 140.5q0 143 -64.5 223.5t-200.5 80.5h-154v98h154q62 0 108 21.5t76 59.5t45 90t15 114q0 77 -19 131.5t-55 89.5t-88.5 51.5t-119.5 16.5q-52 0 -98 -11.5t-84.5 -28 t-67.5 -35t-47 -32.5l-44 86q17 13 48 33.5t76 39.5t103.5 33t129.5 14q93 0 165.5 -24t122.5 -72t76.5 -120t26.5 -169q0 -53 -14.5 -104.5t-42 -96.5t-67.5 -79.5t-91 -52.5q65 -18 110 -54.5t73 -84.5t40.5 -104.5t12.5 -114.5q0 -97 -30 -175t-84 -133t-129 -85 t-164 -30q-72 0 -131 11t-107 28t-85.5 38t-65.5 42z" />
<glyph unicode="4" horiz-adv-x="1087" d="M58 362v73l596 1021h142v-996h206v-98h-206v-362h-126v362h-612zM191 460h479v824z" />
<glyph unicode="5" horiz-adv-x="991" d="M81 116l51 80q27 -21 64 -42t80 -38t90.5 -27.5t96.5 -10.5q53 0 106 16.5t96 58t69 112.5t25 179q-2 103 -28.5 169.5t-71 105t-102.5 53.5t-123 15t-124 -10t-122 -30l-66 56l59 653h649v-98h-541l-47 -501q56 14 105 19.5t106 5.5q92 0 171 -22.5t136.5 -75t90.5 -139 t33 -214.5q0 -111 -30 -195.5t-84.5 -141.5t-130.5 -86t-168 -29q-64 0 -122 13t-107.5 33t-90.5 44t-70 47z" />
<glyph unicode="6" horiz-adv-x="1060" d="M137 637v139q0 181 32 313t90.5 218.5t142 128t186.5 41.5q89 0 153 -18t115 -44l-22 -96q-28 16 -54 27.5t-54 18.5t-60 10.5t-72 3.5q-163 0 -247 -160t-85 -460q16 37 48.5 69t74.5 55t89 36t93 13q87 0 161 -28t127.5 -85t84 -144t30.5 -205q0 -110 -32.5 -200.5 t-88.5 -155t-132.5 -100t-164.5 -35.5q-83 0 -158 28.5t-132 102t-91 201t-34 326.5zM263 620q0 -165 24.5 -270.5t65 -165.5t94 -82.5t110.5 -22.5t109 25.5t91.5 74t63.5 119.5t24 162q0 84 -18.5 153t-54 118.5t-87 76.5t-116.5 27q-60 0 -109.5 -17t-88 -46t-65.5 -68 t-43 -84z" />
<glyph unicode="7" horiz-adv-x="948" d="M27 1358v98h859v-100q-130 -174 -213.5 -339.5t-134 -331.5t-75 -335t-34.5 -350h-127q14 197 42.5 373t81.5 340.5t135.5 323.5t205.5 321h-740z" />
<glyph unicode="8" horiz-adv-x="1069" d="M113 389q0 131 70.5 225.5t197.5 137.5q-54 19 -96.5 52.5t-71.5 77.5t-44 97t-15 111q0 87 26 158.5t75 122t120 78.5t160 28q90 0 161 -27t120 -77t75 -121.5t26 -159.5q0 -58 -15.5 -111.5t-45.5 -98t-72.5 -78.5t-96.5 -53q61 -21 110.5 -55.5t84.5 -81t54.5 -103.5 t19.5 -122q0 -94 -29 -169.5t-83 -129t-132 -82.5t-176 -29q-95 0 -172.5 26t-133.5 77.5t-86.5 128t-30.5 178.5zM238 381q0 -72 21 -128.5t60 -95t94 -58.5t123 -20q66 0 120.5 20.5t93.5 59t60 94.5t21 128q0 65 -22 123t-61.5 102t-94 69.5t-118.5 25.5 q-68 0 -123 -24.5t-93.5 -67.5t-59.5 -101.5t-21 -126.5zM279 1084q0 -62 18 -114.5t51.5 -90.5t81 -59t106.5 -21q57 0 104 20t80.5 56.5t52.5 88.5t19 116q0 66 -16.5 120.5t-49 93.5t-80.5 61t-111 22q-65 0 -113 -22t-79.5 -61.5t-47.5 -93t-16 -116.5z" />
<glyph unicode="9" horiz-adv-x="1060" d="M90 986q0 110 32.5 200.5t88.5 155t132.5 100t164.5 35.5q82 0 157 -28.5t132 -102t91 -201t34 -326.5v-139q0 -181 -31.5 -313t-90 -218.5t-142 -128t-186.5 -41.5q-90 0 -153.5 18.5t-114.5 44.5l21 95q28 -16 54.5 -27.5t54.5 -18.5t60 -10.5t72 -3.5q163 0 245.5 160 t84.5 460q-16 -38 -48.5 -69.5t-73.5 -54.5t-88 -36t-93 -13q-87 0 -161 28t-127.5 85t-84 144t-30.5 205zM216 996q0 -84 18.5 -153t53.5 -118.5t86.5 -76.5t116.5 -27q60 0 109.5 17t87.5 46t65 68t43 84q0 165 -24.5 270.5t-65 165.5t-94 82.5t-110.5 22.5t-108.5 -25.5 t-91 -74t-63 -119.5t-23.5 -162z" />
<glyph unicode=":" horiz-adv-x="535" d="M202 0v148h132v-148h-132zM202 922v148h132v-148h-132z" />
<glyph unicode=";" horiz-adv-x="543" d="M141 -286l70 303v136h129v-140l-121 -299h-78zM209 919v148h132v-148h-132z" />
<glyph unicode="&#x3c;" horiz-adv-x="1033" d="M118 684v91l757 379v-125l-599 -284l-58 -12v-5l58 -14l599 -289v-127z" />
<glyph unicode="=" horiz-adv-x="1194" d="M187 465v98h821v-98h-821zM187 865v98h821v-98h-821z" />
<glyph unicode="&#x3e;" horiz-adv-x="1043" d="M158 298v124l609 291l58 13v4l-58 14l-609 286v126l767 -381v-92z" />
<glyph unicode="?" horiz-adv-x="846" d="M53 1328q21 20 52.5 46t75 49t99 38.5t123.5 15.5q80 0 147 -23t115 -67t75 -108.5t27 -146.5q0 -69 -16.5 -130.5t-47.5 -120t-76.5 -116.5t-103.5 -122q-28 -30 -43 -55t-22 -52t-8 -58.5t-1 -74.5h-126q1 45 2 76.5t5 55.5t12.5 45t25.5 45t43 55t66 75q48 54 79 97.5 t49 84.5t25.5 83t7.5 92q0 125 -59 193.5t-182 68.5q-56 0 -105 -16t-87.5 -37.5t-65 -43.5t-38.5 -34zM320 0v148h133v-148h-133z" />
<glyph unicode="@" horiz-adv-x="2002" d="M156 488q0 114 23.5 229t71 220t118.5 196.5t166 158.5t214.5 105.5t263.5 38.5q207 0 363 -63t260.5 -180t157 -282.5t52.5 -369.5q0 -134 -19 -249.5t-62 -200.5t-111 -133.5t-166 -48.5q-51 0 -91 16.5t-69 42t-48 56.5t-28 60q-26 -36 -59.5 -62t-72.5 -43.5 t-82.5 -26t-89.5 -8.5q-78 0 -148 30t-123.5 90t-84.5 150t-31 211v63q-1 134 28.5 239.5t83 178.5t126.5 111.5t158 38.5q52 0 98.5 -12.5t86 -35t70.5 -53t53 -67.5l17 148h97v-836q-1 -31 5 -64t21.5 -60t41.5 -44t66 -17q95 0 152 132.5t57 395.5q0 201 -51.5 350.5 t-145.5 248t-226 147t-292 48.5q-150 0 -282 -61t-231 -172.5t-156 -268t-57 -347.5q0 -142 26.5 -259.5t73 -211t110 -162.5t137 -115t154 -68.5t161.5 -22.5q60 0 112.5 8t97.5 21.5t83.5 30.5t70.5 35l39 -81q-35 -23 -81 -43.5t-100.5 -36.5t-115 -25t-124.5 -9 q-67 0 -150.5 17.5t-169 60t-166.5 112t-144 174t-101 246.5t-38 329zM686 425q0 -76 16 -145.5t51.5 -123t91 -85t133.5 -31.5q49 0 93 16.5t79 44.5t61.5 64.5t41.5 77.5v508q-16 40 -41 76.5t-58 64.5t-74 44.5t-88 16.5q-69 0 -125 -31t-96.5 -90t-62.5 -145.5 t-22 -198.5v-63z" />
<glyph unicode="A" horiz-adv-x="1214" d="M38 0l518 1456h104l516 -1456h-134l-141 408h-588l-137 -408h-138zM346 506h522l-221 648l-37 133h-6l-37 -131z" />
<glyph unicode="B" horiz-adv-x="1250" d="M212 0v1456h421q112 0 192.5 -26t132 -74t75.5 -115.5t24 -150.5q0 -53 -14.5 -102.5t-43 -91t-71.5 -73t-100 -47.5q69 -12 123.5 -45t92.5 -83t58 -115t20 -140q0 -99 -32.5 -173t-90.5 -123t-137 -73t-172 -24h-478zM338 98h352q70 0 127 20t97 59t61.5 96t21.5 131 q0 72 -23.5 129.5t-64.5 98.5t-97 63t-120 22h-354v-619zM338 815h312h6q52 1 100 17q51 18 90 52.5t62.5 86t23.5 119.5q0 133 -78.5 200.5t-220.5 67.5h-295v-543z" />
<glyph unicode="C" horiz-adv-x="1081" d="M135 670v82q0 161 33 294.5t99 229t166.5 148.5t235.5 53q71 0 126.5 -14t97 -33.5t70 -41t46.5 -37.5l-44 -85q-18 14 -45 33t-64 35.5t-85 28t-109 11.5q-81 0 -153.5 -35t-128 -106.5t-88 -180.5t-32.5 -257v-107q0 -157 37 -271t96 -188.5t133 -110t148 -35.5 q58 0 104.5 11.5t83.5 28t63.5 35t43.5 32.5l43 -84q-19 -18 -49 -40t-72 -41.5t-96.5 -32.5t-123.5 -13q-110 0 -207.5 42.5t-170.5 128t-115.5 215.5t-42.5 305z" />
<glyph unicode="D" horiz-adv-x="1320" d="M212 0v1456h331q76 0 153.5 -12.5t149 -42t133.5 -79t108 -124.5t72.5 -178t26.5 -238v-103q0 -156 -41.5 -282t-121 -214t-196 -135.5t-267.5 -47.5h-348zM338 98h242q104 0 192.5 37.5t152.5 111t100 182t36 250.5v104q0 143 -36.5 251t-101.5 180t-156.5 108 t-200.5 36h-228v-1260z" />
<glyph unicode="E" horiz-adv-x="1150" d="M212 0v1456h843v-98h-717v-550h620v-98h-620v-612h730v-98h-856z" />
<glyph unicode="F" d="M212 0v1456h811v-98h-685v-588h591v-98h-591v-672h-126z" />
<glyph unicode="G" horiz-adv-x="1292" d="M135 683v87q0 174 42 306.5t117 221.5t177 134t222 45q87 0 154.5 -14t118.5 -34.5t87 -43.5t61 -41l-43 -86q-33 22 -73.5 43.5t-87.5 38t-100.5 26.5t-112.5 10q-91 0 -170.5 -37.5t-139 -109.5t-93.5 -176.5t-34 -237.5v-145q0 -142 34 -252.5t93 -186.5t140 -115.5 t175 -39.5q60 0 110 11.5t89.5 31.5t68.5 46t47 55v386h-333v98h459v-509q-17 -31 -51 -68.5t-88 -70.5t-130.5 -55t-178.5 -22q-106 0 -188.5 28.5t-144.5 78.5t-105.5 117.5t-70.5 145.5t-39 163.5t-12 170.5z" />
<glyph unicode="H" horiz-adv-x="1398" d="M212 0v1456h126v-684h722v684h126v-1456h-126v674h-722v-674h-126z" />
<glyph unicode="I" horiz-adv-x="550" d="M212 0v1456h126v-1456h-126z" />
<glyph unicode="J" horiz-adv-x="959" d="M15 169l55 79q18 -20 52.5 -48t79 -54.5t96.5 -45t106 -18.5q52 0 93.5 16t71 52t45.5 93t16 140v1073h126v-1073q0 -120 -30 -198t-79 -124t-110.5 -64t-125.5 -18q-63 0 -120 16t-107 42.5t-92.5 61t-76.5 70.5z" />
<glyph unicode="K" horiz-adv-x="1209" d="M212 0v1456h126v-670h165l496 670h148q-45 -59 -93 -121.5t-109.5 -142.5t-141.5 -186t-189 -252q120 -157 208 -271t156.5 -200t122.5 -153t105 -130h-161l-479 632q-24 29 -43 42.5t-51 13.5h-134v-688h-126z" />
<glyph unicode="L" horiz-adv-x="1014" d="M212 0v1456h126v-1358h635v-98h-761z" />
<glyph unicode="M" horiz-adv-x="1689" d="M212 0v1456h159l472 -1279h6l472 1279h156v-1456h-126v434l12 816h-5l-471 -1250h-86l-474 1249h-5l16 -816v-433h-126z" />
<glyph unicode="N" horiz-adv-x="1399" d="M212 0v1456h126l730 -1249q0 -1 1 -1h1l-10 673v577h126v-1456h-124l-729 1254q-1 -1 -3 -1l8 -652v-601h-126z" />
<glyph unicode="O" horiz-adv-x="1334" d="M135 654v113q0 169 36.5 301t105.5 223t167 138.5t221 47.5q121 0 219.5 -47t168.5 -136t108 -218.5t38 -295.5v-126q0 -162 -39.5 -287.5t-110 -211.5t-168.5 -131t-216 -45q-117 0 -214.5 45t-167.5 131t-109 211.5t-39 287.5zM260 681q0 -135 27.5 -246t79.5 -190 t127 -122.5t171 -43.5q94 0 169.5 40t128.5 115.5t82 183.5t29 244v115q0 149 -31 261.5t-85.5 187.5t-129.5 113t-163 38t-162 -38t-128 -113t-84.5 -187.5t-30.5 -261.5v-96z" />
<glyph unicode="P" horiz-adv-x="1175" d="M212 0v1456h453q109 0 192.5 -32.5t140 -90.5t85.5 -138t29 -175q0 -91 -29 -168t-85.5 -133.5t-140 -88.5t-192.5 -32h-327v-598h-126zM338 696h327q79 0 139.5 25t101 68.5t61 102.5t20.5 127q0 75 -21 137t-61.5 107t-100.5 70t-139 25h-327v-662z" />
<glyph unicode="Q" horiz-adv-x="1334" d="M135 654v113q0 169 36.5 301t105.5 223t167 138.5t221 47.5q121 0 219.5 -47t168.5 -136t108 -218.5t38 -295.5v-126q0 -248 -92 -409.5t-280 -243.5l-175 -77q49 -2 89 -21.5t74.5 -48t66 -61.5t63 -60.5t65 -46t72.5 -18.5t90 20l24 -89q-61 -34 -116 -34 q-53 0 -97.5 19.5t-84 48.5t-76 63.5t-73.5 63.5t-75.5 48.5t-82.5 19.5q-38 0 -81.5 -13.5t-90.5 -50.5l-38 98l219 121q-104 12 -189.5 61.5t-147 135t-95 205t-33.5 269.5zM260 681q0 -135 27.5 -246t79.5 -190t127 -122.5t171 -43.5q94 0 169.5 40t128.5 115.5t82 183.5 t29 244v115q0 149 -31 261.5t-85.5 187.5t-129.5 113t-163 38q-90 0 -164.5 -39t-128 -116.5t-83 -192.5t-29.5 -268v-80z" />
<glyph unicode="R" horiz-adv-x="1221" d="M212 0v1456h440q111 0 193.5 -27.5t138 -79.5t83 -127t27.5 -170q0 -25 -5 -60t-18.5 -74t-37.5 -78.5t-61.5 -73.5t-90 -59.5t-124.5 -35.5l382 -671h-150l-330 616q-13 25 -33.5 33.5t-49.5 8.5h-238v-658h-126zM338 756h283q94 0 160 22t108 61.5t61 93.5t19 119 q0 68 -18.5 124.5t-57.5 97t-99 62.5t-142 22h-314v-602z" />
<glyph unicode="S" horiz-adv-x="1129" d="M119 144l47 88q23 -21 64 -46.5t94 -48t115.5 -37.5t129.5 -15q75 0 133.5 22.5t99.5 60.5t62.5 88.5t21.5 106.5q0 47 -13.5 87.5t-50 79t-101 75.5t-167.5 77q-113 42 -190 87t-124.5 96t-68 109.5t-20.5 128.5q0 83 30 152t83.5 118.5t128.5 76.5t165 27 q74 0 136 -12.5t114.5 -33.5t95.5 -48.5t78 -57.5l-44 -87q-31 27 -73 51.5t-91 43.5t-103.5 30t-110.5 11q-66 0 -119 -17.5t-89.5 -51.5t-56.5 -83.5t-20 -112.5q0 -56 19.5 -99t62 -80t109 -70t159.5 -69q106 -39 179 -83t118.5 -95.5t65.5 -113t20 -136.5 q0 -81 -31.5 -151t-89 -121.5t-138 -81t-178.5 -29.5q-72 0 -138 14t-123 37t-105.5 52.5t-85.5 60.5z" />
<glyph unicode="T" horiz-adv-x="1096" d="M31 1358v98h1034v-98h-456v-1358h-126v1358h-452z" />
<glyph unicode="U" horiz-adv-x="1363" d="M203 441v1015h126v-1015q0 -89 25.5 -157t71 -113.5t109.5 -68.5t141 -23q78 0 144 22.5t113.5 67.5t74 113t26.5 159v1015h126v-1015q0 -112 -35 -198t-98.5 -144.5t-153 -89t-197.5 -30.5q-103 0 -190 30t-150 88.5t-98 145t-35 198.5z" />
<glyph unicode="V" horiz-adv-x="1188" d="M29 1456h138l389 -1155l37 -134h6l38 133l388 1156h134l-514 -1456h-102z" />
<glyph unicode="W" horiz-adv-x="1660" d="M67 1456h133l224 -1003l35 -234h6l48 234l259 1003h121l261 -1003l49 -234h6l34 234l220 1003h130l-335 -1456h-101l-275 1058l-45 211h-6l-44 -211l-283 -1058h-101z" />
<glyph unicode="X" horiz-adv-x="1096" d="M26 0l446 743l-436 713h145l368 -623l377 623h134l-440 -717l450 -739h-141l-386 646l-379 -646h-138z" />
<glyph unicode="Y" horiz-adv-x="1067" d="M-6 1456h138l409 -814l397 814h134l-473 -937v-519h-126v530z" />
<glyph unicode="Z" d="M76 0v84l752 1274h-744v98h888v-87l-747 -1271h765v-98h-914z" />
<glyph unicode="[" horiz-adv-x="610" d="M204 -347v2004h303v-91h-193v-1823h193v-90h-303z" />
<glyph unicode="\" horiz-adv-x="845" d="M104 1456h114l561 -1581h-115z" />
<glyph unicode="]" horiz-adv-x="610" d="M103 -262h193v1823h-193v91h303v-2004h-303v90z" />
<glyph unicode="^" horiz-adv-x="854" d="M112 729l273 727h83l274 -727h-119l-173 487l-21 85h-6l-23 -85l-169 -487h-119z" />
<glyph unicode="_" horiz-adv-x="909" d="M28 0h853v-98h-853v98z" />
<glyph unicode="`" horiz-adv-x="632" d="M81 1553h175l265 -332h-97z" />
<glyph unicode="a" d="M94 290q0 77 29.5 137t84 101t133.5 62t178 21h227v124q0 55 -13.5 102t-43 81.5t-75.5 53.5q-44 18 -106 18h-7q-44 0 -86 -9.5t-79.5 -25t-69.5 -34.5t-56 -39l-47 78q20 17 52.5 39.5t78 42t104.5 33t132 13.5q79 0 142 -23t107.5 -67.5t68.5 -110.5t24 -152v-541 q0 -12 2.5 -30.5t8.5 -38t16 -38t24 -31.5l-63 -75q-36 26 -66 68.5t-38 106.5q-27 -40 -63.5 -72.5t-81 -56t-95 -36t-104.5 -12.5q-69 0 -127.5 21t-100.5 61t-66 97.5t-24 131.5zM219 290q0 -45 14 -82.5t41.5 -64.5t68 -42t93.5 -15q47 0 95.5 15.5t91.5 42.5t75.5 65 t47.5 83v225h-227q-78 0 -134.5 -18t-93.5 -48.5t-54.5 -72t-17.5 -88.5z" />
<glyph unicode="b" horiz-adv-x="1143" d="M194 913v321.5v323.5h127v-632q48 75 123.5 118.5t180.5 43.5q93 0 166 -38.5t123.5 -109t76.5 -170t26 -221.5v-84q0 -103 -26.5 -192t-76.5 -154t-122.5 -102.5t-164.5 -37.5q-53 0 -100 13t-86.5 36.5t-72 55.5t-55.5 71l-19 -155h-99v268q0 324 -1 645zM321 284 q12 -39 39 -76t63.5 -65.5t81 -46t92.5 -17.5q67 0 121.5 23.5t93 71.5t59.5 120.5t21 170.5v84q0 103 -19.5 184.5t-57 137.5t-93 86t-127.5 30q-96 0 -165 -49t-109 -145v-509z" />
<glyph unicode="c" horiz-adv-x="919" d="M126 510v54q0 114 27.5 210.5t81.5 166t135 109t189 39.5q95 0 172 -28t129 -75l-42 -84q-50 42 -113 64.5t-137 22.5t-132.5 -30.5t-99 -86.5t-62 -136t-22.5 -180v-38q0 -101 21.5 -182t62 -138t99.5 -88t133 -31t137 22t113 64l42 -79q-50 -48 -128 -77.5t-173 -29.5 q-108 0 -189.5 40t-135.5 110.5t-81 168t-27 212.5z" />
<glyph unicode="d" horiz-adv-x="1150" d="M126 510v63q0 109 26 203t75.5 163.5t122.5 109.5t168 40q101 0 178 -46t125 -118v633h126v-1364q0 -14 3 -32.5t9 -38t15.5 -37t23.5 -30.5l-63 -75q-14 12 -30 27t-30.5 35.5t-26 46.5t-16.5 60q-51 -83 -128 -127t-187 -44q-93 0 -165.5 36.5t-123 105t-76.5 167 t-26 222.5zM251 510q0 -211 76.5 -321.5t222.5 -110.5q94 0 162 51.5t109 146.5v506q-13 38 -39.5 75t-62.5 66t-80 47t-90 18q-68 0 -123 -26.5t-94 -79t-60 -130t-21 -179.5v-63z" />
<glyph unicode="e" horiz-adv-x="1056" d="M126 492v77q0 93 25.5 185.5t78 167t132.5 121t189 46.5q108 0 181.5 -37.5t119.5 -102t66 -152t20 -186.5v-97h-686q0 -93 22 -172.5t66 -137.5q46 -59 114 -92q66 -32 156 -32h5q73 2 143.5 25.5t125.5 65.5l37 -81q-60 -51 -151.5 -81t-197.5 -30q-114 0 -198 43.5 t-139 115.5t-82 164.5t-27 189.5zM254 608h560v49q0 68 -15 129t-47 106.5t-82.5 72.5t-121.5 27q-70 0 -123 -31.5t-89.5 -84.5t-57 -122.5t-24.5 -145.5z" />
<glyph unicode="f" horiz-adv-x="590" d="M55 973v94h156v186q0 163 69.5 245.5t197.5 82.5q34 0 69 -7t68 -19l-18 -93q-30 8 -54.5 12.5t-50.5 4.5q-81 0 -118 -54t-37 -172v-186h241v-94h-241v-973h-126v973h-156z" />
<glyph unicode="g" horiz-adv-x="967" d="M75 -155q0 95 43.5 165t110.5 115q-35 24 -47.5 56t-12.5 65q0 37 10.5 67.5t26.5 54t34.5 41t34.5 29.5q-69 48 -107 123t-38 166v16q0 72 26 134.5t74 109.5t115 74t149 27q28 0 60 -6t62 -15h282l2 -94h-173q22 -16 42 -41t34.5 -56t23 -66t8.5 -71v-12 q0 -85 -30.5 -149.5t-80 -108.5t-111 -66.5t-124.5 -22.5q-48 0 -84 6t-62 15q-33 -26 -50.5 -57t-17.5 -73q0 -27 10.5 -44.5t29.5 -28.5t44.5 -16t54.5 -5l161 -1q78 -1 139 -18t103.5 -52t65 -89t22.5 -129q0 -94 -40 -156.5t-104 -100t-143.5 -53.5t-158.5 -16 q-34 0 -75 5t-84 17t-83.5 32.5t-72 52t-50.5 75t-19 101.5zM194 -136q0 -50 21 -87.5t58 -63t88 -38.5t111 -13q64 0 121 12t99.5 39.5t67 71.5t24.5 109q0 43 -12.5 77t-40 57.5t-71.5 36t-108 13.5l-165 1q-10 0 -21.5 0.5t-22.5 1.5t-20.5 2t-15.5 2q-20 -14 -40.5 -34 t-36.5 -47t-26 -62t-10 -78zM251 727q0 -52 16 -97.5t46 -79t73 -52.5t98 -19t97.5 21t72 55.5t44.5 79.5t15 92v16q0 46 -16 90t-46 79t-71.5 56.5t-92.5 21.5q-60 0 -104.5 -24.5t-73.5 -61t-43.5 -80t-14.5 -81.5v-16z" />
<glyph unicode="h" horiz-adv-x="1158" d="M195 0v1560h126v-643q30 39 63 71t71 54.5t83.5 34.5t101.5 12q87 0 149 -29t102 -80.5t58.5 -122.5t18.5 -155v-702h-126v703q0 64 -12 116t-38.5 89.5t-70 58t-106.5 20.5q-90 0 -166 -51.5t-128 -139.5v-796h-126z" />
<glyph unicode="i" horiz-adv-x="517" d="M196 0v1067h126v-1067h-126zM196 1420v139h126v-139h-126z" />
<glyph unicode="j" horiz-adv-x="519" d="M-80 -412l18 92q31 -9 54.5 -13t49.5 -4q80 0 118 54t38 172v1178h126v-1166q0 -168 -67 -253.5t-195 -85.5q-73 0 -142 26zM197 1421v138h126v-138h-126z" />
<glyph unicode="k" horiz-adv-x="961" d="M197 0v1560h126v-935h127l325 442h147l-370 -480l415 -587h-147l-314 457q-18 25 -30 39t-23 20.5t-23.5 8t-31.5 1.5h-75v-526h-126z" />
<glyph unicode="l" horiz-adv-x="542" d="M194 233v1326h126v-1322q0 -43 4 -72.5t14 -48t25 -26.5t38 -8q19 0 33.5 4t28.5 9l17 -87q-23 -14 -54.5 -21.5t-63.5 -7.5q-35 0 -66 12t-53.5 41.5t-35.5 78t-13 122.5z" />
<glyph unicode="m" horiz-adv-x="1745" d="M195 0v1067h99l15 -165q27 39 58.5 73.5t70 59.5t85 39.5t103.5 14.5q60 0 107.5 -14.5t83 -41.5t60 -64.5t39.5 -83.5q25 43 56.5 80t71 64.5t87.5 43.5t105 16q86 0 146.5 -28.5t99 -80t56.5 -123t18 -157.5v-700h-126v700q0 68 -12 121.5t-38 90t-69 56t-104 19.5 q-48 0 -95.5 -21.5t-86 -59t-62 -87.5t-23.5 -107v-712h-126v700q0 66 -12 119.5t-38.5 90.5t-69.5 57t-104 20q-85 0 -152.5 -48.5t-116.5 -136.5v-802h-126z" />
<glyph unicode="n" horiz-adv-x="1157" d="M195 0v1067h99l15 -173q27 41 62 76.5t77.5 62t92 41.5t105.5 15q87 0 148 -27.5t99.5 -78t56.5 -120t18 -153.5v-710h-126v709q0 64 -13 115.5t-40 87.5t-69.5 55.5t-101.5 19.5q-39 0 -80 -12.5t-80 -36.5t-74 -59t-63 -80v-799h-126z" />
<glyph unicode="o" horiz-adv-x="1119" d="M127 493v68v14q0 97 26 187q28 96 83 168.5t136.5 115.5t186.5 43q103 0 183.5 -41t136 -112.5t85 -167.5t29.5 -207v-74q0 -108 -28.5 -201t-83.5 -161.5t-135.5 -107t-184.5 -38.5t-184.5 38.5t-136 107t-84.5 162.5t-29 206zM252 493q0 -83 19.5 -159t58.5 -133.5 t96.5 -91.5t134.5 -34q76 0 133.5 32.5t96 88.5t58 131t19.5 160v74q0 94 -22 173.5t-62.5 137t-97.5 89.5t-127 32q-74 0 -131 -32t-96 -89t-59.5 -136.5t-20.5 -174.5v-68z" />
<glyph unicode="p" horiz-adv-x="1143" d="M195 -429v1496h98l17 -155q107 177 315 177q93 0 166 -38.5t123 -109.5t76 -171t26 -223v-82q0 -103 -26.5 -192t-76.5 -154t-122.5 -102.5t-163.5 -37.5q-103 0 -180.5 43.5t-125.5 115.5v-567h-126zM321 285q12 -38 38.5 -75t63 -66.5t80.5 -47.5t91 -18q65 0 119.5 24 t94 72.5t61.5 121t22 169.5v82q0 104 -19.5 186t-58 138.5t-94 86.5t-127.5 30q-94 0 -163 -53t-108 -147v-503z" />
<glyph unicode="q" horiz-adv-x="1142" d="M127 502v81q0 107 26.5 199.5t76.5 160.5t122.5 107t164.5 39q52 0 98.5 -13t86.5 -36t72 -54.5t55 -69.5l20 151h98v-1496h-126v564q-54 -82 -129 -119t-174 -37q-93 0 -165.5 37t-123 105t-76.5 165t-26 216zM252 502q0 -101 19.5 -179.5t57.5 -133t93.5 -83 t128.5 -28.5q94 0 162 53t108 147v505q-12 37 -38.5 74t-62.5 66t-80 47t-91 18q-67 0 -122 -25.5t-94 -76.5t-60 -127t-21 -176v-81z" />
<glyph unicode="r" horiz-adv-x="685" d="M195 0v1067h100l15 -173q43 89 109 142t165 53q18 0 40 -3.5t34 -7.5l-22 -116q-21 4 -43.5 7t-51.5 3q-37 0 -70.5 -14.5t-61.5 -40t-50.5 -61.5t-37.5 -79v-777h-126z" />
<glyph unicode="s" horiz-adv-x="918" d="M106 105l35 90q73 -52 156 -82.5t157 -30.5q67 0 111 15.5t70.5 40t37 56t10.5 64.5q0 34 -9.5 63.5t-35 57t-72 54.5t-119.5 56q-90 36 -149.5 69t-95 69t-49.5 79t-14 98q0 57 20 109t60.5 91t102.5 62t146 23q57 0 104.5 -10t86.5 -26t70 -34.5t54 -36.5l-31 -90 q-42 27 -79 45.5t-70.5 29.5t-65.5 16t-64 5q-58 0 -98 -14t-65 -37.5t-36 -54t-11 -63.5q0 -43 14 -73t44.5 -54.5t80 -47t120.5 -51.5q85 -34 140 -71.5t87 -77.5t44.5 -82t12.5 -86q0 -66 -21.5 -121t-64 -94t-105 -60.5t-143.5 -21.5q-63 0 -118 12t-101.5 31t-83.5 41 t-63 42z" />
<glyph unicode="t" horiz-adv-x="637" d="M54 973v94h160v271h126v-271h242v-94h-242v-728q0 -49 9.5 -80.5t25 -50t37 -25.5t45.5 -7q29 0 61.5 9.5t55.5 21.5l19 -87q-12 -8 -31 -16.5t-41.5 -15t-47.5 -11t-51 -4.5q-54 0 -93.5 18.5t-65 53t-37.5 83.5t-12 110v729h-160z" />
<glyph unicode="u" horiz-adv-x="1162" d="M189 370v697h126v-698q0 -69 11.5 -123t38.5 -90.5t70.5 -56t107.5 -19.5q47 0 93.5 18.5t85.5 47t67.5 63.5t40.5 67v791h126v-873q0 -14 3 -32t9 -37.5t15.5 -38t24.5 -31.5l-64 -74q-43 29 -69.5 75.5t-33.5 97.5q-27 -38 -62.5 -70.5t-77.5 -55.5t-89.5 -36 t-97.5 -13q-87 0 -149 28t-101 79.5t-57 123.5t-18 160z" />
<glyph unicode="v" horiz-adv-x="962" d="M56 1067h133l267 -806l27 -102h5l26 102q66 203 129.5 404.5t129.5 401.5h133l-376 -1067h-94z" />
<glyph unicode="w" horiz-adv-x="1489" d="M66 1067h132l208 -763q3 -13 6 -31t6.5 -36.5t6.5 -36.5t6 -31h6l29 134l233 764h98l231 -765l27 -136h5l26 136l208 765h129l-317 -1067h-96l-232 782l-27 116h-2l-29 -116l-241 -782h-97z" />
<glyph unicode="x" horiz-adv-x="876" d="M28 0l339 542l-318 525h144l243 -439l244 439h145l-325 -525l348 -542h-145l-273 453l-256 -453h-146z" />
<glyph unicode="y" horiz-adv-x="962" d="M56 1067h133l267 -805l26 -102h6l25 102q66 202 129.5 403t130.5 402h133l-434 -1243q-19 -56 -41 -104t-51.5 -83t-69 -55t-92.5 -20q-16 0 -47 3t-59 11l13 96q13 -3 35 -6t45 -3q29 0 52 12t43 37.5t38.5 66.5t39.5 99l50 139z" />
<glyph unicode="z" horiz-adv-x="894" d="M76 0v84l572 889h-563v94h712v-83l-575 -890h608v-94h-754z" />
<glyph unicode="{" horiz-adv-x="678" d="M87 611v92q51 0 92.5 23.5t70.5 65t45 98.5t16 125v125q0 79 9.5 159t40 149.5t87.5 124.5t151 84l24 -77q-55 -24 -93 -57.5t-61 -84.5t-33.5 -123.5t-10.5 -174.5v-112q0 -136 -49.5 -231.5t-151.5 -138.5q100 -38 150.5 -133t50.5 -231v-113q0 -102 10 -176t33.5 -127 t62 -88t95.5 -59l-27 -78q-94 29 -150.5 84.5t-87 126t-40.5 150.5t-10 160v118q0 69 -15.5 127t-44 101t-70.5 67t-94 24z" />
<glyph unicode="|" horiz-adv-x="533" d="M212 -419v2145h110v-2145h-110z" />
<glyph unicode="}" horiz-adv-x="678" d="M53 1578l26 78q94 -30 151 -84.5t87.5 -124t40 -149t9.5 -158.5v-125q0 -68 15.5 -125t45 -98.5t71 -65t93.5 -23.5v-92q-52 0 -93.5 -24t-71 -67t-45 -101t-15.5 -127v-118q0 -53 -4 -107t-15 -105.5t-31 -99t-52 -87.5t-77.5 -72t-108.5 -51l-24 77q56 24 94 59 t61 87.5t33 127t10 178.5v112q0 131 50.5 225.5t150.5 137.5q-102 38 -151.5 134t-49.5 237v113q0 100 -10 172t-33.5 123.5t-62 85t-94.5 57.5z" />
<glyph unicode="~" horiz-adv-x="1326" d="M149 491q0 55 19.5 108t55.5 94.5t86 66.5t111 25q42 0 77.5 -10.5t69 -30t67.5 -47t73 -62.5q30 -27 55 -48t48.5 -35t47.5 -21.5t51 -7.5q36 0 68 17t56.5 46t38.5 68.5t14 84.5l90 -12q0 -59 -19.5 -114.5t-55.5 -98t-86 -68.5t-110 -26q-42 0 -76.5 9.5t-67.5 28.5 t-67 47t-75 66q-30 27 -55.5 47.5t-49 35t-47 21.5t-48.5 7q-38 0 -70.5 -15t-56.5 -42t-38 -64.5t-15 -82.5z" />
<glyph unicode="&#xa1;" horiz-adv-x="539" d="M201 -389l23 1052h91l23 -1052h-137zM204 918v149h132v-149h-132z" />
<glyph unicode="&#xa2;" horiz-adv-x="943" d="M136 713v55q0 105 23.5 195.5t69.5 159.5t115.5 112t161.5 54v205h111v-203q79 -7 144.5 -35.5t108.5 -67.5l-42 -82q-50 42 -113 64.5t-137 22.5t-132.5 -30.5t-99 -87t-62 -136.5t-22.5 -180v-37q0 -101 21.5 -182t62 -138t99.5 -88t133 -31t137 22t113 64l42 -80 q-44 -40 -111.5 -68.5t-148.5 -35.5v-228h-110v231q-91 12 -159.5 56t-114 113t-68 160t-22.5 196z" />
<glyph unicode="&#xa3;" horiz-adv-x="1115" d="M104 646v98h153l-10 304q0 101 26 180.5t76 135t122.5 84.5t166.5 29q112 0 195.5 -26.5t154.5 -73.5l-44 -84q-24 13 -53.5 28t-65.5 27t-77.5 20t-88.5 8q-73 0 -126.5 -24t-88.5 -67t-52 -103.5t-18 -133.5l10 -304h418v-98h-414l4 -198q-1 -63 -5.5 -114t-14 -93 t-24.5 -77t-37 -66h727v-98h-874v98q25 1 43.5 31t31.5 79t19.5 111.5t7.5 130.5l-3 196h-159z" />
<glyph unicode="&#xa4;" horiz-adv-x="1398" d="M137 609q0 59 11 118t30.5 113.5t46.5 102.5t59 85l-142 153l83 84l141 -153q72 57 156.5 89.5t176.5 32.5t176.5 -33t157.5 -90l142 154l83 -84l-143 -154q32 -37 58.5 -85t45.5 -103t29.5 -113.5t10.5 -116.5t-10.5 -116.5t-29.5 -113t-44.5 -102.5t-56.5 -84l140 -151 l-83 -83l-138 149q-73 -60 -158.5 -93t-179.5 -33t-179 33t-158 92l-137 -148l-83 83l139 150q-32 37 -58 84.5t-45.5 102t-30 113t-10.5 117.5zM244 608q0 -111 38 -206t101.5 -165t145.5 -109.5t170 -39.5q87 0 169 40t145 109.5t101 165t38 206.5t-38 205.5t-101 164.5 t-145 109.5t-169 39.5q-88 0 -170 -40t-145.5 -109.5t-101.5 -164.5t-38 -206z" />
<glyph unicode="&#xa5;" horiz-adv-x="1147" d="M63 1456h138l374 -700l373 700h135l-416 -749h332v-98h-361v-186h361v-98h-361v-325h-127v325h-360v98h360v186h-360v98h329z" />
<glyph unicode="&#xa6;" horiz-adv-x="533" d="M212 -419v994h110v-994h-110zM212 765v961h110v-961h-110z" />
<glyph unicode="&#xa7;" horiz-adv-x="1085" d="M133 -333l52 86q50 -44 98 -71t89.5 -42t75 -20t55.5 -5q70 0 125 23.5t93 61t58 83t20 90.5q0 51 -12 95t-47.5 84.5t-98.5 78.5t-165 77q-82 29 -139 67.5t-93 85t-52 100.5t-16 114q0 47 10 88t26.5 75.5t37.5 63t42 50.5q-43 47 -69.5 108.5t-26.5 139.5 q0 69 24.5 134t72 116t117 81.5t159.5 30.5q41 0 84 -6.5t86.5 -22t88.5 -41.5t91 -66l-47 -86q-27 24 -60.5 46t-71 38t-78 25.5t-82.5 9.5q-65 0 -113.5 -20.5t-81 -55t-49 -79t-16.5 -92.5q0 -46 12.5 -84.5t46 -74t92.5 -70t153 -70.5q104 -39 168 -86t99 -97.5 t47 -101.5t12 -98q0 -51 -12.5 -93.5t-32 -77t-42 -62t-42.5 -48.5q44 -43 72.5 -111.5t28.5 -150.5t-31 -151t-85.5 -119.5t-129 -78.5t-161.5 -28q-98 0 -190 36.5t-192 120.5zM293 588q0 -40 9.5 -76t33.5 -68t65 -60t105 -52q28 -11 60.5 -25t64 -29.5t60 -31 t48.5 -30.5q12 14 27 35.5t28.5 48.5t23 58.5t9.5 64.5q0 77 -56.5 145.5t-174.5 117.5q-42 19 -70.5 32t-51.5 24t-45 22t-51 26q-12 -15 -27 -32.5t-28 -41t-21.5 -55t-8.5 -73.5z" />
<glyph unicode="&#xa8;" horiz-adv-x="829" d="M162 1318v137h127v-137h-127zM541 1318v137h127v-137h-127z" />
<glyph unicode="&#xa9;" horiz-adv-x="1599" d="M128 730q0 102 22 197t63.5 178t101 151.5t134 117.5t163 76t187.5 27t187.5 -27t163.5 -76.5t134.5 -118t101 -151.5t63.5 -178t22 -196t-23 -196.5t-65.5 -179t-102.5 -152.5t-134.5 -118.5t-162 -77t-184.5 -27.5t-184.5 27.5t-162 77t-134.5 119t-102 153t-65 178.5 t-23 196zM234 730q0 -134 41.5 -252t116.5 -205.5t178.5 -138.5t228.5 -51t229 51t179 139t116.5 205.5t41.5 251.5t-42 251t-117 204t-179 137t-228 50q-126 0 -230 -51t-178.5 -138t-115.5 -204t-41 -249zM453 685v81q0 81 21 155t64 130t109.5 89t158.5 33 q84 0 145 -29.5t100 -69.5l-45 -66q-42 37 -87 57t-110 20q-62 0 -107.5 -25t-76 -69.5t-46 -105t-17.5 -132.5v-52q0 -63 15.5 -123t46.5 -107t77 -75.5t108 -28.5q35 0 65 7t54.5 18t44 25t33.5 28l43 -63q-38 -42 -100 -72.5t-143 -30.5q-89 0 -155.5 33.5t-110.5 89.5 t-65.5 129.5t-21.5 153.5z" />
<glyph unicode="&#xaa;" horiz-adv-x="783" d="M80 912q0 57 22 100.5t62.5 73t97.5 44.5t127 15h159v46q0 47 -8 84t-27.5 62.5t-53 38.5t-85.5 13q-66 0 -117.5 -24t-97.5 -60l-31 73q19 16 45.5 34t59 32t71.5 23.5t83 9.5q60 0 109 -15t83 -47.5t53 -84t19 -124.5l1 -340q0 -29 9.5 -58t36.5 -55l-48 -59 q-13 7 -27.5 18.5t-27.5 27t-22.5 35.5t-11.5 45q-15 -27 -40 -50t-56.5 -40.5t-66.5 -28t-69 -11.5q-58 -1 -104 15.5t-78.5 46t-49.5 70.5t-17 90zM181 919q0 -35 12.5 -61.5t34 -44.5t50 -27t61.5 -9t64.5 9.5t59.5 26.5t49.5 41.5t35.5 53.5v155h-158q-56 0 -95.5 -11.5 t-64.5 -31t-37 -46t-12 -55.5z" />
<glyph unicode="&#xab;" horiz-adv-x="920" d="M119 541v18l279 384h93l-237 -394l237 -394h-93zM437 541v18l279 384h93l-237 -394l237 -394h-93z" />
<glyph unicode="&#xac;" horiz-adv-x="1100" d="M146 693v98h763v-414h-112v316h-651z" />
<glyph unicode="&#xad;" horiz-adv-x="642" d="M97 564v98h448v-98h-448z" />
<glyph unicode="&#xae;" horiz-adv-x="1176" d="M126 987q0 111 33.5 205.5t94 164.5t145.5 109.5t188 39.5q111 0 197 -40.5t145.5 -110.5t90 -164.5t30.5 -203.5t-31.5 -204t-91 -165t-145.5 -110t-195 -40q-110 0 -195.5 40.5t-144.5 111t-90 165t-31 202.5zM206 981q0 -84 25 -162.5t73.5 -139t119.5 -97.5t163 -37 q94 0 166 37t120 98.5t72.5 140.5t24.5 163q0 85 -24 166t-72 143.5t-119.5 100.5t-167.5 38q-100 0 -172 -41t-118.5 -106t-68.5 -145.5t-22 -158.5zM405 718v555h202q40 0 73.5 -10.5t58 -30.5t38.5 -50.5t14 -69.5q0 -23 -6 -46.5t-21 -45t-40 -38.5t-64 -25l150 -239 h-104l-120 214q-5 8 -12 12.5t-21 4.5h-59v-231h-89zM494 1015h85q64 0 93.5 24.5t29.5 72.5q0 42 -27 68.5t-81 26.5h-100v-192z" />
<glyph unicode="&#xaf;" horiz-adv-x="813" d="M115 1342v95h588v-95h-588z" />
<glyph unicode="&#xb0;" horiz-adv-x="755" d="M135 1216q0 52 17 99.5t48.5 83.5t77 57t102.5 21q55 0 99.5 -20.5t76 -56t48 -83t16.5 -101.5t-19 -101t-51.5 -81.5t-76.5 -54.5t-93 -20q-52 0 -96.5 20.5t-77.5 55.5t-52 81.5t-19 99.5zM222 1216q0 -35 11 -66.5t31.5 -55t50 -37t65.5 -13.5q35 0 63.5 13.5t48.5 37 t31 55t11 66.5q0 37 -11 69t-31 56t-48.5 37.5t-63.5 13.5q-36 0 -65.5 -14.5t-50 -39t-31.5 -56.5t-11 -66z" />
<glyph unicode="&#xb1;" horiz-adv-x="1120" d="M125 733v98h384v445h115v-445h375v-98h-375v-449h-115v449h-384zM166 48v98h785v-98h-785z" />
<glyph unicode="&#xb2;" horiz-adv-x="686" d="M79 665v85q57 57 115.5 117.5t130.5 130.5q49 51 81.5 87t51 63.5t26 51.5t7.5 52t-10 53t-30 44t-50.5 30.5t-71.5 11.5q-30 0 -59 -6t-55.5 -15.5t-50.5 -21t-43 -23.5q-8 20 -16 37t-16 37q20 13 46 27t57.5 25t68.5 18t80 7q57 0 103 -16.5t78.5 -46t49.5 -70 t17 -89.5q0 -34 -7.5 -64t-25.5 -62.5t-48.5 -69t-77.5 -82.5q-50 -51 -107.5 -103.5t-121.5 -118.5l1 -1h398v-88h-521z" />
<glyph unicode="&#xb3;" horiz-adv-x="699" d="M56 727l29 78q11 -6 32 -16.5t49.5 -21t64.5 -18t77 -8.5q48 0 84.5 12t62 32t38.5 46.5t13 55.5q0 26 -7 52.5t-26 47.5t-52.5 34t-87.5 13h-111v80h111q52 0 82.5 16t46.5 38.5t20.5 47.5t4.5 43q0 23 -8.5 46.5t-28.5 42t-52.5 30.5t-80.5 12q-41 -1 -73.5 -8.5 t-58.5 -18t-45.5 -21.5t-32.5 -19l-32 72q10 7 31 20.5t54 27t76.5 23.5t98.5 10q58 0 105 -14t80 -40.5t51 -65t18 -88.5q0 -22 -4.5 -49.5t-18 -54t-37 -49.5t-61.5 -35q46 -12 73.5 -34.5t42.5 -48.5t19.5 -53t4.5 -46q0 -56 -21 -100.5t-59.5 -76.5t-91.5 -49t-116 -17 q-45 0 -86 7.5t-75 18.5t-60.5 23.5t-42.5 22.5z" />
<glyph unicode="&#xb4;" horiz-adv-x="638" d="M107 1221l265 332h175l-343 -332h-97z" />
<glyph unicode="&#xb5;" horiz-adv-x="1165" d="M192 -417v1484h126v-698q0 -69 11.5 -122.5t38.5 -90.5t70.5 -56t107.5 -19q47 0 93.5 18.5t85.5 47t67.5 63t40.5 66.5v791h126v-873q0 -14 3 -32t9 -37t15.5 -37.5t24.5 -31.5l-64 -74q-44 29 -70.5 75.5t-32.5 97.5q-27 -38 -62.5 -70.5t-77.5 -55.5t-89.5 -36 t-97.5 -13q-67 0 -115.5 16.5t-83.5 46.5v-460h-126z" />
<glyph unicode="&#xb6;" horiz-adv-x="946" d="M64 988q0 99 29 184.5t90 148.5t154 99t221 36h176v-1456h-125v1361h-110v-841q-90 1 -169 36.5t-138.5 97.5t-93.5 147.5t-34 186.5z" />
<glyph unicode="&#xb7;" horiz-adv-x="544" d="M203 648v151h132v-151h-132z" />
<glyph unicode="&#xb8;" horiz-adv-x="533" d="M139 -419q37 0 69.5 7.5t56.5 23t38 39.5t14 57t-12 55.5t-33 37.5t-50 22.5t-64 10.5l52 186h94l-35 -119q76 -10 118 -56.5t42 -123.5q0 -103 -72.5 -159t-214.5 -56z" />
<glyph unicode="&#xb9;" horiz-adv-x="533" d="M81 1433l178 44h71v-730h125v-82h-363v82h140v632l-140 -14z" />
<glyph unicode="&#xba;" horiz-adv-x="794" d="M89 1062v42q0 88 22 157t62.5 117t98 73.5t127.5 25.5q68 0 124.5 -24.5t97 -72t62.5 -117t22 -159.5v-42q0 -90 -22 -159t-62.5 -116.5t-96.5 -72t-125 -24.5q-65 0 -121.5 23.5t-98.5 70.5t-66 116.5t-24 161.5zM195 1062q0 -140 55 -213.5t149 -73.5q96 0 148.5 72 t52.5 215v42q0 72 -15 126t-41.5 90t-63.5 53.5t-81 17.5q-42 0 -79 -18t-65 -53.5t-44 -89.5t-16 -126v-42z" />
<glyph unicode="&#xbb;" horiz-adv-x="923" d="M111 155l237 394l-237 394h93l279 -384v-18l-279 -386h-93zM432 155l237 394l-237 394h92l280 -384v-18l-280 -386h-92z" />
<glyph unicode="&#xbc;" horiz-adv-x="1435" d="M124 1433l178 44h70v-730h126v-82h-364v82h140v632l-140 -14zM320 161l661 1156l88 -47l-663 -1155zM701 186v65l400 557h107v-540h126v-82h-126v-186h-102v186h-405zM813 268h293v414z" />
<glyph unicode="&#xbd;" horiz-adv-x="1477" d="M124 1433l178 44h70v-730h126v-82h-364v82h140v632l-140 -14zM324 161l661 1156l88 -47l-663 -1155zM860 1v84q57 58 115.5 118t130.5 131q49 51 81.5 87t51 63.5t26 51.5t7.5 52q0 27 -10 52t-30 44t-50.5 30.5t-71.5 11.5q-30 0 -59 -6t-55.5 -15.5t-50.5 -21 t-43 -22.5q-8 19 -16 36.5t-16 36.5q20 13 46 27t57.5 25.5t68.5 18.5t80 7q57 0 103 -16.5t78.5 -46t49.5 -70t17 -89.5q0 -34 -7.5 -64.5t-25.5 -62.5t-48.5 -69t-77.5 -83q-50 -51 -107.5 -103.5t-121.5 -118.5h2h397v-88h-521z" />
<glyph unicode="&#xbe;" horiz-adv-x="1535" d="M93 727l29 78q11 -6 32 -16.5t50 -21t65 -18t77 -8.5q47 0 84 11.5t62 31.5t38 46.5t13 55.5q0 26 -7 52.5t-26 47.5t-52.5 34.5t-87.5 13.5h-111v80h111q52 0 82.5 16t46.5 38.5t20.5 47.5t4.5 43q0 23 -8.5 46.5t-28.5 42t-52.5 30.5t-80.5 12q-41 -1 -73.5 -8.5 t-58.5 -18t-45 -21.5t-32 -19l-33 72q10 7 31 20.5t54 27t76.5 23.5t98.5 10q58 0 105 -14t80.5 -40.5t51.5 -65t18 -88.5q0 -22 -5 -49.5t-18 -54t-37 -49.5t-61 -35q46 -12 73.5 -34.5t42 -48.5t19 -53t4.5 -46q0 -56 -21 -100.5t-59.5 -76.5t-91 -49t-115.5 -17 q-45 0 -86 7.5t-75.5 18.5t-61 23.5t-42.5 22.5zM420 161l661 1156l88 -47l-663 -1155zM801 186v65l400 557h107v-540h126v-82h-126v-186h-102v186h-405zM913 268h293v414z" />
<glyph unicode="&#xbf;" horiz-adv-x="846" d="M79 -62q0 68 16.5 128.5t47.5 118.5t76.5 116.5t103.5 122.5q28 29 43 53.5t22 51.5t8 59t1 76h125q-1 -44 -2 -75t-5 -56t-13 -47t-26 -47t-43.5 -55.5t-64.5 -72.5q-46 -54 -77 -99t-49.5 -86t-26.5 -82.5t-8 -88.5q0 -57 14.5 -105t44 -83t75 -55t107.5 -20 q56 0 105 16t87.5 37.5t65 43.5t38.5 34l48 -83q-21 -20 -52.5 -46t-74.5 -49t-98.5 -39t-124.5 -16q-80 0 -146.5 23t-114.5 67.5t-75 109t-27 148.5zM392 918v149h133v-149h-133z" />
<glyph unicode="&#xc0;" horiz-adv-x="1212" d="M37 0l518 1456h104l516 -1456h-134l-141 408h-588l-137 -408h-138zM179 1878h212l347 -293h-112zM345 506h522l-221 648l-37 133h-6l-37 -131z" />
<glyph unicode="&#xc1;" horiz-adv-x="1212" d="M37 0l518 1456h104l516 -1456h-134l-141 408h-588l-137 -408h-138zM345 506h522l-221 648l-37 133h-6l-37 -131zM479 1585l346 293h212l-446 -293h-112z" />
<glyph unicode="&#xc2;" horiz-adv-x="1212" d="M37 0l518 1456h104l516 -1456h-134l-141 408h-588l-137 -408h-138zM261 1587l295 292h98l296 -292h-99l-246 184l-246 -184h-98zM345 506h522l-221 648l-37 133h-6l-37 -131z" />
<glyph unicode="&#xc3;" horiz-adv-x="1212" d="M37 0l518 1456h104l516 -1456h-134l-141 408h-588l-137 -408h-138zM298 1644q0 42 14.5 76.5t39 59.5t56 39t66.5 14q49 0 86.5 -14.5t69 -32t59 -32t57.5 -14.5q41 0 69 29t28 77l69 -16q0 -42 -14 -77t-38 -60.5t-56 -39.5t-68 -14q-45 0 -80 14.5t-65.5 32t-60 32 t-63.5 14.5q-24 0 -42.5 -10t-30.5 -25t-18 -33t-6 -34zM345 506h522l-221 648l-37 133h-6l-37 -131z" />
<glyph unicode="&#xc4;" horiz-adv-x="1212" d="M37 0l518 1456h104l516 -1456h-134l-141 408h-588l-137 -408h-138zM345 506h522l-221 648l-37 133h-6l-37 -131zM361 1667v138h126v-138h-126zM723 1667v138h127v-138h-127z" />
<glyph unicode="&#xc5;" horiz-adv-x="1212" d="M38 0l518 1456h104l516 -1456h-134l-141 408h-588l-137 -408h-138zM346 506h522l-221 648l-37 133h-6l-37 -131zM412 1695q0 40 15 74.5t41.5 60.5t61.5 41t76 15t76.5 -15t61 -40.5t40 -60.5t14.5 -75q0 -41 -14.5 -75t-40.5 -59t-61 -39t-76 -14t-76.5 13.5t-61.5 38.5 t-41 59.5t-15 75.5zM494 1695q0 -24 8.5 -45.5t23.5 -37.5t36 -25.5t45 -9.5q23 0 43 9t34.5 25t23 37.5t8.5 46.5t-8.5 47t-23 38.5t-34.5 26t-43 9.5q-24 0 -44.5 -9.5t-36 -26t-24 -38.5t-8.5 -47z" />
<glyph unicode="&#xc6;" horiz-adv-x="1792" d="M-33 0l861 1456h846v-98h-672l23 -550h568v-98h-561l24 -612h662v-98h-786l-15 408h-569l-235 -408h-146zM404 506h508q-8 206 -13 349t-8 237t-4 147t-1.5 79t-0.5 32v7z" />
<glyph unicode="&#xc7;" horiz-adv-x="1092" d="M135 670v82q0 161 33 294.5t99 229t166.5 148.5t235.5 53q71 0 126.5 -14t97 -33.5t70 -41t46.5 -37.5l-44 -85q-18 14 -45 33t-64 35.5t-85 28t-109 11.5q-81 0 -153.5 -35t-128 -106.5t-88 -180.5t-32.5 -257v-107q0 -157 37 -271t96 -188.5t133 -110t148 -35.5 q58 0 104.5 11.5t83.5 28t63.5 35t43.5 32.5l43 -84q-28 -26 -65 -49t-82 -40t-97.5 -27t-112.5 -10l-23 -82q76 -9 118 -55.5t42 -123.5q0 -103 -72.5 -159.5t-214.5 -56.5l-3 77q37 0 69.5 7t56.5 22.5t38 39t14 56.5t-12 56t-33 38t-50 22.5t-64 10.5l44 158 q-92 18 -170.5 69t-136 135.5t-90.5 203t-33 272.5z" />
<glyph unicode="&#xc8;" horiz-adv-x="1150" d="M212 0v1456h843v-98h-717v-550h620v-98h-620v-612h730v-98h-856zM240 1878h212l347 -293h-112z" />
<glyph unicode="&#xc9;" horiz-adv-x="1150" d="M212 0v1456h843v-98h-717v-550h620v-98h-620v-612h730v-98h-856zM472 1585l346 293h212l-446 -293h-112z" />
<glyph unicode="&#xca;" horiz-adv-x="1150" d="M212 0v1456h843v-98h-717v-550h620v-98h-620v-612h730v-98h-856zM285 1587l295 292h98l296 -292h-99l-246 184l-246 -184h-98z" />
<glyph unicode="&#xcb;" horiz-adv-x="1150" d="M212 0v1456h843v-98h-717v-550h620v-98h-620v-612h730v-98h-856zM370 1667v138h126v-138h-126zM732 1667v138h127v-138h-127z" />
<glyph unicode="&#xcc;" horiz-adv-x="550" d="M-141 1878h212l347 -293h-112zM212 0v1456h126v-1456h-126z" />
<glyph unicode="&#xcd;" horiz-adv-x="550" d="M136 1585l346 293h212l-446 -293h-112zM212 0v1456h126v-1456h-126z" />
<glyph unicode="&#xce;" horiz-adv-x="550" d="M-71 1587l295 292h98l296 -292h-99l-246 184l-246 -184h-98zM212 0v1456h126v-1456h-126z" />
<glyph unicode="&#xcf;" horiz-adv-x="550" d="M31 1667v138h126v-138h-126zM212 0v1456h126v-1456h-126zM393 1667v138h127v-138h-127z" />
<glyph unicode="&#xd0;" horiz-adv-x="1356" d="M82 690v98h166v668h358q74 0 149 -14t143.5 -46.5t127.5 -84.5t102.5 -127t68.5 -176t25 -230v-94q0 -158 -41 -285t-120 -215.5t-193.5 -136t-261.5 -47.5h-358v690h-166zM374 98h252q101 0 187 37.5t149 111.5t99 183.5t36 253.5v94q0 145 -36.5 254t-101 181.5 t-153.5 108.5t-194 36h-238v-570h279v-98h-279v-592z" />
<glyph unicode="&#xd1;" horiz-adv-x="1399" d="M212 0v1456h126l730 -1249q0 -1 1 -1h1l-10 673v577h126v-1456h-124l-729 1254q-1 -1 -3 -1l8 -652v-601h-126zM389 1644q0 42 14.5 76.5t39 59.5t56 39t66.5 14q49 0 86.5 -14.5t69 -32t59 -32t57.5 -14.5q41 0 69 29t28 77l69 -16q0 -42 -14 -77t-38 -60.5t-56 -39.5 t-68 -14q-45 0 -80 14.5t-65.5 32t-60 32t-63.5 14.5q-24 0 -42.5 -10t-30.5 -25t-18 -33t-6 -34z" />
<glyph unicode="&#xd2;" horiz-adv-x="1334" d="M135 654v113q0 169 36.5 301t105.5 223t167 138.5t221 47.5q121 0 219.5 -47t168.5 -136t108 -218.5t38 -295.5v-126q0 -162 -39.5 -287.5t-110 -211.5t-168.5 -131t-216 -45q-117 0 -214.5 45t-167.5 131t-109 211.5t-39 287.5zM260 681q0 -135 27.5 -246t79.5 -190 t127 -122.5t171 -43.5q94 0 169.5 40t128.5 115.5t82 183.5t29 244v115q0 149 -31 261.5t-85.5 187.5t-129.5 113t-163 38t-162 -38t-128 -113t-84.5 -187.5t-30.5 -261.5v-96zM280 1878h212l347 -293h-112z" />
<glyph unicode="&#xd3;" horiz-adv-x="1334" d="M135 654v113q0 169 36.5 301t105.5 223t167 138.5t221 47.5q121 0 219.5 -47t168.5 -136t108 -218.5t38 -295.5v-126q0 -162 -39.5 -287.5t-110 -211.5t-168.5 -131t-216 -45q-117 0 -214.5 45t-167.5 131t-109 211.5t-39 287.5zM260 681q0 -135 27.5 -246t79.5 -190 t127 -122.5t171 -43.5q94 0 169.5 40t128.5 115.5t82 183.5t29 244v115q0 149 -31 261.5t-85.5 187.5t-129.5 113t-163 38t-162 -38t-128 -113t-84.5 -187.5t-30.5 -261.5v-96zM511 1585l346 293h212l-446 -293h-112z" />
<glyph unicode="&#xd4;" horiz-adv-x="1334" d="M135 654v113q0 169 36.5 301t105.5 223t167 138.5t221 47.5q121 0 219.5 -47t168.5 -136t108 -218.5t38 -295.5v-126q0 -162 -39.5 -287.5t-110 -211.5t-168.5 -131t-216 -45q-117 0 -214.5 45t-167.5 131t-109 211.5t-39 287.5zM260 681q0 -135 27.5 -246t79.5 -190 t127 -122.5t171 -43.5q94 0 169.5 40t128.5 115.5t82 183.5t29 244v115q0 149 -31 261.5t-85.5 187.5t-129.5 113t-163 38t-162 -38t-128 -113t-84.5 -187.5t-30.5 -261.5v-96zM323 1587l295 292h98l296 -292h-99l-246 184l-246 -184h-98z" />
<glyph unicode="&#xd5;" horiz-adv-x="1334" d="M135 654v113q0 169 36.5 301t105.5 223t167 138.5t221 47.5q121 0 219.5 -47t168.5 -136t108 -218.5t38 -295.5v-126q0 -162 -39.5 -287.5t-110 -211.5t-168.5 -131t-216 -45q-117 0 -214.5 45t-167.5 131t-109 211.5t-39 287.5zM260 681q0 -135 27.5 -246t79.5 -190 t127 -122.5t171 -43.5q94 0 169.5 40t128.5 115.5t82 183.5t29 244v115q0 149 -31 261.5t-85.5 187.5t-129.5 113t-163 38t-162 -38t-128 -113t-84.5 -187.5t-30.5 -261.5v-96zM360 1644q0 42 14.5 76.5t39 59.5t56 39t66.5 14q49 0 86.5 -14.5t69 -32t59 -32t57.5 -14.5 q41 0 69 29t28 77l69 -16q0 -42 -14 -77t-38 -60.5t-56 -39.5t-68 -14q-45 0 -80 14.5t-65.5 32t-60 32t-63.5 14.5q-24 0 -42.5 -10t-30.5 -25t-18 -33t-6 -34z" />
<glyph unicode="&#xd6;" horiz-adv-x="1334" d="M135 654v113q0 169 36.5 301t105.5 223t167 138.5t221 47.5q121 0 219.5 -47t168.5 -136t108 -218.5t38 -295.5v-126q0 -162 -39.5 -287.5t-110 -211.5t-168.5 -131t-216 -45q-117 0 -214.5 45t-167.5 131t-109 211.5t-39 287.5zM260 681q0 -135 27.5 -246t79.5 -190 t127 -122.5t171 -43.5q94 0 169.5 40t128.5 115.5t82 183.5t29 244v115q0 149 -31 261.5t-85.5 187.5t-129.5 113t-163 38t-162 -38t-128 -113t-84.5 -187.5t-30.5 -261.5v-96zM426 1667v138h126v-138h-126zM788 1667v138h127v-138h-127z" />
<glyph unicode="&#xd7;" horiz-adv-x="1096" d="M133 326l332 358l-330 350l77 78l333 -350l334 350l77 -76l-332 -353l335 -357l-77 -79l-337 360l-334 -359z" />
<glyph unicode="&#xd8;" horiz-adv-x="1334" d="M135 654v113q0 169 36.5 301t105.5 223t167 138.5t221 47.5q83 0 155.5 -23.5t132.5 -68.5l101 200h124l-139 -274q73 -90 116.5 -225t43.5 -306v-126q0 -162 -39.5 -287.5t-110 -211.5t-168.5 -131t-216 -45q-75 0 -142.5 19t-124.5 56l-97 -191h-128l135 263 q-79 86 -126 220.5t-47 307.5zM260 681q0 -135 27.5 -246t79.5 -190t127 -122.5t171 -43.5q94 0 169.5 40t128.5 115.5t82 183.5t29 244v115q0 149 -31 261.5t-85.5 187.5t-129.5 113t-163 38t-162 -38t-128 -113t-84.5 -187.5t-30.5 -261.5v-96z" />
<glyph unicode="&#xd9;" horiz-adv-x="1363" d="M203 441v1015h126v-1015q0 -89 25.5 -157t71 -113.5t109.5 -68.5t141 -23q78 0 144 22.5t113.5 67.5t74 113t26.5 159v1015h126v-1015q0 -112 -35 -198t-98.5 -144.5t-153 -89t-197.5 -30.5q-103 0 -190 30t-150 88.5t-98 145t-35 198.5zM275 1878h212l347 -293h-112z " />
<glyph unicode="&#xda;" horiz-adv-x="1363" d="M203 441v1015h126v-1015q0 -89 25.5 -157t71 -113.5t109.5 -68.5t141 -23q78 0 144 22.5t113.5 67.5t74 113t26.5 159v1015h126v-1015q0 -112 -35 -198t-98.5 -144.5t-153 -89t-197.5 -30.5q-103 0 -190 30t-150 88.5t-98 145t-35 198.5zM533 1585l346 293h212l-446 -293 h-112z" />
<glyph unicode="&#xdb;" horiz-adv-x="1363" d="M203 441v1015h126v-1015q0 -89 25.5 -157t71 -113.5t109.5 -68.5t141 -23q78 0 144 22.5t113.5 67.5t74 113t26.5 159v1015h126v-1015q0 -112 -35 -198t-98.5 -144.5t-153 -89t-197.5 -30.5q-103 0 -190 30t-150 88.5t-98 145t-35 198.5zM337 1587l295 292h98l296 -292 h-99l-246 184l-246 -184h-98z" />
<glyph unicode="&#xdc;" horiz-adv-x="1363" d="M203 441v1015h126v-1015q0 -89 25.5 -157t71 -113.5t109.5 -68.5t141 -23q78 0 144 22.5t113.5 67.5t74 113t26.5 159v1015h126v-1015q0 -112 -35 -198t-98.5 -144.5t-153 -89t-197.5 -30.5q-103 0 -190 30t-150 88.5t-98 145t-35 198.5zM437 1667v138h126v-138h-126z M799 1667v138h127v-138h-127z" />
<glyph unicode="&#xdd;" horiz-adv-x="1067" d="M-6 1456h149l398 -814l391 814h140l-472 -937v-519h-127v530zM391 1585l346 293h212l-446 -293h-112z" />
<glyph unicode="&#xde;" horiz-adv-x="1152" d="M212 0v1456h126v-298h303q109 0 192.5 -31.5t140 -88.5t85.5 -135.5t29 -171.5q0 -89 -29 -165t-85.5 -131t-140 -86t-192.5 -31h-303v-318h-126zM338 416h303q79 0 139.5 24t101 66t61 99.5t20.5 124.5q0 73 -21 134t-61.5 104.5t-100.5 67.5t-139 24h-303v-644z" />
<glyph unicode="&#xdf;" horiz-adv-x="1160" d="M196 0v1020q0 115 20 209.5t63.5 161.5t111 104t162.5 37q79 0 139.5 -25t100.5 -67t60.5 -97.5t20.5 -115.5q0 -46 -11.5 -86t-28.5 -76.5t-37.5 -69.5t-37.5 -64t-28.5 -61.5t-11.5 -61.5q0 -25 12 -50t34.5 -52t54.5 -58t72 -67q81 -74 126 -144.5t45 -148.5 q0 -71 -22 -128.5t-63.5 -97.5t-101 -61.5t-134.5 -21.5q-44 0 -87 8t-80.5 20t-68 27.5t-51.5 30.5l27 97q16 -12 42 -26t58 -26.5t68 -21t73 -8.5q57 0 97.5 16t67 43.5t38.5 64.5t12 80q0 59 -44.5 116.5t-130.5 134.5q-43 37 -75 70t-53 65t-31.5 65t-10.5 70 q0 32 11.5 62.5t29 61t37.5 62.5t37.5 65.5t29 70.5t11.5 78q0 57 -14.5 100t-40.5 71.5t-62 43t-78 14.5q-111 0 -171.5 -93t-60.5 -270v-1071h-126z" />
<glyph unicode="&#xe0;" d="M94 290q0 77 29.5 137t84 101t133.5 62t178 21h227v124q0 55 -13.5 102t-43 81.5t-76 53.5t-112.5 18q-44 0 -86 -9.5t-79.5 -25t-69.5 -34.5t-56 -39l-47 78q20 17 52.5 39.5t78 42t104.5 33t132 13.5q79 0 142 -23t107.5 -67.5t68.5 -110.5t24 -152v-541 q0 -12 2.5 -30.5t8.5 -38t16 -38t24 -31.5l-63 -75q-36 26 -66 68.5t-38 106.5q-27 -40 -63.5 -72.5t-81 -56t-95 -36t-104.5 -12.5q-69 0 -127.5 21t-100.5 61t-66 97.5t-24 131.5zM219 290q0 -45 14 -82.5t41.5 -64.5t68 -42t93.5 -15q47 0 95.5 15.5t91.5 42.5t75.5 65 t47.5 83v225h-227q-78 0 -134.5 -18t-93.5 -48.5t-54.5 -72t-17.5 -88.5zM241 1561h175l266 -332h-97z" />
<glyph unicode="&#xe1;" d="M94 290q0 77 29.5 137t84 101t133.5 62t178 21h227v124q0 55 -13.5 102t-43 81.5t-76 53.5t-112.5 18q-44 0 -86 -9.5t-79.5 -25t-69.5 -34.5t-56 -39l-47 78q20 17 52.5 39.5t78 42t104.5 33t132 13.5q79 0 142 -23t107.5 -67.5t68.5 -110.5t24 -152v-541 q0 -12 2.5 -30.5t8.5 -38t16 -38t24 -31.5l-63 -75q-36 26 -66 68.5t-38 106.5q-27 -40 -63.5 -72.5t-81 -56t-95 -36t-104.5 -12.5q-69 0 -127.5 21t-100.5 61t-66 97.5t-24 131.5zM219 290q0 -45 14 -82.5t41.5 -64.5t68 -42t93.5 -15q47 0 95.5 15.5t91.5 42.5t75.5 65 t47.5 83v225h-227q-78 0 -134.5 -18t-93.5 -48.5t-54.5 -72t-17.5 -88.5zM383 1228l265 332h175l-343 -332h-97z" />
<glyph unicode="&#xe2;" d="M94 290q0 77 29.5 137t84 101t133.5 62t178 21h227v124q0 55 -13.5 102t-43 81.5t-76 53.5t-112.5 18q-44 0 -86 -9.5t-79.5 -25t-69.5 -34.5t-56 -39l-47 78q20 17 52.5 39.5t78 42t104.5 33t132 13.5q79 0 142 -23t107.5 -67.5t68.5 -110.5t24 -152v-541 q0 -12 2.5 -30.5t8.5 -38t16 -38t24 -31.5l-63 -75q-36 26 -66 68.5t-38 106.5q-27 -40 -63.5 -72.5t-81 -56t-95 -36t-104.5 -12.5q-69 0 -127.5 21t-100.5 61t-66 97.5t-24 131.5zM219 290q0 -45 14 -82.5t41.5 -64.5t68 -42t93.5 -15q47 0 95.5 15.5t91.5 42.5t75.5 65 t47.5 83v225h-227q-78 0 -134.5 -18t-93.5 -48.5t-54.5 -72t-17.5 -88.5zM225 1230l266 331h85l271 -331h-99l-215 206l-210 -206h-98z" />
<glyph unicode="&#xe3;" d="M94 290q0 77 29.5 137t84 101t133.5 62t178 21h227v124q0 55 -13.5 102t-43 81.5t-76 53.5t-112.5 18q-44 0 -86 -9.5t-79.5 -25t-69.5 -34.5t-56 -39l-47 78q20 17 52.5 39.5t78 42t104.5 33t132 13.5q79 0 142 -23t107.5 -67.5t68.5 -110.5t24 -152v-541 q0 -12 2.5 -30.5t8.5 -38t16 -38t24 -31.5l-63 -75q-36 26 -66 68.5t-38 106.5q-27 -40 -63.5 -72.5t-81 -56t-95 -36t-104.5 -12.5q-69 0 -127.5 21t-100.5 61t-66 97.5t-24 131.5zM217 1305q0 42 14.5 76.5t39 60t56 39.5t66.5 14q49 0 88.5 -14.5t73 -32.5t63.5 -32.5 t60 -14.5q42 0 70.5 29t28.5 77l69 -16q0 -42 -14.5 -77.5t-38.5 -61t-56.5 -39.5t-68.5 -14q-45 0 -82 14.5t-70 32.5t-64.5 32.5t-65.5 14.5q-24 0 -42.5 -10t-30.5 -25t-18 -33t-6 -34zM219 290q0 -45 14 -82.5t41.5 -64.5t68 -42t93.5 -15q47 0 95.5 15.5t91.5 42.5 t75.5 65t47.5 83v225h-227q-78 0 -134.5 -18t-93.5 -48.5t-54.5 -72t-17.5 -88.5z" />
<glyph unicode="&#xe4;" d="M94 290q0 77 29.5 137t84 101t133.5 62t178 21h227v124q0 55 -13.5 102t-43 81.5t-76 53.5t-112.5 18q-44 0 -86 -9.5t-79.5 -25t-69.5 -34.5t-56 -39l-47 78q20 17 52.5 39.5t78 42t104.5 33t132 13.5q79 0 142 -23t107.5 -67.5t68.5 -110.5t24 -152v-541 q0 -12 2.5 -30.5t8.5 -38t16 -38t24 -31.5l-63 -75q-36 26 -66 68.5t-38 106.5q-27 -40 -63.5 -72.5t-81 -56t-95 -36t-104.5 -12.5q-69 0 -127.5 21t-100.5 61t-66 97.5t-24 131.5zM219 290q0 -45 14 -82.5t41.5 -64.5t68 -42t93.5 -15q47 0 95.5 15.5t91.5 42.5t75.5 65 t47.5 83v225h-227q-78 0 -134.5 -18t-93.5 -48.5t-54.5 -72t-17.5 -88.5zM278 1326v138h127v-138h-127zM657 1326v138h127v-138h-127z" />
<glyph unicode="&#xe5;" d="M94 290q0 77 29.5 137t84 101t133.5 62t178 21h227v124q0 55 -13.5 102t-43 81.5t-76 53.5t-112.5 18q-44 0 -86 -9.5t-79.5 -25t-69.5 -34.5t-56 -39l-47 78q20 17 52.5 39.5t78 42t104.5 33t132 13.5q79 0 142 -23t107.5 -67.5t68.5 -110.5t24 -152v-541 q0 -12 2.5 -30.5t8.5 -38t16 -38t24 -31.5l-63 -75q-36 26 -66 68.5t-38 106.5q-27 -40 -63.5 -72.5t-81 -56t-95 -36t-104.5 -12.5q-69 0 -127.5 21t-100.5 61t-66 97.5t-24 131.5zM219 290q0 -45 14 -82.5t41.5 -64.5t68 -42t93.5 -15q47 0 95.5 15.5t91.5 42.5t75.5 65 t47.5 83v225h-227q-78 0 -134.5 -18t-93.5 -48.5t-54.5 -72t-17.5 -88.5zM339 1384q0 40 15 74.5t41.5 60.5t61.5 41t76 15t76.5 -15t61 -40.5t40 -60.5t14.5 -75q0 -41 -14.5 -75t-40.5 -59t-61 -39t-76 -14t-76.5 13.5t-61.5 38.5t-41 59.5t-15 75.5zM420 1384 q0 -24 8.5 -45.5t23.5 -37.5t36 -25.5t45 -9.5q48 0 78.5 33.5t30.5 84.5q0 25 -8 47t-22.5 38.5t-34.5 26t-44 9.5t-44.5 -9.5t-36 -26t-24 -38.5t-8.5 -47z" />
<glyph unicode="&#xe6;" horiz-adv-x="1677" d="M94 290q0 77 29.5 137t84 101t133.5 62t178 21h227v131q0 54 -13.5 99.5t-43 79t-76 52t-112.5 17.5q-44 0 -86 -9.5t-79.5 -25t-69.5 -34.5t-56 -39l-47 78q20 17 52.5 39t78 42t104.5 33.5t132 13.5q117 0 196 -46.5t114 -143.5q25 42 58 76.5t74.5 60t91 39.5 t108.5 14q107 0 181 -37t119.5 -101t66 -150.5t20.5 -185.5v-97h-686h-1q0 -93 22 -173t67 -139t113.5 -92t161.5 -32q75 1 144 24.5t125 65.5l37 -80q-60 -50 -151.5 -80.5t-198.5 -30.5q-132 0 -233.5 63.5t-155.5 180.5q-26 -48 -63 -92.5t-86 -78.5t-108 -54t-128 -20 q-71 0 -130.5 21t-102.5 61t-67 97.5t-24 131.5zM219 290q0 -45 14 -82.5t41.5 -64.5t68 -42t93.5 -15q47 0 95.5 15.5t91.5 43t75.5 65.5t47.5 84v223h-227q-78 0 -134.5 -18t-93.5 -48.5t-54.5 -72t-17.5 -88.5zM873 611h562v49q0 68 -15 128t-47 105t-82.5 71.5 t-122.5 26.5q-71 0 -125 -32t-91 -85.5t-56.5 -122t-22.5 -140.5z" />
<glyph unicode="&#xe7;" horiz-adv-x="920" d="M126 510v54q0 114 27.5 210.5t81.5 166t135 109t189 39.5q95 0 172 -28t129 -75l-42 -84q-50 42 -113 64.5t-137 22.5t-132.5 -30.5t-99 -86.5t-62 -136t-22.5 -180v-38q0 -101 21.5 -182t62 -138t99.5 -88t133 -31t137 22t113 64l42 -79q-56 -52 -135 -78t-167 -28 l-23 -82q76 -9 118 -55.5t42 -123.5q0 -103 -72.5 -159.5t-214.5 -56.5l-3 77q37 0 69.5 7t56.5 22.5t38 39t14 56.5t-12 56t-33 38t-50 22.5t-64 10.5l43 156q-86 16 -149.5 61t-106.5 113.5t-64 157t-21 190.5z" />
<glyph unicode="&#xe8;" horiz-adv-x="1056" d="M126 492v77q0 93 25.5 185.5t78 167t132.5 121t189 46.5q108 0 181.5 -37.5t119.5 -102t66 -152t20 -186.5v-97h-686q0 -93 22 -172.5t66.5 -138t113 -91.5t161.5 -32q73 2 143.5 25.5t125.5 65.5l37 -81q-60 -51 -151.5 -81t-197.5 -30q-114 0 -198 43.5t-139 115.5 t-82 164.5t-27 189.5zM238 1562h175l265 -332h-97zM254 608h560v49q0 68 -15 129t-47 106.5t-82.5 72.5t-121.5 27q-70 0 -123 -31.5t-89.5 -84.5t-57 -122.5t-24.5 -145.5z" />
<glyph unicode="&#xe9;" horiz-adv-x="1056" d="M126 492v77q0 93 25.5 185.5t78 167t132.5 121t189 46.5q108 0 181.5 -37.5t119.5 -102t66 -152t20 -186.5v-97h-686q0 -93 22 -172.5t66.5 -138t113 -91.5t161.5 -32q73 2 143.5 25.5t125.5 65.5l37 -81q-60 -51 -151.5 -81t-197.5 -30q-114 0 -198 43.5t-139 115.5 t-82 164.5t-27 189.5zM254 608h560v49q0 68 -15 129t-47 106.5t-82.5 72.5t-121.5 27q-70 0 -123 -31.5t-89.5 -84.5t-57 -122.5t-24.5 -145.5zM415 1229l265 332h175l-343 -332h-97z" />
<glyph unicode="&#xea;" horiz-adv-x="1056" d="M126 492v77q0 93 25.5 185.5t78 167t132.5 121t189 46.5q108 0 181.5 -37.5t119.5 -102t66 -152t20 -186.5v-97h-686q0 -93 22 -172.5t66.5 -138t113 -91.5t161.5 -32q73 2 143.5 25.5t125.5 65.5l37 -81q-60 -51 -151.5 -81t-197.5 -30q-114 0 -198 43.5t-139 115.5 t-82 164.5t-27 189.5zM245 1230l266 331h85l272 -331h-99l-215 206l-211 -206h-98zM254 608h560v49q0 68 -15 129t-47 106.5t-82.5 72.5t-121.5 27q-70 0 -123 -31.5t-89.5 -84.5t-57 -122.5t-24.5 -145.5z" />
<glyph unicode="&#xeb;" horiz-adv-x="1056" d="M126 492v77q0 93 25.5 185.5t78 167t132.5 121t189 46.5q108 0 181.5 -37.5t119.5 -102t66 -152t20 -186.5v-97h-686q0 -93 22 -172.5t66.5 -138t113 -91.5t161.5 -32q73 2 143.5 25.5t125.5 65.5l37 -81q-60 -51 -151.5 -81t-197.5 -30q-114 0 -198 43.5t-139 115.5 t-82 164.5t-27 189.5zM254 608h560v49q0 68 -15 129t-47 106.5t-82.5 72.5t-121.5 27q-70 0 -123 -31.5t-89.5 -84.5t-57 -122.5t-24.5 -145.5zM289 1327v137h127v-137h-127zM668 1327v137h127v-137h-127z" />
<glyph unicode="&#xec;" horiz-adv-x="517" d="M-75 1555h175l265 -332h-97zM196 0v1067h125v-1067h-125z" />
<glyph unicode="&#xed;" horiz-adv-x="517" d="M157 1222l265 332h175l-343 -332h-97zM196 0v1067h125v-1067h-125z" />
<glyph unicode="&#xee;" horiz-adv-x="528" d="M-46 1223l266 331h85l271 -331h-99l-215 206l-210 -206h-98zM200 0v1067h125v-1067h-125z" />
<glyph unicode="&#xef;" horiz-adv-x="528" d="M11 1327v137h126v-137h-126zM200 0v1067h125v-1067h-125zM390 1327v137h126v-137h-126z" />
<glyph unicode="&#xf0;" horiz-adv-x="1144" d="M126 462q0 115 31 210.5t88 164t138 106t180 37.5q88 0 169 -34.5t141 -99.5l2 4q-8 122 -47.5 220t-102.5 174l-296 -182l-47 69l280 175q-42 38 -91 67.5t-103 48.5l34 95q70 -23 135 -60.5t122 -89.5l226 144l50 -68l-215 -139q94 -113 141.5 -265.5t47.5 -341.5v-124 q0 -121 -28.5 -229t-84 -189t-138 -128.5t-189.5 -47.5q-98 0 -179 37.5t-140 102.5t-91.5 153.5t-32.5 189.5zM251 482q0 -84 21.5 -157.5t62.5 -128t100 -86.5t135 -32q75 0 133.5 34t98.5 97t60.5 151.5t20.5 196.5q0 51 -0.5 85t-0.5 63q-18 35 -47.5 67t-69 56t-89 38 t-107.5 14q-72 0 -130.5 -30.5t-100 -84t-64.5 -126t-23 -157.5z" />
<glyph unicode="&#xf1;" horiz-adv-x="1157" d="M195 0v1067h99l15 -173q27 41 62 76.5t77.5 62t92 41.5t105.5 15q87 0 148 -27.5t99.5 -78t56.5 -120t18 -153.5v-710h-126v709q0 64 -13 115.5t-40 87.5t-69.5 55.5t-101.5 19.5q-39 0 -80 -12.5t-80 -36.5t-74 -59t-63 -80v-799h-126zM263 1305q0 42 14.5 76.5t38.5 60 t55.5 39.5t66.5 14q49 0 88.5 -14.5t73.5 -32.5t63.5 -32.5t59.5 -14.5q42 0 70.5 29.5t28.5 77.5l69 -17q0 -42 -14.5 -77.5t-38.5 -61t-56.5 -39.5t-68.5 -14q-44 0 -81 15t-70.5 32.5t-65 32.5t-65.5 15q-24 0 -42.5 -10t-30.5 -25t-18 -33.5t-6 -34.5z" />
<glyph unicode="&#xf2;" horiz-adv-x="1119" d="M127 493v68q-2 105 26 200.5t83 168.5t136.5 116t186.5 43q103 0 183.5 -41t136 -112.5t85 -167.5t29.5 -207v-74q0 -108 -28.5 -201t-83.5 -161.5t-135.5 -107t-184.5 -38.5t-184.5 38.5t-136 107t-84.5 162.5t-29 206zM235 1562h175l265 -332h-97zM252 493 q0 -83 19.5 -159t58.5 -133.5t96.5 -91.5t134.5 -34q76 0 133.5 32.5t96 88.5t58 131t19.5 160v74q0 94 -22 173.5t-62.5 137t-97.5 89.5t-127 32q-74 0 -131 -32t-96 -89t-59.5 -136.5t-20.5 -174.5v-68z" />
<glyph unicode="&#xf3;" horiz-adv-x="1119" d="M127 493v68q-2 105 26 200.5t83 168.5t136.5 116t186.5 43q103 0 183.5 -41t136 -112.5t85 -167.5t29.5 -207v-74q0 -108 -28.5 -201t-83.5 -161.5t-135.5 -107t-184.5 -38.5t-184.5 38.5t-136 107t-84.5 162.5t-29 206zM252 493q0 -83 19.5 -159t58.5 -133.5t96.5 -91.5 t134.5 -34q76 0 133.5 32.5t96 88.5t58 131t19.5 160v74q0 94 -22 173.5t-62.5 137t-97.5 89.5t-127 32q-74 0 -131 -32t-96 -89t-59.5 -136.5t-20.5 -174.5v-68zM439 1229l265 332h175l-343 -332h-97z" />
<glyph unicode="&#xf4;" horiz-adv-x="1119" d="M127 493v68q-2 105 26 200.5t83 168.5t136.5 116t186.5 43q103 0 183.5 -41t136 -112.5t85 -167.5t29.5 -207v-74q0 -108 -28.5 -201t-83.5 -161.5t-135.5 -107t-184.5 -38.5t-184.5 38.5t-136 107t-84.5 162.5t-29 206zM251 1230l266 331h85l272 -331h-99l-215 206 l-211 -206h-98zM252 493q0 -83 19.5 -159t58.5 -133.5t96.5 -91.5t134.5 -34q76 0 133.5 32.5t96 88.5t58 131t19.5 160v74q0 94 -22 173.5t-62.5 137t-97.5 89.5t-127 32q-74 0 -131 -32t-96 -89t-59.5 -136.5t-20.5 -174.5v-68z" />
<glyph unicode="&#xf5;" horiz-adv-x="1119" d="M127 493v68q-2 105 26 200.5t83 168.5t136.5 116t186.5 43q103 0 183.5 -41t136 -112.5t85 -167.5t29.5 -207v-74q0 -108 -28.5 -201t-83.5 -161.5t-135.5 -107t-184.5 -38.5t-184.5 38.5t-136 107t-84.5 162.5t-29 206zM241 1305q0 42 14.5 76.5t38.5 60t55.5 39.5 t66.5 14q49 0 88.5 -14.5t73.5 -32.5t63.5 -32.5t59.5 -14.5q42 0 70.5 29.5t28.5 77.5l69 -17q0 -42 -14.5 -77.5t-38.5 -61t-56.5 -39.5t-68.5 -14q-44 0 -81 15t-70.5 32.5t-65 32.5t-65.5 15q-24 0 -42.5 -10t-30.5 -25t-18 -33.5t-6 -34.5zM252 493q0 -83 19.5 -159 t58.5 -133.5t96.5 -91.5t134.5 -34q76 0 133.5 32.5t96 88.5t58 131t19.5 160v74q0 94 -22 173.5t-62.5 137t-97.5 89.5t-127 32q-74 0 -131 -32t-96 -89t-59.5 -136.5t-20.5 -174.5v-68z" />
<glyph unicode="&#xf6;" horiz-adv-x="1119" d="M127 493v68q-2 105 26 200.5t83 168.5t136.5 116t186.5 43q103 0 183.5 -41t136 -112.5t85 -167.5t29.5 -207v-74q0 -108 -28.5 -201t-83.5 -161.5t-135.5 -107t-184.5 -38.5t-184.5 38.5t-136 107t-84.5 162.5t-29 206zM252 493q0 -83 19.5 -159t58.5 -133.5t96.5 -91.5 t134.5 -34q76 0 133.5 32.5t96 88.5t58 131t19.5 160v74q0 94 -22 173.5t-62.5 137t-97.5 89.5t-127 32q-74 0 -131 -32t-96 -89t-59.5 -136.5t-20.5 -174.5v-68zM304 1326v137h127v-137h-127zM683 1326v137h127v-137h-127z" />
<glyph unicode="&#xf7;" horiz-adv-x="1176" d="M171 650v98h829v-98h-829zM523 167v148h132v-148h-132zM523 1059v148h132v-148h-132z" />
<glyph unicode="&#xf8;" horiz-adv-x="1119" d="M127 493v68q-2 105 26 200.5t83 168.5t136.5 116t186.5 43q90 0 166 -35l62 140h117l-87 -196q85 -71 130.5 -185t45.5 -252v-74q0 -108 -28.5 -201t-83.5 -161.5t-135.5 -107t-184.5 -38.5q-47 0 -89 8.5t-79 23.5l-64 -148h-117l86 203q-84 68 -127.5 178t-43.5 249z M252 493q0 -83 19.5 -159t58.5 -133.5t96.5 -91.5t134.5 -34q76 0 133 32.5t95.5 88.5t58 131t19.5 160v74q0 94 -22 173.5t-62.5 137t-97 89.5t-126.5 32q-74 0 -131 -32t-96 -89t-59.5 -136.5t-20.5 -174.5v-68z" />
<glyph unicode="&#xf9;" horiz-adv-x="1162" d="M189 370v697h126v-698q0 -69 11.5 -123t38.5 -90.5t70.5 -56t107.5 -19.5q47 0 93.5 18.5t85.5 47t67.5 63.5t40.5 67v791h126v-873q0 -14 3 -32t9 -37.5t15.5 -38t24.5 -31.5l-64 -74q-43 29 -69.5 75.5t-33.5 97.5q-27 -38 -62.5 -70.5t-77.5 -55.5t-89.5 -36 t-97.5 -13q-87 0 -149 28t-101 79.5t-57 123.5t-18 160zM244 1555h175l265 -332h-97z" />
<glyph unicode="&#xfa;" horiz-adv-x="1162" d="M189 370v697h126v-698q0 -69 11.5 -123t38.5 -90.5t70.5 -56t107.5 -19.5q47 0 93.5 18.5t85.5 47t67.5 63.5t40.5 67v791h126v-873q0 -14 3 -32t9 -37.5t15.5 -38t24.5 -31.5l-64 -74q-43 29 -69.5 75.5t-33.5 97.5q-27 -38 -62.5 -70.5t-77.5 -55.5t-89.5 -36 t-97.5 -13q-87 0 -149 28t-101 79.5t-57 123.5t-18 160zM449 1222l265 332h175l-343 -332h-97z" />
<glyph unicode="&#xfb;" horiz-adv-x="1162" d="M189 370v697h126v-698q0 -69 11.5 -123t38.5 -90.5t70.5 -56t107.5 -19.5q47 0 93.5 18.5t85.5 47t67.5 63.5t40.5 67v791h126v-873q0 -14 3 -32t9 -37.5t15.5 -38t24.5 -31.5l-64 -74q-43 29 -69.5 75.5t-33.5 97.5q-27 -38 -62.5 -70.5t-77.5 -55.5t-89.5 -36 t-97.5 -13q-87 0 -149 28t-101 79.5t-57 123.5t-18 160zM259 1223l266 331h85l272 -331h-99l-215 206l-211 -206h-98z" />
<glyph unicode="&#xfc;" horiz-adv-x="1162" d="M189 370v697h126v-698q0 -69 11.5 -123t38.5 -90.5t70.5 -56t107.5 -19.5q47 0 93.5 18.5t85.5 47t67.5 63.5t40.5 67v791h126v-873q0 -14 3 -32t9 -37.5t15.5 -38t24.5 -31.5l-64 -74q-43 29 -69.5 75.5t-33.5 97.5q-27 -38 -62.5 -70.5t-77.5 -55.5t-89.5 -36 t-97.5 -13q-87 0 -149 28t-101 79.5t-57 123.5t-18 160zM320 1326v137h127v-137h-127zM699 1326v137h127v-137h-127z" />
<glyph unicode="&#xfd;" horiz-adv-x="960" d="M55 1067h133l267 -805l26 -102h6l25 102q66 202 129.5 403t130.5 402h133l-434 -1243q-19 -56 -41 -104t-51.5 -83t-69 -55t-92.5 -20q-16 0 -47 3t-59 11l13 96q13 -3 35 -6t45 -3q29 0 52 12t43 37.5t38.5 66.5t39.5 99l50 139zM361 1222l265 332h175l-343 -332h-97z " />
<glyph unicode="&#xfe;" horiz-adv-x="1142" d="M193 1558h128v-630q48 75 123.5 117.5t179.5 42.5q93 0 166 -38.5t123.5 -109.5t76.5 -170.5t26 -222.5v-82q0 -103 -26.5 -192t-77 -154t-122.5 -102.5t-163 -37.5q-105 0 -181.5 41.5t-124.5 109.5v-547h-125v458v15v32t-0.5 65.5t-0.5 115t-0.5 181t-0.5 264t-0.5 364 t-0.5 480.5zM321 256q12 -33 39 -65t64.5 -56.5t82.5 -40t92 -15.5q65 0 119 24t92.5 72t59.5 120.5t21 169.5v82q0 104 -19.5 185.5t-58 138t-94.5 86.5t-128 30q-94 0 -162.5 -47t-107.5 -141v-543z" />
<glyph unicode="&#xff;" horiz-adv-x="960" d="M55 1067h133l267 -805l26 -102h6l25 102q66 202 129.5 403t130.5 402h133l-434 -1243q-19 -56 -41 -104t-51.5 -83t-69 -55t-92.5 -20q-16 0 -47 3t-59 11l13 96q13 -3 35 -6t45 -3q29 0 52 12t43 37.5t38.5 66.5t39.5 99l50 139zM238 1353v137h127v-137h-127zM617 1353 v137h127v-137h-127z" />
<glyph unicode="&#x152;" horiz-adv-x="1847" d="M135 647v107q0 174 36 308.5t106 227t171.5 140t233.5 47.5q95 0 154 -8.5t73 -12.5h843v-98h-717v-550h620v-98h-620v-612h730v-98h-851q-2 0 -21.5 -3.5t-51 -7t-73 -7t-87.5 -3.5q-129 0 -230 47.5t-171.5 134.5t-107.5 210.5t-37 275.5zM260 687q0 -151 32.5 -265 t88.5 -190t131 -114.5t159 -38.5q51 0 93.5 4.5t73.5 10.5t49.5 11t21.5 6v1227q-21 11 -75.5 25t-138.5 14q-110 0 -191.5 -43t-135.5 -121t-81 -186.5t-27 -239.5v-100z" />
<glyph unicode="&#x153;" horiz-adv-x="1801" d="M127 504v48q-2 107 26 204t83 171t136 118t186 44q133 0 227 -69t147 -188q24 56 59.5 103t80.5 81.5t100.5 53.5t120.5 19q108 0 182.5 -37.5t121 -103t67 -153t20.5 -187.5v-93h-688q0 -78 18.5 -155.5t60.5 -140t109.5 -101t165.5 -38.5q82 0 150 25t122 67l40 -80 q-58 -49 -142 -81t-196 -32q-72 0 -132 17.5t-109 49t-86 76.5t-63 100q-50 -117 -144 -180t-230 -63q-104 0 -184.5 39.5t-135.5 109t-84 166t-29 210.5zM252 502q0 -85 19.5 -162.5t58.5 -136t96.5 -93.5t133.5 -35q87 0 146 37.5t95 98t52 137t16 153.5v51 q0 96 -22 176.5t-63 139t-98.5 91.5t-127.5 33q-74 0 -131 -32.5t-96 -91t-59 -139.5t-20 -177v-50zM998 609h561v45q0 67 -14.5 128.5t-46.5 108t-82.5 74t-122.5 27.5q-74 0 -129.5 -34.5t-92.5 -89.5t-55 -123.5t-18 -135.5z" />
<glyph unicode="&#x178;" horiz-adv-x="1067" d="M-6 1456h138l409 -814l397 814h134l-473 -937v-519h-126v530zM280 1657v138h127v-138h-127zM675 1657v138h127v-138h-127z" />
<glyph unicode="&#x2c6;" horiz-adv-x="719" d="M48 1221l266 331h85l272 -331h-99l-215 206l-211 -206h-98z" />
<glyph unicode="&#x2dc;" horiz-adv-x="894" d="M134 1295q0 42 14.5 76.5t38.5 60t55.5 39.5t66.5 14q49 0 88.5 -14.5t73.5 -32.5t63.5 -32.5t59.5 -14.5q42 0 70.5 29.5t28.5 77.5l69 -17q0 -42 -14.5 -77.5t-38.5 -61t-56.5 -39.5t-68.5 -14q-44 0 -81 15t-70.5 32.5t-65 32.5t-65.5 15q-24 0 -42.5 -10t-30.5 -25 t-18 -33.5t-6 -34.5z" />
<glyph unicode="&#x2000;" horiz-adv-x="943" />
<glyph unicode="&#x2001;" horiz-adv-x="1886" />
<glyph unicode="&#x2002;" horiz-adv-x="943" />
<glyph unicode="&#x2003;" horiz-adv-x="1886" />
<glyph unicode="&#x2004;" horiz-adv-x="628" />
<glyph unicode="&#x2005;" horiz-adv-x="471" />
<glyph unicode="&#x2006;" horiz-adv-x="314" />
<glyph unicode="&#x2007;" horiz-adv-x="314" />
<glyph unicode="&#x2008;" horiz-adv-x="235" />
<glyph unicode="&#x2009;" horiz-adv-x="377" />
<glyph unicode="&#x200a;" horiz-adv-x="104" />
<glyph unicode="&#x2010;" horiz-adv-x="642" d="M97 564v98h448v-98h-448z" />
<glyph unicode="&#x2011;" horiz-adv-x="642" d="M97 564v98h448v-98h-448z" />
<glyph unicode="&#x2012;" horiz-adv-x="642" d="M97 564v98h448v-98h-448z" />
<glyph unicode="&#x2013;" horiz-adv-x="1017" d="M97 564v98h823v-98h-823z" />
<glyph unicode="&#x2014;" horiz-adv-x="1541" d="M97 564v98h1347v-98h-1347z" />
<glyph unicode="&#x2018;" horiz-adv-x="403" d="M124 1054v178l108 327h67l-47 -319v-186h-128z" />
<glyph unicode="&#x2019;" horiz-adv-x="403" d="M104 1054l47 314v191h128v-181l-108 -324h-67z" />
<glyph unicode="&#x201a;" horiz-adv-x="402" d="M103 -237l47 290v206h129v-192l-107 -304h-69z" />
<glyph unicode="&#x201c;" horiz-adv-x="673" d="M124 1054v178l108 327h67l-47 -319v-186h-128zM394 1054v178l108 327h68l-47 -319v-186h-129z" />
<glyph unicode="&#x201d;" horiz-adv-x="676" d="M103 1054l47 314v191h129v-181l-108 -324h-68zM376 1054l47 314v191h129v-181l-108 -324h-68z" />
<glyph unicode="&#x201e;" horiz-adv-x="667" d="M103 -231l47 305v193h128v-181l-108 -317h-67zM369 -231l47 307v191h127v-181l-108 -317h-66z" />
<glyph unicode="&#x2022;" horiz-adv-x="689" d="M174 733v53q0 35 10 66t31 54.5t52.5 37t75.5 13.5q40 0 72 -13.5t54 -37t33.5 -54.5t11.5 -66v-53q0 -35 -10.5 -65.5t-32 -53.5t-53.5 -36.5t-75 -13.5q-41 0 -72.5 13t-53 36t-32.5 54t-11 66z" />
<glyph unicode="&#x2026;" horiz-adv-x="1353" d="M203 0v148h132v-148h-132zM614 0v148h132v-148h-132zM1027 0v148h132v-148h-132z" />
<glyph unicode="&#x202f;" horiz-adv-x="377" />
<glyph unicode="&#x2039;" horiz-adv-x="608" d="M128 542v17l280 385h93l-237 -394l237 -395h-93z" />
<glyph unicode="&#x203a;" horiz-adv-x="607" d="M114 156l237 394l-237 395h92l280 -386v-18l-280 -385h-92z" />
<glyph unicode="&#x205f;" horiz-adv-x="471" />
<glyph unicode="&#x20ac;" horiz-adv-x="1121" d="M131 530v98h138v189h-138v98h138q0 125 33.5 228.5t101 177.5t168.5 115t236 41q57 0 109 -8.5t112 -23.5l-13 -98q-51 15 -104 24t-104 9q-108 0 -186 -34.5t-128.5 -96t-75 -147t-24.5 -187.5h523v-98h-523v-189h523v-98h-518q0 -90 24.5 -172t75.5 -144t128 -98.5 t181 -36.5q51 0 104.5 6.5t103.5 22.5l13 -95q-57 -15 -110 -24.5t-110 -9.5q-136 0 -236 43t-166.5 117.5t-100.5 175t-37 215.5h-138z" />
<glyph unicode="&#x2122;" horiz-adv-x="1251" d="M135 1392v64h348v-64h-135v-473h-77v473h-136zM572 919v537h89l164 -429h5l162 429h88v-537h-71v396h-3l-156 -396h-45l-160 401h-2v-401h-71z" />
<glyph unicode="&#x25fc;" horiz-adv-x="1065" d="M0 0v1065h1065v-1065h-1065z" />
<glyph unicode="&#xfb02;" horiz-adv-x="1134" d="M55 973v94h156v186q0 163 69.5 245.5t197.5 82.5q34 0 69 -7t68 -19l-18 -93q-30 8 -54.5 12.5t-50.5 4.5q-81 0 -118 -54t-37 -172v-186h241v-94h-241v-973h-126v973h-156zM785 233v1326h126v-1322q0 -43 4 -72.5t14 -48t25 -26.5t38 -8q19 0 33.5 4t28.5 9l17 -87 q-23 -14 -54.5 -21.5t-63.5 -7.5q-35 0 -66 12t-53.5 41.5t-35.5 78t-13 122.5z" />
</font>
</defs>
</svg>
